<svg xmlns="http://www.w3.org/2000/svg" width="7.636" height="10.181" viewBox="0 0 7.636 10.181">
  <g id="Group_3" data-name="Group 3" transform="translate(-64)">
    <path id="Path_10" data-name="Path 10" d="M213.68,278.864l-.134,1.2a.212.212,0,0,0,.211.236h.848a.212.212,0,0,0,.211-.236l-.134-1.2a.839.839,0,0,0,.347-.682.848.848,0,1,0-1.7,0A.839.839,0,0,0,213.68,278.864Zm.5-1.107a.423.423,0,0,1,.183.8.212.212,0,0,0-.118.214l.123,1.1h-.375l.123-1.1a.212.212,0,0,0-.118-.214.423.423,0,0,1,.183-.8Z" transform="translate(-146.363 -271.818)" fill="#fff"/>
    <path id="Path_11" data-name="Path 11" d="M71.424,3.818h-.636V2.97a2.97,2.97,0,0,0-5.939,0v.848h-.636A.212.212,0,0,0,64,4.03v5.3a.849.849,0,0,0,.848.848h5.939a.849.849,0,0,0,.848-.848V4.03A.212.212,0,0,0,71.424,3.818ZM65.273,2.97a2.545,2.545,0,0,1,5.091,0v.848h-.424V2.97a2.121,2.121,0,0,0-4.242,0v.848h-.424Zm4.242.848H66.121V2.97a1.7,1.7,0,0,1,3.394,0Zm1.7,5.515a.425.425,0,0,1-.424.424H64.848a.425.425,0,0,1-.424-.424V4.242h6.788Z" fill="#fff"/>
  </g>
</svg>
