<svg id="Layer_1" data-name="Layer 1" xmlns="http://www.w3.org/2000/svg" viewBox="0 0 100 100"><defs><style>.cls-1{fill:#2d948d;}</style></defs><title>icon Add</title><path class="cls-1" d="M71.56,43.62v-18A2.08,2.08,0,0,0,71,24.25L50.8,3.06a2,2,0,0,0-1.44-.62h-32A10.66,10.66,0,0,0,6.74,13.17v60.5A10.58,10.58,0,0,0,17.36,84.31H42.62A27.26,27.26,0,1,0,71.56,43.62ZM51.34,9.4,64.88,23.65H56.1a4.79,4.79,0,0,1-4.76-4.77Zm-34,70.95a6.64,6.64,0,0,1-6.66-6.68V13.17a6.69,6.69,0,0,1,6.66-6.76h30V18.88a8.75,8.75,0,0,0,8.73,8.74H67.59V43.1C67,43.08,66.52,43,66,43a27.68,27.68,0,0,0-18.08,6.82H22.75a2,2,0,0,0,0,4H44.24A31.26,31.26,0,0,0,40.75,60h-18a2,2,0,0,0,0,4H39.46a26.94,26.94,0,0,0-.75,6.38,26.38,26.38,0,0,0,1.94,10.07H17.36ZM66,93.61A23.29,23.29,0,1,1,89.28,70.32,23.31,23.31,0,0,1,66,93.61Zm0,0"/><path class="cls-1" d="M22.75,43.87H42.83a2,2,0,1,0,0-4H22.75a2,2,0,0,0,0,4Zm0,0"/><path class="cls-1" d="M74.06,68.46H68V62.29a2,2,0,1,0-4,0v6.17H57.86a2,2,0,1,0,0,4H64v6.07a2,2,0,1,0,4,0V72.42h6.07a2,2,0,0,0,0-4Zm0,0"/></svg>