<svg id="Capa_1" data-name="Capa 1" xmlns="http://www.w3.org/2000/svg" viewBox="0 0 512 512"><defs><style>.cls-1{fill:#4f4f4f;}</style></defs><title>address</title><path class="cls-1" d="M511.86,221.49a44.68,44.68,0,0,0-15.58-30.72l-44.28-38V44.94a15,15,0,0,0-15-15H377a14.84,14.84,0,0,0-14.8,15V75.67L286.29,11a44.77,44.77,0,0,0-58.52-.05l-212,179.84a45,45,0,0,0-4.87,63.47,45.46,45.46,0,0,0,49.35,13.11V496.93a14.83,14.83,0,0,0,14.8,15H437a15,15,0,0,0,15-15V267.35a45,45,0,0,0,59.86-45.86ZM392,59.94h30.2V127.1L392,101.39Zm-74.8,422H195V361.74H317.2Zm29.8,0v-135a15,15,0,0,0-15-15H180a14.83,14.83,0,0,0-14.8,15v135H90V245.78L257,104.16,422.2,245.64V481.93ZM478.39,234.69a15,15,0,0,1-21.16,1.64L266.77,73.06a15,15,0,0,0-19.47,0L54.79,236.32a15,15,0,0,1-19.6-22.73L247.24,33.76a14.94,14.94,0,0,1,19.53,0l210,179.8A15,15,0,0,1,478.39,234.69Z"/><path class="cls-1" d="M302,179.94H210a14.82,14.82,0,0,0-14.8,15v90a14.82,14.82,0,0,0,14.8,15h92a15,15,0,0,0,15-15v-90A15,15,0,0,0,302,179.94Zm-14.8,90H225v-60H287.2Z"/><circle class="cls-1" cx="272" cy="406.93" r="15"/></svg>