<svg id="Capa_1" data-name="Capa 1" xmlns="http://www.w3.org/2000/svg" viewBox="0 0 512 512"><defs><style>.cls-1{fill:#4f4f4f;}</style></defs><title>booth</title><path class="cls-1" d="M196,226a10,10,0,1,0,10,10A10,10,0,0,0,196,226Z"/><path class="cls-1" d="M156,449a10,10,0,1,0,10,10A10,10,0,0,0,156,449Z"/><path class="cls-1" d="M476,492H446V70a30,30,0,0,0-30-30H406V30A30,30,0,0,0,376,0H136a30,30,0,0,0-30,30V40H96A30,30,0,0,0,66,70V492H36a10,10,0,0,0,0,20H476a10,10,0,0,0,0-20ZM416,60a10,10,0,0,1,10,10V492H406V60ZM386,365.17H126V143H386Zm-260,20H386V492H126ZM126,30a10,10,0,0,1,10-10H376a10,10,0,0,1,10,10v93H126ZM86,70A10,10,0,0,1,96,60h10V492H86Z"/><path class="cls-1" d="M276,226H236a10,10,0,0,0,0,20h40a10,10,0,0,0,0-20Z"/><path class="cls-1" d="M156,306H356a10,10,0,0,0,10-10V176a10,10,0,0,0-10-10H156a10,10,0,0,0-10,10V296A10,10,0,0,0,156,306Zm190-60H326V225.38h20Zm-20,40V266h20v20Zm20-80.62H326V186h20ZM166,186H306V286H166Z"/><path class="cls-1" d="M316,326H196a10,10,0,0,0,0,20H316a10,10,0,0,0,0-20Z"/><path class="cls-1" d="M176,100H336a10,10,0,0,0,10-10V50a10,10,0,0,0-10-10H176a10,10,0,0,0-10,10V90A10,10,0,0,0,176,100Zm10-40H326V80H186Z"/></svg>