<svg id="Layer_1" data-name="Layer 1" xmlns="http://www.w3.org/2000/svg" viewBox="0 0 392.47 398.12"><defs><style>.cls-1,.cls-2{fill:#4f4f4f;}.cls-2{font-size:79.84px;font-family:Roboto-Black, Roboto;font-weight:800;}</style></defs><title>BRANCH</title><path class="cls-1" d="M377.18,147.41a6,6,0,0,0,6-6v-96a6,6,0,0,0-6-6h-6v-18a6,6,0,0,0-6-6h-336a6,6,0,0,0-6,6v18h-6a6,6,0,0,0-6,6v96a6,6,0,0,0,6,6h6v204h-6a6,6,0,0,0-6,6v24a6,6,0,0,0,6,6h360a6,6,0,0,0,6-6v-24a6,6,0,0,0-6-6h-6v-204Zm-342-120h324v12h-324Zm-12,24h348v84h-348Zm336,156h-72v-36h72Zm-84,0h-72v-36h72Zm-84,0h-72v-36h72Zm-84,0h-72v-36h72Zm264,168h-348v-12h348Zm-156-24h-12v-90a6,6,0,0,0-6-6h-120a6,6,0,0,0-6,6v90h-12v-108h156Zm-132,0v-84h48v84Zm60-84h48v84h-48Zm192,84h-72v-108h72Zm12,0v-114a6,6,0,0,0-6-6h-84a6,6,0,0,0-6,6v114h-24v-114a6,6,0,0,0-6-6h-168a6,6,0,0,0-6,6v114h-12v-132h324v132Zm12-192h-324v-12h324Zm0,0"/><path class="cls-1" d="M281.18,303.41h36a6,6,0,0,0,6-6v-36a6,6,0,0,0-6-6h-36a6,6,0,0,0-6,6v36a6,6,0,0,0,6,6Zm6-36h24v24h-24Zm0,0"/><text class="cls-2" transform="translate(35.18 121.94)">BRANCH</text></svg>