<?xml version="1.0" encoding="iso-8859-1"?>
<!-- Generator: Adobe Illustrator 23.0.1, SVG Export Plug-In . SVG Version: 6.00 Build 0)  -->
<svg version="1.1" id="Capa_1" xmlns="http://www.w3.org/2000/svg" xmlns:xlink="http://www.w3.org/1999/xlink" x="0px" y="0px"
	 viewBox="-49 141 512 512" style="enable-background:new -49 141 512 512;" xml:space="preserve">
<path style="fill:#2D948D;" d="M137.537,445H96c-2.652,0-5.195,1.054-7.071,2.929L49.95,486.908V455c0-5.522-4.478-10-10-10H26.667
	C-4.028,445-29,420.028-29,389.333V216.667C-29,185.972-4.028,161,26.667,161h296.666C354.028,161,379,185.972,379,216.667V303
	c0,5.522,4.478,10,10,10s10-4.478,10-10v-86.333C399,174.944,365.056,141,323.333,141H26.667C-15.056,141-49,174.944-49,216.667
	v172.666C-49,431.056-15.056,465,26.667,465h3.282v46.051c0,4.045,2.437,7.691,6.173,9.238c1.237,0.513,2.537,0.762,3.825,0.762
	c2.603,0,5.16-1.016,7.073-2.929L100.143,465h37.395c5.522,0,10-4.478,10-10S143.06,445,137.537,445z"/>
<path style="fill:#2D948D;" d="M209.916,379.099c-5.522,0-10,4.478-10,10v0.108c0,5.522,4.478,10,10,10s10-4.478,10-10v-0.108
	C219.916,383.576,215.438,379.099,209.916,379.099z"/>
<path style="fill:#2D948D;" d="M463,428.79c0-16.583-12.765-30.232-28.983-31.659c1.496-3.684,2.328-7.706,2.328-11.921v-0.42
	c0-17.529-14.261-31.79-31.789-31.79H265.088c-1.249,0-2.488,0.234-3.651,0.69l-16.369,6.42c-0.235-5.314-4.605-9.554-9.978-9.554
	h-52c-5.522,0-10,4.478-10,10v176c0,5.522,4.478,10,10,10h52c3.028,0,5.736-1.352,7.57-3.479l87.948,106.298
	c1.882,2.273,4.672,3.601,7.623,3.625c0.027,0,0.055,0,0.082,0c2.921,0,5.698-1.277,7.599-3.499l3.812-4.455
	c15.818-18.487,19.308-44.641,8.889-66.627L344.674,549h59.882c17.528,0,31.789-14.261,31.789-31.79v-0.42
	c0-4.215-0.832-8.237-2.328-11.921C450.235,503.442,463,489.793,463,473.21v-0.42c0-8.428-3.303-16.095-8.675-21.79
	c5.372-5.695,8.675-13.362,8.675-21.79V428.79z M193.09,526.556v-156h32v146.532c-0.078,0.719-0.079,1.446,0,2.168v7.3H193.09z
	 M443,473.21c0,6.501-5.289,11.79-11.79,11.79h-66.788c-5.522,0-10,4.478-10,10s4.478,10,10,10h40.134
	c6.501,0,11.789,5.289,11.789,11.79v0.42c0,6.501-5.288,11.79-11.789,11.79H328.87c-3.428,0-6.617,1.756-8.45,4.653
	c-1.833,2.896-2.055,6.53-0.587,9.628l20.705,43.701c6.164,13.008,5.131,28.171-2.387,40.135L245.09,514.639V381.584L266.979,373
	h137.577c6.501,0,11.789,5.289,11.789,11.79v0.42c0,6.501-5.288,11.79-11.789,11.79h-40.134c-5.522,0-10,4.478-10,10s4.478,10,10,10
	h40.134h26.654c6.501,0,11.79,5.289,11.79,11.79v0.42c0,6.501-5.289,11.79-11.79,11.79h-66.788c-5.522,0-10,4.478-10,10
	s4.478,10,10,10h66.788c6.501,0,11.79,5.289,11.79,11.79V473.21z"/>
<path style="fill:#2D948D;" d="M27,313h296c5.522,0,10-4.478,10-10s-4.478-10-10-10H27c-5.522,0-10,4.478-10,10S21.478,313,27,313z"
	/>
<path style="fill:#2D948D;" d="M27,249h242.488c5.522,0,10-4.478,10-10s-4.478-10-10-10H27c-5.522,0-10,4.478-10,10
	S21.478,249,27,249z"/>
<path style="fill:#2D948D;" d="M330.069,231.93C328.21,230.069,325.63,229,323,229s-5.21,1.069-7.07,2.93
	c-1.86,1.861-2.93,4.44-2.93,7.07c0,2.64,1.069,5.21,2.93,7.069c1.86,1.86,4.44,2.931,7.07,2.931s5.21-1.07,7.069-2.931
	C331.93,244.21,333,241.63,333,239S331.93,233.79,330.069,231.93z"/>
<path style="fill:#2D948D;" d="M137.537,357H27c-5.522,0-10,4.478-10,10s4.478,10,10,10h110.537c5.522,0,10-4.478,10-10
	S143.06,357,137.537,357z"/>
</svg>
