<svg id="Capa_1" data-name="Capa 1" xmlns="http://www.w3.org/2000/svg" viewBox="0 0 512 512"><defs><style>.cls-1{fill:#4f4f4f;}</style></defs><title>phone</title><path class="cls-1" d="M460.84,332.32a277.24,277.24,0,0,1-87-13.86c-13.62-4.65-30.37-.39-38.68,8.15L280.28,368c-63.64-34-102.83-73.15-136.34-136.31l40.2-53.44a39.43,39.43,0,0,0,9.71-40,277.42,277.42,0,0,1-13.91-87.16A39.21,39.21,0,0,0,140.78,12H51.16A39.21,39.21,0,0,0,12,51.16C12,298.65,213.35,500,460.84,500A39.21,39.21,0,0,0,500,460.84V371.47A39.2,39.2,0,0,0,460.84,332.32Z"/></svg>