<svg id="Capa_1" data-name="Capa 1" xmlns="http://www.w3.org/2000/svg" viewBox="0 0 512 512"><defs><style>.cls-1{fill:#2d948d;}</style></defs><title>driver add</title><path class="cls-1" d="M401.07,307.2a93.87,93.87,0,1,0,93.86,93.87,94,94,0,0,0-93.86-93.87m0,204.8A110.94,110.94,0,1,1,512,401.07,111.07,111.07,0,0,1,401.07,512"/><path class="cls-1" d="M452.27,409.6H349.87a8.54,8.54,0,1,1,0-17.07h102.4a8.54,8.54,0,0,1,0,17.07"/><path class="cls-1" d="M401.07,460.8a8.54,8.54,0,0,1-8.54-8.53V349.87a8.54,8.54,0,1,1,17.07,0v102.4a8.53,8.53,0,0,1-8.53,8.53"/><path class="cls-1" d="M324.9,477.87H8.53A8.54,8.54,0,0,1,0,469.33V433.17a76.92,76.92,0,0,1,40.11-67.58l76.14-41.53A22.56,22.56,0,0,0,128,304.26V276c-5.71-7.49-22.08-30.82-29.89-61.77a33.92,33.92,0,0,1-12.78-26.53V153.6a34,34,0,0,1,8.53-22.4V85.81c-.47-4.69-2.35-32.64,17.86-55.69,17.52-20,46-30.12,84.54-30.12s67,10.13,84.55,30.12c20.21,23.05,18.33,51,17.85,55.69V131.2a34,34,0,0,1,8.54,22.4v34.13a33.89,33.89,0,0,1-12.78,26.53c-7.81,31-24.17,54.28-29.89,61.77v28.23a22.55,22.55,0,0,0,11.76,19.8l38.65,21.08a8.53,8.53,0,0,1-8.18,15L268.11,339a39.62,39.62,0,0,1-20.65-34.78V273.07a8.6,8.6,0,0,1,2-5.47c.22-.25,21.18-25.74,29.11-60.3a8.54,8.54,0,0,1,3.69-5.26,17,17,0,0,0,7.89-14.31V153.6A16.84,16.84,0,0,0,284.41,141a8.51,8.51,0,0,1-2.81-6.33V85.33a8.27,8.27,0,0,1,.07-1.11c0-.21,2.77-24.23-13.84-43-14.16-16-38.24-24.14-71.57-24.14s-57.56,8.17-71.71,24.31c-16.62,19-13.72,42.6-13.7,42.84a6.91,6.91,0,0,1,.08,1.11v49.35a8.47,8.47,0,0,1-2.81,6.33,16.84,16.84,0,0,0-5.72,12.59v34.13A17,17,0,0,0,110.3,202,8.58,8.58,0,0,1,114,207.3c7.92,34.56,28.88,60.05,29.09,60.3a8.55,8.55,0,0,1,2,5.47v31.19A39.61,39.61,0,0,1,124.42,339L48.29,380.57a59.88,59.88,0,0,0-31.23,52.6V460.8H324.9a8.54,8.54,0,0,1,0,17.07"/></svg>