<svg id="Layer_1" data-name="Layer 1" xmlns="http://www.w3.org/2000/svg" viewBox="0 0 100 100"><defs><style>.cls-1{fill:#e2324b;}</style></defs><title>icon Delete</title><path class="cls-1" d="M85.55,14.84H62.19V10.72a4.07,4.07,0,0,0-4.06-4.07H41.87a4.07,4.07,0,0,0-4.06,4.07v4.12H14.45a2,2,0,0,0,0,4.09h3.79l2.59,67.29a7.62,7.62,0,0,0,7.63,7.34H71.54a7.62,7.62,0,0,0,7.63-7.34l2.59-67.29h3.79a2,2,0,0,0,0-4.09ZM41.9,10.74H58.1v4.1H41.9ZM75.08,86.06a3.53,3.53,0,0,1-3.54,3.41H28.46a3.53,3.53,0,0,1-3.54-3.41L22.34,18.93H77.66Z"/><path class="cls-1" d="M50,30.65A23.56,23.56,0,1,0,73.55,54.2,23.53,23.53,0,0,0,50,30.65Zm0,44A20.42,20.42,0,1,1,70.41,54.2,20.43,20.43,0,0,1,50,74.62Z"/><path class="cls-1" d="M61.87,42.33a1.94,1.94,0,0,0-2.75,0L50,51.45l-9.12-9.12a1.95,1.95,0,0,0-2.75,2.76l9.12,9.11-9.12,9.12a1.94,1.94,0,0,0,2.75,2.75L50,57l9.12,9.12a1.94,1.94,0,0,0,2.75-2.75L52.75,54.2l9.12-9.11A2,2,0,0,0,61.87,42.33Z"/></svg>