<svg id="Layer_1"  xmlns="http://www.w3.org/2000/svg" viewBox="0 0 1224 792">
    <defs>
        <style>
            .cls-1{fill:#00047e;stroke:#00047e;stroke-width:4.03px;}.cls-1,.cls-23{stroke-linecap:round;stroke-linejoin:round;}.cls-2{fill:#f06159;}.cls-3{fill:#f9a825;}.cls-4{fill:#f15c27;}.cls-14,.cls-16,.cls-18,.cls-21,.cls-22,.cls-23,.cls-24,.cls-25,.cls-26,.cls-5{fill:none;}.cls-5{stroke:#6c4b40;stroke-width:2.63px;}.cls-14,.cls-15,.cls-16,.cls-17,.cls-18,.cls-20,.cls-21,.cls-22,.cls-24,.cls-25,.cls-26,.cls-5{stroke-miterlimit:10;}.cls-6{fill:#6d4c41;}.cls-15,.cls-17,.cls-20,.cls-7{fill:#2d948d;}.cls-8{fill:#d93728;}.cls-9{fill:#62381b;}.cls-10{fill:#2bb673;}.cls-11{fill:#6c4b40;}.cls-12{fill:#00bcd4;}.cls-13{fill:#4fc3f7;}.cls-14,.cls-26{stroke:#2d948d;}.cls-14{stroke-width:7.33px;}.cls-15,.cls-16,.cls-17,.cls-18,.cls-20,.cls-23{stroke:#fff;}.cls-15,.cls-16{stroke-width:1.61px;}.cls-17,.cls-18{stroke-width:1.75px;}.cls-19{fill:#e81e25;}.cls-20{stroke-width:1.77px;}.cls-21{stroke:#f15c27;stroke-width:2.73px;}.cls-22{stroke:#62381b;stroke-width:21.89px;}.cls-23{stroke-width:4.14px;stroke-dasharray:23.69
            14.42;}.cls-24{stroke:#e2324b;stroke-width:2.75px;}.cls-25{stroke:#f9a825;stroke-width:2.77px;}.cls-26{stroke-width:2.63px;}.cls-27{fill:#e2324b;}
        </style>
    </defs>
    <title>V5</title>
    <path class="cls-1"
          d="M584.85,371.09h-9.57a2.62,2.62,0,0,0-2.62,2.62v101.6a2.62,2.62,0,0,1-3.77,2.35,16.59,16.59,0,0,1-4.49-3.15,10.72,10.72,0,0,1-3.52-8l.83-55.79a39.93,39.93,0,0,0-7.85-24.58c-5.93-8-13.4-13.06-22.08-13.06-8.92,0-18,1.22-21,8.37-1.74,4.11-1.26,7.43,3.65,6.23a40.89,40.89,0,0,1,9.68-1.13c5.24,0,12,2.28,15.1,5.64,3.56,3.86,4.7,5.77,4.27,13-1,15.63-14.53,22.9-28.74,31-1.34.76-2.85,1.12-3.88,0L502.74,427a2.6,2.6,0,0,1,.22-3.69c3.37-2.95,13.42-6.73,18-10.69,7-4.69,9.51-10.48,9.51-12.83q0-4.55-5.58-4.54c-1.65,0-4.93,1.44-9.81,4.34S506.75,404,504.68,404q-4.76,0-8.16-4.76a16.49,16.49,0,0,1-3.41-9.71q0-13.22,10.95-20.87,9.92-6.81,23.56-6.82,20.46,0,30.63,19.25a2.61,2.61,0,0,0,4.91-1.25V347.3a2.61,2.61,0,0,1,4.43-1.88l.66.64a2.62,2.62,0,0,1,.71,2.55l-.33,1.25a2.71,2.71,0,0,0-.1.75q.16,10.35,9.3,10.36h2a2.66,2.66,0,0,1,1.83.74l5,4.9A2.61,2.61,0,0,1,584.85,371.09Z"/>
    <path class="cls-1"
          d="M691.37,339.22a2.62,2.62,0,0,1-3.61,3.74,170.65,170.65,0,0,0-15.92-10.71,59.34,59.34,0,0,0-28.93-7.86q-10.53,0-22.93,8.06-13.85,9.1-13.85,18.81,0,.38,3.43,8a2.64,2.64,0,0,0,2.39,1.54h16a2.61,2.61,0,0,1,1.85.77l5.31,5.3a2.62,2.62,0,0,1-1.85,4.47h-17.1a2.61,2.61,0,0,0-2.62,2.61V476.35a2.61,2.61,0,0,1-4.44,1.87l-5.1-5a2.59,2.59,0,0,1-.79-1.87V373.91a2.61,2.61,0,0,0-2.62-2.61H573.14a2.57,2.57,0,0,1-1.86-.79l-5.21-5.3a2.62,2.62,0,0,1,1.87-4.45H598.1a2.61,2.61,0,0,0,1.88-4.42q-6-6.45-6-10,0-13,13.43-23.56,12.4-9.71,26-9.71,16.53,0,37,10.54Q684.7,330.91,691.37,339.22Z"/>
    <path class="cls-1"
          d="M728.27,371.26H616.84a2.63,2.63,0,0,1-1.87-.79l-5.2-5.31a2.61,2.61,0,0,1,1.87-4.44H722.75a2.62,2.62,0,0,1,1.82.73l5.51,5.31A2.61,2.61,0,0,1,728.27,371.26Zm-4.89,46.56c0,13.5-4.81,23.83-13.21,31.54a37.49,37.49,0,0,1-26,9.92q-38.79,0-61.32-77a2.62,2.62,0,0,1,3.51-3.17h0a2.66,2.66,0,0,1,1.41,1.41q12.51,29.76,19.83,39.91,15.5,21.7,37.19,21.7,25,0,28.73-18.18a35.15,35.15,0,0,0,.61-6.82q0-15.92-12.19-21.28a15.23,15.23,0,0,0-4.89-1.26,2.62,2.62,0,0,0-2.52,3.75,17.5,17.5,0,0,1,1.84,8.46,12.55,12.55,0,0,1-5,9.91,17.58,17.58,0,0,1-11.16,3.72q-8.06,0-12.71-5.26t-4.86-13.54q-.4-10.74,8.06-16.94,7.44-5.37,18.39-5.38a28.41,28.41,0,0,1,7.65,1C714.09,385.17,723.38,397.85,723.38,417.82Z"/>
    <path class="cls-2"
          d="M646.84,683a323.58,323.58,0,0,0,101.89-33.88,1.81,1.81,0,0,0,1-2.34l-1.11-2a1.79,1.79,0,0,0-2.45-.51l-1.51.8a2,2,0,0,1-1.71.11c-1.5-.63-3-1.27-4.46-1.92a1.47,1.47,0,0,1-.72-.67l-19.12-38a1.62,1.62,0,0,0-2.17-.71A268.19,268.19,0,0,1,665.59,623q1.5,5.67,3,11.33l1.07-.28.42,1.58q-5.18,1.38-10.39,2.57c-.12-.53-.25-1.06-.37-1.59l1.08-.25q-1.32-5.7-2.65-11.41-6,1.39-12.14,2.52a1.63,1.63,0,0,0-1.32,1.87q3.72,20.92,7.43,41.85a1.52,1.52,0,0,1-.18,1c-.79,1.4-1.6,2.81-2.41,4.21a2.06,2.06,0,0,1-1.44.93l-1.69.27a1.79,1.79,0,0,0-1.66,1.87c.11.77.23,1.54.34,2.31A1.8,1.8,0,0,0,646.84,683Zm16.69-9.63a2.66,2.66,0,0,1-5.14,1.05l-.33-1.67a.19.19,0,0,1,.16-.2c1.58-.31,3.15-.64,4.72-1a.18.18,0,0,1,.23.12Zm24.21-6.2a2.65,2.65,0,0,1-5,1.46c-.15-.55-.31-1.1-.46-1.65a.18.18,0,0,1,.14-.21c1.54-.44,3.08-.88,4.62-1.34a.2.2,0,0,1,.24.1Zm23.64-8.08a2.65,2.65,0,0,1-4.89,1.85l-.59-1.61a.19.19,0,0,1,.13-.22q2.25-.82,4.5-1.7a.19.19,0,0,1,.24.09Zm15.39-6.41a2.65,2.65,0,0,1-4.79,2.1c-.23-.52-.45-1-.68-1.57a.19.19,0,0,1,.11-.23c1.48-.63,3-1.28,4.41-1.93a.18.18,0,0,1,.25.07ZM711.59,643c-.11-.28-.23-.57-.35-.85q3.3-1.35,6.57-2.78c.13.28.25.56.37.84l-.68.3,2.88,6.63.7-.31c.12.28.24.57.37.85-2.25,1-4.5,1.93-6.77,2.86-.12-.28-.23-.57-.35-.85l.7-.29-2.75-6.68ZM707,631.64l-.35-.85q3.17-1.29,6.3-2.67c.13.28.25.56.37.85l-.65.28,2.88,6.63.67-.29.37.84c-2.16.94-4.32,1.86-6.5,2.75l-.35-.85.67-.28-2.75-6.68Zm27.38,17.56a2.66,2.66,0,0,1-4.74,2.23l-.72-1.56a.18.18,0,0,1,.11-.23c1.46-.67,2.91-1.36,4.36-2a.18.18,0,0,1,.25.06Zm-5.25-14.07-.67.32q1.58,3.25,3.14,6.51l.69-.33c.13.28.27.55.4.83-2.21,1.07-4.42,2.12-6.65,3.13l-.39-.83.69-.32-3-6.57-.68.31-.38-.84c2.16-1,4.32-2,6.46-3C728.82,634.58,729,634.85,729.09,635.13Zm-5.34-11-.64.31c1,2.17,2.09,4.34,3.14,6.5l.66-.31c.13.27.27.55.4.83-2.12,1-4.25,2-6.39,3-.13-.28-.26-.56-.38-.84l.66-.31c-1-2.18-2-4.37-3-6.56l-.65.3c-.12-.28-.25-.56-.38-.84,2.08-1,4.14-1.92,6.2-2.92C723.48,623.58,723.62,623.86,723.75,624.14Zm-23.28-5.59q7.53-3.06,14.88-6.55c.14.28.27.56.4.83l-.76.36,1.54,3.27c-2.14,1-4.28,2-6.44,2.93-.48-1.1-1-2.19-1.45-3.29l-.61.26,1.44,3.31q-3.24,1.41-6.51,2.75l-1.36-3.33-.78.31Zm3.06,7.55.8-.33c-.37-.91-.75-1.83-1.12-2.75,2.18-.89,4.36-1.82,6.52-2.76l1.2,2.72.62-.27-1.2-2.73q3.24-1.43,6.45-2.94c.43.9.85,1.79,1.27,2.69l.78-.37c.14.28.27.55.4.83q-7.59,3.62-15.37,6.76Zm10.11,30.3a.18.18,0,0,1,.12-.22c1.49-.6,3-1.2,4.46-1.82a.18.18,0,0,1,.24.08l.66,1.58a2.65,2.65,0,0,1-4.85,2Zm-14.95-13.82.69-.25-2.49-6.78-.67.24-.31-.86q3.21-1.17,6.4-2.42l.33.86-.66.26,2.61,6.74.68-.27c.11.29.23.57.34.86q-3.29,1.29-6.6,2.49Zm4.18,11.49.71-.26c-.83-2.26-1.65-4.52-2.48-6.79l-.7.26-.31-.87q3.35-1.21,6.67-2.51l.33.85-.69.27c.87,2.25,1.74,4.49,2.62,6.74l.7-.28c.11.29.23.58.34.86-2.28.89-4.57,1.76-6.87,2.59Zm.13,6.34c.19.54.38,1.08.58,1.61a2.65,2.65,0,0,1-4.94,1.72l-.55-1.62a.18.18,0,0,1,.13-.22q2.28-.76,4.54-1.58A.19.19,0,0,1,703,660.41Zm-15.47-14,.69-.23c-.74-2.29-1.47-4.58-2.21-6.87l-.68.21c-.09-.29-.19-.58-.28-.87q3.26-1,6.49-2.16l.3.87-.67.23,2.34,6.83.69-.23.3.87q-3.33,1.16-6.69,2.22C687.72,647,687.62,646.69,687.53,646.4ZM691.25,658l.72-.23-2.22-6.88-.7.22c-.09-.29-.19-.58-.28-.87,2.26-.73,4.52-1.48,6.76-2.25l.3.87-.7.24c.78,2.28,1.57,4.56,2.35,6.83l.71-.24c.11.29.21.58.31.87q-3.48,1.2-7,2.32C691.44,658.62,691.34,658.33,691.25,658Zm-1,6.63a.18.18,0,0,1,.13-.22c1.53-.47,3.06-1,4.59-1.45a.17.17,0,0,1,.23.09l.53,1.63a2.65,2.65,0,0,1-5,1.58C690.54,665.76,690.37,665.21,690.21,664.67Zm-14-14.91.7-.19q-1-3.48-1.94-7l-.68.19c-.08-.3-.17-.59-.25-.89q3.3-.92,6.57-1.9l.27.88-.68.21,2.07,6.92.7-.21.26.88c-2.25.68-4.51,1.34-6.77,2C676.39,650.36,676.3,650.06,676.22,649.76Zm3.26,11.78.73-.2q-1-3.48-1.94-7l-.72.2-.24-.89q3.44-.95,6.84-2l.27.88-.71.22,2.07,6.92.73-.22.27.88q-3.53,1.07-7.06,2Zm-.43,6.18a.17.17,0,0,1,.23.11l.45,1.65a2.65,2.65,0,0,1-5.06,1.32l-.42-1.66a.17.17,0,0,1,.15-.2C676,668.54,677.5,668.14,679.05,667.72Zm-14.27-15,.71-.17c-.55-2.34-1.11-4.69-1.66-7l-.69.16-.21-.89q3.33-.78,6.64-1.64l.23.89-.69.18,1.8,7,.71-.18.23.89q-3.42.89-6.86,1.69Zm2.79,11.9.74-.17c-.56-2.35-1.11-4.69-1.67-7l-.72.17-.21-.89c2.32-.55,4.63-1.11,6.93-1.71l.23.89-.72.19,1.8,7,.73-.19.23.89q-3.55.91-7.13,1.76Zm-1.39,6.49a.19.19,0,0,1,.16-.21c1.56-.35,3.13-.72,4.69-1.09a.17.17,0,0,1,.22.11c.14.56.27,1.11.41,1.67a2.65,2.65,0,0,1-5.1,1.18C666.43,672.18,666.31,671.62,666.18,671.07Zm-12.95-15.93.71-.14-1.38-7.09-.7.14-.17-.91q3.36-.64,6.71-1.37l.2.9-.7.15c.5,2.35,1,4.71,1.51,7.06l.72-.15.19.9c-2.3.5-4.6,1-6.92,1.42C653.34,655.74,653.29,655.44,653.23,655.14Zm2.31,12,.74-.14-1.38-7.09-.73.14c-.06-.3-.12-.61-.17-.91,2.33-.45,4.67-.92,7-1.43l.2.9-.73.16c.51,2.35,1,4.71,1.52,7.06l.74-.16.2.9q-3.6.78-7.21,1.48C655.65,667.75,655.59,667.44,655.54,667.14Z"/>
    <path class="cls-3"
          d="M415,96.32A384.85,384.85,0,0,0,364.6,139c-3.62,3.64-4.41,8.61-1.88,11l84.63,80.07c2.51-2.65,5.08-5.26,7.7-7.8l-15.3-15.74a6.1,6.1,0,0,1,.63-8.69q3.11-2.9,6.31-5.7c2.71-2.37,6.63-2.22,8.7.27l14.09,16.83a264.07,264.07,0,0,1,21.8-16.4q-32.56-48.3-65.12-96.61C424.22,93.37,419.2,93.34,415,96.32Zm7.65,8.25,1.78,2.52q-3.24,2.28-6.42,4.62c-1.2-1.63-2.4-3.27-3.61-4.9,1-.74,2-1.46,3-2.19C419.35,103.22,421.71,103.21,422.66,104.57Zm16,43.94c-1.66,1.26-3.82,1.24-4.84-.06L427.2,140c1.92-1.49,3.85-3,5.8-4.42l8.21,11C440.35,147.21,439.48,147.86,438.63,148.51Zm-12.41-9.77-1.89-2.44c-1-1.3-.43-3.47,1.34-4.82.91-.7,1.83-1.39,2.75-2.07l3.64,4.88Q429.12,136.48,426.22,138.74Zm-3.64-11.31c-1.79,1.36-4.06,1.42-5.08.11l-6.59-8.46c2.07-1.61,4.15-3.2,6.26-4.77l8.2,11Zm7.54.72c.93-.69,1.85-1.36,2.79-2,1.8-1.31,4-1.24,5,.12l1.78,2.52q-3,2.12-6,4.29C432.53,131.41,431.32,129.78,430.12,128.15Zm-.19-6.17c-.95.68-1.89,1.37-2.83,2.06L419,113q3.17-2.33,6.39-4.59l6.17,8.77C432.47,118.52,431.75,120.67,429.93,122Zm-20.31-11.59,3-2.23,3.64,4.88c-2.11,1.58-4.21,3.18-6.28,4.79L408,115.4C407,114.1,407.72,111.84,409.62,110.39Zm.34,44q2.73-2.43,5.5-4.8L424.37,160c-.82.7-1.64,1.4-2.45,2.11-1.57,1.36-3.72,1.49-4.83.25Zm11.72-12c-1.9,1.53-3.79,3.09-5.66,4.66l-3.92-4.66,2.64-2.2c1.72-1.42,4-1.5,5-.2Zm-17.15-.22c-1.7,1.47-3.95,1.68-5.06.45l-7.13-8c2-1.75,3.93-3.47,5.93-5.17l8.91,10.45C406.29,140.59,405.41,141.35,404.53,142.12Zm3.34,3.84,2.61-2.25c1.32,1.55,2.64,3.09,3.95,4.64-1.86,1.58-3.7,3.19-5.53,4.81l-2-2.3C405.75,149.62,406.2,147.42,407.87,146Zm9.17,2.25c1.86-1.57,3.74-3.11,5.64-4.64l6.73,8.35c1,1.29.57,3.4-1,4.72l-2.48,2.07Zm-4.27-16.92c1,1.3.46,3.49-1.27,4.92-.9.74-1.79,1.49-2.68,2.24L400,128q3-2.53,6.07-5Q409.4,127.13,412.77,131.29Zm-9.66-12,1.94,2.4c-2.05,1.65-4.09,3.33-6.1,5L395,122.08c.94-.8,1.89-1.59,2.84-2.37C399.72,118.18,402.07,118,403.11,119.31ZM390.48,126l2.81-2.42,3.95,4.63c-2,1.71-4,3.44-5.95,5.19-.69-.76-1.37-1.53-2.05-2.3C388.13,129.83,388.68,127.54,390.48,126Zm-5.91,9.32L395,146.62c1.12,1.22.69,3.45-.95,5L391.52,154l-9.52-9.9q2.83-2.73,5.73-5.39l-1.07-1.17c-1.94,1.79-3.86,3.59-5.76,5.42-1.4-1.47-2.81-2.93-4.21-4.39l2.68-2.56C381.11,134.39,383.45,134.07,384.57,135.29Zm14.7,26.79q-2.11-2.19-4.22-4.39c.82-.79,1.66-1.59,2.49-2.37,1.62-1.53,3.86-1.76,5-.53L413,166.11c1.12,1.22.78,3.36-.73,4.78l-2.34,2.23-9.52-9.9q2.64-2.52,5.32-5l-1.07-1.17Q401.91,159.54,399.27,162.08Zm-27.78-14.14c-1.19-1.16-.79-3.49.91-5.17.88-.87,1.76-1.74,2.65-2.6,1.41,1.46,2.83,2.91,4.24,4.36-1.89,1.84-3.75,3.7-5.6,5.58l1.12,1.11c1.84-1.87,3.71-3.72,5.59-5.55l9.57,9.84c-.84.81-1.67,1.63-2.49,2.45-1.6,1.59-3.84,1.95-5,.79Zm18.88,18.6c-1.19-1.16-.89-3.39.69-5l2.46-2.42,4.25,4.37c-1.76,1.7-3.49,3.43-5.21,5.17l1.13,1.11q2.56-2.59,5.18-5.15,4.78,4.92,9.58,9.85c-.78.75-1.55,1.5-2.31,2.26-1.48,1.47-3.62,1.73-4.81.57Zm59.79,13.84a1.76,1.76,0,0,1-.39,2.45q-9.87,8.16-19,17.15a1.78,1.78,0,0,1-2.49.14l-.08-.08a1.76,1.76,0,0,1,.18-2.49q9.22-9.09,19.21-17.35a1.77,1.77,0,0,1,2.5.09ZM459,158.52a310.08,310.08,0,0,0-40.22,34.09,1.27,1.27,0,0,1-1.77.16,1.25,1.25,0,0,1,.15-1.77,310.89,310.89,0,0,1,40.51-34.34,1.16,1.16,0,1,1,1.33,1.86Zm-3.1-4.36A314.92,314.92,0,0,0,415,188.84a1.29,1.29,0,0,1-1.79.18,1.28,1.28,0,0,1,.16-1.79,317.22,317.22,0,0,1,41.21-34.94,1.17,1.17,0,1,1,1.33,1.87Zm-3.1-4.36a319.73,319.73,0,0,0-41.61,35.27,1.17,1.17,0,1,1-1.62-1.62,322.2,322.2,0,0,1,41.91-35.52,1.17,1.17,0,1,1,1.32,1.87Zm-7.36-6.32-2.61,1.9-8.14-11.06q2.94-2.16,5.93-4.27l6.17,8.78C447.72,140.19,447.11,142.26,445.42,143.48Z"/>
    <path class="cls-4"
          d="M337.1,577.34h0c1.4,2.06,1.49,4.47.16,5.41l-1.5,1.06c-2.6,1.82-3.46,5.5-2.49,9.64.32,1.39.1,2.59-.7,3.19l-2.91,2.2c-1.31,1-1.05,3.52.62,5.65q4.19,5.34,8.62,10.48c1.77,2,4.22,2.78,5.43,1.69l2.72-2.44c.74-.66,2-.65,3.26-.07,3.88,1.74,7.65,1.6,9.95-.6l1.32-1.26c1.18-1.13,3.53-.58,5.28,1.19h0c1.75,1.77,4.13,2.23,5.26,1.06L431,554.05a166,166,0,0,1-23.27-28.26L337.07,572C335.71,572.86,335.7,575.28,337.1,577.34Zm13.81,8.55c-1,.75-2.66.17-3.76-1.3q-1.17-1.55-2.31-3.12c-1.08-1.49-1.12-3.28-.13-4l2.69-1.89c1-.7,2.64-.1,3.68,1.34.74,1,1.48,2,2.24,3,1.06,1.42,1.16,3.16.19,3.91Zm9.16-7.06c-1,.75-2.62.23-3.67-1.17-.74-1-1.47-2-2.2-3-1-1.42-1-3.15,0-3.85l2.69-1.9c1-.7,2.6-.15,3.59,1.22.7,1,1.41,1.93,2.13,2.89,1,1.35,1.07,3,.1,3.78Zm9.16-7.06c-1,.75-2.58.29-3.58-1-.7-.94-1.4-1.88-2.09-2.83-1-1.35-.95-3,.05-3.73l2.69-1.9c1-.7,2.56-.2,3.5,1.1.67.92,1.34,1.83,2,2.74,1,1.28,1,2.92,0,3.67Zm9.16-7c-1,.74-2.54.33-3.48-.93-.67-.89-1.34-1.79-2-2.69-.93-1.29-.86-2.9.14-3.6l2.69-1.9a2.56,2.56,0,0,1,3.41,1c.63.87,1.27,1.73,1.91,2.59a2.56,2.56,0,0,1-.08,3.55Zm-19.12,31.44c-.92.8-2.65.32-3.82-1.09-.83-1-1.66-2-2.47-3-1.16-1.42-1.3-3.2-.34-4l2.58-2c1-.76,2.63-.24,3.75,1.14.79,1,1.58,1.94,2.39,2.9,1.14,1.37,1.33,3.1.4,3.9Zm8.77-7.53c-.92.79-2.6.37-3.72-1-.8-.95-1.58-1.9-2.36-2.86-1.1-1.36-1.2-3.09-.24-3.84l2.58-2c1-.75,2.59-.28,3.65,1,.75.93,1.51,1.85,2.28,2.77,1.08,1.29,1.23,3,.3,3.77Zm8.77-7.54c-.92.8-2.56.42-3.63-.86-.75-.9-1.5-1.81-2.24-2.72-1-1.29-1.1-3-.14-3.72l2.58-2c1-.75,2.54-.34,3.55.91.72.88,1.44,1.76,2.17,2.63,1,1.23,1.13,2.86.2,3.66Zm8.77-7.54c-.92.8-2.51.48-3.53-.74-.71-.85-1.42-1.71-2.12-2.58-1-1.23-1-2.85-.05-3.6l2.58-2a2.57,2.57,0,0,1,3.46.79c.67.83,1.36,1.66,2.05,2.49a2.55,2.55,0,0,1,.1,3.54ZM368.17,606c-.88.84-2.62.46-3.88-.89-.88-1-1.75-1.9-2.62-2.86-1.23-1.36-1.47-3.14-.55-3.94l2.47-2.17c.92-.8,2.61-.37,3.8.94.84.93,1.69,1.86,2.54,2.78,1.21,1.29,1.5,3,.62,3.86Zm8.36-8c-.88.85-2.58.51-3.78-.77-.84-.9-1.67-1.81-2.5-2.73-1.17-1.3-1.37-3-.45-3.82l2.47-2.18c.92-.8,2.57-.42,3.7.83.8.89,1.61,1.77,2.42,2.64,1.16,1.24,1.39,2.91.51,3.76Zm8.35-8c-.88.85-2.53.56-3.67-.66-.8-.86-1.59-1.73-2.38-2.6-1.12-1.24-1.26-2.91-.34-3.71l2.47-2.17c.92-.81,2.52-.48,3.59.71.76.84,1.53,1.68,2.3,2.51,1.1,1.18,1.29,2.8.41,3.65Zm8.36-8c-.88.84-2.49.6-3.57-.56-.76-.81-1.51-1.63-2.26-2.46-1.06-1.18-1.16-2.79-.24-3.6l2.47-2.17a2.56,2.56,0,0,1,3.49.6c.73.8,1.45,1.59,2.19,2.38a2.56,2.56,0,0,1,.29,3.53Zm.2-42.9a185.73,185.73,0,0,0,21.61,26.28l-1.24,1.23c-.73-.73-1.45-1.48-2.17-2.22L404.7,571c-2,2-5.61,1.54-7.92-1h0c-2.31-2.57-2.35-6.17-.18-8l7.33-6.21c-1-1.21-2-2.44-3-3.67l-7.49,6c-2.19,1.78-5.72,1.05-7.79-1.7s-1.81-6.35.5-8L394,543c-.67-1-1.33-1.9-2-2.86Z"/>
    <path class="cls-5" d="M802.93,570l-18.74-12.83"/>
    <path class="cls-5" d="M775.83,593.92q-5.82-8.14-11.66-16.28"/>
    <path class="cls-6"
          d="M766.16,590a93.7,93.7,0,0,0,30.41-31.07,1.57,1.57,0,0,1,2.06-.7l6.16,3.55c2.36,1.33,2.83,5,.84,8a107,107,0,0,1-28.47,29.08c-3,2.05-6.6,1.66-8-.67-1.23-2-2.46-4-3.68-6.08A1.55,1.55,0,0,1,766.16,590Z"/>
    <path class="cls-6"
          d="M764.33,587.52a90.76,90.76,0,0,0,29.74-30.38,1.26,1.26,0,0,0-.37-1.76h0a1.26,1.26,0,0,0-1.7.52,88.4,88.4,0,0,1-29,29.57,1.28,1.28,0,0,0-.49,1.72h0A1.27,1.27,0,0,0,764.33,587.52Z"/>
    <path class="cls-7"
          d="M902.41,535.51c.52-1,1-2.08,1.54-3.12.77-1.59,2.21-2.37,3.3-1.9s2.51-.43,3.24-2A286.12,286.12,0,0,0,923.62,494c.53-1.71,0-3.28-1.15-3.65s-1.58-2-1.11-3.63c.31-1.1.62-2.21.92-3.31.46-1.69-.1-3.31-1.24-3.6L833.23,457h0a189.24,189.24,0,0,1-14.85,38.95l80.71,41.43C900.14,537.91,901.63,537.08,902.41,535.51Zm-55.78-56.34a1.77,1.77,0,0,1-1-2.29Q847,473,848.21,469a1.78,1.78,0,0,1,2.12-1.29l7.3,2.13a1.79,1.79,0,0,1,1,2.31c-.42,1.4-.85,2.79-1.3,4.18s-.91,2.77-1.38,4.15a1.81,1.81,0,0,1-2.22,1.26ZM860.29,484a1.85,1.85,0,0,1-.93-2.41q1.46-4.2,2.73-8.46a1.85,1.85,0,0,1,2.17-1.41l7.29,2.12a1.87,1.87,0,0,1,1,2.44c-.45,1.49-.91,3-1.39,4.45s-1,3-1.47,4.43a1.88,1.88,0,0,1-2.26,1.38ZM874,488.86a1.94,1.94,0,0,1-.89-2.53q1.54-4.47,2.91-9a1.93,1.93,0,0,1,2.2-1.53l7.29,2.12a2,2,0,0,1,1,2.56c-.48,1.59-1,3.16-1.48,4.74s-1,3.14-1.57,4.7a2,2,0,0,1-2.29,1.5Zm13.66,4.85a2,2,0,0,1-.84-2.65q1.63-4.76,3.09-9.57c.35-1.17,1.34-1.92,2.23-1.66l7.29,2.12c.89.26,1.32,1.46,1,2.69q-.75,2.5-1.56,5c-.53,1.66-1.09,3.32-1.66,5-.41,1.21-1.47,1.94-2.34,1.63Zm13.67,4.85c-.87-.31-1.22-1.55-.8-2.78q1.72-5,3.26-10.12c.37-1.24,1.39-2,2.27-1.78l7.29,2.12c.89.26,1.31,1.52.92,2.81q-.79,2.65-1.65,5.29c-.56,1.76-1.15,3.51-1.75,5.25-.44,1.28-1.51,2.06-2.38,1.74Zm-63.57.54a1.14,1.14,0,0,1-.47-1.53q2.81-6,5.23-12.1a1.14,1.14,0,0,1,1.43-.71l2.05.8a1.13,1.13,0,0,1,.56,1.51q-2.46,6.26-5.33,12.35a1.14,1.14,0,0,1-1.49.62Zm6.47,3.09a1.17,1.17,0,0,1-.44-1.57q2.89-6.17,5.4-12.52a1.16,1.16,0,0,1,1.45-.74l2,.79a1.17,1.17,0,0,1,.55,1.55q-2.55,6.48-5.52,12.77a1.15,1.15,0,0,1-1.5.66Zm6.48,3.09a1.18,1.18,0,0,1-.43-1.6q3-6.39,5.59-12.94a1.17,1.17,0,0,1,1.46-.78l2.05.79a1.19,1.19,0,0,1,.53,1.59c-1.75,4.45-3.66,8.85-5.69,13.19a1.21,1.21,0,0,1-1.53.7Zm6.48,3.09a1.22,1.22,0,0,1-.42-1.64q3.1-6.59,5.77-13.35a1.21,1.21,0,0,1,1.48-.82l2,.79a1.22,1.22,0,0,1,.52,1.63q-2.73,6.88-5.88,13.6a1.22,1.22,0,0,1-1.54.74Zm6.47,3.09a1.24,1.24,0,0,1-.39-1.68q3.19-6.78,5.95-13.77a1.25,1.25,0,0,1,1.49-.86l2.05.8a1.24,1.24,0,0,1,.5,1.66q-2.81,7.11-6.06,14a1.24,1.24,0,0,1-1.55.77Zm6.48,3.09a1.26,1.26,0,0,1-.38-1.71q3.3-7,6.13-14.19a1.28,1.28,0,0,1,1.51-.9l2,.8a1.28,1.28,0,0,1,.49,1.7q-2.89,7.32-6.24,14.44a1.27,1.27,0,0,1-1.58.81Zm6.48,3.1a1.3,1.3,0,0,1-.36-1.76q3.39-7.2,6.31-14.6a1.3,1.3,0,0,1,1.52-.94l2.05.8a1.29,1.29,0,0,1,.47,1.74q-3,7.51-6.42,14.86a1.29,1.29,0,0,1-1.59.84Zm6.47,3.09a1.34,1.34,0,0,1-.34-1.79q3.48-7.41,6.49-15c.3-.75,1-1.18,1.54-1l2,.8a1.33,1.33,0,0,1,.46,1.77q-3.06,7.74-6.6,15.28c-.35.75-1.08,1.14-1.61.88Zm6.48,3.09a1.36,1.36,0,0,1-.33-1.83q3.59-7.61,6.68-15.44c.3-.77,1-1.23,1.55-1l2.05.79a1.37,1.37,0,0,1,.44,1.82q-3.13,7.95-6.78,15.69c-.36.77-1.09,1.18-1.63.92Zm6.48,3.09c-.54-.26-.67-1.09-.31-1.86q3.67-7.83,6.85-15.86c.32-.8,1-1.27,1.57-1.05l2,.79c.55.22.75,1.05.43,1.86q-3.23,8.16-7,16.11c-.37.79-1.1,1.21-1.64,1Z"/>
    <path class="cls-8"
          d="M323.89,203.08q-5,7.6-9.42,15.49c-1.07,1.88-1,4,.24,4.6l7.15,4a295.6,295.6,0,0,0-14.05,29.2c-1.47,3.56-.7,7.2,1.62,8.08l91.21,35.32a191.22,191.22,0,0,1,10.83-23.21c1.77-3.2,3.62-6.36,5.57-9.45q1.43-2.26,2.91-4.48l-91.86-61.41C327,200.41,325.07,201.26,323.89,203.08Zm70.9,81.81a1.21,1.21,0,0,1,.55,1.6c-.52,1.17-1,2.35-1.54,3.53a1.2,1.2,0,0,1-1.55.68l-3.37-1.4a1.22,1.22,0,0,1-.58-1.62q.78-1.83,1.59-3.63a1.2,1.2,0,0,1,1.58-.67Zm-8-3.62a1.23,1.23,0,0,1,.53,1.65c-.54,1.22-1.08,2.45-1.6,3.68a1.25,1.25,0,0,1-1.58.74l-3.36-1.41a1.24,1.24,0,0,1-.56-1.67c.53-1.26,1.09-2.53,1.65-3.78a1.24,1.24,0,0,1,1.6-.72Zm-7.95-3.62a1.27,1.27,0,0,1,.52,1.7c-.57,1.27-1.13,2.55-1.68,3.83a1.27,1.27,0,0,1-1.59.79l-3.37-1.41a1.28,1.28,0,0,1-.54-1.72c.56-1.31,1.13-2.63,1.72-3.93a1.26,1.26,0,0,1,1.62-.77ZM371,274a1.31,1.31,0,0,1,.49,1.75q-.9,2-1.74,4a1.31,1.31,0,0,1-1.62.83l-3.37-1.41a1.31,1.31,0,0,1-.52-1.76c.59-1.37,1.18-2.74,1.79-4.1a1.31,1.31,0,0,1,1.65-.81ZM363,270.41a1.34,1.34,0,0,1,.47,1.8c-.62,1.37-1.22,2.75-1.81,4.14a1.34,1.34,0,0,1-1.64.88l-3.36-1.41a1.34,1.34,0,0,1-.5-1.81q.9-2.13,1.85-4.25a1.34,1.34,0,0,1,1.67-.86Zm-7.95-3.62a1.37,1.37,0,0,1,.45,1.85q-1,2.13-1.88,4.29a1.36,1.36,0,0,1-1.65.93l-3.37-1.41a1.38,1.38,0,0,1-.48-1.86q.94-2.2,1.92-4.4a1.38,1.38,0,0,1,1.69-.91Zm-7.94-3.62a1.42,1.42,0,0,1,.42,1.9q-1,2.21-1.94,4.44a1.41,1.41,0,0,1-1.68,1l-3.37-1.41a1.42,1.42,0,0,1-.46-1.91c.65-1.52,1.32-3,2-4.55a1.42,1.42,0,0,1,1.72-1Zm-7.95-3.62a1.45,1.45,0,0,1,.4,1.94q-1,2.29-2,4.6c-.35.82-1.1,1.28-1.7,1l-3.36-1.4a1.46,1.46,0,0,1-.44-2q1-2.36,2.05-4.7c.37-.83,1.15-1.28,1.74-1Zm-8-3.62a1.48,1.48,0,0,1,.38,2q-1.06,2.37-2.08,4.76c-.35.84-1.12,1.32-1.71,1.07l-3.37-1.4c-.6-.25-.78-1.15-.42-2q1-2.44,2.12-4.86c.39-.86,1.18-1.33,1.76-1.06Zm-7.95-3.62c.59.27.75,1.18.36,2q-1.1,2.44-2.14,4.91c-.37.87-1.15,1.37-1.74,1.13L316.37,259c-.59-.25-.77-1.17-.39-2.06q1.06-2.52,2.18-5c.4-.88,1.2-1.38,1.78-1.11Zm75.43,24.49a1.21,1.21,0,0,1,.49,1.63c-.58,1.15-1.14,2.3-1.7,3.45a1.2,1.2,0,0,1-1.58.61l-3.3-1.55a1.22,1.22,0,0,1-.51-1.64c.57-1.19,1.15-2.38,1.74-3.56a1.21,1.21,0,0,1,1.61-.59Zm-7.78-4a1.24,1.24,0,0,1,.46,1.68c-.6,1.19-1.19,2.39-1.76,3.6a1.24,1.24,0,0,1-1.61.66l-3.3-1.55a1.26,1.26,0,0,1-.49-1.69c.6-1.24,1.2-2.48,1.82-3.71a1.23,1.23,0,0,1,1.63-.64Zm-7.77-4a1.28,1.28,0,0,1,.43,1.73c-.62,1.24-1.24,2.49-1.84,3.75a1.28,1.28,0,0,1-1.63.71l-3.3-1.56a1.27,1.27,0,0,1-.46-1.73c.61-1.3,1.25-2.58,1.89-3.86a1.26,1.26,0,0,1,1.66-.69Zm-7.78-4a1.31,1.31,0,0,1,.41,1.77c-.65,1.3-1.29,2.6-1.92,3.91a1.29,1.29,0,0,1-1.65.75l-3.3-1.55a1.32,1.32,0,0,1-.44-1.79c.64-1.34,1.3-2.67,2-4a1.29,1.29,0,0,1,1.68-.74Zm-7.78-4a1.35,1.35,0,0,1,.39,1.82c-.68,1.34-1.34,2.7-2,4.05a1.34,1.34,0,0,1-1.68.81L361,266a1.34,1.34,0,0,1-.42-1.83q1-2.08,2-4.16a1.34,1.34,0,0,1,1.71-.78Zm-7.78-4a1.38,1.38,0,0,1,.36,1.87q-1.05,2.08-2.06,4.2a1.37,1.37,0,0,1-1.7.86l-3.3-1.56a1.38,1.38,0,0,1-.39-1.88q1-2.16,2.11-4.31a1.38,1.38,0,0,1,1.73-.83ZM352,253a1.41,1.41,0,0,1,.34,1.92c-.72,1.44-1.44,2.89-2.14,4.35a1.39,1.39,0,0,1-1.71.9l-3.31-1.55a1.42,1.42,0,0,1-.37-1.93c.72-1.5,1.45-3,2.19-4.46a1.41,1.41,0,0,1,1.75-.88Zm-7.78-4a1.44,1.44,0,0,1,.32,2q-1.12,2.25-2.21,4.51c-.38.79-1.16,1.22-1.74,1l-3.3-1.56a1.44,1.44,0,0,1-.35-2c.73-1.54,1.49-3.07,2.26-4.6.4-.81,1.2-1.23,1.77-.93Zm-7.77-4a1.49,1.49,0,0,1,.29,2q-1.17,2.32-2.29,4.66c-.39.82-1.18,1.27-1.76,1l-3.3-1.55c-.59-.28-.74-1.18-.33-2,.76-1.59,1.54-3.18,2.33-4.75.42-.84,1.23-1.28,1.81-1Zm-7.78-4c.57.3.69,1.22.26,2.06q-1.2,2.38-2.35,4.8c-.41.85-1.21,1.32-1.79,1l-3.3-1.56c-.58-.27-.72-1.2-.31-2.07q1.19-2.46,2.41-4.91c.43-.86,1.26-1.32,1.83-1Zm82.2,19.23q-2.92,4.53-5.61,9.22l-3.87-2.22q2.73-4.79,5.73-9.42Zm-6.7-4.33q-3,4.72-5.83,9.59l-3.88-2.21q2.85-5,6-9.8Zm-6.7-4.33q-3.17,4.91-6.05,10l-3.88-2.21q3-5.17,6.18-10.17Zm-6.7-4.33q-3.27,5.08-6.28,10.33-1.93-1.11-3.88-2.21,3.06-5.35,6.41-10.54Zm-6.7-4.32q-3.39,5.25-6.5,10.69l-3.88-2.21q3.17-5.55,6.63-10.91Zm-6.7-4.33q-3.51,5.44-6.73,11.06l-3.88-2.21q3.29-5.73,6.86-11.28Zm-6.7-4.33q-3.63,5.63-6.95,11.43l-3.88-2.21q3.38-5.93,7.08-11.65ZM364,230q-3.75,5.81-7.18,11.8l-3.87-2.21q3.48-6.1,7.3-12Zm-6.7-4.33q-3.85,6-7.4,12.17L346,235.63q3.6-6.28,7.53-12.38Zm-6.7-4.33q-4,6.18-7.62,12.55l-3.88-2.22q3.71-6.48,7.75-12.75Zm-6.7-4.32q-4.09,6.34-7.85,12.91l-3.88-2.22q3.81-6.66,8-13.12Zm-6.7-4.33Q333,219.21,329.12,226l-3.88-2.22q3.92-6.85,8.2-13.49Zm-6.7-4.33q-4.33,6.7-8.3,13.65l-3.88-2.22q4-7,8.43-13.86Z"/>
    <path class="cls-4"
          d="M887.74,597.1c2.07-2.92,5-4.81,7.43-4.8,4.09.06,9.22-3.34,12.58-9s3.89-11.79,1.89-15.36c-1.19-2.15-.92-5.6.66-8.82,2.13-4.33,1.54-8.89-1.17-10.1L816.46,507c-.59,1.3-1.19,2.59-1.81,3.87l7.23,3.5a5.29,5.29,0,0,1-4.88,9.38l-7-3.92A172.31,172.31,0,0,1,797,539.64l81.27,61.27C880.67,602.71,885,601.05,887.74,597.1Zm16-16.16c-2.17,3.65-5.78,5.44-7.95,4.06q4-6.39,7.72-13C905.79,573.25,906,577.28,903.77,580.94Zm-13.29-33.41c.8.38,1,1.66.38,2.85s-1.14,2.29-1.73,3.43-1.74,1.8-2.52,1.38L884.34,554c-.78-.41-.93-1.67-.34-2.83s1.14-2.23,1.7-3.35,1.67-1.79,2.47-1.41Zm-7-3.39c.8.39,1,1.64.42,2.79s-1.11,2.23-1.68,3.33-1.71,1.73-2.49,1.32l-2.27-1.19c-.79-.41-.94-1.65-.37-2.77s1.1-2.16,1.64-3.25,1.65-1.73,2.44-1.34Zm-7-3.38c.8.39,1,1.61.45,2.73s-1.08,2.15-1.63,3.22-1.67,1.67-2.46,1.26l-2.26-1.19c-.79-.42-1-1.62-.41-2.71s1.07-2.09,1.59-3.14,1.62-1.67,2.41-1.28Zm-7-3.38A1.94,1.94,0,0,1,870,540c-.51,1.05-1,2.09-1.57,3.12a1.94,1.94,0,0,1-2.43,1.19l-2.27-1.19a1.94,1.94,0,0,1-.43-2.64c.52-1,1-2,1.53-3a2,2,0,0,1,2.39-1.22ZM862.45,534a2,2,0,0,1,.54,2.73c-.47.95-1,1.89-1.43,2.82a2,2,0,0,1-2.51,1.19l-2.12-1.11a2,2,0,0,1-.5-2.71c.47-.91.93-1.83,1.39-2.75a2,2,0,0,1,2.47-1.21Zm-7-3.38a1.93,1.93,0,0,1,.57,2.66c-.45.91-.91,1.82-1.37,2.73a2,2,0,0,1-2.49,1.12L850.05,536a1.94,1.94,0,0,1-.52-2.64c.45-.88.89-1.76,1.33-2.65a1.94,1.94,0,0,1,2.44-1.14Zm-7-3.38a1.89,1.89,0,0,1,.61,2.59c-.44.88-.88,1.76-1.33,2.63a1.9,1.9,0,0,1-2.45,1.06l-2.12-1.12a1.88,1.88,0,0,1-.56-2.57l1.29-2.56a1.9,1.9,0,0,1,2.41-1.08Zm-7-3.39a1.85,1.85,0,0,1,.64,2.53c-.42.85-.85,1.69-1.28,2.53a1.83,1.83,0,0,1-2.41,1l-2.12-1.11a1.85,1.85,0,0,1-.6-2.51c.42-.82.84-1.64,1.24-2.46a1.86,1.86,0,0,1,2.38-1ZM817.62,544.2a191.66,191.66,0,0,0,13.74-23.45,1.49,1.49,0,1,1,2.66,1.31,196.93,196.93,0,0,1-13.95,23.82,1.49,1.49,0,1,1-2.45-1.68Zm61.44,12c-.59,1.09-1.2,2.17-1.81,3.25s-1.78,1.66-2.55,1.22l-2.21-1.29c-.77-.44-.88-1.68-.26-2.78s1.19-2.11,1.78-3.17,1.71-1.66,2.49-1.25l2.26,1.22C879.54,553.83,879.68,555.09,879.06,556.22Zm4.28-.34,2.26,1.21c.78.41.91,1.7.27,2.86s-1.24,2.24-1.87,3.36-1.82,1.72-2.58,1.27l-2.22-1.28c-.76-.45-.86-1.72-.22-2.84s1.23-2.18,1.83-3.28S882.56,555.46,883.34,555.88Zm-11.08-3.39c-.58,1-1.17,2.1-1.76,3.15s-1.75,1.6-2.51,1.15l-2.22-1.29a2,2,0,0,1-.29-2.71c.58-1,1.15-2,1.72-3.08a2,2,0,0,1,2.46-1.18l2.26,1.22C872.7,550.16,872.86,551.39,872.26,552.49Zm-6.81-3.74c-.56,1-1.13,2-1.7,3a2,2,0,0,1-2.48,1.09l-2.21-1.28a1.93,1.93,0,0,1-.33-2.65c.56-1,1.11-2,1.66-3a2,2,0,0,1,2.43-1.12l2.26,1.21A2,2,0,0,1,865.45,548.75Zm-6.86-3.63c-.51.92-1,1.84-1.54,2.75a2,2,0,0,1-2.57,1.09l-2.07-1.21A2,2,0,0,1,852,545c.51-.89,1-1.79,1.5-2.69a2,2,0,0,1,2.52-1.11l2.11,1.13A2,2,0,0,1,858.59,545.12Zm-6.81-3.74c-.49.89-1,1.78-1.48,2.66a1.94,1.94,0,0,1-2.53,1l-2.07-1.2a1.93,1.93,0,0,1-.42-2.66c.49-.86,1-1.73,1.45-2.6a1.93,1.93,0,0,1,2.48-1l2.11,1.13A2,2,0,0,1,851.78,541.38Zm-6.8-3.74c-.48.86-1,1.72-1.44,2.57a1.89,1.89,0,0,1-2.49.95L839,540a1.89,1.89,0,0,1-.45-2.59c.47-.83.93-1.67,1.39-2.5a1.89,1.89,0,0,1,2.45-1l2.11,1.13A1.9,1.9,0,0,1,845,537.64Zm-6.81-3.73c-.45.82-.91,1.65-1.38,2.47a1.86,1.86,0,0,1-2.45.89l-2.07-1.21a1.85,1.85,0,0,1-.5-2.53c.46-.79.9-1.6,1.35-2.4a1.84,1.84,0,0,1,2.41-.91c.7.38,1.4.76,2.11,1.13A1.86,1.86,0,0,1,838.17,533.91Zm35.67,31.38c-.64,1.07-1.29,2.12-2,3.18s-1.85,1.58-2.6,1.1l-2.16-1.37c-.74-.48-.8-1.72-.13-2.79s1.27-2.06,1.9-3.1,1.78-1.58,2.55-1.14l2.2,1.31C874.42,562.93,874.5,564.19,873.84,565.29Zm4.29-.16,2.21,1.3c.76.45.83,1.74.14,2.88s-1.33,2.18-2,3.27-1.88,1.64-2.63,1.17l-2.16-1.38c-.74-.48-.78-1.75-.1-2.85s1.32-2.12,2-3.19S877.37,564.68,878.13,565.13Zm-10.94-3.85c-.62,1-1.25,2.05-1.89,3.07s-1.81,1.53-2.55,1L860.59,564c-.75-.47-.82-1.69-.18-2.72s1.24-2,1.84-3a2,2,0,0,1,2.51-1.08l2.21,1.31C867.73,559,867.84,560.21,867.19,561.28Zm-6.64-4-1.83,3a1.94,1.94,0,0,1-2.52,1L854,559.85a1.93,1.93,0,0,1-.21-2.66c.6-1,1.19-1.93,1.78-2.91a1.94,1.94,0,0,1,2.47-1l2.21,1.3A2,2,0,0,1,860.55,557.27Zm-6.71-3.92c-.54.9-1.09,1.79-1.65,2.69a2,2,0,0,1-2.61,1l-2-1.29a2,2,0,0,1-.26-2.74c.54-.87,1.08-1.74,1.61-2.62a2,2,0,0,1,2.56-1l2.06,1.22A2,2,0,0,1,853.84,553.35Zm-6.64-4-1.6,2.6a1.94,1.94,0,0,1-2.57.91l-2-1.29a1.94,1.94,0,0,1-.31-2.68c.52-.84,1-1.68,1.55-2.53a2,2,0,0,1,2.53-.93l2.06,1.22A2,2,0,0,1,847.2,549.33Zm-6.65-4c-.5.84-1,1.68-1.53,2.51a1.89,1.89,0,0,1-2.53.84c-.68-.42-1.35-.85-2-1.28a1.88,1.88,0,0,1-.35-2.61c.51-.81,1-1.63,1.5-2.44a1.88,1.88,0,0,1,2.49-.87l2.06,1.21A1.89,1.89,0,0,1,840.55,545.31Zm-6.64-4c-.49.81-1,1.62-1.48,2.42a1.85,1.85,0,0,1-2.49.78l-2-1.29a1.85,1.85,0,0,1-.39-2.54c.49-.78,1-1.56,1.44-2.35a1.85,1.85,0,0,1,2.45-.81l2.06,1.22A1.84,1.84,0,0,1,833.91,541.29Zm-10.63,8.87a1.85,1.85,0,0,1-.28-2.56c.52-.76,1-1.52,1.54-2.29a1.84,1.84,0,0,1,2.48-.7l2,1.3a1.85,1.85,0,0,1,.32,2.59c-.53.79-1.05,1.57-1.59,2.35a1.84,1.84,0,0,1-2.52.68Zm6.37,4.44a1.88,1.88,0,0,1-.24-2.62c.54-.79,1.07-1.58,1.6-2.38a1.89,1.89,0,0,1,2.52-.76l2,1.3a1.9,1.9,0,0,1,.28,2.65c-.55.82-1.09,1.63-1.65,2.44a1.88,1.88,0,0,1-2.56.74Zm6.37,4.45a1.94,1.94,0,0,1-.2-2.69c.56-.82,1.11-1.64,1.66-2.47a1.94,1.94,0,0,1,2.56-.83l2,1.31a1.94,1.94,0,0,1,.24,2.71c-.56.85-1.13,1.69-1.71,2.53a2,2,0,0,1-2.6.81Zm6.36,4.44a2,2,0,0,1-.15-2.75c.58-.85,1.15-1.7,1.72-2.56a2,2,0,0,1,2.61-.89l2,1.3a2,2,0,0,1,.2,2.78c-.58.88-1.17,1.75-1.76,2.62a2,2,0,0,1-2.65.87Zm6.3,4.39a2,2,0,0,1-.1-2.67c.64-.94,1.28-1.88,1.9-2.83a2,2,0,0,1,2.52-.91l2.15,1.4a2,2,0,0,1,.14,2.7c-.64,1-1.29,1.93-1.95,2.9a2,2,0,0,1-2.56.88Zm6.37,4.44a2,2,0,0,1-.06-2.73c.66-1,1.32-1.94,2-2.92a2,2,0,0,1,2.55-1l2.15,1.39c.74.48.79,1.72.11,2.76s-1.34,2-2,3-1.87,1.45-2.6.94Zm6.37,4.45c-.73-.51-.73-1.76,0-2.79s1.36-2,2-3,1.85-1.51,2.59-1l2.15,1.39c.74.48.78,1.75.07,2.82s-1.38,2.07-2.08,3.09-1.92,1.51-2.64,1Zm6.37,4.44c-.73-.51-.71-1.78,0-2.85s1.4-2.07,2.09-3.12,1.89-1.57,2.63-1.09l2.15,1.4c.75.48.76,1.77,0,2.88s-1.42,2.13-2.14,3.18-2,1.57-2.68,1.06Zm6.84,5.41a263.06,263.06,0,0,0,20.94-35.5c.25-.51.71-.79,1-.63s.4.71.16,1.21a265.24,265.24,0,0,1-21,35.69c-.32.46-.83.66-1.13.45S874.31,587.08,874.63,586.62Zm3,2.1a267.53,267.53,0,0,0,21.23-36c.25-.51.72-.79,1-.63s.4.71.14,1.22a268.67,268.67,0,0,1-21.33,36.18c-.33.46-.84.67-1.14.46S877.3,589.19,877.63,588.72Zm3,2.1a271,271,0,0,0,21.52-36.49c.25-.52.72-.81,1.05-.65s.4.72.14,1.24a272.6,272.6,0,0,1-21.62,36.67c-.34.47-.85.68-1.15.47S880.3,591.29,880.63,590.82Zm3,2.1a274.58,274.58,0,0,0,21.82-37c.25-.53.73-.82,1.06-.66s.39.72.13,1.24a275.22,275.22,0,0,1-21.92,37.17c-.33.48-.85.69-1.15.48S883.29,593.4,883.62,592.92Z"/>
    <path class="cls-8"
          d="M819.92,144.58h0c-1.79-1.72-2.38-4.06-1.28-5.26l1.24-1.34c2.16-2.34,2.23-6.11.42-10-.6-1.28-.64-2.51,0-3.26L822.7,122c1.07-1.23.29-3.67-1.79-5.4q-5.2-4.35-10.62-8.43c-2.16-1.63-4.71-1.85-5.67-.52l-2.15,2.95c-.58.8-1.78,1.05-3.17.75-4.15-.89-7.82,0-9.6,2.67l-1,1.51c-.93,1.35-3.33,1.31-5.42,0h0c-2.09-1.37-4.5-1.32-5.36.06L733,187a167.46,167.46,0,0,1,28.67,22.76l59.42-60C822.23,148.67,821.73,146.3,819.92,144.58Zm-15.28-5.47c.79-.93,2.56-.73,4,.48l2.9,2.57c1.37,1.23,1.79,3,1,3.86l-2.23,2.42c-.83.9-2.56.64-3.88-.54-.93-.84-1.87-1.67-2.82-2.5-1.34-1.16-1.8-2.85-1-3.78Zm-7.48,8.82c.79-.93,2.51-.77,3.83.38.93.81,1.86,1.63,2.77,2.46,1.31,1.17,1.68,2.86.85,3.75l-2.23,2.42c-.83.89-2.51.69-3.77-.44l-2.68-2.38c-1.28-1.11-1.69-2.75-.9-3.68Zm-7.48,8.82c.79-.93,2.46-.82,3.71.28q1.33,1.16,2.64,2.34c1.25,1.11,1.56,2.75.73,3.65l-2.23,2.42c-.83.89-2.45.73-3.65-.34-.84-.76-1.69-1.51-2.55-2.26-1.21-1.05-1.56-2.65-.78-3.58Zm-7.48,8.82c.79-.93,2.41-.86,3.6.18.84.73,1.68,1.47,2.51,2.22,1.17,1.05,1.44,2.65.61,3.55l-2.23,2.41a2.56,2.56,0,0,1-3.54-.23l-2.41-2.14a2.56,2.56,0,0,1-.67-3.48Zm12.11-34.75c.74-1,2.52-.87,4,.26,1,.8,2,1.61,3,2.42,1.43,1.15,1.94,2.86,1.16,3.8l-2.1,2.53c-.78.94-2.52.78-3.9-.33-1-.79-2-1.57-3-2.34-1.4-1.09-1.95-2.75-1.21-3.72S793.65,131.69,794.31,130.82Zm-7,9.2c.74-1,2.47-.9,3.85.18,1,.76,1.94,1.52,2.9,2.3,1.36,1.1,1.82,2.77,1,3.7l-2.1,2.54c-.78.94-2.47.82-3.78-.24-.93-.75-1.87-1.49-2.81-2.23-1.33-1-1.82-2.65-1.09-3.63S786.65,140.9,787.31,140Zm-7,9.21c.73-1,2.41-.95,3.72.08q1.38,1.08,2.76,2.19c1.3,1.05,1.7,2.67.92,3.61l-2.1,2.53c-.78.94-2.41.87-3.66-.14-.88-.71-1.77-1.42-2.67-2.12-1.26-1-1.7-2.56-1-3.53Zm-7,9.21c.73-1,2.35-1,3.6,0l2.62,2.08c1.23,1,1.58,2.57.8,3.51l-2.1,2.53a2.56,2.56,0,0,1-3.54,0c-.84-.67-1.68-1.34-2.53-2a2.57,2.57,0,0,1-.84-3.45Zm10.23-35.36c.68-1,2.47-1,4,.06,1.06.74,2.11,1.49,3.16,2.25,1.49,1.07,2.09,2.76,1.36,3.73l-2,2.64c-.73,1-2.47.92-3.91-.12-1-.74-2-1.46-3.07-2.18-1.45-1-2.09-2.64-1.41-3.65Zm-6.5,9.57c.69-1,2.42-1,3.85,0,1,.71,2,1.42,3,2.14,1.42,1,2,2.67,1.24,3.65l-2,2.64c-.73,1-2.42.95-3.79,0-1-.7-1.94-1.39-2.92-2.07-1.39-1-2-2.56-1.28-3.57Zm-6.49,9.57c.68-1,2.36-1.08,3.72-.12,1,.67,1.92,1.35,2.88,2,1.35,1,1.84,2.58,1.11,3.55l-2,2.64c-.73,1-2.36,1-3.67.06-.92-.66-1.84-1.32-2.77-2-1.32-.92-1.84-2.47-1.16-3.48S769.94,143.12,770.56,142.22Zm-6.5,9.56c.69-1,2.3-1.11,3.6-.2.91.64,1.82,1.28,2.73,1.94,1.28.92,1.72,2.48,1,3.46l-2,2.64a2.57,2.57,0,0,1-3.54.15c-.88-.63-1.75-1.26-2.63-1.87a2.56,2.56,0,0,1-1-3.39Zm8.79,42a186.06,186.06,0,0,0-26.64-21.17l1-1.47c.87.57,1.73,1.15,2.58,1.73l5.4-8c1.57-2.34,5.17-2.68,8-.66h0c2.79,2,3.58,5.54,1.85,7.76l-5.88,7.61q1.89,1.45,3.73,3l6.07-7.46c1.77-2.19,5.38-2.22,8,0S780,181,778,183.05l-6.51,7.07c.86.79,1.7,1.58,2.54,2.38Z"/>
    <path class="cls-9"
          d="M774.75,88c-3.2-1.83-5.42-4.63-5.64-7.14-.34-4.2-4.32-9.12-10.45-12S746.2,66,742.75,68.37c-2.09,1.43-5.65,1.49-9.1.18-4.65-1.76-9.25-.71-10.23,2.18l-34,99c1.38.48,2.76,1,4.13,1.48l2.88-7.76a5.45,5.45,0,0,1,10.09,4.09l-3.33,7.57a178,178,0,0,1,21.59,11.31l54.81-89.22C781.18,94.64,779.07,90.41,774.75,88ZM756.63,73.11c4,1.86,6.14,5.38,4.94,7.74q-6.95-3.51-14.06-6.63C748.57,71.79,752.67,71.24,756.63,73.11ZM723.71,90c.31-.86,1.61-1.17,2.89-.68s2.45,1,3.68,1.44,2,1.61,1.66,2.45-.66,1.63-1,2.44-1.62,1.11-2.86.62l-3.6-1.41c-1.25-.47-2-1.54-1.69-2.39S723.4,90.81,723.71,90Zm-2.78,7.48c.31-.85,1.58-1.17,2.82-.7s2.38.92,3.57,1.4,1.94,1.58,1.59,2.42-.66,1.63-1,2.44-1.59,1.13-2.79.65-2.32-.92-3.49-1.36-1.93-1.52-1.62-2.38S720.62,98.3,720.93,97.47ZM718.15,105c.31-.85,1.55-1.18,2.75-.72s2.31.89,3.46,1.35,1.87,1.55,1.52,2.39-.66,1.63-1,2.44-1.56,1.14-2.72.68-2.25-.89-3.38-1.32-1.87-1.49-1.55-2.35S717.84,105.79,718.15,105Zm-2.78,7.49a2,2,0,0,1,2.68-.75c1.12.43,2.23.86,3.34,1.31s1.81,1.52,1.46,2.36-.66,1.63-1,2.44a2,2,0,0,1-2.65.71c-1.09-.44-2.18-.86-3.27-1.28a2,2,0,0,1-1.48-2.32C714.75,114.1,715.06,113.27,715.37,112.45ZM712.55,120a2.06,2.06,0,0,1,2.75-.82l3,1.18a2.06,2.06,0,0,1,1.46,2.47l-.93,2.28a2.07,2.07,0,0,1-2.73.77c-1-.4-2-.78-3-1.16a2,2,0,0,1-1.48-2.41Zm-2.78,7.49a2,2,0,0,1,2.68-.85l2.92,1.14a2,2,0,0,1,1.39,2.44l-.93,2.28a2,2,0,0,1-2.66.8l-2.84-1.12a2,2,0,0,1-1.41-2.38ZM707,135a2,2,0,0,1,2.6-.88c.95.36,1.89.73,2.82,1.1a2,2,0,0,1,1.32,2.41l-.93,2.28a2,2,0,0,1-2.58.83l-2.75-1.08a1.94,1.94,0,0,1-1.34-2.35C706.42,136.54,706.71,135.77,707,135Zm-2.78,7.48a1.91,1.91,0,0,1,2.53-.9l2.72,1.06A1.9,1.9,0,0,1,710.7,145l-.93,2.28a1.9,1.9,0,0,1-2.51.86c-.88-.35-1.76-.7-2.64-1a1.91,1.91,0,0,1-1.27-2.34C703.64,144,703.93,143.25,704.21,142.48Zm23.21,22.45a197.07,197.07,0,0,0-25.36-11.78,1.54,1.54,0,1,1,1.09-2.85,203.16,203.16,0,0,1,25.75,12,1.54,1.54,0,1,1-1.48,2.67Zm6.31-64.1c1.17.5,2.34,1,3.51,1.54s1.87,1.66,1.49,2.49l-1.1,2.39c-.38.83-1.64,1.06-2.82.53s-2.28-1-3.43-1.5-1.86-1.6-1.51-2.44l1-2.43C731.24,100.57,732.51,100.3,733.73,100.83ZM733,96.48,734,94c.35-.84,1.65-1.09,2.91-.55s2.41,1.05,3.61,1.59,2,1.69,1.57,2.52L741,100c-.39.83-1.68,1.05-2.89.5s-2.35-1-3.54-1.55S732.61,97.32,733,96.48Zm-2.39,11.68c1.14.49,2.27,1,3.4,1.5s1.81,1.63,1.43,2.46-.74,1.59-1.1,2.39a2.06,2.06,0,0,1-2.76.56l-3.31-1.46c-1.15-.49-1.8-1.56-1.45-2.4l1-2.43C728.15,107.94,729.39,107.66,730.57,108.16Zm-3.16,7.34L730.7,117c1.14.51,1.74,1.6,1.36,2.42l-1.1,2.4a2,2,0,0,1-2.68.59q-1.6-.72-3.21-1.41a2,2,0,0,1-1.38-2.38l1-2.43A2,2,0,0,1,727.41,115.5Zm-3,7.38,3,1.31a2,2,0,0,1,1.36,2.52c-.34.75-.68,1.49-1,2.24a2,2,0,0,1-2.75.66c-1-.44-1.93-.86-2.9-1.28a2,2,0,0,1-1.38-2.47l1-2.27A2.05,2.05,0,0,1,724.36,122.88Zm-3.16,7.34c1,.41,1.91.83,2.87,1.26a2,2,0,0,1,1.29,2.49c-.35.75-.69,1.49-1,2.24a2,2,0,0,1-2.69.69q-1.39-.63-2.79-1.23a2,2,0,0,1-1.31-2.44c.31-.76.63-1.52,1-2.28A2,2,0,0,1,721.2,130.22ZM718,137.55l2.77,1.22a2,2,0,0,1,1.22,2.46c-.34.75-.68,1.49-1,2.24a1.94,1.94,0,0,1-2.61.72c-.9-.4-1.79-.8-2.7-1.19a1.93,1.93,0,0,1-1.23-2.41c.31-.76.63-1.51.95-2.27A2,2,0,0,1,718,137.55Zm-3.16,7.34,2.67,1.17a1.91,1.91,0,0,1,1.15,2.43c-.35.74-.69,1.49-1,2.24a1.89,1.89,0,0,1-2.54.75c-.87-.39-1.73-.77-2.6-1.14a1.89,1.89,0,0,1-1.16-2.38c.31-.76.63-1.52.95-2.27A1.89,1.89,0,0,1,714.87,144.89Zm28.66-39.6L747,107c1.19.59,1.81,1.74,1.39,2.55l-1.2,2.34c-.41.81-1.68,1-2.84.42s-2.23-1.11-3.36-1.65-1.8-1.67-1.41-2.5l1.12-2.38C741.05,104.93,742.34,104.72,743.53,105.29Zm-.59-4.38c.38-.79.75-1.59,1.12-2.38s1.7-1,2.94-.44,2.36,1.15,3.54,1.74,1.87,1.77,1.46,2.58l-1.2,2.35c-.42.81-1.72,1-2.91.38l-3.47-1.7C743.22,102.86,742.56,101.74,742.94,100.91Zm-2.87,11.58c1.12.54,2.23,1.08,3.33,1.63s1.74,1.71,1.33,2.52l-1.2,2.35c-.42.81-1.66,1-2.78.44s-2.16-1.07-3.25-1.59a2.06,2.06,0,0,1-1.35-2.47c.38-.79.75-1.59,1.12-2.38S738.92,111.94,740.07,112.49Zm-3.46,7.2,3.23,1.58c1.11.56,1.67,1.67,1.25,2.48l-1.2,2.35a2,2,0,0,1-2.7.48L734,125a2,2,0,0,1-1.28-2.44l1.12-2.38A2,2,0,0,1,736.61,119.69Zm-3.36,7.25,2.92,1.43a2,2,0,0,1,1.25,2.57c-.37.74-.75,1.47-1.12,2.2a2.05,2.05,0,0,1-2.78.54c-.95-.47-1.89-.94-2.84-1.39a2,2,0,0,1-1.28-2.53l1.05-2.23A2,2,0,0,1,733.25,126.94Zm-3.46,7.2c.94.45,1.88.91,2.81,1.38a2,2,0,0,1,1.19,2.54c-.38.73-.75,1.46-1.12,2.19a2,2,0,0,1-2.72.58c-.91-.46-1.82-.91-2.74-1.35A2,2,0,0,1,726,137c.34-.75.69-1.49,1-2.23A2,2,0,0,1,729.79,134.14Zm-3.47,7.19,2.72,1.34a1.94,1.94,0,0,1,1.11,2.5c-.37.73-.75,1.46-1.12,2.2a2,2,0,0,1-2.64.61l-2.64-1.3a1.94,1.94,0,0,1-1.14-2.46l1-2.23A1.94,1.94,0,0,1,726.32,141.33Zm-3.47,7.2,2.62,1.28a1.9,1.9,0,0,1,1,2.48c-.38.73-.75,1.46-1.12,2.19a1.9,1.9,0,0,1-2.58.64l-2.54-1.24a1.89,1.89,0,0,1-1.06-2.43c.34-.74.69-1.49,1-2.23A1.9,1.9,0,0,1,722.85,148.53Zm10.12,10a1.89,1.89,0,0,1-2.59.54q-1.25-.69-2.49-1.35a1.89,1.89,0,0,1-1-2.47l1.14-2.19a1.9,1.9,0,0,1,2.62-.58l2.56,1.39a1.91,1.91,0,0,1,1,2.52Zm3.93-7a2,2,0,0,1-2.66.5c-.86-.48-1.73-.95-2.59-1.41a1.94,1.94,0,0,1-1-2.51l1.13-2.18a2,2,0,0,1,2.69-.54c.89.47,1.78.95,2.66,1.44a1.94,1.94,0,0,1,1,2.55Zm3.93-7a2,2,0,0,1-2.73.46l-2.69-1.46a2,2,0,0,1-1.1-2.54l1.14-2.18a2,2,0,0,1,2.76-.51c.92.49,1.84,1,2.75,1.5a2,2,0,0,1,1.08,2.58Zm3.93-7a2,2,0,0,1-2.8.43c-.93-.51-1.86-1-2.79-1.51A2.06,2.06,0,0,1,738,134l1.14-2.19a2.06,2.06,0,0,1,2.83-.47l2.85,1.55a2.06,2.06,0,0,1,1.15,2.63C745.56,136.25,745.16,137,744.76,137.68Zm3.88-6.88a2,2,0,0,1-2.72.37c-1-.57-2.06-1.12-3.09-1.67a2,2,0,0,1-1.17-2.49l1.21-2.34a2,2,0,0,1,2.76-.41l3.15,1.71c1.09.61,1.61,1.75,1.16,2.54Zm3.93-7c-.45.79-1.7.93-2.79.33s-2.12-1.16-3.19-1.73-1.66-1.71-1.24-2.52l1.22-2.34c.42-.81,1.68-1,2.81-.38s2.18,1.17,3.27,1.77,1.66,1.78,1.22,2.57Zm3.93-7c-.45.79-1.73.92-2.86.29s-2.19-1.19-3.29-1.78-1.73-1.75-1.31-2.56.81-1.55,1.22-2.33,1.71-1,2.88-.35,2.25,1.21,3.37,1.83,1.73,1.81,1.28,2.61Zm3.92-7c-.44.79-1.75.9-2.92.25s-2.25-1.23-3.39-1.84-1.79-1.78-1.37-2.59l1.21-2.34c.42-.8,1.75-1,2.95-.31s2.32,1.25,3.47,1.89,1.8,1.85,1.35,2.64Zm4.88-7.54a270.61,270.61,0,0,0-38.41-18c-.54-.2-.87-.65-.74-1s.68-.48,1.22-.27A272.25,272.25,0,0,1,766,101.2c.5.29.76.79.57,1.12S765.8,102.68,765.3,102.4Zm1.86-3.28a275.88,275.88,0,0,0-38.94-18.23c-.55-.2-.89-.65-.76-1s.69-.47,1.24-.27a276.42,276.42,0,0,1,39.13,18.32c.52.29.78.79.59,1.12S767.67,99.41,767.16,99.12ZM769,95.84a280.18,280.18,0,0,0-39.48-18.47c-.55-.21-.9-.66-.77-1s.69-.47,1.25-.26a280.13,280.13,0,0,1,39.67,18.56c.52.3.79.8.6,1.13S769.53,96.14,769,95.84Zm1.86-3.27a282.77,282.77,0,0,0-40-18.73c-.57-.21-.92-.66-.79-1s.7-.47,1.27-.26a284.94,284.94,0,0,1,40.2,18.82c.53.3.8.81.61,1.13S771.4,92.86,770.88,92.57Z"/>
    <path class="cls-7"
          d="M367.18,297.24q-1.24,3.11-2.41,6.26a1.31,1.31,0,0,1-1.62.87l-54.58-20a1.39,1.39,0,0,1-.54-1.85,1.4,1.4,0,0,0-.52-1.86l-3.8-1.43c-1.27-.48-2.84.56-3.49,2.33A363.82,363.82,0,0,0,285,336c-.37,1.85.43,3.56,1.77,3.81l4,.75c.62.12,1.25-.47,1.42-1.31s.8-1.43,1.42-1.31l57,11.27a1.32,1.32,0,0,1,.94,1.59q-.64,3.28-1.2,6.6a1.3,1.3,0,0,0,1,1.56l2.41.39a1.3,1.3,0,0,0,1.43-1.13c.12-.72.24-1.43.37-2.14l27.9,4.94q1.36-7.78,3.21-15.46A10,10,0,1,1,392,326.21q2.41-7.51,5.28-14.87l-26.4-10.28c.26-.67.53-1.35.8-2a1.3,1.3,0,0,0-.63-1.71l-2.27-.92A1.3,1.3,0,0,0,367.18,297.24Zm-53.81,3.27c.09-.28.18-.57.28-.85l-7.77-2.53q1.08-3.35,2.24-6.67l7.72,2.69.3-.85.9.32c-1,2.71-1.87,5.45-2.76,8.19ZM327.1,305l.27-.82-7.77-2.53q1-3.21,2.15-6.4l7.72,2.69c.09-.27.19-.54.28-.82l.91.32c-.92,2.61-1.8,5.22-2.65,7.85Zm13.74,4.43c.08-.26.16-.52.25-.78l-7.77-2.53c.67-2.05,1.35-4.09,2.06-6.13l7.72,2.69.27-.78.9.32q-1.31,3.74-2.52,7.5Zm13.73,4.43.24-.74L347,310.53c.64-1.95,1.29-3.9,2-5.85l7.72,2.69c.08-.25.17-.5.26-.74l.9.31c-.83,2.38-1.64,4.77-2.41,7.17Zm-44.67-1.89c.09-.29.17-.58.25-.86l-7.85-2.27q1-3.37,2-6.73l7.81,2.41c.09-.28.17-.57.26-.85l.92.28q-1.29,4.13-2.48,8.28Zm13.88,4,.24-.83-7.86-2.26c.63-2.16,1.27-4.32,1.93-6.46l7.81,2.41c.09-.27.17-.54.26-.82l.91.29c-.82,2.63-1.61,5.28-2.37,7.93Zm13.88,4c.07-.27.15-.53.22-.8L330,316.78c.6-2.07,1.21-4.13,1.85-6.19l7.81,2.42.24-.78.92.28q-1.19,3.78-2.27,7.59Zm13.87,4c.07-.25.15-.5.22-.75l-7.85-2.26q.86-3,1.76-5.92l7.81,2.42c.08-.25.16-.5.23-.75l.92.29c-.75,2.4-1.47,4.82-2.17,7.24Zm-44.7-.35c.07-.29.14-.58.22-.87l-7.93-2c.57-2.28,1.17-4.54,1.78-6.81l7.89,2.15c.08-.29.15-.58.23-.86l.93.25c-.77,2.78-1.5,5.56-2.19,8.36Zm14,3.48.21-.84-7.92-2q.81-3.27,1.7-6.52l7.89,2.14c.08-.27.15-.55.23-.83l.92.26q-1.1,4-2.09,8Zm14,3.48c.07-.27.13-.54.2-.8l-7.93-2c.53-2.09,1.07-4.18,1.64-6.25l7.88,2.15c.08-.27.15-.53.22-.8l.92.26c-.7,2.54-1.36,5.09-2,7.66Zm14,3.47c.07-.25.13-.5.19-.76l-7.92-2q.75-3,1.56-6l7.89,2.15c.07-.25.13-.51.2-.76l.93.25q-1,3.65-1.92,7.32Zm-44.69,1.19c.07-.29.13-.59.19-.88l-8-1.72q.73-3.43,1.55-6.86l8,1.88.21-.88.93.23q-1,4.2-1.9,8.43Zm14.12,3,.18-.84-8-1.72c.47-2.19,1-4.39,1.48-6.58l8,1.88c.06-.28.13-.56.2-.84l.93.22q-1,4-1.82,8.08Zm14.12,3c.05-.27.11-.54.17-.81l-8-1.71q.68-3.16,1.42-6.31l7.95,1.88c.07-.27.13-.54.19-.8l.94.22c-.62,2.57-1.2,5.14-1.75,7.73Zm14.11,3c.06-.25.11-.51.17-.76l-8-1.72q.65-3,1.35-6l8,1.88.18-.76.93.22c-.58,2.45-1.14,4.91-1.66,7.37Zm22.78,2.48c-.35,1.61-.69,3.22-1,4.84l-4.41-.89c.33-1.64.68-3.28,1-4.92Zm-4.95-1.09c-.36,1.64-.71,3.28-1,4.92l-4.41-.89q.51-2.5,1.06-5Zm6.2-4.32c-.38,1.61-.76,3.21-1.12,4.82L365,345c.37-1.63.75-3.27,1.14-4.89Zm-4.93-1.19q-.59,2.44-1.13,4.91l-4.39-1q.56-2.5,1.15-5Zm7.41-8.31q-.67,2.37-1.29,4.77l-4.35-1.13q.63-2.43,1.3-4.85Zm-4.89-1.36c-.45,1.61-.88,3.23-1.31,4.85L362.46,334q.65-2.48,1.33-4.93Zm6.43-4c-.47,1.57-.93,3.16-1.38,4.74l-4.33-1.22c.45-1.61.92-3.21,1.4-4.82Zm-4.85-1.46q-.74,2.4-1.41,4.83L364,328.43c.46-1.64.94-3.27,1.43-4.91Zm-14.93,20.59-1.87-.4A296.92,296.92,0,0,1,363,309.13l1.8.63A295.44,295.44,0,0,0,354.77,345.41Zm22.77-28.49q-.8,2.34-1.54,4.69l-4.29-1.36q.77-2.4,1.57-4.78Zm-4.8-1.63q-.81,2.38-1.57,4.78l-4.29-1.37q.78-2.43,1.6-4.85Zm6.64-3.61q-.84,2.32-1.64,4.66l-4.26-1.45q.81-2.37,1.67-4.74ZM374.61,310c-.57,1.57-1.13,3.16-1.67,4.74l-4.26-1.45c.56-1.61,1.12-3.22,1.7-4.82Z"/>
    <path class="cls-3"
          d="M587.2,669.65c1.86.21,3.71.38,5.56.53a1.41,1.41,0,0,1,1.12,1.52l-1,68.6a1.23,1.23,0,0,1-1.31,1.26,1.22,1.22,0,0,0-1.31,1.24c0,1.6-.07,3.19-.1,4.79a3.06,3.06,0,0,0,2.76,3.12,213,213,0,0,0,46.8-1.85,3.08,3.08,0,0,0,2.52-3.33l-.48-4.77a1.23,1.23,0,0,0-1.41-1.13,1.24,1.24,0,0,1-1.41-1.15q-3.23-34.14-6.46-68.3a1.42,1.42,0,0,1,1-1.61q2.76-.44,5.51-1a1.45,1.45,0,0,0,1-1.65c-.11-1-.23-1.91-.34-2.86-.09-.79-.66-1.33-1.28-1.21l-1.77.33q-1.82-16.61-3.62-33.22c-4.31.78-8.65,1.38-13,1.79.46,6.51-3,12.19-7.83,12.38s-8.73-5.2-8.78-11.73q-6.56-.09-13.1-.75-.49,16.69-1,33.4l-1.8-.19c-.62-.07-1.14.51-1.17,1.31,0,1-.08,1.92-.11,2.88A1.43,1.43,0,0,0,587.2,669.65Zm17,59.58-.74,0,.09,9.66c-1.94,0-3.89-.1-5.83-.2l0-9.65-.74,0c0-.37,0-.75,0-1.13q3.59.2,7.17.25C604.21,728.47,604.22,728.85,604.22,729.23ZM604,712.18h-.71c0,3.21.07,6.43.1,9.65-1.87,0-3.73-.1-5.6-.19,0-3.22,0-6.43,0-9.65l-.72,0c0-.37,0-.75,0-1.13q3.43.18,6.87.24C604,711.42,604,711.8,604,712.18Zm-.2-17h-.68l.09,9.65c-1.78,0-3.57-.1-5.36-.18q0-4.83,0-9.65l-.68,0v-1.13c2.19.12,4.38.19,6.57.23C603.8,694.37,603.8,694.75,603.81,695.13Zm-.21-17H603l.1,9.65c-1.71,0-3.42-.09-5.12-.17l0-9.65-.65,0c0-.37,0-.75,0-1.13q3.13.16,6.27.22C603.59,677.32,603.6,677.7,603.6,678.08Zm10.51,51.07-.75,0,.33,9.65q-2.91.09-5.82.09-.11-4.83-.2-9.66h-.75c0-.37,0-.75,0-1.13q3.58,0,7.17-.11C614.08,728.39,614.09,728.77,614.11,729.15Zm-.62-17-.71,0,.33,9.66c-1.87.05-3.73.08-5.59.08q-.1-4.83-.2-9.66h-.72c0-.37,0-.75,0-1.13,2.29,0,4.58,0,6.87-.1C613.46,711.34,613.47,711.72,613.49,712.1Zm-.62-17.05-.68,0,.33,9.66c-1.78,0-3.57.08-5.35.08q-.1-4.83-.2-9.66h-.68c0-.38,0-.75,0-1.13q3.27,0,6.56-.1C612.84,694.3,612.86,694.68,612.87,695.05Zm-.62-17-.65,0,.33,9.65c-1.7.05-3.41.08-5.11.08q-.11-4.83-.2-9.66H606c0-.38,0-.75,0-1.13,2.09,0,4.17,0,6.26-.1C612.23,677.25,612.24,677.63,612.25,678ZM624,728.58l-.74.06.57,9.64c-1.94.15-3.88.28-5.82.37-.14-3.21-.29-6.43-.43-9.65l-.74,0c0-.38,0-.76,0-1.13,2.38-.11,4.76-.27,7.15-.46Zm-1-17-.72.05.57,9.65c-1.86.14-3.72.26-5.58.35q-.22-4.82-.43-9.65l-.71,0c0-.38,0-.76-.05-1.13,2.28-.11,4.57-.26,6.85-.44C622.9,710.8,622.92,711.18,623,711.56Zm-1-17-.68.06c.19,3.21.37,6.43.56,9.64-1.78.14-3.56.25-5.34.34q-.23-4.82-.43-9.65l-.68,0c0-.37,0-.75-.05-1.13,2.18-.1,4.37-.24,6.55-.42Zm-1-17-.65,0q.28,4.83.56,9.64-2.55.21-5.1.33-.23-4.81-.43-9.65l-.65,0,0-1.13c2.08-.1,4.17-.23,6.25-.4Zm12.93,50-.74.1c.26,3.2.53,6.41.79,9.61q-2.89.38-5.8.66l-.66-9.63-.74.07c0-.38,0-.75-.08-1.13q3.57-.35,7.13-.81C633.75,726.78,633.78,727.15,633.82,727.53Zm-1.44-17-.71.09c.26,3.21.53,6.41.8,9.62-1.86.24-3.71.45-5.57.63l-.66-9.63-.71.07-.08-1.13q3.42-.33,6.83-.78C632.31,709.8,632.35,710.17,632.38,710.55Zm-1.44-17-.68.09c.27,3.2.53,6.41.8,9.62-1.78.22-3.55.43-5.33.6l-.66-9.63-.68.06c0-.37,0-.75-.08-1.13q3.27-.3,6.53-.74C630.87,692.82,630.91,693.19,630.94,693.57Zm-1.44-17-.65.08c.27,3.21.53,6.42.8,9.62-1.7.22-3.39.41-5.09.58-.22-3.21-.45-6.42-.67-9.63l-.65.06c0-.38,0-.75-.07-1.13,2.08-.2,4.16-.43,6.23-.71C629.44,675.84,629.47,676.21,629.5,676.59ZM625.33,650c1.36-.17,2.72-.35,4.07-.54l.49,5.28c-1.38.2-2.76.39-4.14.55Zm.47,6c1.39-.17,2.77-.35,4.15-.55l.48,5.28c-1.4.21-2.8.39-4.21.56Zm-5-5.49c1.36-.12,2.72-.27,4.08-.42.14,1.76.27,3.53.41,5.29-1.38.16-2.76.31-4.15.43C621,654,620.86,652.27,620.75,650.5Zm.39,6c1.38-.13,2.77-.27,4.15-.43.14,1.76.27,3.53.41,5.29-1.4.17-2.81.31-4.22.44C621.37,660,621.25,658.25,621.14,656.48ZM612.62,651c1.37-.06,2.73-.13,4.09-.22.1,1.77.19,3.54.28,5.31-1.38.09-2.77.16-4.15.22Zm.24,6c1.39,0,2.78-.13,4.17-.22.09,1.77.19,3.54.28,5.31-1.41.09-2.82.17-4.23.23ZM608,651.16c1.37,0,2.73,0,4.1-.1.07,1.77.14,3.54.2,5.31-1.38,0-2.77.09-4.16.11C608.12,654.7,608.07,652.93,608,651.16Zm.16,6c1.39,0,2.78,0,4.17-.11l.21,5.32c-1.41,0-2.83.09-4.24.11C608.27,660.69,608.23,658.92,608.18,657.15Zm20.17,9.63c.06.75.13,1.5.19,2.25a172.16,172.16,0,0,1-30.87,1.22c0-.75,0-1.5,0-2.26A170.89,170.89,0,0,0,628.35,666.78Zm-28.48-15.72c1.37.05,2.74.09,4.1.1,0,1.77,0,3.55.08,5.32-1.39,0-2.78-.05-4.17-.1C599.88,654.6,599.88,652.83,599.87,651.06Zm0,6c1.4.05,2.79.09,4.18.1,0,1.77.05,3.55.07,5.32-1.41,0-2.82-.05-4.24-.11C599.89,660.59,599.89,658.82,599.88,657.05Zm-4.61-6.22c1.36.09,2.73.16,4.1.21v5.32c-1.39-.06-2.78-.13-4.17-.22C595.22,654.37,595.24,652.6,595.27,650.83Zm-.08,6c1.4.09,2.79.16,4.18.22v5.31c-1.41-.05-2.83-.13-4.24-.22Z"/>
    <path class="cls-3"
          d="M867.28,346.93c-.3-1.91-.61-3.81-.95-5.71a1.15,1.15,0,0,1,.83-1.36l49.33-9c.54-.09,1.08.42,1.21,1.15s.66,1.24,1.2,1.15l3.45-.6c1.15-.2,1.87-1.66,1.58-3.26a314.6,314.6,0,0,0-12.43-47.12c-.53-1.53-1.87-2.45-3-2.05l-3.29,1.18a1.21,1.21,0,0,0-.48,1.59,1.2,1.2,0,0,1-.48,1.59l-47.34,16.53a1.14,1.14,0,0,1-1.39-.78c-.64-1.81-1.31-3.62-2-5.43a1.13,1.13,0,0,0-1.41-.73l-2,.76a1.12,1.12,0,0,0-.56,1.47l.66,1.75-22.91,8.51q2.37,6.39,4.36,12.9a8.65,8.65,0,1,1,4.41,16.73q1.49,6.64,2.57,13.37l24.12-3.89c.1.61.2,1.23.29,1.85a1.12,1.12,0,0,0,1.22,1l2.08-.31A1.12,1.12,0,0,0,867.28,346.93ZM905.87,321c0,.25.11.51.16.76l6.89-1.51c.43,2,.85,3.95,1.24,5.93l-6.91,1.38.15.76-.81.16q-.72-3.66-1.53-7.3Zm-12.15,2.7c0,.24.1.49.16.73l6.88-1.51c.42,1.89.81,3.79,1.19,5.69L895,330c.05.24.1.48.14.72l-.81.16c-.46-2.33-.94-4.66-1.46-7Zm-12.15,2.7.15.7,6.88-1.52q.6,2.73,1.15,5.46l-6.92,1.37c0,.24.09.47.14.7l-.81.16q-.66-3.36-1.4-6.69Zm-12.15,2.7c0,.22.09.44.14.66l6.89-1.51c.38,1.74.74,3.47,1.09,5.22l-6.92,1.37c0,.22.09.44.13.66l-.81.16c-.41-2.13-.86-4.26-1.33-6.38Zm34-18.1c.07.25.13.5.2.75l6.83-1.74c.5,1.95,1,3.92,1.44,5.89l-6.86,1.61c.06.25.12.5.17.75l-.8.19q-.84-3.63-1.78-7.24Zm-12.05,3.12c.07.24.13.48.19.72l6.83-1.75q.72,2.82,1.38,5.65L893,320.34c.06.24.11.48.17.73l-.81.18q-.79-3.48-1.7-6.93Zm-12,3.12.18.68,6.83-1.74q.69,2.7,1.33,5.41l-6.87,1.61c.06.23.11.46.17.69l-.81.19c-.51-2.22-1.06-4.43-1.63-6.64Zm-12.05,3.11c.06.22.12.44.17.66l6.83-1.75q.66,2.58,1.27,5.17L868.72,326l.15.66-.8.19c-.5-2.12-1-4.23-1.56-6.33Zm33.41-19.26c.07.25.14.5.22.75l6.76-2q.85,2.91,1.65,5.83l-6.8,1.85c.06.25.13.5.2.75l-.8.21q-1-3.6-2-7.17Zm-11.94,3.53.21.71,6.77-2q.81,2.79,1.58,5.6l-6.81,1.85c.07.24.13.48.2.72l-.8.21q-.93-3.45-1.94-6.87Zm-11.93,3.53c.06.23.13.46.2.68l6.76-2c.52,1.78,1,3.57,1.51,5.36l-6.8,1.85c.06.23.13.46.19.69l-.8.21q-.88-3.3-1.86-6.57Zm-11.94,3.53c.06.22.13.43.19.65l6.77-2q.75,2.55,1.44,5.12l-6.8,1.85.18.65-.8.22q-.85-3.15-1.77-6.27Zm32.72-20.4c.08.25.17.49.25.74l6.69-2.22q.95,2.88,1.85,5.78l-6.74,2.08c.08.25.15.5.23.74l-.79.24c-.73-2.37-1.48-4.74-2.27-7.1Zm-11.8,3.94c.07.23.15.47.23.7l6.69-2.21q.91,2.76,1.77,5.54l-6.73,2.08c.07.24.14.48.22.71l-.79.25q-1.05-3.42-2.18-6.81ZM874,299.15l.22.67,6.69-2.21c.59,1.76,1.15,3.53,1.7,5.31L875.9,305c.07.22.14.45.2.67l-.79.25c-.66-2.18-1.36-4.35-2.08-6.51Zm-11.81,3.94.21.64,6.7-2.21q.82,2.52,1.62,5.07L864,308.67c.07.21.14.43.2.65l-.79.24c-.63-2.08-1.3-4.15-2-6.21Zm-18,8.1c-.44-1.35-.89-2.7-1.36-4.05l3.67-1.26q.71,2.06,1.38,4.11Zm4.15-1.35c-.44-1.38-.9-2.75-1.37-4.12l3.67-1.26c.47,1.39.94,2.79,1.39,4.18Zm-2.72,5.92c-.41-1.36-.84-2.72-1.27-4.07L848,310.5c.44,1.37.87,2.75,1.29,4.13Zm4.18-1.27q-.63-2.07-1.29-4.14l3.69-1.19c.45,1.4.89,2.8,1.32,4.21Zm-1.87,9.42c-.36-1.37-.74-2.74-1.13-4.11l3.73-1.06c.4,1.39.78,2.78,1.15,4.18Zm4.23-1.12c-.37-1.4-.76-2.79-1.15-4.18l3.73-1.06c.4,1.41.79,2.83,1.17,4.25Zm-3,5.76c-.34-1.38-.69-2.76-1.05-4.13l3.76-1c.36,1.4.72,2.8,1.06,4.2Zm4.25-1c-.35-1.4-.7-2.8-1.07-4.2l3.75-1c.38,1.42.74,2.85,1.09,4.28Zm2.1-21.83,1.57-.52a256.52,256.52,0,0,1,8.19,31.08l-1.62.32A253.24,253.24,0,0,0,855.46,305.68ZM851,336.82c-.29-1.4-.59-2.78-.9-4.17l3.79-.85c.31,1.4.62,2.82.91,4.23Zm4.28-.89c-.29-1.42-.6-2.83-.91-4.24l3.78-.86c.32,1.44.63,2.87.93,4.31Zm-3.36,5.59c-.26-1.4-.53-2.8-.81-4.19l3.8-.78c.29,1.42.56,2.83.83,4.25Zm4.3-.81c-.26-1.42-.54-2.84-.83-4.26l3.8-.77c.3,1.44.58,2.88.85,4.32Z"/>
    <path class="cls-10"
          d="M892.5,398.56l0-.09a8.51,8.51,0,0,0,1.52.15,9.55,9.55,0,0,0,9.47-7.62H904a11.35,11.35,0,1,0,.3-22.7h-.47a9.54,9.54,0,0,0-9.27-7.87,8.5,8.5,0,0,0-1.52.11,1,1,0,0,1,0-.1,4.36,4.36,0,0,0-8.25,1.91l-.22,17-.23,17A4.36,4.36,0,0,0,892.5,398.56Z"/>
    <path class="cls-11"
          d="M899.92,379.71c-.3.6-.6.42-.89.46h-.89l-1.78,0-3.56.07-7.12.13-14.24.26-14.24.19L843,381l0-4.21,14.23.48,14.23.56,14.22.63,7.12.32,3.55.16,1.78.08.89,0c.3,0,.6-.13.88.47Z"/>
    <path class="cls-12"
          d="M371.44,159.15a2.92,2.92,0,0,0-.21-.28,4.88,4.88,0,0,0-7-.42l-1,.9a6.06,6.06,0,0,0-8.44.34,6.88,6.88,0,0,0-1.32,1.81c-.08-.09-.15-.18-.24-.27-3-3.09-8.39-2.74-11.75,1a9.6,9.6,0,0,0-1.93,3.26,12.49,12.49,0,0,0-7.83,4.69,11.76,11.76,0,0,0-1.58,12.66c-.23.28-.46.57-.68.88-2.91,4.26-1.89,9.76,2,12.09a8,8,0,0,0,1.32.64,4.83,4.83,0,0,0,2.19,5.5l.31.16A163.23,163.23,0,0,1,371.44,159.15Z"/>
    <path class="cls-13"
          d="M706.85,45.62c0-.11.09-.21.13-.32a4.89,4.89,0,0,0-3.29-6.2l-1.29-.38a6.07,6.07,0,0,0-4.69-7,6.81,6.81,0,0,0-2.23-.18c0-.12.08-.23.1-.34,1.06-4.21-2-8.6-7-9.53a9.64,9.64,0,0,0-3.79.05,12.43,12.43,0,0,0-8.08-4.23,11.74,11.74,0,0,0-11.63,5.25,9.73,9.73,0,0,0-1.1-.13c-5.16-.27-9.32,3.47-9.27,8a7.67,7.67,0,0,0,.15,1.45,4.84,4.84,0,0,0-3.56,4.74c0,.12,0,.23,0,.34A163.35,163.35,0,0,1,706.85,45.62Z"/>
    <path class="cls-12"
          d="M802.07,640.19a5.46,5.46,0,0,0,4.47,1.88,4.91,4.91,0,0,0,7.79,1.65,5.76,5.76,0,0,0,1.5-1.75c2.94,2.38,7.63,2.17,10.95-.9s3.86-7.36,2-10.46a7.44,7.44,0,0,0,3.63-2.29,6.86,6.86,0,0,0-.44-9.91,5.47,5.47,0,0,0-1.53-5.37A114,114,0,0,1,802.07,640.19Z"/>
    <path class="cls-13"
          d="M309.82,405.67a6.32,6.32,0,0,0-5.29,1.93,5,5,0,0,0-1-.32,5.92,5.92,0,0,0-6.95,5.08,6.68,6.68,0,0,0,.11,2.68c-4.39.28-8.23,4.17-8.64,9.41-.4,5,2.53,9.33,6.57,10.5a8.75,8.75,0,0,0-1.29,4.82c.11,4.82,3.92,8.41,8.21,8.11a6.36,6.36,0,0,0,5.55,3.37A132.63,132.63,0,0,1,309.82,405.67Z"/>
    <path class="cls-12"
          d="M693.43,703.76c0,.14,0,.28.06.42a6.07,6.07,0,0,0,7.37,4.67l1.62-.38a7.53,7.53,0,0,0,9.39,4.69,8.44,8.44,0,0,0,2.52-1.17c0,.14.06.29.1.43,1.45,5.18,7.48,8,13.36,6a11.89,11.89,0,0,0,4.06-2.39,15.49,15.49,0,0,0,11.33-.4c5.77-2.43,9.26-7.68,9.31-12.83a12.72,12.72,0,0,0,1.27-.54c5.73-2.89,7.92-9.48,5.06-14.37a10.4,10.4,0,0,0-1-1.48,6,6,0,0,0,.92-7.3c-.07-.12-.16-.24-.24-.35A203.08,203.08,0,0,1,693.43,703.76Z"/>
    <path class="cls-13"
          d="M652.21,687.3a5.41,5.41,0,0,0,2.48,4.15,5.52,5.52,0,0,0-.11.91,5.1,5.1,0,0,0,5.41,5,5.43,5.43,0,0,0,2.25-.52c1,3.66,4.85,6.28,9.35,5.78,4.31-.48,7.46-3.65,7.81-7.25a7.39,7.39,0,0,0,4.27.31,6.85,6.85,0,0,0,5.53-8.24,5.49,5.49,0,0,0,1.95-5.23A114.12,114.12,0,0,1,652.21,687.3Z"/>
    <path class="cls-12"
          d="M871.86,232.41a3.12,3.12,0,0,0,.39-.15,6.07,6.07,0,0,0,3-8.2l-.71-1.5a7.54,7.54,0,0,0,2.56-10.18,8.44,8.44,0,0,0-1.68-2.2l.4-.19c4.75-2.53,6.23-9,3-14.34a11.8,11.8,0,0,0-3.2-3.45,15.48,15.48,0,0,0-2.82-11c-3.61-5.12-9.48-7.4-14.53-6.35a10.46,10.46,0,0,0-.8-1.12c-4-5-11-5.71-15.11-1.87a10.42,10.42,0,0,0-1.23,1.35,6,6,0,0,0-7.33.67c-.1.09-.19.2-.29.3A203,203,0,0,1,871.86,232.41Z"/>
    <path class="cls-13"
          d="M901.57,259.64a5.48,5.48,0,0,0,3.53-3.32,4.58,4.58,0,0,0,.9-.09,5.08,5.08,0,0,0,3.77-6.36,5.69,5.69,0,0,0-1-2.09c3.37-1.71,5.09-6.08,3.64-10.36-1.39-4.12-5.17-6.52-8.75-6.08a7.47,7.47,0,0,0-.62-4.24,6.85,6.85,0,0,0-9.23-3.63,5.49,5.49,0,0,0-5.53-.79A114.12,114.12,0,0,1,901.57,259.64Z"/>
    <path class="cls-7"
          d="M876.79,270.56a509.44,509.44,0,0,0-59.68-87.27,2.9,2.9,0,0,0-4.06-.56l-2.23,1.91a2.91,2.91,0,0,0-.1,4.08h0a2.86,2.86,0,0,1-.14,4.06Q793,207.53,775.41,222.26q8.72,10.4,16.78,21.27a17.21,17.21,0,1,1,19.42,28.41q7.21,11.46,13.74,23.35l40.23-22.08a2.87,2.87,0,0,1,3.84,1.34,2.9,2.9,0,0,0,3.83,1.39l2.59-1.38A2.91,2.91,0,0,0,876.79,270.56ZM824.3,204.51a3,3,0,0,1,3.59,4.66l-3.89,3q-1.77-2.31-3.55-4.61Zm-5.88-7.4a2.79,2.79,0,0,1,3.91.63h0a2.8,2.8,0,0,1-.24,4l-3.83,3c-1.21-1.52-2.42-3-3.64-4.54ZM805.3,228.6a3.09,3.09,0,0,1-4.29-.67c-1.2-1.58-2.42-3.15-3.64-4.7a3.07,3.07,0,0,1,.41-4.32l4.48-3.57a3.08,3.08,0,0,1,4.33.63q1.89,2.4,3.74,4.82a3.09,3.09,0,0,1-.46,4.36ZM821,222.85q-6.66-9.06-13.72-17.83a1.51,1.51,0,1,1,2.34-1.89q7.11,8.82,13.8,18a1.5,1.5,0,1,1-2.42,1.77Zm8.56-3.21q-1.73-2.35-3.46-4.68,2-1.47,3.91-2.93a3,3,0,0,1,3.5,4.72Zm16.81,15.55a3,3,0,0,1,3.23,4.91l-4.1,2.66c-1.06-1.62-2.12-3.25-3.2-4.86Zm-5.3-7.82a3,3,0,0,1,3.31,4.85l-4,2.74c-1.09-1.61-2.18-3.21-3.29-4.81Q839.09,228.76,841.11,227.37Zm-5.46-7.73a3,3,0,0,1,3.41,4.79l-4,2.82c-1.12-1.59-2.24-3.17-3.38-4.75Zm2,27.29q-6.09-9.45-12.62-18.61a1.51,1.51,0,1,1,2.45-1.74q6.57,9.22,12.69,18.73a1.5,1.5,0,1,1-2.52,1.62Zm23.85,12.32a3,3,0,0,1,2.94,5.09l-4.24,2.42c-1-1.68-1.94-3.37-2.92-5Zm-4.86-8.12a3,3,0,0,1,3,5l-4.2,2.5q-1.5-2.51-3-5Zm-5-8a3,3,0,0,1,3.13,5l-4.15,2.58c-1-1.65-2.06-3.29-3.11-4.93Zm-15,32.55a3.08,3.08,0,0,1-4.17-1.18q-1.51-2.57-3.06-5.1a3.09,3.09,0,0,1,.93-4.24l4.87-3a3.09,3.09,0,0,1,4.23,1.15c1.05,1.74,2.1,3.48,3.13,5.23a3.08,3.08,0,0,1-1,4.27Zm16.1-3.7q-5.52-9.79-11.48-19.33a1.51,1.51,0,1,1,2.55-1.59q6,9.59,11.55,19.45a1.51,1.51,0,1,1-2.62,1.47Z"/>
    <path class="cls-6"
          d="M393.09,196.22a9.77,9.77,0,0,0-8.32,4.52,8.53,8.53,0,0,0-1.17,3.78,1.17,1.17,0,0,1-1.86.87l-2.17-1.59a1.18,1.18,0,0,0-1.64.25l-.08.11a1.18,1.18,0,0,0,.25,1.64l2.17,1.59a1.17,1.17,0,0,1-.28,2,8.69,8.69,0,0,0-3.25,2.25c-2.19,2.43-2.81,5.93-1.75,9.54a1.07,1.07,0,0,0,1.52.64h0a1.38,1.38,0,0,0,.67-1.53,7.33,7.33,0,0,1,1.31-7.08,6.22,6.22,0,0,1,2.63-1.72,6.84,6.84,0,0,1,6.23,1.06l41.33,30.35s0,0,0,0l-.94,1.27a1.9,1.9,0,0,0,.19,2.52,1.79,1.79,0,0,0,2.64-.29l1.72-2.34.08-.11,1.66-2.25a1.88,1.88,0,0,0-.18-2.49,1.8,1.8,0,0,0-2.66.27l-1,1.37s0,0,0,0l-41.33-30.35a6.84,6.84,0,0,1-2.89-5.62,6.4,6.4,0,0,1,.86-3,7.36,7.36,0,0,1,6.48-3.37,1.17,1.17,0,0,0,1.15-1.24A1.25,1.25,0,0,0,393.09,196.22Z"/>
    <path class="cls-6"
          d="M383.81,224.42c1.82,1.33,2.69,3.25,1.93,4.28s-2.84.78-4.66-.56-2.69-3.25-1.93-4.28S382,223.08,383.81,224.42Z"/>
    <path class="cls-6"
          d="M401.78,200c1.82,1.34,2.68,3.25,1.93,4.28s-2.85.78-4.67-.55-2.68-3.26-1.93-4.29S400,198.61,401.78,200Z"/>
    <path class="cls-2"
          d="M403,200.54a2.36,2.36,0,0,0-.77-3.45c-4-2.21-7.82-2.59-9.21-.7s.13,5.44,3.43,8.57a2.35,2.35,0,0,0,3.52-.29Z"/>
    <path class="cls-2"
          d="M385,225a2.36,2.36,0,0,0-.78-3.45c-4-2.21-7.82-2.59-9.21-.71s.13,5.45,3.44,8.58a2.35,2.35,0,0,0,3.52-.29Z"/>
    <path class="cls-6"
          d="M776.13,647.08a9.73,9.73,0,0,0,9.29-1.81,8.66,8.66,0,0,0,2.25-3.25,1.17,1.17,0,0,1,2-.28l1.59,2.16a1.17,1.17,0,0,0,1.64.26l.11-.08a1.19,1.19,0,0,0,.25-1.65l-1.59-2.16a1.17,1.17,0,0,1,.87-1.86,8.79,8.79,0,0,0,3.78-1.17,9.81,9.81,0,0,0,4.52-8.58,1.06,1.06,0,0,0-1.25-1.07h0a1.38,1.38,0,0,0-1.1,1.26,7.31,7.31,0,0,1-3.37,6.36,6.17,6.17,0,0,1-3,.86,6.83,6.83,0,0,1-5.63-2.88l-30.34-41.34a0,0,0,0,1,0,0l1.27-.93a1.89,1.89,0,0,0,.58-2.46,1.81,1.81,0,0,0-2.61-.52l-2.34,1.72-.11.08-2.26,1.66a1.87,1.87,0,0,0-.57,2.42,1.79,1.79,0,0,0,2.62.54l1.37-1a0,0,0,0,1,0,0l30.34,41.34a6.84,6.84,0,0,1,1.06,6.23,6.28,6.28,0,0,1-1.72,2.63,7.35,7.35,0,0,1-7.19,1.27,1.18,1.18,0,0,0-1.47.84A1.23,1.23,0,0,0,776.13,647.08Z"/>
    <path class="cls-6"
          d="M793.43,623c-1.34-1.82-1.59-3.9-.56-4.66s3,.11,4.28,1.93,1.59,3.91.56,4.66S794.76,624.78,793.43,623Z"/>
    <path class="cls-6"
          d="M769,640.93c-1.34-1.82-1.59-3.91-.56-4.67s3,.11,4.28,1.93,1.59,3.91.56,4.66S770.29,642.75,769,640.93Z"/>
    <path class="cls-8"
          d="M768,640a2.36,2.36,0,0,0-.3,3.53c3.13,3.3,6.69,4.82,8.58,3.43s1.5-5.24-.71-9.21a2.35,2.35,0,0,0-3.45-.77Z"/>
    <path class="cls-8"
          d="M792.43,622a2.35,2.35,0,0,0-.29,3.52c3.13,3.31,6.69,4.83,8.58,3.44s1.5-5.24-.71-9.21a2.36,2.36,0,0,0-3.45-.78Z"/>
    <path class="cls-14"
          d="M347,393.85c-.13,1.87-.23,3.73-.31,5.6l-17.73-.79c-3.34-.17-6.26,3.2-6.33,7.48a281.86,281.86,0,0,0,19.57,108c1.57,4,5.49,6.14,8.56,4.81l22.78-9.71,9.87-4.2a6.47,6.47,0,0,0,3.15-8.38A234,234,0,0,1,370.29,407q.09-5.76.48-11.52c.28-4.27-2.67-8.12-6.71-8.55l-9-.9C351,385.55,347.29,389.09,347,393.85Z"/>
    <path class="cls-14"
          d="M359.3,491.43q2,6,4.22,11.84a2.21,2.21,0,0,1-1,2.91l-7.63,3a2.23,2.23,0,0,1-2.74-1.54q-2.37-6.15-4.42-12.41a2.23,2.23,0,0,1,1.16-2.92l7.81-2.49A2.2,2.2,0,0,1,359.3,491.43Z"/>
    <path class="cls-14"
          d="M353.16,469.51q1.43,6.09,3.14,12.13a2.2,2.2,0,0,1-1.27,2.8l-7.87,2.32a2.23,2.23,0,0,1-2.59-1.77q-1.8-6.32-3.29-12.71a2.22,2.22,0,0,1,1.41-2.8l8-1.8A2.2,2.2,0,0,1,353.16,469.51Z"/>
    <path class="cls-14"
          d="M349,447.17q.88,6.19,2.06,12.35a2.2,2.2,0,0,1-1.51,2.67l-8,1.62a2.24,2.24,0,0,1-2.43-2c-.82-4.29-1.54-8.61-2.15-12.93a2.22,2.22,0,0,1,1.65-2.67l8.13-1.08A2.2,2.2,0,0,1,349,447.17Z"/>
    <path class="cls-14"
          d="M346.77,424.55q.33,6.26,1,12.49a2.19,2.19,0,0,1-1.74,2.52l-8.15.91a2.24,2.24,0,0,1-2.25-2.2c-.44-4.34-.78-8.71-1-13.07a2.23,2.23,0,0,1,1.88-2.52l8.2-.36A2.18,2.18,0,0,1,346.77,424.55Z"/>
    <path class="cls-14"
          d="M346.42,409.31c0,1.89,0,3.77,0,5.66a1.57,1.57,0,0,1-1.41,1.71l-9.3.21a1.61,1.61,0,0,1-1.48-1.73c0-2,0-4,0-5.93a1.62,1.62,0,0,1,1.46-1.74l9.31.12A1.59,1.59,0,0,1,346.42,409.31Z"/>
    <path class="cls-14"
          d="M378,470.74a10.57,10.57,0,0,1,6.3,20.11c-5.16,1.93-11.08-1.17-12.91-7S372.69,472.11,378,470.74Z"/>
    <path class="cls-14" d="M379.36,475.56a5.54,5.54,0,0,1,3.3,10.56,5.54,5.54,0,0,1-3.3-10.56Z"/>
    <path class="cls-14"
          d="M370.25,410.66a10.55,10.55,0,0,1,.93,21c-5.49.53-10.41-3.95-10.67-10.06S364.75,410.61,370.25,410.66Z"/>
    <path class="cls-14" d="M370.3,415.66a5.54,5.54,0,0,1,.49,11,5.53,5.53,0,0,1-.49-11Z"/>
    <path class="cls-7"
          d="M866.25,446.26q1-3.11,1.9-6.24c2.49-1.23,5-2.53,7.44-3.9,3.41-1.88,6.28-6.44,7.22-11.82q1.1-6.24,1.77-12.54c.59-5.43-.91-10.59-3.66-13.33-2-2-4-3.93-6.07-5.8,0-5.69-.24-11.38-.78-17.06-.55-5.85-5-10.11-10-10.17h0a7.66,7.66,0,0,0-.83,0,8.78,8.78,0,0,0-.88.1l-.14,0a4.29,4.29,0,0,0-3.38,4.88,160.71,160.71,0,0,1-6.42,71.36,4.29,4.29,0,0,0,2.45,5.4l1.74.62,4.29,1.52A4.31,4.31,0,0,0,866.25,446.26Zm3.47-14a175.26,175.26,0,0,0,4.53-32.77,1.05,1.05,0,0,1,1.75-.87c1,1,2.06,2,3.07,3.09,2.15,2.2,3.28,6.26,2.8,10.51-.36,3.29-.82,6.57-1.36,9.84-.7,4.23-2.88,7.83-5.56,9.37-1.26.74-2.52,1.45-3.79,2.15C870.34,434.06,869.48,433.27,869.72,432.3Z"/>
    <path class="cls-7" d="M862.26,391a8,8,0,0,1-.88-16c4.14-.48,7.92,2.91,8.17,7.56S866.43,391,862.26,391Z"/>
    <path class="cls-7" d="M862.2,387.22a4.21,4.21,0,0,1-.47-8.38,4.2,4.2,0,0,1,.47,8.38Z"/>
    <path class="cls-7" d="M856.05,436.59A8,8,0,0,1,859.66,421c4.11.7,6.8,5,5.74,9.53S860,437.77,856.05,436.59Z"/>
    <path class="cls-7" d="M857.05,432.92a4.21,4.21,0,0,1,1.9-8.18,4.2,4.2,0,0,1-1.9,8.18Z"/>
    <path class="cls-13"
          d="M919.23,447.78l.3.06a4.31,4.31,0,0,0,4.88-3.81c.05-.39.09-.78.14-1.17a5.35,5.35,0,0,0,5.38-5.15,6.06,6.06,0,0,0-.18-2l.31,0c3.81.28,7.16-3.07,7.21-7.49a8.23,8.23,0,0,0-.62-3.28,11,11,0,0,0,2.44-7.67,10.34,10.34,0,0,0-6.33-9.3c0-.32,0-.64-.06-1-.56-4.52-4.44-7.56-8.39-6.83a7.34,7.34,0,0,0-1.24.35,4.26,4.26,0,0,0-4.66-2.36l-.29.07A144,144,0,0,1,919.23,447.78Z"/>
    <path class="cls-15" d="M521.08,617.62q8.46,3.33,17.2,6l-9-.73Z"/>
    <polyline class="cls-16" points="521.96 588.04 521.97 588.04 521.96 588.03"/>
    <line class="cls-16" x1="485.76" y1="575.74" x2="485.77" y2="575.76"/>
    <line class="cls-16" x1="442.17" y1="566.71" x2="443.64" y2="567.67"/>
    <line class="cls-16" x1="521.96" y1="588.03" x2="521.96" y2="588.04"/>
    <line class="cls-16" x1="574.31" y1="605.79" x2="574.31" y2="605.81"/>
    <path class="cls-15"
          d="M465,586.17c.07.07.14.11.21.17q5.76,4.32,11.75,8.29,5.61,3.71,11.42,7.11c4.19,2.43,8.46,4.76,12.81,7,4.78,2.4,9.64,4.66,14.59,6.74l.24-1.1,5.11,3.29q8.46,3.33,17.2,6l6.7.53-.54,1.27q7.65,2.12,15.47,3.73,7,1.43,14.07,2.44,6.33.92,12.72,1.46c1.85.15,3.7.3,5.56.42l-6.78.43-14.44.92-15.23,1-16.35,1-15.07,1-11.5-10L500.44,617,488.84,607l-11-9.58-12.65-11Z"/>
    <line class="cls-16" x1="485.76" y1="575.74" x2="485.77" y2="575.76"/>
    <path class="cls-15"
          d="M465.16,586.34q5.76,4.32,11.75,8.29,5.61,3.71,11.42,7.11c4.19,2.43,8.46,4.76,12.81,7,4.78,2.4,9.64,4.66,14.59,6.74l.24-1.1,5.11,3.29q8.46,3.33,17.2,6l6.7.53-.54,1.27q7.65,2.12,15.47,3.73,7,1.43,14.07,2.44,6.33.92,12.72,1.46c1.85.15,3.7.3,5.56.42l9.81-.63-2.76,1-27.66,9.66-12.34,4.32-13.84,4.84-15.18,5.3-14.13,4.95-8.38-12.58-9-13.5-8.22-12.32-7.32-11-18.06-27.11Z"/>
    <polyline class="cls-16" points="521.96 588.04 521.97 588.04 521.96 588.03"/>
    <path class="cls-15"
          d="M476.91,594.63q5.61,3.71,11.42,7.11c4.19,2.43,8.46,4.76,12.81,7,4.78,2.4,9.64,4.66,14.59,6.74l.24-1.1,5.11,3.29q8.46,3.33,17.2,6l6.7.53-.54,1.27q7.65,2.12,15.47,3.73,7,1.43,14.07,2.44,6.33.92,12.72,1.46l-1.22.85-13.83,9.56L549.07,659.1l-13.21,9.13-14.38,10-13.38,9.25-5.22-15.53-5.62-16.74-5.17-15.36-8.84-26.31-5.41-16.12Z"/>
    <line class="cls-16" x1="485.76" y1="575.74" x2="485.77" y2="575.76"/>
    <path class="cls-15"
          d="M501.14,608.69c4.78,2.4,9.64,4.66,14.59,6.74l.24-1.1,5.11,3.29q8.46,3.33,17.2,6l6.7.53-.54,1.27q7.65,2.12,15.47,3.73,7,1.43,14.07,2.44L571,634.84l-11.73,13-10.24,11.3-23.68,26.15-13.45,14.86-12.52,13.83-1.84-18.71-2-20.06-3.5-35.36-1.52-15.32L488.84,607l-.51-5.22C492.52,604.17,496.79,606.5,501.14,608.69Z"/>
    <line class="cls-16" x1="574.31" y1="605.79" x2="574.31" y2="605.81"/>
    <polyline class="cls-16" points="521.96 588.04 521.97 588.04 521.96 588.03"/>
    <line class="cls-16" x1="485.76" y1="575.74" x2="485.77" y2="575.76"/>
    <path class="cls-15"
          d="M515.73,615.43l.24-1.1,5.11,3.29q8.46,3.33,17.2,6l6.7.53-.54,1.27q7.65,2.12,15.47,3.73l-4.1,6.65-10.34,16.82-9.61,15.59-10.47,17L501.55,724l-11.61,18.86,1.85-22.22,3.8-45.45,1.67-20,1.53-18.36L500.44,617l.7-8.34C505.92,611.09,510.78,613.35,515.73,615.43Z"/>
    <line class="cls-16" x1="574.31" y1="605.79" x2="574.31" y2="605.81"/>
    <polyline class="cls-16" points="521.96 588.04 521.97 588.04 521.96 588.03"/>
    <path class="cls-15"
          d="M516,614.33l5.11,3.29q8.46,3.33,17.2,6l6.7.53-.54,1.27-5,11.43-8,18.35-1.19,2.72-8.81,20.25-9.54,21.92L501.55,724l-22,50.66,12.28-54,5.79-25.39,5.3-23.32,4.9-21.6.67-2.88,4.44-19.57,2.84-12.43Z"/>
    <polygon class="cls-15" points="521.96 588.03 521.97 588.04 521.96 588.04 521.96 588.03"/>
    <polygon class="cls-15" points="521.96 588.03 521.97 588.04 521.96 588.04 521.96 588.03"/>
    <line class="cls-16" x1="531.87" y1="655.37" x2="508.05" y2="647.29"/>
    <path class="cls-17" d="M516,614.33l5.11,3.29c-1.79-.72-3.58-1.44-5.35-2.19Z"/>
    <path class="cls-17" d="M545,624.17l-.54,1.27c-2.06-.58-4.12-1.18-6.16-1.8Z"/>
    <path class="cls-17" d="M592.26,633.49l9.81-.63-2.76,1Q595.77,633.7,592.26,633.49Z"/>
    <polyline class="cls-18" points="521.96 588.04 521.97 588.04 521.96 588.03"/>
    <path class="cls-3"
          d="M361.79,640.84Q367,646,372.39,651c1.64,1.5,2.21,3.57,1.25,4.65-1.67,1.88-3.33,3.76-5,5.63-1,1.08-.34,3.21,1.41,4.73q6.46,5.6,13.21,10.85c1.83,1.42,4,1.62,4.9.47l4.56-6c.88-1.15,3-1,4.81.33q5.88,4.35,12,8.43c1.85,1.24,4,1.24,4.79,0q28.89-44.3,57.77-88.58a2.64,2.64,0,0,0-.76-3.64q-6.07-4.08-11.85-8.58-4.33-3.36-8.48-7-5.54-4.78-10.71-10a2.66,2.66,0,0,0-3.72,0l-75.71,73.85C359.8,637.15,360.22,639.26,361.79,640.84ZM460,595.48c1.17.82,2.34,1.64,3.53,2.43l-3.64,5.38q-1.81-1.23-3.62-2.51Zm-5.46,7.75c1.22.85,2.45,1.7,3.68,2.53l-3.63,5.38q-1.91-1.29-3.78-2.61ZM449.1,611q1.89,1.34,3.83,2.64c-1.21,1.79-2.43,3.58-3.64,5.38-1.32-.9-2.63-1.8-3.93-2.72Zm-5.46,7.74c1.32.93,2.64,1.85,4,2.75L444,626.83c-1.37-.92-2.74-1.86-4.09-2.82C441.15,622.25,442.39,620.48,443.64,618.71Zm-5.46,7.75q2.06,1.44,4.14,2.85l-3.64,5.37q-2.13-1.44-4.24-2.92Zm-5.46,7.74q2.13,1.5,4.29,3l-3.63,5.37q-2.22-1.49-4.39-3Zm-5.45,7.74c1.47,1,2.94,2.06,4.43,3.07l-3.63,5.37c-1.52-1-3-2.08-4.54-3.13Zm-5.46,7.75q2.28,1.6,4.59,3.16l-3.63,5.38c-1.58-1.07-3.14-2.15-4.7-3.24C419.32,653.22,420.56,651.45,421.81,649.69Zm-5.46,7.74q2.36,1.67,4.74,3.27l-3.63,5.38c-1.63-1.1-3.24-2.22-4.85-3.35C413.86,661,415.11,659.2,416.35,657.43Zm-5.46,7.74c1.62,1.15,3.25,2.27,4.9,3.38l-3.64,5.38c-1.67-1.14-3.34-2.29-5-3.45Zm44.21-73.25c1.15.85,2.3,1.7,3.46,2.53l-3.78,5.27c-1.2-.86-2.38-1.72-3.56-2.6Zm-5.67,7.59q1.8,1.34,3.61,2.64l-3.78,5.27c-1.25-.89-2.48-1.8-3.71-2.71Zm-5.67,7.59c1.25.93,2.5,1.84,3.76,2.75l-3.78,5.27c-1.3-.93-2.58-1.87-3.86-2.82Zm-5.66,7.59c1.29,1,2.59,1.92,3.9,2.85l-3.78,5.28c-1.35-1-2.68-1.94-4-2.93Zm-5.67,7.59q2,1.5,4.05,3l-3.78,5.28c-1.4-1-2.78-2-4.16-3Zm-5.67,7.59q2.08,1.56,4.2,3.07l-3.78,5.27c-1.45-1-2.88-2.08-4.31-3.14Zm-5.67,7.59q2.16,1.6,4.35,3.18l-3.78,5.27c-1.5-1.07-3-2.15-4.46-3.25Zm-5.67,7.59q2.24,1.66,4.5,3.29l-3.78,5.27q-2.33-1.67-4.6-3.36Q413.48,647.64,415.42,645.05Zm-5.67,7.59c1.54,1.15,3.08,2.28,4.65,3.4l-3.78,5.27q-2.4-1.71-4.75-3.47Zm-5.67,7.59c1.59,1.18,3.18,2.35,4.79,3.51L405.09,669c-1.64-1.18-3.27-2.37-4.89-3.59Zm40.31-77.08a1.13,1.13,0,0,1,1.59-.08q1.92,1.6,3.87,3.18a1.14,1.14,0,0,1,.23,1.58l-1.65,2.08a1.15,1.15,0,0,1-1.61.12q-2-1.6-4-3.26a1.13,1.13,0,0,1-.19-1.59Zm-5.61,6.6a1.16,1.16,0,0,1,1.63-.06q2,1.68,4,3.31a1.16,1.16,0,0,1,.26,1.61l-1.65,2.08a1.17,1.17,0,0,1-1.64.09q-2.09-1.66-4.12-3.38a1.17,1.17,0,0,1-.23-1.63C437.64,591.1,438.21,590.42,438.78,589.75Zm-5.6,6.59a1.19,1.19,0,0,1,1.66,0q2.07,1.74,4.18,3.44a1.18,1.18,0,0,1,.3,1.63c-.55.7-1.1,1.39-1.66,2.08a1.18,1.18,0,0,1-1.67.07q-2.16-1.74-4.27-3.51a1.19,1.19,0,0,1-.26-1.66C432,597.69,432.6,597,433.18,596.34Zm-5.61,6.59a1.22,1.22,0,0,1,1.7,0c1.43,1.21,2.88,2.39,4.34,3.56a1.23,1.23,0,0,1,.33,1.67l-1.66,2.08a1.21,1.21,0,0,1-1.71,0q-2.24-1.78-4.42-3.63a1.22,1.22,0,0,1-.3-1.69C426.43,604.28,427,603.61,427.57,602.93Zm-5.6,6.59a1.24,1.24,0,0,1,1.73,0q2.22,1.88,4.49,3.69a1.25,1.25,0,0,1,.37,1.7L426.9,617a1.24,1.24,0,0,1-1.74,0c-1.54-1.23-3.07-2.49-4.58-3.76a1.24,1.24,0,0,1-.33-1.71Zm-5.61,6.6a1.26,1.26,0,0,1,1.77.06q2.3,1.94,4.64,3.81a1.26,1.26,0,0,1,.4,1.72l-1.65,2.08a1.26,1.26,0,0,1-1.78,0c-1.59-1.28-3.17-2.57-4.73-3.89a1.27,1.27,0,0,1-.37-1.74Zm-5.6,6.59a1.3,1.3,0,0,1,1.8.09q2.37,2,4.8,3.94a1.3,1.3,0,0,1,.43,1.75l-1.65,2.08a1.32,1.32,0,0,1-1.82-.05q-2.46-2-4.88-4a1.31,1.31,0,0,1-.4-1.78C409.61,624.06,410.18,623.38,410.76,622.71Zm-5.61,6.59a1.35,1.35,0,0,1,1.84.12q2.44,2.05,4.95,4.07a1.34,1.34,0,0,1,.47,1.78l-1.65,2.08a1.34,1.34,0,0,1-1.85-.08q-2.55-2-5-4.14a1.35,1.35,0,0,1-.44-1.81C404,630.65,404.58,630,405.15,629.3Zm-5.6,6.59a1.37,1.37,0,0,1,1.87.15c1.68,1.42,3.39,2.82,5.1,4.19A1.37,1.37,0,0,1,407,642l-1.65,2.08c-.37.48-1.22.43-1.89-.11q-2.62-2.1-5.19-4.26c-.65-.55-.87-1.37-.47-1.83Zm-5.61,6.59c.39-.46,1.25-.37,1.91.18q2.61,2.19,5.26,4.32c.67.55.92,1.37.54,1.84L400,650.9c-.38.47-1.24.41-1.93-.14-1.79-1.44-3.58-2.9-5.34-4.39-.67-.57-.9-1.4-.51-1.86Zm-5.6,6.6c.39-.46,1.26-.37,1.94.21q2.69,2.25,5.41,4.44c.69.56,1,1.39.58,1.87l-1.65,2.08c-.38.47-1.26.4-2-.17q-2.78-2.22-5.5-4.52c-.69-.58-.94-1.43-.54-1.89C387.19,650.43,387.76,649.75,388.34,649.08Zm-5.61,6.59c.39-.46,1.28-.35,2,.24,1.84,1.54,3.69,3.07,5.56,4.57.72.57,1,1.42.62,1.89l-1.65,2.08c-.38.48-1.27.39-2-.19q-2.85-2.29-5.65-4.64c-.71-.6-1-1.47-.58-1.93C381.59,657,382.16,656.34,382.73,655.67Zm-5.6,6.59c.39-.46,1.29-.34,2,.27,1.89,1.59,3.79,3.15,5.72,4.7.73.59,1,1.45.65,1.92l-1.65,2.08c-.38.47-1.29.38-2-.22q-2.93-2.35-5.8-4.77c-.73-.62-1-1.49-.61-2Zm59.12-86.14q1.56,1.46,3.15,2.9l-4.34,4.81c-1.09-1-2.18-2-3.25-3ZM429.77,583c1.08,1,2.18,2,3.28,3l-4.34,4.82c-1.14-1-2.26-2.07-3.38-3.11Zm-6.48,6.9q1.69,1.59,3.42,3.15l-4.35,4.82q-1.77-1.6-3.51-3.24Zm-6.49,6.91c1.18,1.1,2.36,2.2,3.56,3.28L416,604.93q-1.84-1.66-3.66-3.36Zm-6.48,6.91q1.83,1.72,3.69,3.4L409.67,612c-1.28-1.15-2.54-2.32-3.79-3.49Zm-6.48,6.91q1.89,1.79,3.83,3.52L403.32,619c-1.32-1.19-2.63-2.4-3.92-3.61Zm-6.49,6.91c1.31,1.23,2.64,2.44,4,3.65L397,626c-1.36-1.23-2.71-2.48-4.05-3.73Zm-6.48,6.9c1.36,1.28,2.72,2.53,4.1,3.78l-4.34,4.81q-2.11-1.9-4.2-3.86Zm-6.48,6.91q2.1,2,4.24,3.9l-4.35,4.82c-1.46-1.32-2.9-2.64-4.33-4Zm-6.48,6.91q2.16,2,4.37,4l-4.35,4.81q-2.25-2-4.46-4.11Zm54-66.39c1,1,2,2,3.08,3l-4.48,4.7c-1.07-1-2.12-2-3.16-3.08Zm-6.67,6.73q1.59,1.57,3.21,3.12c-1.5,1.56-3,3.13-4.48,4.69-1.11-1.06-2.21-2.12-3.29-3.2Zm-6.67,6.73c1.1,1.09,2.22,2.17,3.34,3.24l-4.48,4.7q-1.72-1.65-3.43-3.34C415.5,588.43,417,586.89,418.54,585.36Zm-6.67,6.72c1.15,1.14,2.3,2.26,3.47,3.38l-4.48,4.69c-1.2-1.14-2.38-2.3-3.56-3.46Zm-6.67,6.73q1.79,1.77,3.6,3.5l-4.48,4.7q-1.86-1.78-3.69-3.59Zm-6.67,6.73c1.23,1.22,2.48,2.43,3.73,3.63-1.49,1.56-3,3.13-4.48,4.69-1.28-1.23-2.56-2.47-3.82-3.72Zm-6.67,6.72q1.9,1.9,3.86,3.76l-4.47,4.7c-1.34-1.27-2.65-2.56-4-3.85ZM385.19,619c1.32,1.31,2.65,2.6,4,3.89l-4.47,4.69q-2.07-2-4.09-4C382.14,622.06,383.66,620.52,385.19,619Zm-6.67,6.73q2,2,4.13,4l-4.48,4.7q-2.13-2-4.22-4.11C375.47,628.79,377,627.25,378.52,625.72Zm-6.68,6.72q2.12,2.1,4.27,4.15c-1.5,1.56-3,3.13-4.48,4.69-1.46-1.4-2.92-2.81-4.35-4.23Z"/>
    <circle class="cls-19" cx="597.2" cy="99.44" r="45.45"/>
    <path class="cls-15"
          d="M552.91,45.74l77.6-6,.88,44.55h0l4.75,80.89c-2.54-.26-5.11-.47-7.67-.62l-4.69-79.66h-.07V83.81l0-.49h0L624,45.86l-30.63,2.52,6.95,38.15h0l4.58,77.86c-2.68.13-5.35.32-8,.55l-4.56-77.57h-.07l-4.86-38.23-27.2,2,8.32,38.12,4.65,79.12c-2.48.5-4.94,1.05-7.41,1.63l-4.71-80.15Z"/>
    <path class="cls-15"
          d="M650.35,90.92l22-1.3,4.95,83.83c-2.07-.65-4.16-1.25-6.25-1.83l-4.51-76.75-10.39.61L660.47,169c-1.86-.41-3.73-.78-5.59-1.14Z"/>
    <path class="cls-15" d="M682,114l21.2-1.24,3.87,65.8-5.91.34L697.53,118l-9.78.58,3.52,59.72q-2.81-1.09-5.65-2.08Z"/>
    <path class="cls-15" d="M519.73,98.6l22-1.3,4.61,78.37-5.41,1.93-4.41-75.08-10.4.6,4.62,78.57q-3,1.31-6,2.71Z"/>
    <path class="cls-15" d="M513,123.94l3.8,64.38-3,1.58-2.43.14-3.58-60.91-9.79.59,3.6,60.9-5.91.35-3.89-65.8Z"/>
    <path class="cls-20" d="M546.34,175.67c-1.82.61-3.62,1.27-5.41,1.93"/>
    <path class="cls-21" d="M444.75,304.36a188.73,188.73,0,0,1,113.51-92"/>
    <circle class="cls-22" cx="612" cy="396" r="212.74" transform="translate(-100.76 548.74) rotate(-45)"/>
    <circle class="cls-23" cx="612" cy="396" r="212.24" transform="translate(-100.76 548.74) rotate(-45)"/>
    <path class="cls-21"
          d="M558.26,212.33c5.46-1.58,11-2.94,16.73-4,102.7-20,202.27,47.67,222.39,151.1S750.56,562.87,647.86,582.85s-202.27-47.67-222.39-151.1a190.85,190.85,0,0,1,19.28-127.39"/>
    <path class="cls-24"
          d="M500.08,255a178,178,0,0,1,77.69-36c97.42-18.95,191.86,45.22,211,143.34s-44.41,193-141.83,212S455,529.06,435.94,431a181.48,181.48,0,0,1-.62-66.53"/>
    <path class="cls-25"
          d="M597.71,224c85.77-7.13,165.07,51.81,182,138.83,18.14,93.27-42.22,183.49-134.83,201.51s-182.4-43-200.54-136.26A172.07,172.07,0,0,1,465,307.42"/>
    <path class="cls-26"
          d="M581.49,234.43c87.83-17.09,173,41,190.29,129.79S731.86,538.79,644,555.88s-173-41-190.3-129.78a164.14,164.14,0,0,1,23.09-120.61"/>
    <path class="cls-7"
          d="M576.18,234.52c-.47.09-.94.2-1.4.31q-.76-.51-1.56-1a3.7,3.7,0,0,0-3.05-.09c-.88.31-1.74.66-2.59,1a3.69,3.69,0,0,0-2.15,2.16c-.17.59-.31,1.19-.45,1.79-1.09.62-2.15,1.29-3.17,2a2.36,2.36,0,0,0-.86,3h0l.09.16.12.16,0,0a.94.94,0,0,0,1.3.11,35.37,35.37,0,0,1,14.35-6.56,1,1,0,0,0,.76-1.06l-.07-.4-.18-1A.94.94,0,0,0,576.18,234.52Zm-3,.86a38,38,0,0,0-6.76,2.71c-.2.1-.41,0-.36-.24s.17-.62.26-.92a2.88,2.88,0,0,1,1.7-1.69c.67-.29,1.35-.56,2-.81a2.91,2.91,0,0,1,2.4,0l.82.49A.23.23,0,0,1,573.13,235.38Z"/>
    <path class="cls-7" d="M566.05,241.31a1.77,1.77,0,0,1-3,1.92,1.77,1.77,0,0,1,3-1.92Z"/>
    <path class="cls-7" d="M565.33,241.74a.92.92,0,0,1-1.55,1,.92.92,0,0,1,1.55-1Z"/>
    <path class="cls-7" d="M575.44,237.52a1.76,1.76,0,0,1-3.37,1,1.76,1.76,0,0,1,3.37-1Z"/>
    <path class="cls-7" d="M574.63,237.73a.9.9,0,0,1-.64,1.09.91.91,0,0,1-1.13-.56.92.92,0,0,1,1.77-.53Z"/>
    <path class="cls-3"
          d="M593.82,223l-1.12,0c-.34-.34-.68-.68-1-1a2.91,2.91,0,0,0-2.32-.54c-.72.1-1.43.23-2.14.38a2.85,2.85,0,0,0-2,1.31c-.22.43-.43.87-.63,1.3-.93.3-1.84.65-2.74,1a1.84,1.84,0,0,0-1.13,2.18h0a.69.69,0,0,0,0,.13.42.42,0,0,0,.06.14v0a.74.74,0,0,0,1,.29,27.7,27.7,0,0,1,12-2.77.73.73,0,0,0,.75-.69v-.31l0-.78A.74.74,0,0,0,593.82,223Zm-2.47.18a30.31,30.31,0,0,0-5.6,1c-.16,0-.3-.1-.23-.24s.22-.45.34-.67a2.29,2.29,0,0,1,1.57-1c.55-.11,1.11-.22,1.68-.3a2.3,2.3,0,0,1,1.83.41l.55.5C591.61,223,591.52,223.16,591.35,223.18Z"/>
    <path class="cls-3" d="M585,226.6a1.38,1.38,0,0,1-2.56,1,1.37,1.37,0,0,1,2.56-1Z"/>
    <path class="cls-3"
          d="M584.39,226.82a.72.72,0,0,1-.43.89.71.71,0,0,1-.92-.37.69.69,0,0,1,.42-.9A.7.7,0,0,1,584.39,226.82Z"/>
    <path class="cls-3"
          d="M592.78,225.18a1.36,1.36,0,0,1-1.26,1.38,1.37,1.37,0,0,1-1.48-1.14,1.38,1.38,0,0,1,2.74-.24Z"/>
    <path class="cls-3" d="M592.13,225.21a.72.72,0,0,1-1.44.13.7.7,0,0,1,.66-.75A.69.69,0,0,1,592.13,225.21Z"/>
    <path class="cls-27"
          d="M497,256.17c-.31.21-.61.42-.92.65-.46-.1-.94-.18-1.42-.26a2.87,2.87,0,0,0-2.22.85c-.54.48-1.06,1-1.57,1.51a2.88,2.88,0,0,0-.9,2.2c.06.48.13,1,.21,1.43a28.75,28.75,0,0,0-1.69,2.4,1.85,1.85,0,0,0,.28,2.43h0l.12.09.13.08h0a.73.73,0,0,0,1-.31,27.63,27.63,0,0,1,8.39-9,.72.72,0,0,0,.24-1l-.17-.27-.42-.65A.74.74,0,0,0,497,256.17Zm-1.94,1.53a29.94,29.94,0,0,0-4.07,4c-.11.13-.31.1-.33-.06l-.09-.75a2.28,2.28,0,0,1,.73-1.72c.39-.41.8-.81,1.22-1.19a2.3,2.3,0,0,1,1.74-.69l.74.11C495.17,257.39,495.2,257.59,495.07,257.7Z"/>
    <path class="cls-27" d="M491.73,264.09a1.38,1.38,0,0,1-1.56,2.27,1.38,1.38,0,0,1,1.56-2.27Z"/>
    <path class="cls-27" d="M491.34,264.62a.72.72,0,0,1-.82,1.18.72.72,0,0,1,.82-1.18Z"/>
    <path class="cls-27" d="M497.38,258.56a1.38,1.38,0,0,1-2.14,1.73,1.38,1.38,0,0,1,2.14-1.73Z"/>
    <path class="cls-27" d="M496.86,259a.72.72,0,0,1-.14,1,.7.7,0,0,1-1-.07.69.69,0,0,1,.12-1A.7.7,0,0,1,496.86,259Z"/>
</svg>
