<svg width="184" height="178" viewBox="0 0 184 178" fill="none" xmlns="http://www.w3.org/2000/svg">
<g filter="url(#filter0_d_541_4868)">
<path d="M161.236 76.7812H99.5601C97.8705 81.0425 97.024 85.7765 97.2819 90.7442H104.095C112.838 90.7442 119.926 97.8322 119.926 106.576V120.472C126.695 122.723 134.089 122.727 140.871 120.472V106.576C140.871 97.8322 147.959 90.7442 156.702 90.7442H163.515C163.772 85.7859 162.93 81.0515 161.236 76.7812V76.7812Z" fill="#E2C4FF"/>
<path d="M86.7645 83.7643H16.9492V52.3477H86.7642V83.7643H86.7645Z" fill="#E2C4FF"/>
<path d="M167.094 38.3984H16.9062C9.23834 38.3984 3 44.6368 3 52.3047V125.696C3 133.364 9.23834 139.602 16.9062 139.602H167.094C174.762 139.602 181 133.364 181 125.696V52.3047C181 44.6368 174.762 38.3984 167.094 38.3984V38.3984ZM174.047 125.696C174.047 129.53 170.928 132.649 167.094 132.649H16.9062C13.0723 132.649 9.95312 129.53 9.95312 125.696V52.3047C9.95312 48.4707 13.0723 45.3516 16.9062 45.3516H167.094C170.928 45.3516 174.047 48.4707 174.047 52.3047V125.696Z" fill="#020288"/>
<path d="M130.399 52.3633C110.196 52.3633 93.7598 68.7994 93.7598 89.0021C93.7598 109.205 110.196 125.641 130.399 125.641C150.602 125.641 167.037 109.205 167.037 89.0021C167.037 68.7994 150.601 52.3633 130.399 52.3633V52.3633ZM130.399 118.688C114.03 118.688 100.713 105.371 100.713 89.0021C100.713 72.6334 114.03 59.3164 130.399 59.3164C146.767 59.3164 160.084 72.6334 160.084 89.0021C160.084 105.371 146.767 118.688 130.399 118.688V118.688Z" fill="#020288"/>
<path d="M130.398 87.2695C128.499 87.265 126.922 88.8114 126.922 90.7454C126.922 92.6961 128.516 94.222 130.398 94.222C132.343 94.222 133.875 92.628 133.875 90.7454C133.875 88.8097 132.299 87.2741 130.398 87.2695V87.2695Z" fill="#020288"/>
<path d="M83.2731 90.7578H20.4395C18.5197 90.7578 16.9629 92.3146 16.9629 94.2344C16.9629 96.1545 18.5197 97.7109 20.4395 97.7109H83.2731C85.1929 97.7109 86.7497 96.1545 86.7497 94.2344C86.7497 92.3146 85.1932 90.7578 83.2731 90.7578Z" fill="#020288"/>
<path d="M83.2731 104.723H20.4395C18.5197 104.723 16.9629 106.279 16.9629 108.199C16.9629 110.119 18.5197 111.676 20.4395 111.676H83.2731C85.1929 111.676 86.7497 110.119 86.7497 108.199C86.7497 106.279 85.1932 104.723 83.2731 104.723Z" fill="#020288"/>
<path d="M83.2731 118.688H20.4395C18.5197 118.688 16.9629 120.244 16.9629 122.164C16.9629 124.084 18.5197 125.641 20.4395 125.641H83.2731C85.1929 125.641 86.7497 124.084 86.7497 122.164C86.7497 120.244 85.1932 118.688 83.2731 118.688Z" fill="#020288"/>
</g>
<defs>
<filter id="filter0_d_541_4868" x="0" y="0" width="184" height="185" filterUnits="userSpaceOnUse" color-interpolation-filters="sRGB">
<feFlood flood-opacity="0" result="BackgroundImageFix"/>
<feColorMatrix in="SourceAlpha" type="matrix" values="0 0 0 0 0 0 0 0 0 0 0 0 0 0 0 0 0 0 127 0" result="hardAlpha"/>
<feOffset dy="4"/>
<feGaussianBlur stdDeviation="1.5"/>
<feComposite in2="hardAlpha" operator="out"/>
<feColorMatrix type="matrix" values="0 0 0 0 0 0 0 0 0 0 0 0 0 0 0 0 0 0 0.25 0"/>
<feBlend mode="normal" in2="BackgroundImageFix" result="effect1_dropShadow_541_4868"/>
<feBlend mode="normal" in="SourceGraphic" in2="effect1_dropShadow_541_4868" result="shape"/>
</filter>
</defs>
</svg>
