<svg id="Layer_1" data-name="Layer 1" xmlns="http://www.w3.org/2000/svg" viewBox="0 0 100 100"><defs><style>.cls-1{fill:#3ad394;}</style></defs><title>icon id 4</title><path class="cls-1" d="M100,69.07V69a.41.41,0,0,0,0-.11v0s0-.07,0-.1a.64.64,0,0,1,0-.07.25.25,0,0,0,0-.07.19.19,0,0,0,0-.08s0,0,0-.06a.42.42,0,0,0,0-.1h0L82.72,30.64V25.7h.11a3.35,3.35,0,0,0,3.35-3.35V22.1a3.35,3.35,0,0,0-2.82-3.31L55.08,14.23v-2.9a6.8,6.8,0,1,0-10.16,0v2.74l-28.3,4.72a3.34,3.34,0,0,0-2.8,3.3v.26a3.35,3.35,0,0,0,3.35,3.35h.11v4.94L.14,68.34h0a.42.42,0,0,0,0,.1s0,0,0,.06a.19.19,0,0,0,0,.08.25.25,0,0,0,0,.07.64.64,0,0,1,0,.07s0,.07,0,.1v0A.41.41,0,0,0,0,69v.14C.11,75.79,8.37,81,18.9,81s18.79-5.2,18.89-11.86v-.06s0,0,0-.06v0s0-.07,0-.11v0s0-.07,0-.1a.2.2,0,0,0,0-.07.64.64,0,0,1,0-.07s0-.06,0-.08a.14.14,0,0,1,0-.06.42.42,0,0,1,0-.1h0L20.52,30.64V25.7h24.4V60.9a3.34,3.34,0,0,0-1.72,2.92V87.69l-10.27,3.2a5.06,5.06,0,0,0-3.56,4.85v2.64A1.62,1.62,0,0,0,31,100H69a1.62,1.62,0,0,0,1.62-1.62V95.74a5.06,5.06,0,0,0-3.56-4.85L56.8,87.69V63.82a3.34,3.34,0,0,0-1.72-2.92V25.7h24.4v4.94L62.35,68.34h0a.42.42,0,0,1,0,.1.14.14,0,0,1,0,.06s0,0,0,.08a.64.64,0,0,1,0,.07s0,0,0,.07,0,.07,0,.1v0s0,.08,0,.11v0s0,0,0,.06v.06C62.31,75.79,70.57,81,81.1,81s18.79-5.2,18.9-11.86v-.06ZM18.9,34.91,33.66,67.39H4.14Zm0,42.84c-7.5,0-14-3.12-15.38-7.12H34.28c-1.41,4-7.88,7.12-15.38,7.12ZM53.56,63.82V87.26H46.44V63.82a.09.09,0,0,1,.1-.1h6.92a.09.09,0,0,1,.1.1Zm-5.4-3.34V13.35a6.64,6.64,0,0,0,3.68,0V60.48ZM50,3.24A3.57,3.57,0,1,1,46.44,6.8,3.56,3.56,0,0,1,50,3.24ZM17.17,22.46a.11.11,0,0,1-.11-.11v-.26a.12.12,0,0,1,.09-.11l27.77-4.63v5.11ZM67.39,95.74v1H32.61v-1A1.82,1.82,0,0,1,33.9,94L45.06,90.5h9.88L66.1,94a1.82,1.82,0,0,1,1.29,1.75ZM55.08,17.51,82.85,22a.11.11,0,0,1,.09.11v.25a.11.11,0,0,1-.11.11H55.08Zm26,17.4L95.86,67.39H66.34Zm0,42.84c-7.5,0-14-3.12-15.38-7.12H96.48c-1.41,4-7.88,7.12-15.38,7.12Zm0,0"/></svg>