<svg id="Layer_1" data-name="Layer 1" xmlns="http://www.w3.org/2000/svg" viewBox="0 0 100 100"><defs><style>.cls-1{fill:#3ad394;}</style></defs><title>icon id 15</title><path class="cls-1" d="M64.79,54.79a1.93,1.93,0,1,0,1.36-.56,1.92,1.92,0,0,0-1.36.56Zm0,0"/><path class="cls-1" d="M98.78,91.17,98.66,91,93.59,69.72A20.09,20.09,0,0,0,74,54.23h-.15a1.92,1.92,0,0,0,0,3.84H74A16.26,16.26,0,0,1,89.85,70.61l3.63,15.25L77.12,69.5a1.92,1.92,0,0,0-1.36-.56H67.2a1.85,1.85,0,0,0-.7.13,31.48,31.48,0,0,0-31.42,0,1.8,1.8,0,0,0-.69-.13H25.83a1.92,1.92,0,0,0-1.36.56L8.1,85.87l3.6-15.24A16.26,16.26,0,0,1,27.58,58.07H42.32a12.79,12.79,0,0,0,17.5-.56,1.93,1.93,0,0,0,.57-1.36V46.29A18.17,18.17,0,0,0,68.6,34.35h1.5a6.54,6.54,0,0,0,6.53-6.53v-1a6.54,6.54,0,0,0-6.53-6.53H68.93V18a18.16,18.16,0,0,0-36.32,0v2.22H31.44a6.54,6.54,0,0,0-6.53,6.53v1a6.54,6.54,0,0,0,6.53,6.53h1.5a18.15,18.15,0,0,0,8.22,11.94v7.94H27.58A20.18,20.18,0,0,0,8,69.75l-5,21.3-.13.12a4.15,4.15,0,0,0,2.94,7.07h13a1.94,1.94,0,0,0,1.66-.94l6.45-10.9.59.38a5.32,5.32,0,0,0,1.84.74,23,23,0,0,0-1.74,8.8,1.93,1.93,0,0,0,3.85,0A19.31,19.31,0,0,1,35.79,84l8.15,8.16a7.94,7.94,0,0,0-1.15,4.13,1.92,1.92,0,0,0,3.84,0,4.17,4.17,0,0,1,8.33,0,1.92,1.92,0,0,0,3.84,0,7.94,7.94,0,0,0-1.15-4.13L65.8,84a19.31,19.31,0,0,1,4.4,12.29,1.93,1.93,0,0,0,3.85,0,23,23,0,0,0-1.74-8.8,5.32,5.32,0,0,0,1.84-.74l.59-.38,6.45,10.9a1.93,1.93,0,0,0,1.65.94h13a4.14,4.14,0,0,0,2.93-7.07Zm-26-64.39v1a2.7,2.7,0,0,1-2.69,2.69H68.93V24.09H70.1a2.7,2.7,0,0,1,2.69,2.69ZM36.45,18a14.32,14.32,0,0,1,28.64,0v2.22h-5a5.5,5.5,0,0,1-2.82-.77,26.15,26.15,0,0,0,3-2.57,1.92,1.92,0,0,0-2.72-2.72A20.54,20.54,0,0,1,42.9,20.25H36.45V18Zm-7.7,9.79v-1a2.7,2.7,0,0,1,2.69-2.69h1.17v6.42H31.44a2.7,2.7,0,0,1-2.69-2.69Zm7.7,3.07v-6.8H42.9a24.51,24.51,0,0,0,10.79-2.48,9.34,9.34,0,0,0,6.36,2.48h5v6.8a14.32,14.32,0,0,1-28.64,0ZM50.77,49.05a18,18,0,0,0,5.77-.94v7.2a9,9,0,0,1-11.54,0v-7.2a18,18,0,0,0,5.77.94ZM64.2,72.18l-1.55,2.67A4.74,4.74,0,0,0,62.14,76a23.22,23.22,0,0,0-22.69,0,5.14,5.14,0,0,0-.51-1.18l-1.55-2.67a27.63,27.63,0,0,1,26.81,0ZM17.65,94.4H5.74a.27.27,0,0,1-.28-.19.27.27,0,0,1,.06-.33L16.44,83l5,5Zm9.6-12.31a1.94,1.94,0,0,0-2.7.64l-1.08,1.83-4.31-4.31,7.47-7.47h6.65l2.35,4a1.42,1.42,0,0,1-.15,1.63l-4.12,4.86a1.44,1.44,0,0,1-1.85.27Zm19.41,7.38L38.5,81.31a19.38,19.38,0,0,1,24.59,0l-8.16,8.16a7.95,7.95,0,0,0-8.27,0Zm27.68-7.38-2.27,1.46a1.43,1.43,0,0,1-1.85-.28l-4.11-4.85A1.42,1.42,0,0,1,66,76.79l2.35-4H75l7.47,7.47-4.31,4.31L77,82.73a1.89,1.89,0,0,0-1.21-.89,1.93,1.93,0,0,0-1.48.25ZM96.13,94.21a.27.27,0,0,1-.28.19H83.94L80.14,88l5-5L96.07,93.88a.27.27,0,0,1,.06.33Zm0,0"/></svg>