<svg id="Layer_1" data-name="Layer 1" xmlns="http://www.w3.org/2000/svg" viewBox="0 0 100 100"><defs><style>.cls-1{fill:#3ad394;stroke:#3ad394;stroke-width:0.3px;}</style></defs><title>icon id 12</title><g id="Group_453" data-name="Group 453"><g id="Component_1_1" data-name="Component 1 1"><g id="Group_27" data-name="Group 27"><path id="Path_95" data-name="Path 95" class="cls-1" d="M99.78,22.86c0-1.51-2.64-2.74-5.89-2.74l-88,.07A10.17,10.17,0,0,0,1.72,21C.61,21.53,0,22.22,0,23L.22,77.33c0,1.52,2.64,2.75,5.88,2.75h0l88-.08c3.24,0,5.88-1.24,5.87-2.76Zm-95.4,1.8A2.09,2.09,0,0,1,5.88,24l88-.17A2.12,2.12,0,0,1,96,26l.1,50.14-92.28.18-.1-50.14a2.13,2.13,0,0,1,.63-1.51Z"/><path id="Path_96" data-name="Path 96" class="cls-1" d="M27.92,54h0a9.88,9.88,0,0,0,9.86-9.9v-2a9.88,9.88,0,0,0-16.88-7,9.8,9.8,0,0,0-2.88,7v2A9.88,9.88,0,0,0,27.92,54ZM23.57,37.8A6.13,6.13,0,0,1,34,42.12v2a6.13,6.13,0,0,1-6.11,6.13l0,1.88V50.25a6.13,6.13,0,0,1-6.12-6.11v-2a6.08,6.08,0,0,1,1.78-4.34Z"/><path id="Path_97" data-name="Path 97" class="cls-1" d="M15.63,70h0l24.68,0a3.54,3.54,0,0,0,3.53-3.54V62.1A8.27,8.27,0,0,0,36,54.3h-1.7a1.88,1.88,0,0,0-1.6.9,5.72,5.72,0,0,1-4.73,3,5.74,5.74,0,0,1-4.72-3,1.89,1.89,0,0,0-1.6-.89h-1.7a8.26,8.26,0,0,0-7.84,7.83v4.34A3.55,3.55,0,0,0,15.63,70Zm4.3-12h.7A9.09,9.09,0,0,0,28,62a9.09,9.09,0,0,0,7.31-4H36c2.5,0,4.11,2.67,4.11,4.06v4.12l-24.26,0V62.15c0-1.4,1.6-4.06,4.1-4.07Z"/><path id="Path_98" data-name="Path 98" class="cls-1" d="M49.91,38h0l22,0a1.88,1.88,0,0,0,0-3.75h0l-22,0a1.88,1.88,0,1,0,0,3.75Z"/><path id="Path_99" data-name="Path 99" class="cls-1" d="M55.94,50.2h-6a1.88,1.88,0,0,0-1.87,1.88h0A1.88,1.88,0,0,0,50,54h6a1.88,1.88,0,0,0,1.87-1.88h0A1.87,1.87,0,0,0,55.94,50.2Z"/><path id="Path_100" data-name="Path 100" class="cls-1" d="M69.94,50.17h-6a1.88,1.88,0,1,0,0,3.75h6A1.88,1.88,0,0,0,71.82,52h0A1.88,1.88,0,0,0,69.94,50.17Z"/><path id="Path_101" data-name="Path 101" class="cls-1" d="M84,50.15H78A1.87,1.87,0,0,0,76.08,52h0A1.88,1.88,0,0,0,78,53.91h6a1.88,1.88,0,1,0,0-3.75Z"/><path id="Path_102" data-name="Path 102" class="cls-1" d="M48.05,44.08A1.88,1.88,0,0,0,49.93,46h0l34-.07a1.88,1.88,0,1,0,0-3.75h0l-34,.06a1.89,1.89,0,0,0-1.87,1.88Z"/><path id="Path_103" data-name="Path 103" class="cls-1" d="M48.05,60.74a1.87,1.87,0,0,0,1.88,1.87h0l34-.06a1.88,1.88,0,1,0,0-3.75h0l-34,.06a1.89,1.89,0,0,0-1.87,1.88Z"/></g></g></g></svg>