<svg id="Layer_1" data-name="Layer 1" xmlns="http://www.w3.org/2000/svg" viewBox="0 0 100 100"><defs><style>.cls-1{fill:#3ad394;}</style></defs><title>icon id 8</title><path class="cls-1" d="M25.24,1.15a24,24,0,1,0,24,24,24,24,0,0,0-24-24Zm-15,39v-.21a.66.66,0,0,0,0-.14,6.38,6.38,0,0,1,6.34-7h1.13l2.43,7.6a1.35,1.35,0,0,0,2.35.42l2.43-3h.5l2.68,3.1a1.36,1.36,0,0,0,1.28.44,1.34,1.34,0,0,0,1-.88L33,32.78h.92a6.37,6.37,0,0,1,6.33,7,.66.66,0,0,0,0,.14v.21a21.22,21.22,0,0,1-30,0ZM24.6,33h1.06l-.53,1.69Zm18.17,4.1a9,9,0,0,0-8.83-7H32.06a1.35,1.35,0,0,0-1.27.9l-2.2,6.33-1.06-1.23,1.26-4A1.35,1.35,0,0,0,27.5,30.3H22.76a1.36,1.36,0,0,0-1.09.55,1.34,1.34,0,0,0-.2,1.21l1.27,4.06-.83,1L20,31a1.35,1.35,0,0,0-1.29-.94H16.55a9.05,9.05,0,0,0-8.84,7,21.25,21.25,0,1,1,35.06,0Zm0,0"/><path class="cls-1" d="M26.92,7H19A2.79,2.79,0,0,0,16.2,9.74v11a8.78,8.78,0,1,0,17.56,0V13.81A6.86,6.86,0,0,0,26.92,7ZM31,13.12c-4.86,2.06-8.41-1.36-10-3.45h6A4.14,4.14,0,0,1,31,13.12Zm-9.8.67a6.17,6.17,0,0,1-2.29,2V11.4a16.69,16.69,0,0,0,2.29,2.39Zm3.78,13a6.07,6.07,0,0,1-6.07-6.07V18.69a8.51,8.51,0,0,0,4.53-3.39A9.55,9.55,0,0,0,28,16.47,9.94,9.94,0,0,0,31.06,16v4.77A6.08,6.08,0,0,1,25,26.82Zm0,0"/><path class="cls-1" d="M74.76,50.94a24,24,0,1,0,23.95,24,24,24,0,0,0-23.95-24ZM60.58,90.71V87.42s0-.09,0-.13a6,6,0,0,1,5.94-6.57h1l2.29,7.06a1.34,1.34,0,0,0,1,.92,1.37,1.37,0,0,0,1.3-.48l2.29-2.79h.43l2.52,2.84a1.35,1.35,0,0,0,2.29-.45l2.5-7.1H83A6,6,0,0,1,89,87.29a.57.57,0,0,0,0,.13v3.29a21.21,21.21,0,0,1-28.36,0Zm13.66-9.78h.82l-.41,1.31Zm17.4,6.86v-.3A8.66,8.66,0,0,0,83,78H81.23a1.34,1.34,0,0,0-1.27.91L77.9,84.76l-.89-1L78.19,80a1.35,1.35,0,0,0-1.29-1.75H72.4A1.35,1.35,0,0,0,71.11,80l1.19,3.81-.67.81L69.8,79A1.35,1.35,0,0,0,68.52,78h-2a8.68,8.68,0,0,0-8.64,9.48v.29a21.25,21.25,0,1,1,33.77,0Zm0,0"/><path class="cls-1" d="M44.67,85.47H18.25a2.59,2.59,0,0,1-1.89-.82,2.73,2.73,0,0,1-.71-1.94v0l0-20.32,4.52,4.53A1.35,1.35,0,1,0,22.13,65L15.3,58.15l-.09-.08h0L15.12,58l0,0-.09,0h0l-.09-.05h0l-.09,0,0,0-.09,0h0l-.11,0h-.31l-.12,0h0l-.08,0,0,0-.08,0,0,0-.08,0,0,0-.08,0,0,0-.08.06,0,0,0,0L6.56,65a1.35,1.35,0,0,0,0,1.91,1.36,1.36,0,0,0,1.91,0L13,62.37l-.05,20.29a5.42,5.42,0,0,0,1.44,3.83,5.28,5.28,0,0,0,3.83,1.68H44.67a1.35,1.35,0,1,0,0-2.7Zm0,0"/><path class="cls-1" d="M55.79,14.53H82.21a2.62,2.62,0,0,1,2.6,2.76v0l0,20.32-4.52-4.53A1.35,1.35,0,1,0,78.34,35l6.82,6.82.18.15,0,0,.08,0,0,0,.07,0,0,0,.07,0,.06,0,.08,0h0l.12,0h0a1.12,1.12,0,0,0,.41,0h.06l.07,0,.07,0,.06,0,.06,0,0,0,.06,0,.06,0,0,0,.16-.14L93.9,35A1.35,1.35,0,0,0,92,33.11l-4.52,4.52,0-20.29a5.33,5.33,0,0,0-5.26-5.51H55.79a1.35,1.35,0,0,0,0,2.7Zm0,0"/><path class="cls-1" d="M74.51,56.08a8.42,8.42,0,0,0-8.4,8.4V67.3a8.4,8.4,0,0,0,16.8,0V64.48a8.42,8.42,0,0,0-8.4-8.4Zm5.7,11.22a5.7,5.7,0,1,1-11.39,0V64.48a5.7,5.7,0,0,1,11.39,0Zm0,0"/></svg>