<svg id="Layer_1" data-name="Layer 1" xmlns="http://www.w3.org/2000/svg" viewBox="0 0 100 100"><defs><style>.cls-1{fill:#3ad394;}</style></defs><title>icon id 7</title><path class="cls-1" d="M83.07.49H16.93a4.87,4.87,0,0,0-4.86,4.86v89.3a4.87,4.87,0,0,0,4.86,4.86H68.19a1.57,1.57,0,0,0,1.1-.46L87.48,80.86a1.54,1.54,0,0,0,.45-1.09V5.35A4.87,4.87,0,0,0,83.07.49ZM69.74,94.21V83.07a1.75,1.75,0,0,1,1.76-1.75H82.64Zm15.09-16H71.5a4.86,4.86,0,0,0-4.86,4.85V96.41H16.93a1.76,1.76,0,0,1-1.76-1.76V5.35a1.76,1.76,0,0,1,1.76-1.76H83.07a1.76,1.76,0,0,1,1.76,1.76Z"/><path class="cls-1" d="M26.85,16.82h5.06v15a1.55,1.55,0,1,0,3.1,0v-15h5.07a1.55,1.55,0,1,0,0-3.1H26.85a1.55,1.55,0,1,0,0,3.1Z"/><path class="cls-1" d="M41.29,33.29a1.54,1.54,0,0,0,1.93-1l.66-2.21h8.94l.66,2.21A1.54,1.54,0,0,0,55,33.36a1.41,1.41,0,0,0,.45-.07,1.55,1.55,0,0,0,1-1.93L51.84,16a3.18,3.18,0,0,0-3.07-2.29h-.85A3.19,3.19,0,0,0,44.85,16l-4.6,15.35A1.54,1.54,0,0,0,41.29,33.29ZM47.82,16.9a.11.11,0,0,1,.1-.08h.85a.11.11,0,0,1,.1.08l3,10.05H44.81Z"/><path class="cls-1" d="M72.77,30.92,67.6,23.54l5.17-7.38a1.55,1.55,0,0,0-2.54-1.78l-4.52,6.46-4.52-6.46a1.55,1.55,0,1,0-2.54,1.78l5.17,7.38-5.17,7.38A1.55,1.55,0,0,0,59,33.08a1.55,1.55,0,0,0,2.16-.38l4.52-6.46,4.52,6.46a1.55,1.55,0,1,0,2.54-1.78Z"/><path class="cls-1" d="M23.54,44.94h3.31a1.55,1.55,0,1,0,0-3.1H23.54a1.55,1.55,0,0,0,0,3.1Z"/><path class="cls-1" d="M23.54,51.55h3.31a1.55,1.55,0,0,0,0-3.1H23.54a1.55,1.55,0,0,0,0,3.1Z"/><path class="cls-1" d="M23.54,58.16h3.31a1.55,1.55,0,1,0,0-3.1H23.54a1.55,1.55,0,0,0,0,3.1Z"/><path class="cls-1" d="M76.46,41.84H73.15a1.55,1.55,0,1,0,0,3.1h3.31a1.55,1.55,0,0,0,0-3.1Z"/><path class="cls-1" d="M76.46,48.45H73.15a1.55,1.55,0,1,0,0,3.1h3.31a1.55,1.55,0,0,0,0-3.1Z"/><path class="cls-1" d="M76.46,55.06H73.15a1.55,1.55,0,0,0,0,3.1h3.31a1.55,1.55,0,1,0,0-3.1Z"/><path class="cls-1" d="M53.31,41.84H33.46a1.55,1.55,0,0,0,0,3.1H53.31a1.55,1.55,0,0,0,0-3.1Z"/><path class="cls-1" d="M33.46,51.55H46.69a1.55,1.55,0,1,0,0-3.1H33.46a1.55,1.55,0,0,0,0,3.1Z"/><path class="cls-1" d="M54.86,56.61a1.56,1.56,0,0,0-1.55-1.55H33.46a1.55,1.55,0,0,0,0,3.1H53.31A1.55,1.55,0,0,0,54.86,56.61Z"/><path class="cls-1" d="M31.91,71.81a1.55,1.55,0,1,0,3.1,0c0-2.47-2.08-4.49-5-5v-.24a1.55,1.55,0,1,0-3.1,0v.24c-2.88.54-5,2.56-5,5,0,3.45,2.76,4.9,5,5.74v5.39c-1.14-.38-1.86-1.13-1.86-1.83a1.55,1.55,0,0,0-3.1,0c0,2.47,2.08,4.49,5,5v.25a1.55,1.55,0,0,0,3.1,0v-.25c2.88-.53,5-2.55,5-5,0-3.45-2.75-4.91-5-5.74V70C31.2,70.36,31.91,71.11,31.91,71.81Zm-5,2.36c-1.54-.76-1.86-1.42-1.86-2.36,0-.7.72-1.45,1.86-1.83Zm5,6.94c0,.7-.71,1.45-1.86,1.83V78.75C31.6,79.51,31.91,80.17,31.91,81.11Z"/><path class="cls-1" d="M40.08,68.29a1.55,1.55,0,0,0,0,3.1H51.65a1.55,1.55,0,1,0,0-3.1Z"/><path class="cls-1" d="M46.69,81.52H40.08a1.55,1.55,0,0,0,0,3.1h6.61a1.55,1.55,0,1,0,0-3.1Z"/><path class="cls-1" d="M56.61,81.52h-3.3a1.55,1.55,0,1,0,0,3.1h3.3a1.55,1.55,0,1,0,0-3.1Z"/><path class="cls-1" d="M61.58,74.91H40.08a1.55,1.55,0,0,0,0,3.1h21.5a1.55,1.55,0,1,0,0-3.1Z"/><circle class="cls-1" cx="53.31" cy="50" r="1.55"/><circle class="cls-1" cx="59.92" cy="50" r="1.55"/><circle class="cls-1" cx="66.54" cy="50" r="1.55"/><circle class="cls-1" cx="59.92" cy="43.39" r="1.55"/><circle class="cls-1" cx="66.54" cy="43.39" r="1.55"/><circle class="cls-1" cx="59.92" cy="56.61" r="1.55"/><circle class="cls-1" cx="66.54" cy="56.61" r="1.55"/></svg>