<svg id="Layer_1" data-name="Layer 1" xmlns="http://www.w3.org/2000/svg" viewBox="0 0 100 100"><defs><style>.cls-1{fill:#3ad394;}</style></defs><title>icon id 18</title><path class="cls-1" d="M28.88,62.88A8.07,8.07,0,1,0,37,71a8.08,8.08,0,0,0-8.07-8.07ZM31.33,71a2.45,2.45,0,1,1-2.45-2.44A2.45,2.45,0,0,1,31.33,71Zm0,0"/><path class="cls-1" d="M71.12,62.88A8.07,8.07,0,1,0,79.19,71a8.08,8.08,0,0,0-8.07-8.07ZM73.56,71a2.45,2.45,0,1,1-2.44-2.44A2.45,2.45,0,0,1,73.56,71Zm0,0"/><path class="cls-1" d="M42.8,65.77A2.81,2.81,0,0,0,40,68.58v3.89a2.82,2.82,0,0,0,5.63,0V68.58a2.81,2.81,0,0,0-2.82-2.81Zm0,0"/><path class="cls-1" d="M50,65.77a2.81,2.81,0,0,0-2.81,2.81v3.89a2.81,2.81,0,0,0,5.62,0V68.58A2.81,2.81,0,0,0,50,65.77Zm0,0"/><path class="cls-1" d="M57.2,65.77a2.81,2.81,0,0,0-2.82,2.81v3.89a2.82,2.82,0,0,0,5.63,0V68.58a2.81,2.81,0,0,0-2.81-2.81Zm0,0"/><path class="cls-1" d="M76.28,3.11a20.08,20.08,0,0,0-18.43,28H42.15A20.06,20.06,0,1,0,20.87,43V55.5a12.78,12.78,0,0,0-8.57,12V79.2a7.94,7.94,0,0,0,4.57,7.18v5.28a5.24,5.24,0,0,0,5.24,5.23H28.8A5.24,5.24,0,0,0,34,91.66V87.12H66v4.54a5.24,5.24,0,0,0,5.23,5.23h6.69a5.24,5.24,0,0,0,5.24-5.23V86.38A7.94,7.94,0,0,0,87.7,79.2V67.55a12.78,12.78,0,0,0-8.57-12V43a20.05,20.05,0,0,0-2.85-39.9ZM77.5,91.26H71.6V87.12h5.9ZM82.07,79.2a2.29,2.29,0,0,1-2.29,2.29H20.22a2.29,2.29,0,0,1-2.29-2.29V67.55a7.13,7.13,0,0,1,7.13-7.13H74.94a7.13,7.13,0,0,1,7.13,7.13ZM28.4,91.26H22.5V87.12h5.9ZM9.3,23.16a14.42,14.42,0,1,1,27.32,6.46,13.12,13.12,0,0,0-5.15-8.11,8.12,8.12,0,1,0-15.51,0,13.21,13.21,0,0,0-5.15,8.11A14.47,14.47,0,0,1,9.3,23.16ZM83.8,35.47a14.38,14.38,0,0,1-15,0,36.33,36.33,0,0,1,.07-4.38A7.56,7.56,0,0,1,72,26a8.1,8.1,0,0,0,8.63,0,7.52,7.52,0,0,1,3.2,6.15Zm-10-16.38a2.5,2.5,0,1,1,5,0v.12a2.5,2.5,0,0,1-5,0v-.12ZM73.5,43V54.79h-47V43a20.08,20.08,0,0,0,12-6.3h23a20,20,0,0,0,12,6.3ZM16.2,35.47V32.12A7.52,7.52,0,0,1,19.4,26,8.12,8.12,0,0,0,28,26a7.51,7.51,0,0,1,3.2,6.15v3.35a14.44,14.44,0,0,1-15,0Zm5-16.38a2.5,2.5,0,1,1,5,0v.12a2.5,2.5,0,0,1-5,0v-.12ZM84,21.51a8.13,8.13,0,1,0-15.51,0,13.12,13.12,0,0,0-5.15,8.11,14.42,14.42,0,1,1,25.81,0A13.21,13.21,0,0,0,84,21.51Zm0,0"/></svg>