<svg id="Layer_1" data-name="Layer 1" xmlns="http://www.w3.org/2000/svg" viewBox="0 0 100 100"><defs><style>.cls-1{fill:#f15c27;}.cls-2{fill:none;}</style></defs><title>icon id 50</title><path class="cls-1" d="M83.17,59.42l-7.29-18a12.29,12.29,0,0,0-11.44-7.71H60.12a18.4,18.4,0,1,0-26.57,0H29.22a12.26,12.26,0,0,0-11.43,7.71l-7.3,18a11.23,11.23,0,0,0,3.18,12.82l10,8.45a23.63,23.63,0,0,0,46.29,0l10-8.45a11.24,11.24,0,0,0,3.17-12.82ZM34.12,21A12.71,12.71,0,1,1,46.83,33.67,12.73,12.73,0,0,1,34.12,21Zm-4,61.56,2.61.43,1.36-4.17h4.34A8.91,8.91,0,0,0,44,84.31v9.33A18,18,0,0,1,30.14,82.51Zm4.59-19.82a17.93,17.93,0,0,1,24.2,0L54.71,63.9l3,9.19h-2.5a8.85,8.85,0,0,0-16.76,0H36l3-9.19Zm12.1,16.4A3.17,3.17,0,1,1,50,75.93a3.17,3.17,0,0,1-3.17,3.16Zm2.84,14.55V84.31a8.89,8.89,0,0,0,5.54-5.54h4.35l1.36,4.17,2.6-.43A18,18,0,0,1,49.67,93.64ZM76.33,67.89l-10,8.39-1.57.26-2.87-8.8,2.41-.69,3.19.09.16-5.68-2.26-.06a23.58,23.58,0,0,0-37.22,0L26,61.46l.16,5.68,3.18-.09,2.41.69-2.87,8.8-1.57-.26-10-8.39a5.56,5.56,0,0,1-1.57-6.34l7.3-18a6.61,6.61,0,0,1,6.16-4.16H64.44a6.64,6.64,0,0,1,6.17,4.16l7.29,18a5.53,5.53,0,0,1-1.57,6.34Zm0,0"/><rect class="cls-2" x="9.67" y="2.56" width="74.45" height="97"/></svg>