<svg id="Layer_1" data-name="Layer 1" xmlns="http://www.w3.org/2000/svg" viewBox="0 0 100 100"><defs><style>.cls-1{fill:#3ad394;}</style></defs><title>icon id 14</title><path class="cls-1" d="M90.87,4.17A8.92,8.92,0,0,0,74.69,7.25l-.2,1a11.27,11.27,0,0,0-21.94,3.62v1.7a11.23,11.23,0,0,0,3.58,8.22A13.61,13.61,0,0,0,53.79,23a12.35,12.35,0,0,0-5.33,7.86l-1.59,7.92-3.65,3.67H28a6.31,6.31,0,0,0-6.31,6.3,6.21,6.21,0,0,0,.48,2.41H20.61a8,8,0,0,0-7.78,6L10.53,66a2,2,0,0,0,1.4,2.37,1.66,1.66,0,0,0,.49.07A2,2,0,0,0,14.3,67l2.3-8.82a4.15,4.15,0,0,1,4-3.1H49.14a2,2,0,0,0,1.39-.58l9.86-10a1.95,1.95,0,1,0-2.77-2.74l-9.29,9.38H28a2.41,2.41,0,1,1,0-4.81H44a2,2,0,0,0,1.38-.58L56.56,34.55a2,2,0,0,0-2.77-2.75l-1.94,2,.42-2.13a8.5,8.5,0,1,1,16.65,3.45v.05L64,58.68a5.85,5.85,0,0,1-5.72,4.66H30.63a9,9,0,0,0-8.87,8,2.29,2.29,0,0,0-.09.28l-6,22.9A2,2,0,0,1,13.81,96H9.28a2,2,0,0,1-1.55-.76,1.93,1.93,0,0,1-.34-1.69L10.64,81a1.95,1.95,0,0,0-3.77-1L3.62,92.52a5.86,5.86,0,0,0,5.66,7.34h4.53a5.85,5.85,0,0,0,5.66-4.38L24,78.14l.27.29a9.18,9.18,0,0,0,6.51,2.74h9.48l-6.66,16a1.94,1.94,0,0,0,1.79,2.7H65.43a1.94,1.94,0,0,0,1.79-2.7l-6.66-16h9.77a8.94,8.94,0,0,0,8.72-7.11l4.27-20.57a2,2,0,0,0-3.82-.79L75.24,73.27a5,5,0,0,1-4.91,4H30.77A5.26,5.26,0,0,1,27,75.7a4.85,4.85,0,0,1-1.43-3.54,5,5,0,0,1,5-4.92H58.31a9.78,9.78,0,0,0,9.54-7.76L78.51,8a5,5,0,0,1,9.11-1.73,5,5,0,0,1,.72,3.77L82.55,38a1.95,1.95,0,0,0,3.81.79l5.79-27.92A8.85,8.85,0,0,0,90.87,4.17Zm-34.53,77L62.5,96H38.3l6.16-14.79Zm.11-69.3a7.37,7.37,0,0,1,14.74,0v1.7a7.37,7.37,0,1,1-14.74,0ZM68.51,23.81a11.38,11.38,0,0,0,3.21-2.22l-1,4.66A12.45,12.45,0,0,0,68.51,23.81Z"/></svg>