<svg id="Layer_1" data-name="Layer 1" xmlns="http://www.w3.org/2000/svg" viewBox="0 0 100 100"><defs><style>.cls-1{fill:#2d948d;}</style></defs><title>icon id 46</title><path class="cls-1" d="M2.24,17.15V84.32H97.76V17.15ZM92.17,78.72H7.83v-56H92.17Zm0,0"/><path class="cls-1" d="M49.81,55.75A12,12,0,0,0,42.9,44.91a10.76,10.76,0,0,0,.62-3.6,10.87,10.87,0,0,0-21.74,0,10.76,10.76,0,0,0,.62,3.6,12,12,0,0,0-6.91,10.84V71H49.81ZM32.65,36a5.27,5.27,0,1,1-5.27,5.27A5.28,5.28,0,0,1,32.65,36ZM44.21,65.43H21.09V55.75a6.38,6.38,0,0,1,4.58-6.11,10.85,10.85,0,0,0,13.95,0,6.37,6.37,0,0,1,4.59,6.11Zm0,0"/><rect class="cls-1" x="58.02" y="36" width="15.86" height="5.6"/><rect class="cls-1" x="58.02" y="47.93" width="25.19" height="5.6"/><rect class="cls-1" x="58.02" y="59.87" width="25.19" height="5.6"/></svg>