<svg id="Layer_1" data-name="Layer 1" xmlns="http://www.w3.org/2000/svg" viewBox="0 0 100 100"><defs><style>.cls-1{fill:#2d948d;}</style></defs><title>icon id profile</title><path class="cls-1" d="M98.21,50A48.21,48.21,0,1,0,17.44,85.51l0,0L19,86.87c.1.09.21.16.31.24.83.69,1.7,1.34,2.57,2l.86.62c.94.64,1.9,1.26,2.88,1.83l.64.38c1.07.6,2.18,1.19,3.3,1.71l.25.12a48.85,48.85,0,0,0,11.65,3.69l.33,0c1.26.22,2.55.39,3.85.51l.47,0c1.29.11,2.6.18,3.93.18s2.61-.07,3.89-.18l.49,0c1.3-.12,2.56-.29,3.82-.5l.33-.07A47,47,0,0,0,70,93.83l.4-.18c1.09-.51,2.14-1.06,3.18-1.64l.77-.45c.94-.55,1.87-1.13,2.77-1.75.33-.22.64-.45,1-.69.77-.54,1.53-1.12,2.26-1.72.16-.12.34-.24.5-.37l1.6-1.35,0,0A48.06,48.06,0,0,0,98.21,50ZM5.3,50A44.7,44.7,0,1,1,79.64,83.42a12.15,12.15,0,0,0-1.57-1L63.23,75.05a3.88,3.88,0,0,1-2.15-3.49V66.37c.34-.42.71-.9,1.07-1.43a35.34,35.34,0,0,0,4.59-9A6.36,6.36,0,0,0,70.4,50.2V44a6.45,6.45,0,0,0-1.55-4.15V31.65a14.2,14.2,0,0,0-3.31-10.28c-3.22-3.68-8.45-5.56-15.54-5.56s-12.32,1.88-15.54,5.56a14.2,14.2,0,0,0-3.31,10.28v8.18A6.43,6.43,0,0,0,29.6,44V50.2A6.37,6.37,0,0,0,32,55.14a32.8,32.8,0,0,0,5.42,11.2v5.07a3.92,3.92,0,0,1-2,3.44L21.47,82.41a12,12,0,0,0-1.32.83A44.62,44.62,0,0,1,5.3,50ZM76.23,86.16c-.62.45-1.25.88-1.88,1.3l-.87.56c-.83.51-1.67,1-2.53,1.46-.19.09-.38.18-.57.29a44.31,44.31,0,0,1-6.12,2.58l-.22.08c-1.1.37-2.21.68-3.34,1h0c-1.14.28-2.28.51-3.44.71h-.09c-1.09.17-2.19.3-3.29.4l-.59,0c-1.09.08-2.18.13-3.28.13s-2.22,0-3.32-.14l-.57,0c-1.12-.1-2.22-.23-3.32-.41l-.14,0a46.57,46.57,0,0,1-6.82-1.7l-.21-.08c-1.1-.37-2.19-.79-3.26-1.25h0c-1-.44-2-.92-3-1.43l-.39-.2c-.9-.48-1.77-1-2.64-1.53-.25-.16-.51-.32-.76-.5-.79-.51-1.58-1.06-2.34-1.63L23,85.58l.16-.09L37,77.93a7.44,7.44,0,0,0,3.86-6.52V65.1l-.41-.49a29.3,29.3,0,0,1-5.26-10.9L35.06,53l-.6-.38A2.91,2.91,0,0,1,33.1,50.2V44a2.91,2.91,0,0,1,1-2.15l.58-.52V31.55l0-.23a10.58,10.58,0,0,1,2.45-7.64C39.63,20.79,44,19.32,50,19.32s10.34,1.46,12.87,4.33a10.75,10.75,0,0,1,2.49,7.67l0,10,.58.52a2.87,2.87,0,0,1,1,2.14V50.2A2.93,2.93,0,0,1,64.83,53l-.88.27-.28.87a32.61,32.61,0,0,1-4.38,8.82A19.92,19.92,0,0,1,58,64.58l-.43.49v6.49a7.36,7.36,0,0,0,4.1,6.63l14.84,7.43.28.14-.56.4Zm0,0"/></svg>