<svg id="Layer_1" data-name="Layer 1" xmlns="http://www.w3.org/2000/svg" viewBox="0 0 1224 792">
    <defs>
        <style>
            .cls-1{fill:#00047e;stroke:#00047e;stroke-width:4.03px;}.cls-1,.cls-23{stroke-linecap:round;stroke-linejoin:round;}.cls-2{fill:#00bcd4;}.cls-3{fill:#4fc3f7;}.cls-4{fill:#f06159;}.cls-5{fill:#f15c27;}.cls-14,.cls-16,.cls-18,.cls-22,.cls-23,.cls-24,.cls-25,.cls-26,.cls-27,.cls-6{fill:none;}.cls-6{stroke:#6c4b40;stroke-width:2.5px;}.cls-14,.cls-15,.cls-16,.cls-17,.cls-18,.cls-20,.cls-21,.cls-22,.cls-24,.cls-25,.cls-26,.cls-27,.cls-6{stroke-miterlimit:10;}.cls-7{fill:#6d4c41;}.cls-15,.cls-17,.cls-20,.cls-21,.cls-8{fill:#2d948d;}.cls-9{fill:#d93728;}.cls-10{fill:#62381b;}.cls-11{fill:#f9a825;}.cls-12{fill:#2bb673;}.cls-13{fill:#6c4b40;}.cls-14,.cls-25{stroke:#2d948d;}.cls-14{stroke-width:6.98px;}.cls-15,.cls-16,.cls-17,.cls-18,.cls-20,.cls-21,.cls-23{stroke:#fff;}.cls-15,.cls-16{stroke-width:1.34px;}.cls-17,.cls-18{stroke-width:1.46px;}.cls-19{fill:#e81e25;}.cls-20{stroke-width:1.53px;}.cls-21{stroke-width:1.68px;}.cls-22{stroke:#62381b;stroke-width:21.89px;}.cls-23{stroke-width:4.14px;stroke-dasharray:23.69
            14.42;}.cls-24{stroke:#f15c27;stroke-width:2.73px;}.cls-25{stroke-width:2.63px;}.cls-26{stroke:#f9a825;stroke-width:2.78px;}.cls-27{stroke:#e2324b;stroke-width:2.75px;}.cls-28{fill:#e2324b;}
        </style>
    </defs>
    <title>V5</title>
    <path class="cls-1"
          d="M584.85,371.09h-9.57a2.62,2.62,0,0,0-2.62,2.62v101.6a2.62,2.62,0,0,1-3.77,2.35,16.59,16.59,0,0,1-4.49-3.15,10.72,10.72,0,0,1-3.52-8l.83-55.79a39.93,39.93,0,0,0-7.85-24.58c-5.93-8-13.4-13.06-22.08-13.06-8.92,0-18,1.22-21,8.37-1.74,4.11-1.26,7.43,3.65,6.23a40.89,40.89,0,0,1,9.68-1.13c5.24,0,12,2.28,15.1,5.64,3.56,3.86,4.7,5.77,4.27,13-1,15.63-14.53,22.9-28.74,31-1.34.76-2.85,1.12-3.88,0L502.74,427a2.6,2.6,0,0,1,.22-3.69c3.37-2.95,13.42-6.73,18-10.69,7-4.69,9.51-10.48,9.51-12.83q0-4.55-5.58-4.54c-1.65,0-4.93,1.44-9.81,4.34S506.75,404,504.68,404q-4.76,0-8.16-4.76a16.49,16.49,0,0,1-3.41-9.71q0-13.22,10.95-20.87,9.92-6.81,23.56-6.82,20.46,0,30.63,19.25a2.61,2.61,0,0,0,4.91-1.25V347.3a2.61,2.61,0,0,1,4.43-1.88l.66.64a2.62,2.62,0,0,1,.71,2.55l-.33,1.25a2.71,2.71,0,0,0-.1.75q.16,10.35,9.3,10.36h2a2.66,2.66,0,0,1,1.83.74l5,4.9A2.61,2.61,0,0,1,584.85,371.09Z"/>
    <path class="cls-1"
          d="M691.37,339.22a2.62,2.62,0,0,1-3.61,3.74,170.65,170.65,0,0,0-15.92-10.71,59.34,59.34,0,0,0-28.93-7.86q-10.53,0-22.93,8.06-13.85,9.1-13.85,18.81,0,.38,3.43,8a2.64,2.64,0,0,0,2.39,1.54h16a2.61,2.61,0,0,1,1.85.77l5.31,5.3a2.62,2.62,0,0,1-1.85,4.47h-17.1a2.61,2.61,0,0,0-2.62,2.61V476.35a2.61,2.61,0,0,1-4.44,1.87l-5.1-5a2.59,2.59,0,0,1-.79-1.87V373.91a2.61,2.61,0,0,0-2.62-2.61H573.14a2.57,2.57,0,0,1-1.86-.79l-5.21-5.3a2.62,2.62,0,0,1,1.87-4.45H598.1a2.61,2.61,0,0,0,1.88-4.42q-6-6.45-6-10,0-13,13.43-23.56,12.4-9.71,26-9.71,16.53,0,37,10.54Q684.7,330.91,691.37,339.22Z"/>
    <path class="cls-1"
          d="M728.27,371.26H616.84a2.63,2.63,0,0,1-1.87-.79l-5.2-5.31a2.61,2.61,0,0,1,1.87-4.44H722.75a2.62,2.62,0,0,1,1.82.73l5.51,5.31A2.61,2.61,0,0,1,728.27,371.26Zm-4.89,46.56c0,13.5-4.81,23.83-13.21,31.54a37.49,37.49,0,0,1-26,9.92q-38.79,0-61.32-77a2.62,2.62,0,0,1,3.51-3.17h0a2.66,2.66,0,0,1,1.41,1.41q12.51,29.76,19.83,39.91,15.5,21.7,37.19,21.7,25,0,28.73-18.18a35.15,35.15,0,0,0,.61-6.82q0-15.92-12.19-21.28a15.23,15.23,0,0,0-4.89-1.26,2.62,2.62,0,0,0-2.52,3.75,17.5,17.5,0,0,1,1.84,8.46,12.55,12.55,0,0,1-5,9.91,17.58,17.58,0,0,1-11.16,3.72q-8.06,0-12.71-5.26t-4.86-13.54q-.4-10.74,8.06-16.94,7.44-5.37,18.39-5.38a28.41,28.41,0,0,1,7.65,1C714.09,385.17,723.38,397.85,723.38,417.82Z"/>
    <path class="cls-2 cloud-1"
          d="M366.67,166c-.07-.09-.13-.18-.21-.27a4.88,4.88,0,0,0-7-.42l-1,.89a6.07,6.07,0,0,0-8.44.35,6.72,6.72,0,0,0-1.32,1.81,3.08,3.08,0,0,0-.24-.27c-3-3.09-8.39-2.74-11.75,1a9.6,9.6,0,0,0-1.93,3.26A12.42,12.42,0,0,0,327,177a11.76,11.76,0,0,0-1.58,12.66,9.8,9.8,0,0,0-.68.88c-2.92,4.26-1.9,9.75,2,12.09a8,8,0,0,0,1.32.63,4.84,4.84,0,0,0,2.19,5.51l.3.16A163.29,163.29,0,0,1,366.67,166Z"/>
    <path class="cls-3 cloud-2"
          d="M705.3,73.4l.12-.32a4.88,4.88,0,0,0-3.29-6.2l-1.28-.38a6.08,6.08,0,0,0-4.7-7,6.78,6.78,0,0,0-2.23-.18A3.38,3.38,0,0,0,694,59c1.05-4.2-2-8.6-6.95-9.52a9.51,9.51,0,0,0-3.8,0,12.41,12.41,0,0,0-8.08-4.24,11.74,11.74,0,0,0-11.63,5.25,7.88,7.88,0,0,0-1.1-.12c-5.16-.27-9.31,3.46-9.27,8a7.86,7.86,0,0,0,.15,1.46,4.83,4.83,0,0,0-3.56,4.74c0,.11,0,.22,0,.34A163.41,163.41,0,0,1,705.3,73.4Z"/>
    <path class="cls-2 cloud-1"
          d="M800.51,668a5.43,5.43,0,0,0,4.47,1.88,4.91,4.91,0,0,0,7.79,1.65,5.68,5.68,0,0,0,1.51-1.75c2.93,2.38,7.62,2.18,11-.89s3.85-7.37,2-10.46a7.59,7.59,0,0,0,3.63-2.29,6.85,6.85,0,0,0-.44-9.91,5.46,5.46,0,0,0-1.53-5.37A114,114,0,0,1,800.51,668Z"/>
    <path class="cls-3 cloud-2"
          d="M308.26,433.46a6.32,6.32,0,0,0-5.29,1.92,6.61,6.61,0,0,0-1-.32,5.94,5.94,0,0,0-6.95,5.08,6.66,6.66,0,0,0,.11,2.68c-4.39.28-8.23,4.17-8.64,9.41-.4,5,2.54,9.33,6.57,10.51a8.72,8.72,0,0,0-1.29,4.82c.12,4.81,3.92,8.4,8.21,8.1a6.35,6.35,0,0,0,5.55,3.37A132.59,132.59,0,0,1,308.26,433.46Z"/>
    <path class="cls-2 cloud-1"
          d="M691.87,731.54l.06.43a6.07,6.07,0,0,0,7.37,4.66l1.62-.38a7.53,7.53,0,0,0,9.39,4.69,8.2,8.2,0,0,0,2.52-1.17c0,.14.06.29.1.43,1.45,5.19,7.48,8,13.36,6a11.64,11.64,0,0,0,4.06-2.39,15.49,15.49,0,0,0,11.33-.4c5.77-2.43,9.26-7.67,9.32-12.82a12.65,12.65,0,0,0,1.26-.55c5.73-2.88,7.92-9.47,5.06-14.36a9.28,9.28,0,0,0-1.05-1.49,6,6,0,0,0,.92-7.3,2.71,2.71,0,0,0-.24-.35A202.53,202.53,0,0,1,691.87,731.54Z"/>
    <path class="cls-3 cloud-2"
          d="M650.65,715.08a5.47,5.47,0,0,0,2.48,4.16,5.27,5.27,0,0,0-.11.9,5.1,5.1,0,0,0,5.41,5.05,5.76,5.76,0,0,0,2.25-.52c1,3.65,4.85,6.27,9.35,5.77,4.31-.48,7.47-3.65,7.81-7.24a7.51,7.51,0,0,0,4.28.3,6.85,6.85,0,0,0,5.52-8.24,5.49,5.49,0,0,0,2-5.23A114.12,114.12,0,0,1,650.65,715.08Z"/>
    <path class="cls-2 cloud-1"
          d="M876.48,235.49l.4-.15a6.06,6.06,0,0,0,3-8.2c-.23-.5-.47-1-.71-1.5a7.54,7.54,0,0,0,2.57-10.18,8.31,8.31,0,0,0-1.69-2.21l.4-.19c4.75-2.53,6.23-9,3-14.33a11.58,11.58,0,0,0-3.2-3.46,15.49,15.49,0,0,0-2.82-11c-3.61-5.12-9.48-7.4-14.52-6.35a12.2,12.2,0,0,0-.81-1.12c-4-5-10.95-5.7-15.11-1.86a9.59,9.59,0,0,0-1.22,1.34,6,6,0,0,0-7.33.67c-.11.1-.2.2-.3.31A202.7,202.7,0,0,1,876.48,235.49Z"/>
    <path class="cls-3 cloud-2"
          d="M901.16,273a5.44,5.44,0,0,0,3.53-3.31,5.72,5.72,0,0,0,.91-.09,5.1,5.1,0,0,0,3.77-6.37,5.81,5.81,0,0,0-1-2.08c3.36-1.71,5.09-6.09,3.63-10.37-1.39-4.11-5.16-6.51-8.75-6.08a7.48,7.48,0,0,0-.62-4.24,6.86,6.86,0,0,0-9.23-3.63,5.46,5.46,0,0,0-5.53-.78A114.15,114.15,0,0,1,901.16,273Z"/>
    <path class="cls-3 cloud-2"
          d="M917.67,465.24l.3.06a4.3,4.3,0,0,0,4.88-3.81c0-.39.1-.78.14-1.17a5.34,5.34,0,0,0,5.38-5.15,6.06,6.06,0,0,0-.18-2c.11,0,.21,0,.32,0,3.81.28,7.15-3.07,7.2-7.49a8.23,8.23,0,0,0-.62-3.28,11,11,0,0,0,2.45-7.67,10.37,10.37,0,0,0-6.34-9.3,8,8,0,0,0-.06-1c-.55-4.52-4.43-7.56-8.39-6.83a7.34,7.34,0,0,0-1.24.35,4.26,4.26,0,0,0-4.66-2.36l-.29.07A144,144,0,0,1,917.67,465.24Z"/>
    <path class="cls-4"
          d="M658.51,678.59a307.78,307.78,0,0,0,97-32.25,1.72,1.72,0,0,0,.92-2.23l-1-2a1.71,1.71,0,0,0-2.34-.48l-1.44.76a2,2,0,0,1-1.63.11l-4.24-1.84a1.35,1.35,0,0,1-.68-.63l-18.21-36.14a1.55,1.55,0,0,0-2.06-.68,255.19,255.19,0,0,1-48.41,18.18l2.85,10.78c.34-.08.67-.17,1-.27.14.51.27,1,.41,1.51-3.29.88-6.58,1.69-9.9,2.45-.11-.51-.23-1-.34-1.52l1-.23-2.52-10.87q-5.75,1.34-11.56,2.4a1.54,1.54,0,0,0-1.25,1.78q3.52,19.92,7.06,39.84a1.36,1.36,0,0,1-.16.92c-.76,1.34-1.52,2.68-2.3,4a2,2,0,0,1-1.37.89l-1.61.25a1.72,1.72,0,0,0-1.58,1.79l.33,2.19A1.7,1.7,0,0,0,658.51,678.59Zm15.89-9.16a2.53,2.53,0,0,1-4.89,1c-.1-.53-.21-1.07-.31-1.6a.17.17,0,0,1,.15-.19c1.5-.3,3-.6,4.49-.92a.17.17,0,0,1,.21.11C674.17,668.36,674.28,668.89,674.4,669.43Zm23.05-5.9a2.52,2.52,0,0,1-4.78,1.38c-.15-.52-.3-1-.44-1.57a.16.16,0,0,1,.13-.2c1.47-.41,2.94-.84,4.4-1.27a.16.16,0,0,1,.22.1C697.14,662.49,697.3,663,697.45,663.53ZM720,655.84a2.33,2.33,0,0,1-1.59,2.85,2.31,2.31,0,0,1-3.07-1.1l-.57-1.53a.18.18,0,0,1,.12-.21c1.44-.53,2.86-1.06,4.29-1.61a.17.17,0,0,1,.23.08Zm14.64-6.11a2.52,2.52,0,0,1-4.56,2c-.22-.5-.43-1-.64-1.5a.17.17,0,0,1,.1-.22q2.12-.9,4.2-1.84a.17.17,0,0,1,.23.07C734.16,648.74,734.38,649.23,734.6,649.73Zm-14.45-9.29-.33-.81c2.09-.86,4.18-1.74,6.25-2.65l.36.8-.65.29c.91,2.1,1.83,4.2,2.74,6.31l.66-.29c.12.27.24.53.35.8-2.13.94-4.28,1.84-6.44,2.73l-.33-.81.67-.28q-1.32-3.18-2.62-6.36Zm-4.41-10.77-.33-.81q3-1.23,6-2.54l.35.81-.62.27q1.38,3.15,2.74,6.31l.64-.28.35.8q-3.07,1.35-6.19,2.62l-.33-.81.64-.26-2.62-6.36Zm26.06,16.72a2.53,2.53,0,0,1-4.51,2.12c-.23-.5-.45-1-.68-1.48a.17.17,0,0,1,.1-.22c1.39-.64,2.78-1.29,4.15-1.95a.17.17,0,0,1,.24.06Zm-5-13.4-.64.31c1,2.07,2,4.13,3,6.2l.66-.32c.12.26.25.53.38.79-2.1,1-4.21,2-6.34,3l-.36-.79.66-.3-2.88-6.25-.64.29-.36-.8q3.09-1.41,6.15-2.9C736.55,632.47,736.68,632.73,736.81,633Zm-5.08-10.46-.61.29c1,2.07,2,4.13,3,6.2l.62-.3.39.79q-3,1.47-6.09,2.86l-.36-.8.63-.29L726.42,625l-.61.29c-.12-.27-.24-.54-.37-.8q3-1.35,5.9-2.78Zm-22.16-5.32q7.17-2.91,14.16-6.23c.13.26.26.53.38.79l-.72.34,1.46,3.11q-3,1.44-6.13,2.79l-1.38-3.14-.58.26,1.38,3.14q-3.09,1.35-6.2,2.63c-.44-1.06-.87-2.12-1.3-3.18l-.74.3Zm2.91,7.19.76-.31c-.36-.88-.71-1.75-1.07-2.62q3.12-1.28,6.21-2.64l1.14,2.6.6-.26L719,618.58q3.09-1.37,6.14-2.81l1.21,2.56.75-.35c.12.27.25.53.37.79q-7.22,3.43-14.63,6.44Zm9.62,28.84a.17.17,0,0,1,.12-.21c1.41-.57,2.83-1.14,4.24-1.73a.17.17,0,0,1,.23.08l.63,1.5a2.53,2.53,0,0,1-4.62,1.88Zm-14.23-13.15.65-.24q-1.17-3.23-2.36-6.46l-.64.24-.3-.83q3.06-1.11,6.09-2.3c.11.27.22.55.32.82l-.63.24,2.49,6.42.65-.25c.1.27.21.54.32.81-2.09.82-4.18,1.61-6.29,2.37Zm4,10.93.68-.24-2.37-6.46-.66.24-.3-.83q3.18-1.15,6.35-2.39c.1.27.21.54.32.82l-.66.25,2.49,6.41.67-.26c.11.27.22.55.32.82q-3.26,1.27-6.54,2.47Zm.12,6c.19.51.37,1,.55,1.54a2.52,2.52,0,0,1-4.7,1.63l-.52-1.54a.17.17,0,0,1,.12-.21c1.45-.49,2.89-1,4.33-1.5A.16.16,0,0,1,712,657.06Zm-14.72-13.34.66-.21q-1.06-3.28-2.11-6.55l-.65.21c-.09-.28-.18-.56-.26-.84q3.09-1,6.17-2.05c.1.27.19.55.29.83l-.64.22c.74,2.16,1.49,4.33,2.23,6.5l.66-.22c.09.27.19.55.28.83-2.11.73-4.24,1.43-6.37,2.11C697.42,644.28,697.33,644,697.25,643.72Zm3.54,11.08.68-.22q-1.05-3.27-2.11-6.55l-.67.22c-.09-.28-.17-.56-.26-.84,2.15-.69,4.3-1.4,6.43-2.14.1.28.2.55.29.83l-.67.23,2.24,6.51.68-.24c.09.28.19.56.29.83q-3.32,1.14-6.64,2.21C701,655.36,700.88,655.08,700.79,654.8Zm-1,6.31a.18.18,0,0,1,.13-.2c1.46-.45,2.92-.92,4.37-1.39a.17.17,0,0,1,.22.09l.51,1.55a2.53,2.53,0,0,1-4.75,1.51Zm-13.31-14.19.67-.18c-.62-2.21-1.23-4.42-1.85-6.63l-.65.18c-.08-.28-.16-.56-.23-.84q3.14-.87,6.25-1.81c.09.28.17.56.25.84l-.64.19,2,6.59.66-.19.26.84q-3.23,1-6.46,1.86C686.64,647.49,686.56,647.21,686.48,646.92Zm3.1,11.22.69-.19c-.61-2.21-1.23-4.42-1.84-6.63l-.68.19-.24-.85c2.18-.6,4.36-1.23,6.52-1.88.09.28.17.56.26.84l-.68.2c.66,2.2,1.32,4.39,2,6.59l.69-.21c.09.28.17.56.26.84-2.23.68-4.47,1.32-6.72,1.94C689.73,658.7,689.66,658.42,689.58,658.14Zm-.4,5.88a.17.17,0,0,1,.22.1l.42,1.57A2.53,2.53,0,0,1,685,667l-.4-1.58a.17.17,0,0,1,.14-.19ZM675.59,649.7l.68-.16-1.59-6.69L674,643c-.07-.28-.14-.57-.2-.85q3.17-.75,6.32-1.56l.22.85-.65.17c.57,2.22,1.13,4.44,1.7,6.66l.68-.17.22.85q-3.26.84-6.53,1.6C675.73,650.27,675.66,650,675.59,649.7ZM678.24,661l.71-.17-1.59-6.69-.68.16c-.07-.28-.14-.57-.2-.85q3.3-.78,6.59-1.63l.22.85-.68.18c.57,2.22,1.13,4.44,1.7,6.66l.7-.18.22.85c-2.25.58-4.52,1.14-6.79,1.67C678.38,661.6,678.31,661.31,678.24,661Zm-1.31,6.17a.16.16,0,0,1,.14-.19c1.49-.34,3-.68,4.47-1a.16.16,0,0,1,.21.11l.39,1.58a2.53,2.53,0,0,1-4.86,1.13C677.16,668.26,677,667.73,676.93,667.2ZM664.59,652l.68-.13q-.64-3.37-1.31-6.75l-.67.13-.16-.86q3.2-.61,6.39-1.31l.18.86-.66.14,1.44,6.73.68-.15.19.86q-3.29.71-6.59,1.35C664.7,652.62,664.65,652.33,664.59,652Zm2.2,11.43.71-.14-1.32-6.75-.69.13c-.06-.28-.11-.57-.17-.86q3.34-.65,6.66-1.36l.19.86-.69.15,1.44,6.72.71-.15.18.86q-3.42.74-6.85,1.4C666.9,664,666.84,663.76,666.79,663.47Z"/>
    <path class="cls-5"
          d="M339.35,568.78h0c1.32,2,1.41,4.25.14,5.15l-1.42,1c-2.48,1.73-3.3,5.24-2.38,9.18a2.85,2.85,0,0,1-.66,3l-2.77,2.1c-1.24.93-1,3.35.59,5.38q4,5.08,8.21,10c1.68,1.94,4,2.65,5.17,1.61l2.59-2.32a2.88,2.88,0,0,1,3.1-.07c3.69,1.66,7.28,1.53,9.47-.57l1.25-1.2c1.13-1.07,3.36-.55,5,1.13h0c1.67,1.69,3.93,2.12,5,1l56.05-57.58a158.69,158.69,0,0,1-22.15-26.9l-67.26,44C338,564.52,338,566.82,339.35,568.78Zm13.13,8.14c-.91.71-2.53.16-3.57-1.24-.74-1-1.47-2-2.2-3-1-1.42-1.07-3.12-.12-3.79l2.56-1.8c1-.67,2.51-.09,3.5,1.28q1.05,1.46,2.13,2.88c1,1.35,1.1,3,.19,3.73Zm8.72-6.72c-.91.71-2.49.22-3.49-1.12-.7-.94-1.4-1.88-2.09-2.84-1-1.35-1-3,0-3.66l2.55-1.81c1-.66,2.48-.14,3.42,1.16.67.93,1.34,1.84,2,2.75,1,1.29,1,2.9.1,3.61Zm8.72-6.72c-.91.71-2.45.27-3.4-1-.67-.89-1.33-1.79-2-2.7-.93-1.29-.9-2.88.05-3.55l2.56-1.8c.95-.67,2.43-.2,3.33,1l1.93,2.61c.91,1.22.92,2.78,0,3.49Zm8.72-6.72c-.91.71-2.41.32-3.31-.88-.64-.85-1.27-1.71-1.89-2.57-.88-1.21-.82-2.76.14-3.42l2.55-1.81a2.43,2.43,0,0,1,3.25.93l1.82,2.47a2.44,2.44,0,0,1-.07,3.37ZM360.45,586.7c-.88.76-2.52.3-3.64-1-.79-.95-1.58-1.9-2.35-2.86-1.1-1.35-1.24-3-.32-3.77l2.45-1.94c.92-.71,2.51-.22,3.57,1.09.75.93,1.51,1.85,2.28,2.77,1.08,1.29,1.26,2.95.38,3.71Zm8.34-7.18c-.87.76-2.47.35-3.54-.92-.75-.91-1.5-1.81-2.24-2.73-1.05-1.29-1.15-2.94-.23-3.65l2.46-1.94c.91-.72,2.46-.28,3.47,1,.72.89,1.44,1.76,2.17,2.64,1,1.23,1.17,2.83.29,3.59Zm8.35-7.17c-.88.76-2.43.4-3.45-.82-.71-.86-1.43-1.72-2.13-2.59-1-1.23-1.05-2.82-.14-3.54l2.46-1.94c.91-.72,2.42-.32,3.38.86.68.84,1.37,1.68,2.06,2.5,1,1.17,1.08,2.73.2,3.49Zm8.35-7.18a2.44,2.44,0,0,1-3.35-.7c-.68-.81-1.36-1.63-2-2.46a2.45,2.45,0,0,1-.05-3.43l2.46-1.94a2.45,2.45,0,0,1,3.29.75q1,1.2,1.95,2.37a2.43,2.43,0,0,1,.11,3.37ZM368.92,596c-.84.81-2.5.44-3.69-.84-.84-.9-1.67-1.81-2.5-2.73-1.17-1.3-1.4-3-.52-3.75l2.35-2.06c.87-.77,2.48-.36,3.62.89.8.89,1.6,1.77,2.42,2.64,1.15,1.24,1.42,2.88.58,3.69Zm7.95-7.61c-.83.81-2.45.48-3.59-.74-.8-.86-1.59-1.72-2.38-2.6-1.12-1.23-1.3-2.87-.43-3.63l2.36-2.07c.87-.77,2.44-.41,3.52.79.76.84,1.53,1.68,2.3,2.51,1.1,1.18,1.32,2.77.49,3.58Zm8-7.61c-.84.81-2.41.53-3.49-.63-.77-.82-1.52-1.64-2.27-2.47-1.07-1.18-1.2-2.77-.33-3.53l2.35-2.07c.88-.77,2.4-.46,3.43.68.72.8,1.45,1.6,2.19,2.39,1,1.11,1.22,2.66.38,3.47Zm7.95-7.61c-.84.81-2.36.58-3.39-.52-.72-.78-1.44-1.56-2.15-2.35-1-1.12-1.11-2.66-.23-3.42l2.35-2.07a2.43,2.43,0,0,1,3.32.57c.69.76,1.38,1.51,2.08,2.26a2.44,2.44,0,0,1,.28,3.37Zm.19-40.83a176.79,176.79,0,0,0,20.58,25l-1.19,1.18c-.69-.7-1.38-1.41-2.06-2.12l-6.61,6.32c-1.93,1.87-5.34,1.47-7.53-1h0c-2.2-2.44-2.24-5.88-.18-7.6l7-5.91c-1-1.15-1.94-2.32-2.89-3.49L393,550.52c-2.08,1.7-5.45,1-7.42-1.62s-1.72-6,.48-7.58l7.47-5.28c-.64-.9-1.27-1.81-1.89-2.72Z"/>
    <path class="cls-6" d="M797.45,569.73l-17.84-12.21"/>
    <path class="cls-6" d="M771.66,592.48,760.56,577"/>
    <path class="cls-7"
          d="M762.46,588.73a89.22,89.22,0,0,0,28.94-29.57,1.5,1.5,0,0,1,2-.67l5.86,3.38c2.25,1.27,2.7,4.72.81,7.58a102.34,102.34,0,0,1-27.11,27.69c-2.81,2-6.28,1.57-7.59-.65l-3.5-5.78A1.49,1.49,0,0,1,762.46,588.73Z"/>
    <path class="cls-7"
          d="M760.71,586.38A86.48,86.48,0,0,0,789,557.47a1.21,1.21,0,0,0-.35-1.68h0a1.21,1.21,0,0,0-1.62.5,84.21,84.21,0,0,1-27.56,28.15,1.22,1.22,0,0,0-.47,1.64h0A1.21,1.21,0,0,0,760.71,586.38Z"/>
    <path class="cls-8"
          d="M893.57,515.3c.45-.91.89-1.81,1.33-2.72.67-1.38,1.93-2.06,2.88-1.65s2.17-.38,2.81-1.77a248.93,248.93,0,0,0,11.43-30c.46-1.49,0-2.86-1-3.18s-1.37-1.71-1-3.16c.27-1,.54-1.92.8-2.88.4-1.47-.09-2.87-1.08-3.13L833.38,447h0a165.86,165.86,0,0,1-12.93,33.89l70.23,36C891.58,517.38,892.88,516.66,893.57,515.3Zm-48.54-49a1.55,1.55,0,0,1-.85-2q1.19-3.42,2.22-6.88a1.55,1.55,0,0,1,1.85-1.13l6.35,1.85a1.57,1.57,0,0,1,.92,2c-.37,1.21-.74,2.42-1.13,3.63s-.79,2.41-1.21,3.61a1.56,1.56,0,0,1-1.92,1.1Zm11.89,4.22a1.61,1.61,0,0,1-.81-2.1q1.26-3.66,2.38-7.36a1.61,1.61,0,0,1,1.88-1.23l6.34,1.84a1.64,1.64,0,0,1,.89,2.13c-.39,1.3-.79,2.59-1.21,3.88s-.84,2.57-1.28,3.85a1.64,1.64,0,0,1-2,1.2Zm11.89,4.22a1.68,1.68,0,0,1-.77-2.2c.89-2.6,1.74-5.22,2.53-7.85a1.69,1.69,0,0,1,1.91-1.34l6.34,1.85a1.7,1.7,0,0,1,.86,2.23c-.41,1.38-.84,2.75-1.28,4.12s-.9,2.73-1.36,4.09a1.73,1.73,0,0,1-2,1.31Zm11.89,4.22a1.77,1.77,0,0,1-.74-2.31c.95-2.76,1.85-5.53,2.69-8.33.31-1,1.17-1.66,1.94-1.44l6.35,1.84a1.79,1.79,0,0,1,.82,2.34c-.43,1.46-.89,2.91-1.35,4.36s-.95,2.89-1.45,4.33c-.36,1-1.28,1.68-2,1.41Zm11.89,4.21a1.83,1.83,0,0,1-.7-2.41q1.5-4.37,2.84-8.81c.32-1.07,1.2-1.77,2-1.55l6.34,1.85c.77.22,1.13,1.32.8,2.44-.47,1.54-.94,3.08-1.44,4.6s-1,3.06-1.52,4.57c-.38,1.11-1.32,1.79-2.08,1.52Zm-55.31.47a1,1,0,0,1-.41-1.33q2.45-5.19,4.55-10.52a1,1,0,0,1,1.25-.62l1.78.69a1,1,0,0,1,.49,1.32q-2.15,5.44-4.64,10.74a1,1,0,0,1-1.3.55Zm5.63,2.69a1,1,0,0,1-.39-1.36c1.69-3.58,3.25-7.21,4.71-10.89a1,1,0,0,1,1.26-.65l1.78.69a1,1,0,0,1,.48,1.35q-2.24,5.63-4.8,11.11a1,1,0,0,1-1.31.58Zm5.64,2.69a1,1,0,0,1-.38-1.39q2.61-5.55,4.86-11.26a1.05,1.05,0,0,1,1.28-.68l1.78.69a1,1,0,0,1,.46,1.38q-2.29,5.82-4.95,11.48a1,1,0,0,1-1.33.61Zm5.63,2.69a1.07,1.07,0,0,1-.36-1.43c1.8-3.81,3.47-7.69,5-11.61a1.07,1.07,0,0,1,1.29-.72l1.78.69a1.06,1.06,0,0,1,.45,1.42q-2.37,6-5.11,11.84a1.07,1.07,0,0,1-1.34.64Zm5.64,2.69a1.08,1.08,0,0,1-.35-1.46q2.78-5.91,5.18-12a1.09,1.09,0,0,1,1.3-.75l1.78.7a1.07,1.07,0,0,1,.44,1.44q-2.45,6.18-5.27,12.2a1.07,1.07,0,0,1-1.36.67Zm5.63,2.69a1.11,1.11,0,0,1-.33-1.49q2.86-6.09,5.34-12.34a1.11,1.11,0,0,1,1.31-.79l1.78.7a1.1,1.1,0,0,1,.43,1.48q-2.52,6.36-5.43,12.56a1.1,1.1,0,0,1-1.37.7Zm5.64,2.69a1.12,1.12,0,0,1-.32-1.52q3-6.27,5.49-12.71a1.13,1.13,0,0,1,1.33-.81l1.78.69a1.12,1.12,0,0,1,.41,1.51q-2.58,6.55-5.58,12.93a1.13,1.13,0,0,1-1.39.73Zm5.63,2.69a1.15,1.15,0,0,1-.3-1.55q3-6.45,5.65-13.08c.26-.65.86-1,1.34-.84l1.78.69a1.14,1.14,0,0,1,.4,1.54q-2.65,6.74-5.74,13.3c-.31.64-.94,1-1.4.76Zm5.64,2.69c-.47-.22-.59-.93-.29-1.59,2.08-4.41,4-8.9,5.81-13.43.27-.67.87-1.07,1.35-.88l1.78.69a1.19,1.19,0,0,1,.39,1.58q-2.73,6.92-5.9,13.65c-.32.67-1,1-1.42.8Zm5.63,2.69c-.46-.22-.58-.95-.27-1.62q3.21-6.81,6-13.8c.27-.69.88-1.1,1.36-.91l1.78.69c.48.19.65.91.38,1.61q-2.81,7.11-6.06,14c-.32.69-1,1.06-1.43.83Z"/>
    <path class="cls-5"
          d="M879.63,575c1.84-2.6,4.42-4.27,6.6-4.26,3.63,0,8.19-3,11.17-8s3.46-10.47,1.68-13.64c-1.06-1.91-.82-5,.58-7.83,1.9-3.85,1.37-7.89-1-9L816.34,495c-.52,1.15-1.06,2.29-1.61,3.43l6.43,3.11a4.7,4.7,0,0,1-4.34,8.33l-6.23-3.48A154.68,154.68,0,0,1,799.11,524l72.15,54.4C873.36,580,877.16,578.52,879.63,575Zm14.24-14.35c-1.93,3.25-5.13,4.83-7.06,3.6q3.59-5.67,6.85-11.52C895.66,553.84,895.8,557.41,893.87,560.66ZM882.07,531c.7.34.86,1.48.34,2.54s-1,2-1.54,3-1.55,1.6-2.24,1.23l-2-1.06c-.7-.36-.83-1.48-.3-2.51s1-2,1.5-3,1.49-1.6,2.2-1.26Zm-6.21-3c.71.34.88,1.45.37,2.48s-1,2-1.49,2.95-1.52,1.54-2.21,1.17l-2-1.05a1.83,1.83,0,0,1-.32-2.46c.49-1,1-1.92,1.45-2.88s1.46-1.54,2.17-1.2Zm-6.2-3a1.77,1.77,0,0,1,.39,2.42c-.47,1-.95,1.91-1.44,2.86s-1.49,1.48-2.18,1.12l-2-1.06a1.77,1.77,0,0,1-.35-2.4l1.41-2.79c.48-1,1.43-1.48,2.14-1.14Zm-6.21-3a1.74,1.74,0,0,1,.43,2.37c-.46.93-.93,1.85-1.4,2.77a1.74,1.74,0,0,1-2.16,1.06l-2-1.06a1.73,1.73,0,0,1-.39-2.34c.47-.9.92-1.8,1.37-2.71A1.72,1.72,0,0,1,861.4,521Zm-6.27-3a1.79,1.79,0,0,1,.48,2.43c-.42.83-.84,1.67-1.27,2.5a1.77,1.77,0,0,1-2.23,1.06l-1.89-1a1.77,1.77,0,0,1-.43-2.41l1.23-2.44a1.77,1.77,0,0,1,2.19-1.08ZM851,516a1.71,1.71,0,0,1,.51,2.36c-.4.81-.81,1.62-1.22,2.42a1.73,1.73,0,0,1-2.21,1l-1.88-1a1.74,1.74,0,0,1-.47-2.35c.41-.78.8-1.57,1.19-2.35a1.73,1.73,0,0,1,2.17-1Zm-6.2-3a1.68,1.68,0,0,1,.53,2.31c-.38.78-.77,1.56-1.17,2.33a1.69,1.69,0,0,1-2.18.94l-1.88-1a1.69,1.69,0,0,1-.5-2.29c.39-.75.77-1.51,1.15-2.27a1.67,1.67,0,0,1,2.13-1Zm-6.21-3a1.64,1.64,0,0,1,.57,2.25c-.37.75-.75,1.5-1.14,2.24a1.63,1.63,0,0,1-2.14.88l-1.88-1a1.64,1.64,0,0,1-.53-2.23c.37-.72.74-1.45,1.1-2.18a1.64,1.64,0,0,1,2.11-.9ZM817.38,528a170.67,170.67,0,0,0,12.2-20.82,1.32,1.32,0,1,1,2.35,1.16,172.64,172.64,0,0,1-12.38,21.15,1.33,1.33,0,1,1-2.17-1.49Zm54.55,10.67c-.53,1-1.07,1.93-1.61,2.89s-1.58,1.48-2.26,1.08l-2-1.14a1.82,1.82,0,0,1-.22-2.47c.53-.93,1-1.87,1.57-2.82s1.52-1.47,2.22-1.1l2,1.07C872.36,536.59,872.48,537.71,871.93,538.71Zm3.8-.3,2,1.07c.69.37.8,1.52.23,2.55s-1.1,2-1.66,3-1.61,1.53-2.29,1.13l-2-1.14c-.68-.4-.76-1.52-.19-2.52s1.09-1.94,1.62-2.91S875,538,875.73,538.41Zm-9.84-3c-.52.94-1,1.87-1.57,2.8s-1.55,1.42-2.22,1l-2-1.14a1.77,1.77,0,0,1-.26-2.41c.52-.91,1-1.82,1.53-2.73s1.49-1.42,2.18-1.05l2,1.07A1.79,1.79,0,0,1,865.89,535.4Zm-6-3.32c-.5.91-1,1.81-1.51,2.71a1.72,1.72,0,0,1-2.2,1l-2-1.14a1.72,1.72,0,0,1-.29-2.36c.49-.87,1-1.75,1.47-2.64a1.73,1.73,0,0,1,2.16-1l2,1.08A1.71,1.71,0,0,1,859.84,532.08Zm-6.09-3.23c-.45.82-.9,1.64-1.37,2.45a1.76,1.76,0,0,1-2.27,1l-1.84-1.06a1.77,1.77,0,0,1-.34-2.42l1.33-2.39a1.77,1.77,0,0,1,2.24-1l1.87,1A1.76,1.76,0,0,1,853.75,528.85Zm-6-3.31-1.32,2.36a1.72,1.72,0,0,1-2.25.9l-1.84-1.06a1.74,1.74,0,0,1-.37-2.37c.44-.76.87-1.53,1.29-2.3a1.71,1.71,0,0,1,2.2-.92l1.88,1A1.73,1.73,0,0,1,847.71,525.54Zm-6.05-3.32c-.41.76-.84,1.52-1.27,2.28a1.68,1.68,0,0,1-2.21.84l-1.84-1.06a1.69,1.69,0,0,1-.4-2.31c.42-.73.83-1.47,1.24-2.22a1.67,1.67,0,0,1,2.17-.86l1.87,1A1.69,1.69,0,0,1,841.66,522.22Zm-6-3.32c-.4.74-.81,1.47-1.22,2.2a1.64,1.64,0,0,1-2.18.78l-1.84-1.06a1.64,1.64,0,0,1-.44-2.25c.4-.71.8-1.42,1.19-2.13a1.63,1.63,0,0,1,2.14-.81l1.88,1A1.64,1.64,0,0,1,835.62,518.9Zm31.67,27.87c-.57.94-1.15,1.88-1.73,2.82s-1.64,1.4-2.3,1l-1.92-1.22a1.83,1.83,0,0,1-.12-2.48c.57-.91,1.13-1.83,1.69-2.75s1.58-1.41,2.26-1l2,1.16C867.8,544.67,867.88,545.79,867.29,546.77Zm3.81-.15,2,1.16c.68.4.74,1.55.13,2.55s-1.18,1.94-1.78,2.91-1.68,1.46-2.34,1l-1.92-1.23c-.66-.42-.69-1.55-.09-2.52l1.75-2.84C869.4,546.7,870.42,546.22,871.1,546.62Zm-9.71-3.41q-.82,1.37-1.68,2.73a1.77,1.77,0,0,1-2.27.93l-1.91-1.23a1.76,1.76,0,0,1-.16-2.42c.55-.88,1.1-1.77,1.64-2.66s1.55-1.36,2.22-1l2,1.16A1.78,1.78,0,0,1,861.39,543.21Zm-5.9-3.57q-.81,1.33-1.62,2.64a1.74,1.74,0,0,1-2.24.88l-1.92-1.22a1.73,1.73,0,0,1-.19-2.37c.54-.85,1.06-1.71,1.59-2.58a1.73,1.73,0,0,1,2.19-.9l2,1.16A1.73,1.73,0,0,1,855.49,539.64Zm-6-3.48-1.47,2.39a1.78,1.78,0,0,1-2.32.87c-.59-.39-1.19-.77-1.79-1.15a1.75,1.75,0,0,1-.23-2.43c.48-.77.95-1.55,1.42-2.33a1.77,1.77,0,0,1,2.28-.89l1.83,1.09A1.77,1.77,0,0,1,849.54,536.16Zm-5.9-3.57c-.47.78-.94,1.55-1.42,2.31a1.72,1.72,0,0,1-2.28.81l-1.79-1.14a1.72,1.72,0,0,1-.27-2.38l1.38-2.24a1.72,1.72,0,0,1,2.24-.84l1.83,1.09A1.72,1.72,0,0,1,843.64,532.59Zm-5.9-3.56c-.45.74-.91,1.48-1.37,2.22a1.68,1.68,0,0,1-2.24.76l-1.8-1.15a1.68,1.68,0,0,1-.3-2.32c.45-.72.89-1.44,1.33-2.16a1.67,1.67,0,0,1,2.2-.78l1.83,1.09A1.67,1.67,0,0,1,837.74,529Zm-5.9-3.57c-.43.72-.87,1.43-1.32,2.15a1.64,1.64,0,0,1-2.21.69l-1.79-1.14a1.63,1.63,0,0,1-.34-2.26c.43-.7.86-1.39,1.28-2.09a1.63,1.63,0,0,1,2.17-.71l1.83,1.08A1.63,1.63,0,0,1,831.84,525.46Zm-9.44,7.87a1.63,1.63,0,0,1-.25-2.27c.46-.68.92-1.35,1.37-2a1.64,1.64,0,0,1,2.2-.63l1.78,1.16a1.64,1.64,0,0,1,.29,2.3L826.38,534a1.65,1.65,0,0,1-2.24.6Zm5.66,3.95a1.68,1.68,0,0,1-.22-2.33c.48-.7,1-1.41,1.42-2.11a1.68,1.68,0,0,1,2.24-.68l1.79,1.15a1.69,1.69,0,0,1,.24,2.36l-1.46,2.17a1.67,1.67,0,0,1-2.27.65Zm5.65,3.94a1.71,1.71,0,0,1-.17-2.38l1.47-2.19a1.71,1.71,0,0,1,2.27-.74l1.79,1.16a1.73,1.73,0,0,1,.21,2.41l-1.51,2.24a1.73,1.73,0,0,1-2.32.72Zm5.65,3.95a1.79,1.79,0,0,1-.13-2.45c.51-.75,1-1.5,1.52-2.26a1.77,1.77,0,0,1,2.32-.8l1.78,1.16a1.77,1.77,0,0,1,.17,2.47c-.51.78-1,1.55-1.56,2.32a1.76,1.76,0,0,1-2.35.77Zm5.6,3.9a1.72,1.72,0,0,1-.09-2.37c.56-.84,1.13-1.67,1.69-2.52a1.71,1.71,0,0,1,2.23-.8l1.9,1.24a1.71,1.71,0,0,1,.13,2.39c-.57.86-1.14,1.72-1.73,2.58a1.73,1.73,0,0,1-2.27.78Zm5.65,3.94a1.77,1.77,0,0,1-.05-2.42c.58-.86,1.17-1.73,1.74-2.6a1.77,1.77,0,0,1,2.27-.86l1.91,1.24a1.78,1.78,0,0,1,.09,2.45c-.59.89-1.18,1.78-1.79,2.66s-1.66,1.28-2.3.83Zm5.65,4a1.83,1.83,0,0,1,0-2.48c.6-.89,1.21-1.78,1.8-2.68s1.64-1.34,2.3-.92l1.91,1.24c.66.43.69,1.55.06,2.51s-1.22,1.83-1.85,2.74-1.7,1.34-2.34.89Zm5.66,3.94c-.65-.45-.63-1.58,0-2.53l1.86-2.76c.63-1,1.67-1.4,2.33-1s1.28.82,1.91,1.24.68,1.57,0,2.55-1.27,1.89-1.91,2.83-1.73,1.39-2.38.94Zm6.08,4.81a234.73,234.73,0,0,0,18.59-31.53c.22-.44.63-.69.92-.55s.36.62.14,1.07A234.42,234.42,0,0,1,869,566.39c-.28.41-.73.58-1,.4S867.71,566.12,868,565.71Zm2.66,1.86a236.75,236.75,0,0,0,18.85-32c.22-.45.63-.71.93-.56s.35.62.13,1.08a239.1,239.1,0,0,1-18.94,32.12c-.3.42-.75.6-1,.41S870.37,568,870.66,567.57Zm2.66,1.87A242.24,242.24,0,0,0,892.43,537c.22-.46.64-.72.93-.58s.35.63.13,1.1a242.47,242.47,0,0,1-19.2,32.56c-.3.42-.75.6-1,.42S873,569.86,873.32,569.44ZM876,571.3a243.74,243.74,0,0,0,19.37-32.84c.22-.46.65-.73.94-.58s.35.63.12,1.1A245,245,0,0,1,877,572c-.3.43-.76.62-1,.43S875.68,571.73,876,571.3Z"/>
    <path class="cls-9"
          d="M813,152.48h0c-1.71-1.64-2.28-3.86-1.23-5L813,146.2c2.06-2.22,2.13-5.82.41-9.48a2.86,2.86,0,0,1,0-3.1c.76-.88,1.51-1.76,2.27-2.63,1-1.17.27-3.49-1.7-5.14q-5-4.14-10.12-8c-2.05-1.55-4.48-1.75-5.39-.5l-2.05,2.82c-.55.76-1.69,1-3,.71-3.95-.85-7.44,0-9.13,2.54l-1,1.44c-.88,1.28-3.17,1.24-5.15,0h0c-2-1.3-4.29-1.26-5.11.06l-42.75,68a158.85,158.85,0,0,1,27.29,21.66q28.29-28.53,56.56-57.07C815.23,156.37,814.75,154.12,813,152.48Zm-14.56-5.2c.75-.89,2.44-.69,3.76.45.93.81,1.85,1.63,2.77,2.45,1.3,1.17,1.7,2.83.91,3.68l-2.12,2.3c-.79.85-2.44.61-3.69-.52-.89-.8-1.79-1.59-2.69-2.37-1.27-1.11-1.71-2.71-1-3.6Zm-7.11,8.39c.74-.88,2.38-.73,3.64.36l2.64,2.34c1.24,1.12,1.6,2.73.81,3.58l-2.13,2.3c-.79.85-2.39.65-3.58-.42l-2.56-2.26c-1.21-1.06-1.6-2.62-.85-3.51Zm-7.12,8.4c.74-.89,2.33-.78,3.53.26.84.74,1.68,1.48,2.51,2.23,1.19,1.06,1.49,2.62.7,3.48l-2.13,2.3c-.79.85-2.33.7-3.47-.32-.8-.73-1.61-1.44-2.43-2.15-1.15-1-1.49-2.52-.74-3.41Zm-7.12,8.4a2.44,2.44,0,0,1,3.42.17c.8.69,1.6,1.4,2.39,2.11a2.44,2.44,0,0,1,.58,3.38l-2.12,2.3a2.44,2.44,0,0,1-3.37-.23l-2.3-2a2.44,2.44,0,0,1-.63-3.32Zm11.52-33.09c.7-.92,2.4-.82,3.78.26,1,.75,1.93,1.52,2.89,2.29,1.36,1.1,1.85,2.73,1.11,3.62s-1.34,1.61-2,2.42-2.4.74-3.71-.32c-.93-.75-1.87-1.5-2.81-2.23-1.33-1-1.85-2.62-1.15-3.54ZM782,148.15c.7-.93,2.35-.87,3.66.16q1.4,1.08,2.76,2.19c1.3,1.05,1.74,2.64,1,3.53l-2,2.41c-.75.89-2.35.78-3.6-.23-.89-.71-1.78-1.42-2.68-2.12-1.26-1-1.73-2.52-1-3.45Zm-6.66,8.76c.7-.93,2.29-.9,3.54.08.89.68,1.76,1.38,2.63,2.08,1.24,1,1.62,2.54.88,3.44l-2,2.41c-.74.89-2.3.82-3.49-.14-.84-.67-1.68-1.35-2.53-2-1.21-.94-1.63-2.44-.92-3.37Zm-6.66,8.76a2.45,2.45,0,0,1,3.43,0c.83.65,1.67,1.31,2.49,2,1.17.94,1.51,2.45.77,3.34l-2,2.41a2.44,2.44,0,0,1-3.38,0c-.79-.64-1.59-1.28-2.4-1.91a2.43,2.43,0,0,1-.81-3.27C767.41,167.34,768,166.5,768.67,165.67ZM778.41,132c.65-1,2.35-1,3.78,0,1,.71,2,1.42,3,2.14,1.42,1,2,2.63,1.3,3.56l-1.87,2.51c-.7.94-2.36.87-3.73-.12-1-.7-1.94-1.39-2.92-2.07-1.38-1-2-2.52-1.34-3.48Zm-6.18,9.11c.65-1,2.29-1,3.66,0q1.44,1,2.88,2c1.35,1,1.87,2.54,1.17,3.47l-1.86,2.51c-.7.93-2.31.91-3.61,0-.92-.67-1.85-1.33-2.78-2-1.32-.92-1.87-2.43-1.22-3.39S771.64,142,772.23,141.13Zm-6.19,9.1c.65-1,2.25-1,3.55-.11.91.64,1.83,1.29,2.73,1.94,1.29.93,1.76,2.46,1.06,3.39L771.52,158c-.7.93-2.25.95-3.49,0l-2.65-1.87c-1.25-.88-1.75-2.35-1.1-3.31S765.46,151.1,766,150.23Zm-6.18,9.11a2.44,2.44,0,0,1,3.42-.19c.87.6,1.74,1.22,2.6,1.84,1.22.88,1.64,2.37.94,3.3L765,166.8a2.45,2.45,0,0,1-3.38.14l-2.5-1.78a2.43,2.43,0,0,1-1-3.23Zm8.36,40a177.11,177.11,0,0,0-25.36-20.15l.92-1.4,2.46,1.64,5.14-7.57c1.49-2.22,4.91-2.55,7.57-.62h0c2.66,1.92,3.41,5.27,1.76,7.39l-5.59,7.24c1.19.92,2.38,1.86,3.55,2.82l5.78-7.1c1.68-2.09,5.11-2.12,7.59,0s3,5.56,1.12,7.52l-6.2,6.73c.81.74,1.62,1.5,2.41,2.26C769,198.5,768.61,198.91,768.22,199.31Z"/>
    <path class="cls-10"
          d="M770.8,91.21c-3-1.75-5.16-4.41-5.37-6.8-.33-4-4.12-8.69-9.95-11.43s-11.86-2.7-15.15-.42c-2,1.36-5.38,1.42-8.66.18-4.43-1.68-8.81-.67-9.74,2.08q-16.2,47.13-32.39,94.27c1.32.45,2.63.92,3.94,1.4q1.37-3.69,2.74-7.38a5.18,5.18,0,0,1,9.6,3.89c-1.06,2.4-2.11,4.81-3.17,7.21A168.93,168.93,0,0,1,723.21,185L775.38,100C776.92,97.58,774.9,93.55,770.8,91.21ZM753.54,77.08c3.77,1.77,5.85,5.13,4.7,7.37q-6.6-3.35-13.38-6.31C745.86,75.83,749.78,75.3,753.54,77.08ZM722.2,93.15c.3-.82,1.54-1.11,2.75-.65l3.51,1.37c1.2.48,1.91,1.53,1.58,2.34s-.63,1.54-.95,2.32-1.55,1.06-2.73.59-2.28-.9-3.42-1.34-1.91-1.47-1.61-2.28Zm-2.64,7.12c.3-.81,1.5-1.11,2.68-.66s2.27.87,3.4,1.32,1.85,1.51,1.52,2.31-.64,1.55-.95,2.32-1.52,1.08-2.67.62l-3.32-1.3c-1.15-.44-1.84-1.44-1.54-2.25S719.26,101.06,719.56,100.27Zm-2.65,7.13c.3-.81,1.47-1.13,2.62-.69s2.19.85,3.29,1.29,1.78,1.48,1.45,2.28-.63,1.55-.95,2.32a2,2,0,0,1-2.6.64L717.51,112c-1.11-.43-1.78-1.42-1.48-2.24S716.62,108.19,716.91,107.4Zm-2.65,7.13a1.91,1.91,0,0,1,2.55-.72l3.19,1.25c1.1.44,1.72,1.45,1.39,2.25s-.64,1.55-.95,2.33a1.91,1.91,0,0,1-2.53.67c-1-.42-2.07-.82-3.11-1.22a1.9,1.9,0,0,1-1.41-2.21Zm-2.68,7.21a2,2,0,0,1,2.62-.78c1,.36,1.92.74,2.88,1.12a2,2,0,0,1,1.39,2.35c-.29.72-.59,1.44-.88,2.17a2,2,0,0,1-2.6.73l-2.81-1.1a2,2,0,0,1-1.41-2.3Zm-2.64,7.12a1.9,1.9,0,0,1,2.54-.8c.93.35,1.86.72,2.79,1.09a1.89,1.89,0,0,1,1.32,2.31c-.3.73-.59,1.45-.89,2.17a1.9,1.9,0,0,1-2.53.76l-2.71-1.06a1.89,1.89,0,0,1-1.34-2.27C708.39,130.33,708.67,129.6,708.94,128.86ZM706.29,136a1.87,1.87,0,0,1,2.48-.83c.89.34,1.79.69,2.68,1.05a1.87,1.87,0,0,1,1.26,2.29c-.3.72-.6,1.45-.89,2.17a1.86,1.86,0,0,1-2.46.79l-2.61-1a1.86,1.86,0,0,1-1.28-2.25C705.75,137.46,706,136.73,706.29,136Zm-2.65,7.13a1.83,1.83,0,0,1,2.41-.86l2.59,1a1.81,1.81,0,0,1,1.18,2.27c-.29.72-.59,1.44-.89,2.17a1.8,1.8,0,0,1-2.39.81l-2.51-1a1.8,1.8,0,0,1-1.2-2.22Zm22.1,21.37a189.49,189.49,0,0,0-24.14-11.22,1.46,1.46,0,1,1,1-2.71A191.89,191.89,0,0,1,727.14,162a1.46,1.46,0,1,1-1.4,2.54Zm6-61,3.34,1.46c1.15.52,1.79,1.58,1.42,2.37l-1,2.28c-.37.79-1.57,1-2.69.51s-2.17-1-3.26-1.44-1.78-1.51-1.44-2.32.64-1.54,1-2.31S730.58,103,731.74,103.47ZM731,99.32,732,97c.33-.8,1.58-1,2.77-.53L738.19,98c1.19.54,1.85,1.62,1.49,2.4l-1,2.28c-.36.79-1.59,1-2.75.48s-2.24-1-3.36-1.48S730.67,100.12,731,99.32Zm-2.27,11.13,3.23,1.42c1.12.5,1.72,1.55,1.36,2.34l-1.05,2.28a2,2,0,0,1-2.62.54c-1-.47-2.1-.94-3.16-1.39s-1.71-1.49-1.38-2.29.65-1.55,1-2.32S727.61,110,728.74,110.45Zm-3,7c1,.45,2.09.9,3.13,1.37s1.66,1.53,1.29,2.31-.69,1.52-1,2.28a1.91,1.91,0,0,1-2.56.57c-1-.46-2-.91-3-1.35a1.9,1.9,0,0,1-1.32-2.26l1-2.31A1.91,1.91,0,0,1,725.73,117.44Zm-2.91,7c.95.41,1.89.82,2.83,1.25a2,2,0,0,1,1.3,2.4c-.33.71-.66,1.42-1,2.13a2,2,0,0,1-2.63.62c-.91-.41-1.83-.81-2.76-1.21a2,2,0,0,1-1.31-2.35c.3-.73.61-1.45.91-2.17A2,2,0,0,1,722.82,124.46Zm-3,7c.91.39,1.83.79,2.73,1.2a1.9,1.9,0,0,1,1.23,2.37l-1,2.13a1.89,1.89,0,0,1-2.55.65l-2.67-1.17a1.9,1.9,0,0,1-1.24-2.32c.3-.72.6-1.44.91-2.16A1.88,1.88,0,0,1,719.81,131.45Zm-3,7c.88.38,1.76.76,2.64,1.16a1.86,1.86,0,0,1,1.16,2.34c-.33.71-.66,1.42-1,2.13a1.85,1.85,0,0,1-2.49.68l-2.57-1.12a1.85,1.85,0,0,1-1.17-2.3l.9-2.16A1.85,1.85,0,0,1,716.8,138.43Zm-3,7,2.54,1.12a1.81,1.81,0,0,1,1.09,2.31c-.32.71-.65,1.42-1,2.13a1.8,1.8,0,0,1-2.42.71c-.82-.36-1.64-.73-2.47-1.08a1.81,1.81,0,0,1-1.11-2.27c.31-.72.61-1.44.91-2.16A1.81,1.81,0,0,1,713.79,145.41Zm27.29-37.69c1.09.52,2.18,1.06,3.27,1.6s1.72,1.66,1.32,2.43L744.53,114c-.4.77-1.6.94-2.7.4s-2.13-1.06-3.2-1.57-1.72-1.59-1.35-2.38l1.07-2.27C738.71,107.37,739.94,107.17,741.08,107.72Zm-.57-4.17c.36-.76.71-1.52,1.07-2.27s1.62-1,2.79-.42l3.38,1.66c1.16.58,1.78,1.68,1.38,2.46L748,107.21c-.4.77-1.63.93-2.77.36s-2.19-1.08-3.3-1.62S740.15,104.33,740.51,103.55Zm-2.73,11,3.17,1.55c1.1.55,1.66,1.63,1.26,2.4l-1.14,2.23a2,2,0,0,1-2.64.43l-3.1-1.52c-1.07-.52-1.65-1.56-1.28-2.35s.71-1.51,1.07-2.27S736.68,114,737.78,114.57Zm-3.3,6.85,3.08,1.51a1.9,1.9,0,0,1,1.19,2.36l-1.14,2.24A1.9,1.9,0,0,1,735,128l-3-1.47a1.89,1.89,0,0,1-1.22-2.31c.35-.76.71-1.52,1.06-2.27A1.91,1.91,0,0,1,734.48,121.42Zm-3.19,6.9,2.77,1.36a2,2,0,0,1,1.2,2.46l-1.07,2.08a2,2,0,0,1-2.65.52l-2.7-1.33a1.94,1.94,0,0,1-1.22-2.4l1-2.13A2,2,0,0,1,731.29,128.32Zm-3.3,6.85c.89.44,1.79.87,2.68,1.32a1.91,1.91,0,0,1,1.13,2.42c-.36.69-.72,1.39-1.07,2.09a1.9,1.9,0,0,1-2.58.54l-2.61-1.28a1.89,1.89,0,0,1-1.15-2.37c.33-.71.66-1.42,1-2.12A1.9,1.9,0,0,1,728,135.17Zm-3.3,6.86,2.59,1.26a1.87,1.87,0,0,1,1.06,2.39c-.36.7-.72,1.39-1.07,2.09a1.86,1.86,0,0,1-2.51.58q-1.26-.63-2.52-1.23a1.86,1.86,0,0,1-1.08-2.35l1-2.12A1.85,1.85,0,0,1,724.69,142Zm-3.3,6.85,2.49,1.22a1.81,1.81,0,0,1,1,2.35l-1.07,2.09a1.81,1.81,0,0,1-2.45.61L718.94,154a1.81,1.81,0,0,1-1-2.31l1-2.13A1.81,1.81,0,0,1,721.39,148.88Zm9.63,9.54a1.81,1.81,0,0,1-2.47.51q-1.18-.66-2.37-1.29a1.8,1.8,0,0,1-.92-2.35l1.09-2.08a1.8,1.8,0,0,1,2.49-.55c.82.43,1.63.88,2.44,1.32a1.81,1.81,0,0,1,.9,2.39Zm3.74-6.63a1.85,1.85,0,0,1-2.54.48c-.81-.45-1.63-.9-2.46-1.34a1.84,1.84,0,0,1-1-2.38l1.08-2.08a1.85,1.85,0,0,1,2.56-.52c.85.45,1.69.91,2.53,1.37a1.86,1.86,0,0,1,1,2.43Zm3.74-6.62a1.89,1.89,0,0,1-2.6.44l-2.56-1.39a1.91,1.91,0,0,1-1.05-2.42c.37-.69.73-1.38,1.09-2.08a1.9,1.9,0,0,1,2.62-.48l2.63,1.43a1.89,1.89,0,0,1,1,2.46C739.27,143.81,738.89,144.49,738.5,145.17Zm3.74-6.62a1.94,1.94,0,0,1-2.67.4c-.88-.48-1.76-1-2.65-1.43a2,2,0,0,1-1.11-2.46l1.08-2.08a2,2,0,0,1,2.69-.45c.91.49,1.82,1,2.72,1.48a2,2,0,0,1,1.09,2.5Zm3.7-6.55a1.9,1.9,0,0,1-2.6.35c-1-.54-2-1.07-2.93-1.59a1.9,1.9,0,0,1-1.12-2.37c.38-.74.77-1.48,1.16-2.22a1.91,1.91,0,0,1,2.62-.4c1,.54,2,1.08,3,1.63a1.91,1.91,0,0,1,1.1,2.42Zm3.74-6.62a2,2,0,0,1-2.66.31l-3-1.64c-1-.56-1.59-1.63-1.19-2.4l1.16-2.23c.4-.77,1.61-.93,2.69-.36l3.1,1.69c1.07.59,1.59,1.69,1.16,2.44Zm3.74-6.62c-.43.75-1.65.87-2.72.28s-2.09-1.14-3.13-1.7-1.65-1.66-1.25-2.43l1.16-2.23c.4-.77,1.63-.92,2.74-.33s2.14,1.15,3.21,1.74,1.65,1.73,1.22,2.48Zm3.73-6.62c-.42.75-1.66.85-2.78.24s-2.15-1.18-3.23-1.75-1.7-1.7-1.31-2.47.78-1.48,1.16-2.22,1.66-.91,2.81-.3,2.21,1.19,3.31,1.8,1.71,1.76,1.28,2.51S757.57,111.41,757.15,112.14ZM761.8,105a258.26,258.26,0,0,0-36.57-17.11c-.51-.2-.83-.63-.7-1s.64-.46,1.16-.26a259.15,259.15,0,0,1,36.75,17.19c.48.28.72.75.54,1.07S762.27,105.23,761.8,105Zm1.77-3.12a262.21,262.21,0,0,0-37.08-17.35c-.52-.2-.84-.63-.71-1s.65-.46,1.17-.26a262.57,262.57,0,0,1,37.26,17.44c.49.27.73.75.56,1.06S764.05,102.11,763.57,101.84Zm1.76-3.12a266,266,0,0,0-37.58-17.59c-.52-.19-.85-.63-.73-1s.66-.46,1.19-.26A267,267,0,0,1,766,97.59c.49.28.74.76.57,1.07S765.82,99,765.33,98.72Zm1.77-3.12A269.76,269.76,0,0,0,729,77.78c-.54-.2-.87-.64-.75-1s.67-.45,1.2-.25a269.83,269.83,0,0,1,38.28,17.91c.5.28.76.77.58,1.08S767.6,95.89,767.1,95.6Z"/>
    <path class="cls-11"
          d="M428.33,99.17a367.32,367.32,0,0,0-48,40.67c-3.45,3.47-4.2,8.2-1.79,10.46l80.56,76.23q3.6-3.79,7.33-7.43-7.27-7.5-14.56-15a5.79,5.79,0,0,1,.59-8.27q3-2.76,6-5.43a5.8,5.8,0,0,1,8.29.26l13.41,16a248.23,248.23,0,0,1,20.75-15.61l-62-92C437.11,96.37,432.32,96.34,428.33,99.17Zm7.29,7.86,1.69,2.4q-3.07,2.16-6.11,4.4l-3.43-4.67c.94-.7,1.89-1.39,2.85-2.08C432.47,105.75,434.71,105.74,435.62,107Zm15.2,41.83c-1.58,1.2-3.63,1.18-4.61-.06l-6.27-8.06c1.82-1.42,3.67-2.83,5.52-4.21L453.28,147C452.45,147.62,451.63,148.24,450.82,148.86ZM439,139.55l-1.8-2.31c-1-1.25-.42-3.31,1.27-4.59.87-.67,1.74-1.32,2.62-2l3.46,4.65Q441.77,137.41,439,139.55Zm-3.47-10.76c-1.7,1.29-3.86,1.35-4.83.11l-6.28-8.06q3-2.3,6-4.54,3.9,5.25,7.81,10.48Zm7.18.68,2.65-1.93c1.72-1.24,3.86-1.18,4.77.12l1.69,2.4q-2.86,2-5.67,4.08Zm-.18-5.86c-.9.64-1.8,1.3-2.69,2L432.1,115c2-1.48,4-2.94,6.08-4.38l5.87,8.35C445,120.31,444.27,122.35,442.54,123.61Zm-19.33-11,2.81-2.12,3.47,4.65c-2,1.49-4,3-6,4.56l-1.81-2.32C420.73,116.1,421.39,114,423.21,112.57Zm.32,41.84c1.73-1.54,3.47-3.06,5.24-4.56l8.48,9.94-2.34,2c-1.49,1.3-3.54,1.42-4.59.24Q426.92,158.23,423.53,154.41ZM434.69,143c-1.82,1.46-3.61,2.94-5.39,4.44L425.57,143c.83-.71,1.67-1.41,2.51-2.1,1.64-1.35,3.77-1.43,4.76-.19Zm-16.33-.21c-1.62,1.41-3.76,1.61-4.82.43l-6.79-7.63q2.81-2.49,5.65-4.91l8.48,9.94Zm3.18,3.66,2.49-2.14,3.76,4.41q-2.66,2.27-5.27,4.59l-1.95-2.19C419.52,149.92,420,147.82,421.54,146.43Zm8.73,2.14q2.66-2.23,5.36-4.42L442,152.1c1,1.23.54,3.24-1,4.5-.8.65-1.58,1.31-2.37,2Zm-4.06-16.1c1,1.23.44,3.31-1.22,4.68q-1.28,1-2.55,2.13l-8.42-10c1.91-1.61,3.83-3.19,5.78-4.76ZM417,121.06l1.84,2.29c-2,1.57-3.89,3.16-5.8,4.78-1.25-1.48-2.49-3-3.74-4.43l2.71-2.26C413.78,120,416,119.83,417,121.06Zm-12,6.34c.88-.77,1.78-1.54,2.67-2.3l3.76,4.41c-1.91,1.63-3.8,3.27-5.67,4.94l-1.95-2.19C402.75,131.08,403.27,128.89,405,127.4Zm-5.63,8.88,9.93,10.78c1.06,1.16.65,3.28-.91,4.75L406,154.1l-9.06-9.42q2.7-2.6,5.46-5.14l-1-1.1c-1.85,1.69-3.67,3.41-5.48,5.15l-4-4.18,2.56-2.43C396.07,135.42,398.29,135.11,399.36,136.28Zm14,25.5-4-4.18,2.38-2.26c1.54-1.45,3.67-1.67,4.74-.51q4.95,5.4,9.92,10.78c1.07,1.17.75,3.2-.69,4.56-.75.7-1.49,1.41-2.23,2.12l-9.06-9.43q2.5-2.4,5.06-4.76l-1-1.11C416.72,158.57,415,160.16,413.35,161.78Zm-26.44-13.46c-1.13-1.11-.75-3.32.87-4.93.83-.83,1.67-1.65,2.51-2.47l4,4.15q-2.68,2.63-5.33,5.31l1.07,1.05c1.75-1.77,3.52-3.54,5.31-5.28l9.12,9.37c-.8.78-1.59,1.55-2.38,2.34-1.52,1.5-3.65,1.85-4.78.74Zm18,17.7c-1.12-1.11-.83-3.23.67-4.72l2.34-2.3,4,4.15q-2.51,2.44-4.95,4.93l1.07,1.06q2.44-2.47,4.93-4.91l9.12,9.37-2.2,2.16c-1.41,1.4-3.45,1.65-4.58.54Zm56.93,13.17a1.69,1.69,0,0,1-.38,2.34q-9.39,7.77-18.08,16.32A1.69,1.69,0,0,1,441,198l-.08-.08a1.68,1.68,0,0,1,.17-2.37q8.79-8.65,18.29-16.51a1.69,1.69,0,0,1,2.38.08Zm8.39-20.8a294.14,294.14,0,0,0-38.28,32.45,1.11,1.11,0,1,1-1.55-1.54,296.43,296.43,0,0,1,38.57-32.69,1.11,1.11,0,1,1,1.26,1.78Zm-2.95-4.15a299.24,299.24,0,0,0-38.95,33,1.11,1.11,0,1,1-1.54-1.54A301.44,301.44,0,0,1,466,152.46a1.11,1.11,0,1,1,1.26,1.78Zm-2.95-4.15a304.91,304.91,0,0,0-39.61,33.57,1.11,1.11,0,1,1-1.55-1.54A305.77,305.77,0,0,1,463,148.31a1.11,1.11,0,1,1,1.26,1.78Zm-7-6-2.49,1.82-7.75-10.53c1.87-1.37,3.75-2.73,5.64-4.06l5.88,8.35C459.48,140.93,458.9,142.91,457.29,144.06Z"/>
    <path class="cls-9"
          d="M333.67,195.51q-4.69,7.25-9,14.75c-1,1.79-.9,3.76.23,4.38l6.82,3.76a277.34,277.34,0,0,0-13.38,27.8c-1.41,3.39-.67,6.85,1.54,7.69l86.83,33.62a181,181,0,0,1,10.31-22.09q2.52-4.57,5.3-9,1.35-2.16,2.77-4.27L337.67,193.7C336.6,193,334.8,193.78,333.67,195.51Zm67.5,77.89a1.15,1.15,0,0,1,.53,1.52q-.75,1.68-1.47,3.36a1.15,1.15,0,0,1-1.48.65l-3.2-1.34a1.16,1.16,0,0,1-.56-1.54c.49-1.16,1-2.31,1.51-3.45A1.15,1.15,0,0,1,398,272ZM393.6,270a1.18,1.18,0,0,1,.51,1.57c-.52,1.17-1,2.33-1.53,3.51a1.17,1.17,0,0,1-1.5.69l-3.2-1.34a1.17,1.17,0,0,1-.54-1.58c.51-1.21,1-2.41,1.57-3.6a1.19,1.19,0,0,1,1.53-.69ZM386,266.5a1.21,1.21,0,0,1,.48,1.62c-.54,1.21-1.07,2.43-1.59,3.65a1.21,1.21,0,0,1-1.52.75l-3.2-1.34a1.22,1.22,0,0,1-.52-1.64c.53-1.25,1.08-2.5,1.64-3.74a1.22,1.22,0,0,1,1.55-.74Zm-7.57-3.44a1.24,1.24,0,0,1,.47,1.66c-.57,1.26-1.12,2.53-1.66,3.8a1.24,1.24,0,0,1-1.54.79l-3.2-1.34a1.25,1.25,0,0,1-.5-1.68c.56-1.3,1.12-2.6,1.7-3.89a1.24,1.24,0,0,1,1.57-.78Zm-7.56-3.45a1.28,1.28,0,0,1,.44,1.71c-.59,1.31-1.16,2.63-1.72,3.94a1.27,1.27,0,0,1-1.56.84l-3.2-1.34a1.27,1.27,0,0,1-.48-1.72c.58-1.36,1.16-2.7,1.77-4a1.28,1.28,0,0,1,1.59-.83Zm-7.57-3.44a1.28,1.28,0,0,1,.42,1.75c-.6,1.36-1.2,2.72-1.78,4.09a1.32,1.32,0,0,1-1.58.89l-3.2-1.34a1.32,1.32,0,0,1-.46-1.78q.9-2.1,1.83-4.18a1.3,1.3,0,0,1,1.61-.87Zm-7.56-3.45a1.34,1.34,0,0,1,.4,1.8q-.94,2.11-1.85,4.24a1.35,1.35,0,0,1-1.6.93l-3.2-1.34a1.34,1.34,0,0,1-.44-1.82c.62-1.45,1.25-2.9,1.89-4.33a1.35,1.35,0,0,1,1.63-.92Zm-7.57-3.45a1.37,1.37,0,0,1,.38,1.85q-1,2.19-1.91,4.38c-.33.78-1.05,1.22-1.62,1l-3.2-1.34a1.37,1.37,0,0,1-.42-1.86c.64-1.5,1.29-3,2-4.48.35-.79,1.09-1.22,1.65-1Zm-7.57-3.44a1.4,1.4,0,0,1,.36,1.89c-.67,1.51-1.33,3-2,4.53-.34.8-1.07,1.26-1.64,1l-3.2-1.34c-.57-.24-.75-1.1-.4-1.92q1-2.33,2-4.62c.36-.82,1.12-1.27,1.67-1Zm-7.56-3.45c.56.26.71,1.12.34,1.94q-1.05,2.33-2,4.68c-.35.82-1.09,1.3-1.66,1.07l-3.2-1.34c-.57-.24-.74-1.12-.38-2q1-2.4,2.08-4.77c.38-.84,1.14-1.31,1.7-1.06Zm71.8,23.32a1.15,1.15,0,0,1,.46,1.55c-.54,1.09-1.08,2.18-1.61,3.28a1.16,1.16,0,0,1-1.51.59l-3.14-1.49a1.15,1.15,0,0,1-.48-1.56c.54-1.13,1.09-2.26,1.66-3.38a1.14,1.14,0,0,1,1.53-.57Zm-7.4-3.78a1.18,1.18,0,0,1,.44,1.59c-.58,1.14-1.14,2.28-1.69,3.43a1.17,1.17,0,0,1-1.52.63l-3.15-1.48a1.19,1.19,0,0,1-.46-1.61c.56-1.18,1.14-2.35,1.73-3.52a1.19,1.19,0,0,1,1.56-.62Zm-7.41-3.78a1.21,1.21,0,0,1,.42,1.64c-.6,1.18-1.18,2.37-1.76,3.57a1.2,1.2,0,0,1-1.54.68L384,262.54a1.21,1.21,0,0,1-.44-1.65c.59-1.23,1.19-2.45,1.8-3.67a1.22,1.22,0,0,1,1.58-.66Zm-7.4-3.78a1.23,1.23,0,0,1,.39,1.68c-.62,1.24-1.23,2.48-1.82,3.72a1.24,1.24,0,0,1-1.57.72L376.52,259a1.25,1.25,0,0,1-.42-1.7c.61-1.28,1.24-2.55,1.87-3.81a1.26,1.26,0,0,1,1.61-.71Zm-7.4-3.78a1.27,1.27,0,0,1,.36,1.73c-.64,1.28-1.27,2.57-1.89,3.86a1.27,1.27,0,0,1-1.59.77L369,255.45a1.27,1.27,0,0,1-.39-1.74c.63-1.33,1.28-2.64,1.94-4a1.28,1.28,0,0,1,1.62-.75Zm-7.41-3.78a1.31,1.31,0,0,1,.35,1.78c-.67,1.32-1.33,2.66-2,4a1.3,1.3,0,0,1-1.61.81l-3.14-1.48a1.31,1.31,0,0,1-.38-1.79q1-2.06,2-4.1a1.32,1.32,0,0,1,1.65-.8Zm-7.4-3.78a1.35,1.35,0,0,1,.32,1.82q-1,2.07-2,4.15a1.34,1.34,0,0,1-1.63.86L354,248.36a1.34,1.34,0,0,1-.36-1.83c.68-1.42,1.37-2.84,2.08-4.24.38-.75,1.13-1.13,1.67-.85Zm-7.41-3.78a1.38,1.38,0,0,1,.3,1.87c-.71,1.42-1.42,2.85-2.1,4.29-.37.76-1.11,1.16-1.66.9l-3.14-1.48a1.38,1.38,0,0,1-.34-1.88c.71-1.47,1.42-2.93,2.15-4.39.39-.77,1.15-1.17,1.7-.89Zm-7.4-3.78a1.42,1.42,0,0,1,.27,1.91q-1.11,2.2-2.17,4.44c-.38.78-1.13,1.21-1.68.95l-3.14-1.49c-.56-.26-.7-1.12-.32-1.92q1.09-2.28,2.23-4.53c.4-.8,1.17-1.21,1.71-.94Zm-7.41-3.78c.55.28.66,1.16.25,2q-1.14,2.28-2.24,4.57c-.39.81-1.15,1.26-1.7,1l-3.14-1.48c-.56-.26-.69-1.15-.29-2q1.13-2.35,2.29-4.68c.41-.82,1.19-1.25,1.74-1ZM416.5,250q-2.79,4.32-5.34,8.78l-3.69-2.11c1.73-3,3.56-6,5.46-9Zm-6.38-4.12c-1.93,3-3.79,6-5.55,9.13l-3.7-2.11q2.72-4.74,5.68-9.33Zm-6.38-4.12c-2,3.1-3.93,6.27-5.77,9.48l-3.69-2.11q2.82-4.92,5.89-9.68Zm-6.38-4.13q-3.12,4.84-6,9.84l-3.69-2.11q2.91-5.1,6.1-10ZM391,233.5q-3.24,5-6.2,10.19l-3.69-2.11q3-5.28,6.31-10.38Zm-6.38-4.12q-3.35,5.19-6.41,10.54l-3.69-2.11q3.12-5.46,6.53-10.73Zm-6.38-4.12q-3.47,5.36-6.62,10.89L367.92,234q3.21-5.62,6.74-11.08Zm-6.38-4.12q-3.57,5.54-6.83,11.24l-3.69-2.11q3.32-5.81,6.95-11.43ZM365.47,217q-3.68,5.7-7.05,11.59l-3.69-2.11q3.43-6,7.17-11.78Zm-6.37-4.12q-3.8,5.88-7.27,11.94l-3.69-2.11q3.53-6.16,7.38-12.14Zm-6.38-4.12q-3.92,6-7.48,12.29L341.55,219q3.63-6.35,7.6-12.49Zm-6.38-4.12q-4,6.22-7.69,12.64L335,215.19q3.72-6.52,7.81-12.84ZM340,200.54q-4.12,6.39-7.9,13l-3.69-2.11q3.83-6.69,8-13.19Z"/>
    <path class="cls-8"
          d="M368.54,296.21c-.64,1.62-1.27,3.24-1.87,4.86a1,1,0,0,1-1.26.68l-42.35-15.52a1.09,1.09,0,0,1-.42-1.44,1.09,1.09,0,0,0-.41-1.44l-2.94-1.11c-1-.37-2.21.44-2.71,1.81a283.72,283.72,0,0,0-11.83,42.21c-.28,1.44.34,2.76,1.37,3l3.1.58c.48.09,1-.37,1.1-1s.62-1.1,1.1-1l44.25,8.75a1,1,0,0,1,.72,1.23q-.5,2.55-.93,5.12a1,1,0,0,0,.76,1.21l1.88.3a1,1,0,0,0,1.1-.88c.1-.55.19-1.11.29-1.66l21.65,3.84q1.07-6,2.49-12a7.78,7.78,0,1,1,4.2-15q1.88-5.83,4.1-11.54l-20.49-8c.21-.52.41-1,.62-1.57a1,1,0,0,0-.49-1.32l-1.76-.71A1,1,0,0,0,368.54,296.21Zm-41.75,2.55.21-.67-6-2q.84-2.6,1.74-5.17l6,2.08.23-.66.7.25q-1.11,3.17-2.14,6.35Zm10.65,3.44.21-.64-6-2c.54-1.66,1.09-3.32,1.67-5l6,2.08c.07-.21.14-.42.22-.63l.7.24q-1.06,3-2.05,6.09Zm10.66,3.44c.06-.21.13-.41.19-.61l-6-2c.52-1.59,1.06-3.18,1.6-4.76l6,2.09.21-.61.71.25c-.68,1.93-1.34,3.88-2,5.82Zm10.65,3.44c.07-.2.13-.39.19-.58l-6-2q.75-2.28,1.53-4.54l6,2.09c.07-.2.13-.39.2-.58l.7.25c-.64,1.84-1.27,3.69-1.87,5.56Zm-34.66-1.47c.07-.23.13-.45.2-.67l-6.1-1.76q.76-2.62,1.56-5.23l6.06,1.88.21-.66.71.22q-1,3.19-1.92,6.42Zm10.77,3.07c.06-.22.12-.43.19-.64l-6.1-1.76c.49-1.67,1-3.35,1.5-5l6.06,1.87c.06-.21.13-.42.2-.63l.71.22q-1,3.06-1.84,6.15Zm10.77,3.07.18-.61-6.1-1.76c.47-1.6.94-3.2,1.44-4.8l6.06,1.88c.06-.21.12-.41.19-.61l.71.22c-.62,1.95-1.2,3.92-1.76,5.88Zm10.77,3.07c.05-.19.11-.39.17-.58l-6.1-1.76c.44-1.53.9-3.06,1.37-4.59l6.06,1.88.18-.58.71.22c-.58,1.86-1.14,3.74-1.68,5.62Zm-34.69-.27c.06-.23.11-.46.17-.68l-6.15-1.55q.66-2.64,1.38-5.27l6.12,1.66.18-.67.72.2c-.59,2.15-1.16,4.32-1.7,6.48Zm10.87,2.69c.05-.21.11-.43.16-.64l-6.15-1.55c.42-1.69.87-3.38,1.32-5.06l6.12,1.67.18-.65.72.2c-.57,2.06-1.11,4.14-1.63,6.21Zm10.86,2.7c.06-.2.11-.41.16-.61l-6.15-1.55q.62-2.43,1.27-4.85l6.12,1.67c.05-.21.11-.41.17-.62l.71.2c-.54,2-1.06,4-1.55,5.94Zm10.87,2.7.15-.59-6.15-1.54c.39-1.55.79-3.1,1.21-4.64l6.12,1.67c.05-.2.11-.39.16-.59l.72.2c-.52,1.88-1,3.78-1.49,5.67Zm-34.68.92.15-.68-6.2-1.33q.57-2.67,1.2-5.32l6.17,1.45c.05-.23.11-.45.16-.68l.73.17q-.78,3.27-1.48,6.55Zm11,2.33c0-.22.09-.44.14-.66l-6.2-1.33c.36-1.7.75-3.41,1.15-5.11l6.17,1.46.15-.65.73.17q-.75,3.14-1.41,6.27Zm11,2.32c0-.21.09-.42.14-.62l-6.21-1.34c.36-1.63.72-3.26,1.11-4.89l6.17,1.46.15-.62.72.17q-.72,3-1.35,6Zm11,2.33.12-.6-6.2-1.33c.34-1.57.69-3.12,1.06-4.68l6.17,1.46c0-.2.09-.4.14-.6l.72.18q-.67,2.85-1.29,5.72Zm17.67,1.92c-.27,1.25-.54,2.5-.79,3.75l-3.42-.69c.25-1.27.52-2.54.8-3.81Zm-3.84-.85c-.28,1.27-.55,2.55-.81,3.82l-3.42-.69c.26-1.3.54-2.59.82-3.88Zm4.81-3.35c-.3,1.24-.59,2.49-.87,3.74l-3.4-.76c.28-1.27.57-2.54.88-3.8Zm-3.82-.92c-.31,1.26-.6,2.53-.89,3.8l-3.4-.76c.29-1.29.58-2.58.9-3.86Zm5.74-6.45c-.34,1.23-.68,2.46-1,3.7l-3.37-.88c.32-1.26.66-2.51,1-3.76Zm-3.79-1.06c-.35,1.25-.69,2.51-1,3.77l-3.38-.88c.33-1.28.68-2.56,1-3.83Zm5-3.08c-.37,1.22-.73,2.45-1.07,3.68l-3.36-.94c.35-1.25.71-2.5,1.09-3.75Zm-3.77-1.13c-.37,1.24-.74,2.49-1.09,3.75l-3.36-.95q.54-1.91,1.11-3.81Zm-11.58,16-1.45-.31a231.78,231.78,0,0,1,7.8-27.84l1.4.49A228.8,228.8,0,0,0,358.91,333.59Zm17.67-22.1c-.41,1.21-.81,2.42-1.2,3.64l-3.32-1.06c.39-1.24.8-2.47,1.22-3.7Zm-3.72-1.27c-.42,1.24-.83,2.47-1.23,3.71l-3.32-1.06c.4-1.26.82-2.51,1.24-3.77Zm5.14-2.8c-.43,1.2-.85,2.41-1.27,3.62l-3.3-1.13c.42-1.23.85-2.45,1.29-3.68Zm-3.69-1.34c-.45,1.23-.88,2.46-1.3,3.69l-3.3-1.13c.43-1.25.86-2.5,1.31-3.74Z"/>
    <path class="cls-11"
          d="M595.08,664.61c1.76.19,3.53.36,5.29.5a1.34,1.34,0,0,1,1.07,1.45q-.51,32.66-1,65.3a1.18,1.18,0,0,1-1.25,1.2,1.16,1.16,0,0,0-1.25,1.18c0,1.52-.07,3-.1,4.55a2.93,2.93,0,0,0,2.64,3A202.5,202.5,0,0,0,645,740a2.92,2.92,0,0,0,2.39-3.17c-.15-1.51-.31-3-.46-4.53a1.17,1.17,0,0,0-1.34-1.08,1.17,1.17,0,0,1-1.34-1.09l-6.15-65a1.34,1.34,0,0,1,1-1.53c1.75-.28,3.49-.59,5.24-.92a1.37,1.37,0,0,0,.91-1.57c-.11-.91-.21-1.81-.32-2.72-.09-.75-.63-1.27-1.21-1.16l-1.7.32q-1.71-15.81-3.44-31.62-6.16,1.11-12.37,1.7c.45,6.2-2.89,11.61-7.45,11.78s-8.31-4.94-8.36-11.16q-6.24-.09-12.47-.71L597,659.31l-1.71-.18c-.59-.07-1.09.49-1.12,1.24,0,.92-.07,1.83-.11,2.75A1.38,1.38,0,0,0,595.08,664.61Zm16.2,56.71h-.71l.09,9.19c-1.85,0-3.7-.1-5.55-.19l0-9.19-.71,0c0-.36,0-.72,0-1.08,2.27.12,4.55.19,6.82.23C611.27,720.6,611.27,721,611.28,721.32Zm-.2-16.23h-.68q0,4.59.1,9.19c-1.78,0-3.56-.1-5.33-.18l0-9.19-.68,0c0-.35,0-.71,0-1.07q3.27.16,6.54.22C611.07,704.37,611.08,704.73,611.08,705.09Zm-.2-16.23h-.65q.06,4.59.1,9.19c-1.7,0-3.4-.09-5.1-.18l0-9.18-.65,0c0-.36,0-.71,0-1.07,2.08.1,4.17.17,6.25.21C610.88,688.14,610.88,688.5,610.88,688.86Zm-.19-16.23-.62,0,.09,9.2c-1.62,0-3.25-.09-4.87-.17l0-9.19-.62,0v-1.08q3,.17,6,.21C610.68,671.91,610.68,672.27,610.69,672.63Zm10,48.61-.71,0c.11,3.07.21,6.13.32,9.19q-2.77.09-5.55.09c-.07-3.07-.13-6.13-.19-9.2h-.71c0-.36,0-.72,0-1.07,2.27,0,4.55,0,6.82-.11C620.66,720.52,620.67,720.88,620.69,721.24ZM620.1,705l-.68,0c.11,3.07.21,6.13.32,9.2-1.78,0-3.55.07-5.33.07l-.18-9.19h-.68c0-.36,0-.72,0-1.08,2.18,0,4.35,0,6.53-.09C620.07,704.29,620.09,704.65,620.1,705Zm-.59-16.22-.65,0c.11,3.06.21,6.12.32,9.19-1.7,0-3.4.07-5.1.07-.06-3.06-.12-6.13-.19-9.19h-.65c0-.36,0-.72,0-1.08q3.13,0,6.25-.09C619.49,688.07,619.5,688.43,619.51,688.79Zm-.59-16.23-.62,0q.16,4.59.32,9.19c-1.62.05-3.25.07-4.87.07-.06-3.06-.13-6.13-.19-9.19h-.62c0-.36,0-.72,0-1.08,2,0,4,0,6-.09C618.9,671.84,618.91,672.2,618.92,672.56Zm11.16,48.14-.7.06q.25,4.59.53,9.18c-1.84.14-3.69.26-5.54.35q-.2-4.59-.41-9.18l-.7,0c0-.36,0-.72,0-1.08,2.27-.1,4.54-.25,6.81-.43Zm-1-16.2-.67,0q.26,4.59.53,9.18c-1.77.14-3.54.25-5.31.34-.14-3.06-.27-6.12-.41-9.19l-.68,0c0-.36,0-.72,0-1.08,2.17-.1,4.35-.24,6.52-.42Zm-1-16.21-.64.05c.18,3.06.35,6.12.53,9.18-1.69.13-3.39.24-5.08.33-.14-3.06-.28-6.13-.41-9.19l-.65,0c0-.36,0-.72,0-1.08q3.12-.14,6.24-.4Zm-1-16.2-.61,0c.18,3.06.35,6.11.53,9.17-1.62.13-3.24.24-4.86.32-.14-3.07-.27-6.13-.41-9.19l-.62,0,0-1.08c2-.09,4-.22,6-.38Zm12.31,47.61-.7.09.75,9.16c-1.83.23-3.68.44-5.52.63l-.63-9.17-.7.06c0-.35,0-.71-.08-1.07,2.27-.22,4.53-.47,6.79-.77Zm-1.37-16.16-.67.09q.38,4.57.76,9.15c-1.77.23-3.54.43-5.3.6l-.63-9.17-.68.07-.07-1.08q3.25-.3,6.5-.74Zm-1.37-16.17-.64.09q.38,4.57.76,9.15c-1.69.22-3.39.41-5.08.58l-.63-9.17-.65.06c0-.36,0-.71-.07-1.07q3.12-.3,6.22-.71Zm-1.37-16.16-.61.08q.38,4.58.76,9.16c-1.62.2-3.24.39-4.85.55q-.32-4.59-.64-9.17l-.61.06c0-.36,0-.72-.07-1.08q3-.28,5.93-.67Zm-4-25.3c1.3-.15,2.59-.32,3.88-.51l.46,5c-1.31.19-2.62.37-3.94.52C631.64,649.27,631.51,647.59,631.37,645.91Zm.45,5.68c1.32-.15,2.63-.33,3.95-.52l.46,5c-1.34.19-2.67.37-4,.53C632.09,655,632,653.28,631.82,651.59ZM627,646.37c1.3-.12,2.59-.25,3.89-.4l.39,5c-1.32.16-2.63.29-3.95.41Zm.37,5.69c1.32-.12,2.64-.25,4-.41l.39,5.05c-1.34.15-2.68.29-4,.41Zm-8.1-5.18c1.29,0,2.59-.12,3.89-.2l.27,5.05q-2,.13-4,.21Zm.22,5.7c1.33-.05,2.65-.12,4-.21l.27,5.06c-1.35.08-2.69.16-4,.21ZM614.9,647c1.3,0,2.6,0,3.9-.1.06,1.69.13,3.38.19,5.06-1.32,0-2.64.08-4,.1C615,650.38,614.94,648.69,614.9,647Zm.15,5.7c1.32,0,2.64-.05,4-.1.06,1.69.13,3.38.19,5.06-1.34.05-2.68.09-4,.1C615.14,656.08,615.09,654.39,615.05,652.7Zm19.2,9.17.18,2.14A163.13,163.13,0,0,1,605,665.17c0-.71,0-1.43,0-2.14A163.79,163.79,0,0,0,634.25,661.87Zm-27.11-15q2,.08,3.9.09c0,1.69.05,3.38.07,5.06q-2,0-4-.09C607.14,650.28,607.14,648.59,607.14,646.91Zm0,5.7c1.32,0,2.65.08,4,.1,0,1.68,0,3.37.08,5.06-1.35,0-2.7,0-4-.1C607.15,656,607.15,654.29,607.15,652.61Zm-4.4-5.93c1.3.09,2.61.16,3.91.21V652c-1.32-.06-2.65-.13-4-.21Zm-.07,5.7c1.33.09,2.65.16,4,.21v5.06c-1.35-.06-2.69-.13-4-.22Z"/>
    <path class="cls-11"
          d="M866.09,339.84q-.54-2.7-1.14-5.39a1.07,1.07,0,0,1,.73-1.32l46.54-10.6c.5-.12,1,.34,1.19,1s.69,1.16,1.2,1.05l3.25-.71c1.09-.24,1.71-1.66,1.36-3.17a299.65,299.65,0,0,0-13.8-44.29c-.57-1.44-1.89-2.25-2.92-1.83l-3.08,1.26a1.16,1.16,0,0,0-.39,1.54,1.14,1.14,0,0,1-.39,1.53l-44.33,17.71A1.08,1.08,0,0,1,853,296c-.69-1.71-1.4-3.4-2.12-5.09a1.07,1.07,0,0,0-1.37-.63l-1.84.8a1.07,1.07,0,0,0-.48,1.42c.24.55.47,1.1.7,1.64l-21.42,9.06q2.52,6,4.68,12.09A8.23,8.23,0,1,1,836,331q1.69,6.25,3,12.61l22.78-4.72.36,1.75a1.07,1.07,0,0,0,1.19.9l2-.39A1.07,1.07,0,0,0,866.09,339.84Zm35.61-26.29c.06.24.12.47.19.71l6.48-1.73c.5,1.86,1,3.73,1.43,5.6l-6.52,1.6.18.71-.77.19c-.55-2.3-1.14-4.59-1.75-6.88Zm-11.45,3.08c.06.23.13.45.19.68l6.48-1.73c.48,1.79.93,3.58,1.37,5.37l-6.51,1.6c.05.23.11.46.16.69l-.76.18q-.81-3.3-1.69-6.59Zm-11.44,3.08.18.65,6.48-1.73c.46,1.71.89,3.43,1.32,5.14l-6.52,1.6c.05.22.11.44.16.66l-.77.18c-.51-2.1-1-4.2-1.61-6.3Zm-11.44,3.08.17.62,6.48-1.73c.44,1.64.86,3.27,1.26,4.92l-6.52,1.6.15.62-.76.19q-.74-3-1.54-6ZM899,304.14l.21.71,6.42-2c.56,1.84,1.1,3.68,1.63,5.54l-6.46,1.82.2.71-.76.21q-1-3.42-2-6.81Zm-11.33,3.47.21.68,6.42-2q.8,2.66,1.55,5.31l-6.46,1.83c.07.22.13.45.2.68l-.76.21c-.61-2.19-1.25-4.36-1.91-6.53Zm-11.33,3.47c.07.22.13.44.2.65l6.42-2q.76,2.54,1.49,5.09L878,316.69l.18.65-.75.22q-.88-3.13-1.83-6.24ZM865,314.56c.07.2.13.41.19.61l6.42-1.95q.74,2.43,1.43,4.87l-6.46,1.82.17.62-.76.21q-.82-3-1.74-5.95Zm31-19.73.24.7,6.35-2.17q.93,2.73,1.81,5.48l-6.39,2c.07.24.15.47.22.71l-.75.23q-1.07-3.37-2.22-6.73Zm-11.2,3.86c.07.22.15.45.23.67l6.35-2.17q.88,2.63,1.73,5.26l-6.39,2c.07.23.15.45.22.68l-.75.23q-1-3.24-2.14-6.45Zm-11.21,3.86c.08.21.15.43.22.64l6.35-2.17c.58,1.67,1.13,3.35,1.67,5l-6.39,2c.06.21.13.43.2.64l-.75.24q-1-3.09-2-6.17Zm-11.2,3.86.21.61,6.35-2.17q.83,2.4,1.59,4.81l-6.39,2c.07.2.13.41.2.61l-.75.24c-.63-2-1.28-3.94-1.95-5.89Zm30.26-20.78c.09.23.18.46.26.69l6.28-2.39q1,2.7,2,5.42l-6.32,2.26c.08.23.16.47.25.7l-.75.26q-1.19-3.35-2.45-6.66Zm-11.06,4.24.25.66,6.27-2.38c.66,1.72,1.3,3.46,1.92,5.19l-6.32,2.27.24.66-.74.27c-.76-2.14-1.54-4.27-2.36-6.38Zm-11.07,4.25c.09.21.17.42.25.63l6.27-2.39q.94,2.47,1.84,5l-6.32,2.26c.07.21.15.42.22.64l-.74.26c-.72-2-1.47-4.08-2.25-6.1Zm-11.06,4.24c.08.2.16.4.23.6l6.27-2.38q.9,2.37,1.76,4.75l-6.32,2.26c.07.21.15.41.22.61l-.74.26c-.7-1.95-1.41-3.89-2.15-5.82Zm-16.8,8.47c-.47-1.27-1-2.53-1.45-3.79l3.43-1.36c.51,1.28,1,2.57,1.48,3.85Zm3.9-1.46c-.48-1.29-1-2.58-1.48-3.86l3.43-1.35c.52,1.3,1,2.6,1.51,3.91Zm-2.34,5.74c-.45-1.27-.91-2.55-1.38-3.81l3.46-1.29c.48,1.29.94,2.58,1.4,3.88Zm3.92-1.38c-.45-1.3-.92-2.59-1.4-3.88l3.46-1.29c.49,1.31,1,2.63,1.43,3.95Zm-1.38,9c-.41-1.29-.82-2.58-1.25-3.87l3.51-1.16c.43,1.3.85,2.61,1.26,3.92Zm4-1.25c-.41-1.31-.83-2.62-1.27-3.93l3.51-1.16q.66,2,1.29,4ZM848,323.13c-.38-1.3-.77-2.6-1.17-3.89l3.52-1.09c.41,1.31.81,2.63,1.19,4Zm4-1.16c-.38-1.33-.78-2.65-1.19-4l3.53-1.1c.41,1.34.82,2.68,1.21,4Zm1.08-20.86,1.47-.56a244.57,244.57,0,0,1,9.1,29.22l-1.52.37A241.44,241.44,0,0,0,853.11,301.11Zm-3,29.8c-.33-1.31-.67-2.62-1-3.92l3.57-1c.36,1.32.71,2.65,1,4Zm4-1c-.34-1.34-.69-2.67-1.05-4l3.56-1c.37,1.35.73,2.71,1.07,4.06Zm-3,5.45c-.3-1.32-.62-2.63-1-3.94l3.58-.9c.33,1.33.66,2.67,1,4Zm4.06-.94c-.32-1.34-.64-2.68-1-4l3.59-.9c.34,1.36.67,2.72,1,4.08Z"/>
    <path class="cls-12"
          d="M882.88,386.9l0-.09a8.59,8.59,0,0,0,1.45.14,9.07,9.07,0,0,0,9-7.26l.46,0a10.81,10.81,0,0,0,.28-21.61h-.45a9.1,9.1,0,0,0-8.83-7.5,8.57,8.57,0,0,0-1.44.11l0-.09a4.14,4.14,0,0,0-7.85,1.81l-.22,16.22-.21,16.22A4.15,4.15,0,0,0,882.88,386.9Z"/>
    <path class="cls-13"
          d="M890,369c-.29.57-.57.4-.85.44h-.85l-1.69,0-3.39.07-6.78.13-13.55.24-13.56.18-13.55.09,0-4,13.55.44,13.54.54,13.55.6,6.77.31,3.38.15,1.7.08.84,0c.28,0,.57-.12.84.45Z"/>
    <path class="cls-8"
          d="M865.72,261.93a485.73,485.73,0,0,0-61.65-79.56,2.75,2.75,0,0,0-3.89-.3l-2,1.94a2.76,2.76,0,0,0,.14,3.88h0a2.74,2.74,0,0,1,.1,3.87l-31.76,30q8.86,9.39,17.14,19.27a16.38,16.38,0,1,1,20.07,25.89q7.5,10.49,14.37,21.41l37-23.26a2.73,2.73,0,0,1,3.72,1.07,2.75,2.75,0,0,0,3.72,1.09l2.38-1.45A2.76,2.76,0,0,0,865.72,261.93Zm-53.61-59.8a2.81,2.81,0,0,1,3.67,4.22l-3.53,3c-1.21-1.4-2.42-2.8-3.64-4.18Zm-6-6.71a2.67,2.67,0,0,1,3.76.39h0a2.66,2.66,0,0,1,0,3.77l-3.48,3.1q-1.85-2.07-3.71-4.11Zm-10.68,30.67a2.93,2.93,0,0,1-4.11-.39q-1.86-2.14-3.73-4.26a2.93,2.93,0,0,1,.15-4.13l4-3.65a3,3,0,0,1,4.16.36q1.92,2.17,3.82,4.37a2.94,2.94,0,0,1-.19,4.16ZM810,219.74q-6.82-8.24-14-16.17a1.43,1.43,0,1,1,2.11-1.92q7.26,8,14.13,16.27a1.43,1.43,0,1,1-2.2,1.82Zm8-3.54q-1.77-2.13-3.56-4.25l3.55-3a2.82,2.82,0,0,1,3.59,4.3ZM834.85,230a2.82,2.82,0,0,1,3.35,4.49l-3.75,2.76q-1.65-2.24-3.31-4.44Zm-5.48-7.13a2.81,2.81,0,0,1,3.42,4.42l-3.69,2.83q-1.7-2.21-3.4-4.38Zm-5.63-7a2.81,2.81,0,0,1,3.51,4.36l-3.64,2.9q-1.73-2.17-3.47-4.32Zm3.4,25.82q-6.33-8.64-13-17a1.44,1.44,0,1,1,2.23-1.8q6.75,8.4,13.12,17.08a1.44,1.44,0,1,1-2.31,1.69ZM850.5,252a2.81,2.81,0,0,1,3.09,4.67l-3.9,2.55q-1.52-2.33-3.06-4.63Zm-5.08-7.43a2.81,2.81,0,0,1,3.17,4.61l-3.85,2.61c-1-1.52-2.08-3.05-3.14-4.56Zm-5.22-7.34a2.81,2.81,0,0,1,3.26,4.55l-3.8,2.69c-1.06-1.51-2.14-3-3.22-4.51Zm-12.39,31.78a2.94,2.94,0,0,1-4-.89c-1-1.57-2.12-3.12-3.19-4.68a2.93,2.93,0,0,1,.64-4.07l4.46-3.14a2.94,2.94,0,0,1,4.08.85c1.1,1.59,2.2,3.19,3.28,4.8a2.94,2.94,0,0,1-.69,4.11Zm15.08-4.43q-5.79-9-12-17.73a1.43,1.43,0,1,1,2.33-1.65q6.25,8.77,12.08,17.84a1.43,1.43,0,1,1-2.41,1.54Z"/>
    <path class="cls-7"
          d="M407.47,194.28a9.29,9.29,0,0,0-7.92,4.3,8.12,8.12,0,0,0-1.12,3.59,1.12,1.12,0,0,1-1.77.84l-2.06-1.52a1.13,1.13,0,0,0-1.56.24l-.08.11a1.12,1.12,0,0,0,.24,1.56l2.06,1.51a1.11,1.11,0,0,1-.26,1.94,8.39,8.39,0,0,0-3.1,2.14,9.33,9.33,0,0,0-1.66,9.08,1,1,0,0,0,1.45.62h0a1.32,1.32,0,0,0,.63-1.46,7,7,0,0,1,1.25-6.74,5.84,5.84,0,0,1,2.5-1.64,6.48,6.48,0,0,1,5.93,1l39.35,28.89a0,0,0,0,1,0,0l-.88,1.21a1.8,1.8,0,0,0,.17,2.4,1.72,1.72,0,0,0,2.52-.28l1.64-2.22.07-.11,1.58-2.15a1.77,1.77,0,0,0-.17-2.36,1.71,1.71,0,0,0-2.53.25l-1,1.31h0L403.4,208a6.53,6.53,0,0,1-2.74-5.36,6.06,6.06,0,0,1,.81-2.88,7,7,0,0,1,6.17-3.21,1.1,1.1,0,0,0,1.09-1.17A1.17,1.17,0,0,0,407.47,194.28Z"/>
    <path class="cls-7"
          d="M398.64,221.12c1.73,1.27,2.55,3.1,1.83,4.08s-2.7.74-4.44-.53-2.55-3.1-1.83-4.08S396.91,219.85,398.64,221.12Z"/>
    <path class="cls-7"
          d="M415.74,197.83c1.73,1.27,2.55,3.09,1.83,4.07s-2.7.75-4.44-.53-2.55-3.09-1.83-4.07S414,196.55,415.74,197.83Z"/>
    <path class="cls-4"
          d="M416.9,198.39a2.23,2.23,0,0,0-.73-3.28c-3.78-2.11-7.45-2.47-8.77-.68s.13,5.19,3.27,8.17a2.24,2.24,0,0,0,3.35-.28Z"/>
    <path class="cls-4"
          d="M399.8,221.68a2.24,2.24,0,0,0-.73-3.28c-3.79-2.11-7.45-2.47-8.77-.67s.12,5.18,3.27,8.16a2.24,2.24,0,0,0,3.35-.28Z"/>
    <path class="cls-7"
          d="M771.94,643.09a9.28,9.28,0,0,0,8.85-1.73,8.31,8.31,0,0,0,2.14-3.1,1.12,1.12,0,0,1,1.94-.26l1.51,2.06a1.11,1.11,0,0,0,1.56.24l.11-.07a1.14,1.14,0,0,0,.24-1.57l-1.52-2.06a1.12,1.12,0,0,1,.84-1.77,8.12,8.12,0,0,0,3.59-1.12,9.33,9.33,0,0,0,4.31-8.16,1,1,0,0,0-1.2-1h0a1.31,1.31,0,0,0-1,1.2,7,7,0,0,1-3.21,6.06,6,6,0,0,1-2.88.82,6.52,6.52,0,0,1-5.36-2.75l-28.88-39.35a0,0,0,0,1,0,0l1.21-.88a1.79,1.79,0,0,0,.55-2.34,1.71,1.71,0,0,0-2.48-.5L750,588.39l-.1.07L747.74,590a1.79,1.79,0,0,0-.55,2.31,1.72,1.72,0,0,0,2.5.51l1.3-1h0l28.89,39.35a6.48,6.48,0,0,1,1,5.93,5.94,5.94,0,0,1-1.64,2.51,7,7,0,0,1-6.85,1.21,1.11,1.11,0,0,0-1.39.79A1.19,1.19,0,0,0,771.94,643.09Z"/>
    <path class="cls-7"
          d="M788.41,620.13c-1.28-1.73-1.51-3.72-.53-4.44s2.8.1,4.07,1.83,1.51,3.72.53,4.44S789.68,621.86,788.41,620.13Z"/>
    <path class="cls-7"
          d="M765.11,637.23c-1.27-1.74-1.51-3.72-.53-4.44s2.81.1,4.08,1.83,1.51,3.72.53,4.44S766.39,639,765.11,637.23Z"/>
    <path class="cls-9"
          d="M764.17,636.34a2.24,2.24,0,0,0-.28,3.35c3,3.15,6.37,4.59,8.16,3.27s1.44-5-.67-8.76a2.23,2.23,0,0,0-3.28-.74Z"/>
    <path class="cls-9"
          d="M787.46,619.24a2.24,2.24,0,0,0-.28,3.35c3,3.15,6.37,4.59,8.17,3.27s1.43-5-.68-8.76a2.23,2.23,0,0,0-3.28-.74Z"/>
    <path class="cls-14"
          d="M347.53,393.05c-.11,1.77-.21,3.55-.29,5.32l-16.87-.75c-3.19-.16-6,3.05-6,7.13A268.18,268.18,0,0,0,343,507.6c1.49,3.8,5.22,5.84,8.15,4.58l21.69-9.25,9.38-4a6.17,6.17,0,0,0,3-8,222.75,222.75,0,0,1-15.48-85.44c.06-3.66.22-7.31.46-11a7.51,7.51,0,0,0-6.39-8.14l-8.57-.85C351.37,385.15,347.83,388.51,347.53,393.05Z"/>
    <path class="cls-14"
          d="M359.27,485.93q1.86,5.69,4,11.28a2.09,2.09,0,0,1-1,2.76l-7.26,2.87a2.13,2.13,0,0,1-2.61-1.47q-2.25-5.87-4.21-11.81a2.12,2.12,0,0,1,1.1-2.78l7.44-2.38A2.11,2.11,0,0,1,359.27,485.93Z"/>
    <path class="cls-14"
          d="M353.42,465.07q1.35,5.81,3,11.55a2.09,2.09,0,0,1-1.21,2.66l-7.49,2.21a2.12,2.12,0,0,1-2.47-1.69q-1.71-6-3.13-12.09a2.12,2.12,0,0,1,1.34-2.67l7.62-1.71A2.09,2.09,0,0,1,353.42,465.07Z"/>
    <path class="cls-14"
          d="M349.43,443.81q.84,5.9,2,11.75A2.09,2.09,0,0,1,350,458.1l-7.66,1.54a2.12,2.12,0,0,1-2.31-1.89q-1.17-6.13-2.05-12.31a2.12,2.12,0,0,1,1.57-2.54l7.74-1A2.08,2.08,0,0,1,349.43,443.81Z"/>
    <path class="cls-14"
          d="M347.34,422.27q.32,6,.92,11.89a2.09,2.09,0,0,1-1.66,2.4l-7.76.86a2.11,2.11,0,0,1-2.13-2.09q-.65-6.21-1-12.45a2.12,2.12,0,0,1,1.79-2.39l7.8-.34A2.09,2.09,0,0,1,347.34,422.27Z"/>
    <path class="cls-14"
          d="M347,407.76c0,1.8,0,3.59,0,5.39a1.52,1.52,0,0,1-1.35,1.63l-8.85.2a1.53,1.53,0,0,1-1.41-1.65q0-2.82,0-5.64a1.53,1.53,0,0,1,1.39-1.66l8.86.11A1.51,1.51,0,0,1,347,407.76Z"/>
    <path class="cls-14"
          d="M377.09,466.24a10.06,10.06,0,0,1,6,19.14c-4.92,1.84-10.55-1.11-12.28-6.67S372,467.54,377.09,466.24Z"/>
    <path class="cls-14" d="M378.36,470.83a5.28,5.28,0,0,1,3.15,10.05,5.27,5.27,0,0,1-3.15-10.05Z"/>
    <path class="cls-14" d="M369.69,409.05a10,10,0,0,1,.88,20c-5.22.51-9.9-3.77-10.16-9.57S364.45,409,369.69,409.05Z"/>
    <path class="cls-14" d="M369.74,413.81a5.27,5.27,0,0,1,.46,10.51,5.26,5.26,0,0,1-.46-10.51Z"/>
    <path class="cls-8"
          d="M857.89,432.3c.64-2,1.25-3.95,1.81-5.94q3.57-1.75,7.09-3.71c3.25-1.79,6-6.13,6.87-11.25.7-4,1.26-7.95,1.69-11.94.56-5.17-.87-10.08-3.49-12.69q-2.85-2.85-5.78-5.52,0-8.12-.74-16.24c-.52-5.57-4.8-9.63-9.5-9.68h0a6.91,6.91,0,0,0-.79,0,8,8,0,0,0-.84.09l-.13,0a4.09,4.09,0,0,0-3.22,4.64A153,153,0,0,1,844.75,428a4.08,4.08,0,0,0,2.33,5.15l1.66.58,4.08,1.46A4.09,4.09,0,0,0,857.89,432.3ZM861.2,419a167.64,167.64,0,0,0,4.32-31.19,1,1,0,0,1,1.66-.83c1,1,2,1.94,2.92,2.94,2,2.09,3.12,6,2.67,10q-.53,4.69-1.3,9.36c-.66,4-2.75,7.46-5.29,8.93-1.2.69-2.4,1.37-3.61,2C861.79,420.69,861,419.94,861.2,419Z"/>
    <path class="cls-8"
          d="M854.1,379.71a7.64,7.64,0,0,1-.84-15.2c3.94-.45,7.54,2.77,7.78,7.2S858.07,379.73,854.1,379.71Z"/>
    <path class="cls-8" d="M854,376.1a4,4,0,0,1-.45-8,4,4,0,0,1,.45,8Z"/>
    <path class="cls-8"
          d="M848.18,423.1a7.64,7.64,0,0,1,3.45-14.83c3.91.67,6.46,4.76,5.46,9.08S852,424.22,848.18,423.1Z"/>
    <path class="cls-8" d="M849.13,419.6a4,4,0,0,1,1.81-7.78,4,4,0,0,1-1.81,7.78Z"/>
    <path class="cls-15" d="M525.89,615.62q7.07,2.79,14.36,5l-7.51-.61Z"/>
    <polyline class="cls-16" points="526.62 590.94 526.63 590.94 526.62 590.93"/>
    <line class="cls-16" x1="496.41" y1="580.67" x2="496.41" y2="580.68"/>
    <line class="cls-16" x1="460.03" y1="573.13" x2="461.25" y2="573.93"/>
    <line class="cls-16" x1="526.62" y1="590.93" x2="526.62" y2="590.94"/>
    <line class="cls-16" x1="570.32" y1="605.76" x2="570.32" y2="605.77"/>
    <path class="cls-15"
          d="M479,589.38l.17.14q4.82,3.6,9.81,6.91c3.12,2.07,6.3,4,9.53,5.94q5.25,3,10.69,5.8c4,2,8,3.89,12.18,5.63l.21-.92,4.26,2.74q7.07,2.79,14.36,5l5.59.45-.45,1q6.39,1.77,12.92,3.12,5.81,1.18,11.74,2,5.28.75,10.62,1.21c1.54.13,3.09.25,4.63.35l-5.65.36-12.06.77-12.71.82-13.65.88-12.58.81-9.59-8.34-10.4-9-9.68-8.4-9.18-8-10.56-9.17Z"/>
    <line class="cls-16" x1="496.41" y1="580.67" x2="496.41" y2="580.68"/>
    <path class="cls-15"
          d="M479.21,589.52q4.82,3.6,9.81,6.91c3.12,2.07,6.3,4,9.53,5.94q5.25,3,10.69,5.8c4,2,8,3.89,12.18,5.63l.21-.92,4.26,2.74q7.07,2.79,14.36,5l5.59.45-.45,1q6.39,1.77,12.92,3.12,5.81,1.18,11.74,2,5.28.75,10.62,1.21c1.54.13,3.09.25,4.63.35l8.19-.52-2.3.8-23.09,8.07-10.29,3.6-11.56,4-12.67,4.43-11.79,4.12-7-10.5-7.5-11.27-6.86-10.28-6.11-9.18-15.08-22.62Z"/>
    <polyline class="cls-16" points="526.62 590.94 526.63 590.94 526.62 590.93"/>
    <path class="cls-15"
          d="M489,596.43c3.12,2.07,6.3,4,9.53,5.94q5.25,3,10.69,5.8c4,2,8,3.89,12.18,5.63l.21-.92,4.26,2.74q7.07,2.79,14.36,5l5.59.45-.45,1q6.39,1.77,12.92,3.12,5.81,1.18,11.74,2,5.28.75,10.62,1.21l-1,.71-11.55,8-18.84,13-11,7.63-12,8.3-11.16,7.73-4.36-13L506,647l-4.31-12.82-7.38-22-4.52-13.45Z"/>
    <line class="cls-16" x1="496.41" y1="580.67" x2="496.41" y2="580.68"/>
    <path class="cls-15"
          d="M509.24,608.17c4,2,8,3.89,12.18,5.63l.21-.92,4.26,2.74q7.07,2.79,14.36,5l5.59.45-.45,1q6.39,1.77,12.92,3.12,5.81,1.18,11.74,2L567.59,630l-9.78,10.82-8.55,9.43-19.77,21.83-11.23,12.41L507.81,696l-1.54-15.61-1.65-16.75-2.92-29.51-1.27-12.79L499,606.73l-.43-4.36Q503.8,605.42,509.24,608.17Z"/>
    <line class="cls-16" x1="570.32" y1="605.76" x2="570.32" y2="605.77"/>
    <polyline class="cls-16" points="526.62 590.94 526.63 590.94 526.62 590.93"/>
    <line class="cls-16" x1="496.41" y1="580.67" x2="496.41" y2="580.68"/>
    <path class="cls-15"
          d="M521.42,613.8l.21-.92,4.26,2.74q7.07,2.79,14.36,5l5.59.45-.45,1q6.39,1.77,12.92,3.12l-3.43,5.55-8.63,14-8,13-8.74,14.2-19.9,32.33-9.69,15.74,1.54-18.55,3.18-37.94L506,647l1.28-15.33,1.37-16.51.58-7C513.24,610.18,517.29,612.06,521.42,613.8Z"/>
    <line class="cls-16" x1="570.32" y1="605.76" x2="570.32" y2="605.77"/>
    <polyline class="cls-16" points="526.62 590.94 526.63 590.94 526.62 590.93"/>
    <path class="cls-15"
          d="M521.63,612.88l4.26,2.74q7.07,2.79,14.36,5l5.59.45-.45,1-4.16,9.55L534.57,647l-1,2.28-7.36,16.89-8,18.31-8.67,19.92-18.4,42.28,10.25-45.09,4.83-21.19,4.43-19.47,4.09-18,.56-2.4,3.71-16.34,2.36-10.37Z"/>
    <polygon class="cls-15" points="526.62 590.93 526.63 590.94 526.62 590.94 526.62 590.93"/>
    <polygon class="cls-15" points="526.62 590.93 526.63 590.94 526.62 590.94 526.62 590.93"/>
    <line class="cls-16" x1="534.9" y1="647.14" x2="515.01" y2="640.39"/>
    <path class="cls-17" d="M521.63,612.88l4.26,2.74c-1.49-.59-3-1.2-4.47-1.82Z"/>
    <path class="cls-17" d="M545.84,621.1l-.45,1c-1.72-.48-3.44-1-5.14-1.5Z"/>
    <path class="cls-17" d="M585.3,628.87l8.19-.52-2.3.8Q588.24,629,585.3,628.87Z"/>
    <polyline class="cls-18" points="526.62 590.94 526.63 590.94 526.62 590.93"/>
    <path class="cls-11"
          d="M365.61,635q4.93,4.92,10.09,9.62c1.56,1.42,2.11,3.4,1.19,4.43-1.58,1.79-3.17,3.57-4.76,5.36-.92,1-.32,3,1.34,4.5q6.15,5.32,12.58,10.33c1.74,1.35,3.84,1.54,4.67.44,1.44-1.9,2.89-3.8,4.33-5.71.84-1.09,2.88-.94,4.58.32q5.6,4.14,11.39,8c1.77,1.19,3.82,1.19,4.57,0q27.5-42.16,55-84.33a2.51,2.51,0,0,0-.73-3.46q-5.79-3.88-11.28-8.16-4.12-3.21-8.08-6.64-5.25-4.56-10.19-9.49a2.53,2.53,0,0,0-3.54,0l-72.07,70.3C363.71,631.44,364.11,633.46,365.61,635Zm93.5-43.18c1.12.78,2.23,1.55,3.36,2.31L459,599.21c-1.16-.78-2.31-1.58-3.45-2.39Zm-5.19,7.37c1.16.81,2.32,1.62,3.5,2.41L454,606.68c-1.21-.82-2.41-1.64-3.6-2.48Zm-5.2,7.37q1.81,1.28,3.65,2.52l-3.46,5.11c-1.26-.85-2.5-1.71-3.74-2.58C446.35,609.88,447.54,608.2,448.72,606.52Zm-5.19,7.37c1.25.89,2.52,1.76,3.79,2.62l-3.46,5.11c-1.31-.88-2.6-1.77-3.89-2.68Zm-5.2,7.37c1.3.92,2.62,1.83,3.94,2.72-1.16,1.7-2.31,3.41-3.46,5.11-1.35-.91-2.7-1.84-4-2.78Zm-5.19,7.37c1.35,1,2.71,1.89,4.08,2.82l-3.46,5.12c-1.4-1-2.8-1.91-4.18-2.89Zm-5.2,7.38q2.1,1.47,4.23,2.91L428.71,644q-2.18-1.47-4.33-3Zm-5.19,7.37q2.16,1.53,4.37,3l-3.46,5.12q-2.25-1.51-4.47-3.09Zm-5.2,7.37c1.49,1,3,2.09,4.51,3.11L418.61,659q-2.33-1.58-4.62-3.18Zm-5.19,7.37q2.31,1.64,4.65,3.22l-3.45,5.11q-2.4-1.62-4.76-3.28Zm42.08-69.73c1.09.81,2.19,1.61,3.29,2.4l-3.6,5c-1.14-.81-2.26-1.64-3.38-2.48Zm-5.4,7.22c1.14.85,2.28,1.69,3.43,2.51l-3.59,5c-1.19-.85-2.36-1.71-3.53-2.58Zm-5.39,7.23q1.77,1.32,3.57,2.61l-3.6,5q-1.85-1.32-3.67-2.69Zm-5.4,7.22q1.85,1.38,3.71,2.72l-3.59,5q-1.92-1.38-3.82-2.79Zm-5.4,7.23c1.28,1,2.56,1.89,3.86,2.82l-3.6,5c-1.33-1-2.64-1.92-3.95-2.9Zm-5.39,7.22q2,1.49,4,2.93l-3.59,5c-1.38-1-2.74-2-4.1-3Zm-5.4,7.23q2.06,1.53,4.14,3l-3.6,5q-2.13-1.53-4.24-3.11Zm-5.4,7.22q2.13,1.59,4.28,3.14l-3.59,5q-2.21-1.58-4.38-3.2Zm-5.4,7.23c1.47,1.09,2.94,2.17,4.43,3.24l-3.6,5c-1.52-1.08-3-2.19-4.52-3.31Zm-5.39,7.22q2.26,1.7,4.56,3.34l-3.59,5q-2.35-1.68-4.67-3.41ZM444.24,580a1.08,1.08,0,0,1,1.52-.08q1.82,1.53,3.68,3a1.08,1.08,0,0,1,.22,1.5l-1.58,2a1.07,1.07,0,0,1-1.52.12q-1.9-1.53-3.77-3.1a1.08,1.08,0,0,1-.19-1.52Zm-5.34,6.28a1.11,1.11,0,0,1,1.55-.06q1.91,1.61,3.84,3.15a1.1,1.1,0,0,1,.24,1.53l-1.57,2a1.11,1.11,0,0,1-1.56.09c-1.32-1.06-2.62-2.13-3.92-3.22a1.1,1.1,0,0,1-.21-1.55Zm-5.33,6.27a1.12,1.12,0,0,1,1.58,0c1.32,1.1,2.64,2.19,4,3.27a1.12,1.12,0,0,1,.28,1.55l-1.57,2a1.13,1.13,0,0,1-1.6.06c-1.36-1.09-2.72-2.21-4.06-3.33a1.14,1.14,0,0,1-.25-1.58Zm-5.34,6.28a1.16,1.16,0,0,1,1.62,0q2,1.73,4.13,3.39a1.16,1.16,0,0,1,.31,1.59l-1.57,2a1.16,1.16,0,0,1-1.63,0q-2.13-1.71-4.21-3.46a1.16,1.16,0,0,1-.28-1.61Zm-5.33,6.27a1.19,1.19,0,0,1,1.65,0q2.11,1.79,4.27,3.51a1.19,1.19,0,0,1,.35,1.62l-1.57,2a1.2,1.2,0,0,1-1.67,0c-1.46-1.17-2.92-2.37-4.35-3.58a1.19,1.19,0,0,1-.32-1.63Zm-5.34,6.28a1.21,1.21,0,0,1,1.68.06c1.46,1.22,2.94,2.43,4.42,3.63a1.22,1.22,0,0,1,.39,1.64l-1.58,2a1.21,1.21,0,0,1-1.69,0q-2.28-1.83-4.51-3.7a1.23,1.23,0,0,1-.35-1.66Zm-5.33,6.27a1.25,1.25,0,0,1,1.71.09q2.26,1.9,4.57,3.75a1.25,1.25,0,0,1,.41,1.67l-1.57,2a1.24,1.24,0,0,1-1.73,0q-2.34-1.89-4.65-3.82a1.24,1.24,0,0,1-.38-1.69ZM406.89,624a1.27,1.27,0,0,1,1.75.11c1.55,1.31,3.13,2.6,4.71,3.88a1.26,1.26,0,0,1,.45,1.69l-1.57,2a1.28,1.28,0,0,1-1.77-.08q-2.41-1.93-4.79-3.94a1.27,1.27,0,0,1-.42-1.71Zm-5.34,6.28a1.31,1.31,0,0,1,1.79.14q2.4,2,4.85,4a1.3,1.3,0,0,1,.49,1.72l-1.57,2a1.31,1.31,0,0,1-1.8-.1c-1.67-1.34-3.31-2.69-4.94-4.06-.63-.53-.83-1.31-.45-1.75Zm-5.33,6.27c.37-.44,1.18-.36,1.81.17,1.66,1.39,3.32,2.76,5,4.11.64.52.88,1.3.52,1.75l-1.57,2a1.35,1.35,0,0,1-1.84-.13c-1.71-1.37-3.41-2.77-5.09-4.18-.64-.54-.85-1.33-.48-1.77Zm-5.34,6.28c.38-.44,1.2-.35,1.85.2q2.55,2.14,5.15,4.23c.66.53.91,1.32.56,1.77l-1.58,2c-.35.45-1.19.39-1.87-.15q-2.64-2.13-5.23-4.3c-.66-.56-.89-1.37-.52-1.81Zm-5.33,6.27c.37-.44,1.21-.33,1.88.23,1.75,1.47,3.51,2.92,5.3,4.35.68.55.94,1.35.58,1.8l-1.57,2c-.36.46-1.21.37-1.9-.18-1.81-1.45-3.6-2.93-5.38-4.42-.68-.57-.92-1.39-.55-1.83Zm-5.34,6.28c.37-.44,1.23-.32,1.92.25,1.79,1.51,3.61,3,5.44,4.48.7.56,1,1.37.62,1.83l-1.57,2c-.36.45-1.23.35-1.94-.22q-2.79-2.24-5.52-4.54c-.7-.58-1-1.42-.59-1.86Zm56.28-82,3,2.76-4.13,4.59c-1-.94-2.07-1.89-3.09-2.84Zm-6.17,6.58q1.56,1.46,3.13,2.88l-4.14,4.58q-1.62-1.46-3.21-3Zm-6.17,6.58c1.08,1,2.16,2,3.26,3l-4.14,4.59c-1.12-1-2.24-2-3.34-3.08ZM418,593.07q1.68,1.57,3.39,3.12l-4.14,4.58q-1.75-1.57-3.47-3.2Zm-6.17,6.58q1.74,1.64,3.52,3.23l-4.14,4.59c-1.21-1.1-2.42-2.2-3.61-3.32Zm-6.17,6.57c1.2,1.13,2.42,2.25,3.64,3.36l-4.13,4.58c-1.26-1.13-2.5-2.28-3.74-3.43Zm-6.17,6.58q1.86,1.76,3.77,3.47l-4.13,4.59q-2-1.75-3.87-3.56Zm-6.17,6.58c1.29,1.21,2.59,2.4,3.9,3.59l-4.14,4.58q-2-1.81-4-3.67ZM387.12,626c1.34,1.25,2.68,2.49,4,3.72L387,634.25c-1.39-1.25-2.76-2.52-4.12-3.79ZM381,632.53q2.07,1.94,4.17,3.83L381,640.94q-2.14-1.94-4.25-3.91Zm51.39-63.2c1,1,1.94,1.91,2.92,2.85L431,576.64c-1-1-2-1.94-3-2.92ZM426,575.74q1.5,1.49,3.05,3l-4.27,4.47c-1-1-2.1-2-3.13-3Zm-6.35,6.4c1.05,1,2.1,2.07,3.17,3.09l-4.26,4.47c-1.1-1.05-2.18-2.11-3.26-3.18Zm-6.35,6.4q1.63,1.62,3.3,3.21l-4.26,4.47c-1.14-1.09-2.27-2.18-3.39-3.29ZM406.94,595q1.69,1.68,3.42,3.33l-4.26,4.47q-1.77-1.69-3.51-3.42Zm-6.36,6.4c1.18,1.16,2.36,2.31,3.56,3.45l-4.26,4.47q-1.85-1.74-3.64-3.54Zm-6.35,6.4q1.83,1.82,3.68,3.58l-4.26,4.47q-1.9-1.81-3.76-3.66Q392,609.93,394.23,607.75Zm-6.35,6.4q1.89,1.88,3.81,3.71l-4.26,4.46c-1.31-1.24-2.61-2.51-3.9-3.78Zm-6.35,6.41q2,1.94,3.93,3.82l-4.26,4.47q-2-1.94-4-3.91Zm-6.35,6.4q2,2,4.06,3.95L375,635.38c-1.4-1.33-2.78-2.68-4.15-4Z"/>
    <circle class="cls-19" cx="601.77" cy="102.14" r="43.27"/>
    <path class="cls-20"
          d="M559.61,51l73.87-5.72.84,42.4h-.05l4.53,77q-3.64-.36-7.31-.59L627,88.29H627v-1l0-.47h0l.3-35.67-29.16,2.4,6.62,36.32h0L609.13,164c-2.55.13-5.09.31-7.64.52l-4.33-73.84h-.07l-4.63-36.4-25.89,1.9,7.92,36.29,4.43,75.32q-3.54.72-7.06,1.56L567.38,93Z"/>
    <path class="cls-20"
          d="M652.37,94l20.94-1.24,4.7,79.8c-2-.62-4-1.19-6-1.74l-4.29-73.07-9.89.59,4.12,70c-1.76-.39-3.54-.75-5.32-1.1Z"/>
    <path class="cls-20"
          d="M682.45,116l20.18-1.18,3.68,62.63-5.62.33-3.41-58-9.3.56,3.34,56.85c-1.78-.7-3.57-1.35-5.38-2Z"/>
    <path class="cls-20"
          d="M528,101.34l21-1.23,4.38,74.6-5.14,1.84L544,105.08l-9.89.57,4.4,74.8c-1.92.82-3.8,1.68-5.67,2.57Z"/>
    <path class="cls-20" d="M521.65,125.47l3.62,61.28-2.84,1.51-2.32.14-3.41-58-9.32.56,3.43,58-5.62.33-3.7-62.64Z"/>
    <path class="cls-21" d="M553.35,174.71c-1.73.59-3.44,1.21-5.14,1.84"/>
    <circle class="cls-22" cx="612" cy="396" r="212.74" transform="translate(-100.76 548.74) rotate(-45)"/>
    <circle class="cls-23" cx="612" cy="396" r="212.24" transform="translate(-100.76 548.74) rotate(-45)"/>
    <path class="cls-24" d="M445.33,304.79a188.71,188.71,0,0,1,113.5-92"/>
    <path class="cls-24"
          d="M558.83,212.76c5.46-1.58,11-2.94,16.73-4,102.7-20,202.27,47.67,222.4,151.1S751.14,563.3,648.44,583.28,446.17,535.61,426,432.18a190.86,190.86,0,0,1,19.29-127.39"/>
    <path class="cls-25 vehicle-1"
          d="M580.73,235.27c87.83-17.08,173,41,190.3,129.79S731.1,539.64,643.27,556.73s-173-41-190.3-129.79a164.11,164.11,0,0,1,23.09-120.6"/>
    <path class="cls-8 vehicle-1"
          d="M575.42,235.36c-.47.1-.94.2-1.4.32-.51-.34-1-.68-1.56-1a3.7,3.7,0,0,0-3.05-.09c-.87.32-1.74.66-2.59,1a3.69,3.69,0,0,0-2.15,2.16c-.16.6-.31,1.2-.44,1.79q-1.63.93-3.18,2a2.37,2.37,0,0,0-.86,3h0a.86.86,0,0,0,.1.16.91.91,0,0,0,.11.16l0,0a1,1,0,0,0,1.3.12,35.39,35.39,0,0,1,14.35-6.57.93.93,0,0,0,.76-1.06l-.07-.4-.18-1A.94.94,0,0,0,575.42,235.36Zm-3,.86a38.79,38.79,0,0,0-6.76,2.71c-.2.1-.41,0-.36-.24s.17-.61.26-.92a2.92,2.92,0,0,1,1.7-1.68c.67-.29,1.35-.57,2-.82a3,3,0,0,1,2.4,0l.83.49A.23.23,0,0,1,572.37,236.22Z"/>
    <path class="cls-8 vehicle-1" d="M565.29,242.16a1.77,1.77,0,0,1-3,1.91,1.76,1.76,0,0,1,3-1.91Z"/>
    <path class="cls-8 vehicle-1" d="M564.57,242.58a.93.93,0,1,1-1.25-.24A.89.89,0,0,1,564.57,242.58Z"/>
    <path class="cls-8 vehicle-1" d="M574.69,238.37a1.77,1.77,0,0,1-3.38,1,1.76,1.76,0,0,1,3.38-1Z"/>
    <path class="cls-8 vehicle-1"
          d="M573.87,238.58a.91.91,0,0,1-.64,1.09.92.92,0,0,1-1.13-.56.9.9,0,0,1,.63-1.12A.89.89,0,0,1,573.87,238.58Z"/>
    <path class="cls-26 vehicle-2"
          d="M597.64,224.93c86.07-7.16,165.66,52,182.65,139.33C798.5,457.86,737.92,548.41,645,566.49S461.92,523.35,443.71,429.74a172.7,172.7,0,0,1,20.73-121.09"/>
    <path class="cls-11 vehicle-2"
          d="M593.73,223.92l-1.13,0c-.33-.34-.68-.68-1-1a2.94,2.94,0,0,0-2.33-.55c-.72.11-1.44.23-2.15.39a2.88,2.88,0,0,0-2,1.31c-.22.44-.43.87-.63,1.31-.93.3-1.85.65-2.75,1a1.87,1.87,0,0,0-1.14,2.19h0s0,.09,0,.13l.06.14,0,0a.73.73,0,0,0,1,.29,27.59,27.59,0,0,1,12-2.77.74.74,0,0,0,.76-.7v-.31l0-.79A.75.75,0,0,0,593.73,223.92Zm-2.48.18a29.62,29.62,0,0,0-5.61,1c-.17,0-.31-.1-.24-.24s.22-.45.34-.67a2.32,2.32,0,0,1,1.58-1c.55-.11,1.12-.22,1.68-.3a2.32,2.32,0,0,1,1.84.41c.19.16.37.33.55.5A.18.18,0,0,1,591.25,224.1Z"/>
    <path class="cls-11 vehicle-2" d="M584.88,227.54a1.38,1.38,0,0,1-2.57,1,1.38,1.38,0,0,1,2.57-1Z"/>
    <path class="cls-11 vehicle-2" d="M584.27,227.75a.73.73,0,0,1-.43.9.72.72,0,0,1-.93-.37.73.73,0,0,1,1.36-.53Z"/>
    <path class="cls-11 vehicle-2" d="M592.69,226.11a1.39,1.39,0,0,1-2.75.25,1.38,1.38,0,0,1,2.75-.25Z"/>
    <path class="cls-11 vehicle-2" d="M592,226.15a.73.73,0,0,1-1.45.12.73.73,0,0,1,1.45-.12Z"/>
    <path class="cls-27 vehicle-3"
          d="M499.75,254.33a177.91,177.91,0,0,1,77.69-36c97.42-19,191.87,45.22,210.95,143.33s-44.41,193-141.83,212S454.69,528.43,435.61,430.32a181.48,181.48,0,0,1-.62-66.53"/>
    <path class="cls-28 vehicle-3"
          d="M495.4,258.91c-.31.21-.62.42-.92.64-.46-.09-.94-.18-1.42-.25a2.86,2.86,0,0,0-2.22.84c-.54.49-1.06,1-1.57,1.52a2.88,2.88,0,0,0-.9,2.2c.06.48.13,1,.21,1.43-.6.77-1.17,1.57-1.69,2.39a1.85,1.85,0,0,0,.28,2.44h0l.12.08a.57.57,0,0,0,.13.08l0,0a.74.74,0,0,0,1-.31,27.63,27.63,0,0,1,8.39-9,.74.74,0,0,0,.24-1l-.17-.27-.43-.66A.73.73,0,0,0,495.4,258.91Zm-1.94,1.53a29.38,29.38,0,0,0-4.07,4,.18.18,0,0,1-.33-.06q-.06-.37-.09-.75a2.3,2.3,0,0,1,.72-1.72c.4-.41.81-.81,1.23-1.19a2.27,2.27,0,0,1,1.74-.69l.74.11C493.56,260.13,493.59,260.33,493.46,260.44Z"/>
    <path class="cls-28 vehicle-3" d="M490.12,266.83a1.38,1.38,0,0,1-1.56,2.26,1.37,1.37,0,0,1,1.56-2.26Z"/>
    <path class="cls-28"
          d="M489.73,267.35a.72.72,0,0,1,.14,1,.7.7,0,0,1-1,.21.69.69,0,0,1-.16-1A.7.7,0,0,1,489.73,267.35Z"/>
    <path class="cls-28 vehicle-3" d="M495.77,261.29a1.38,1.38,0,0,1-2.14,1.74,1.38,1.38,0,0,1,2.14-1.74Z"/>
    <path class="cls-28 vehicle-3"
          d="M495.24,261.69a.71.71,0,0,1-.13,1,.73.73,0,0,1-1-.07.7.7,0,0,1,.13-1A.69.69,0,0,1,495.24,261.69Z"/>

          <style>
          @keyframes rotate-left {
    0% {
        transform: rotate(360deg);
    }
    100% {
        transform: rotate(0deg);
    }
}

@keyframes rotate-right {
    from {
        -webkit-transform: rotate(0deg);
    }
    to {
        -webkit-transform: rotate(360deg);
    }
}

@keyframes hover {
    0% {
        -webkit-transform: translateY(0%);
    }
    50% {
        -webkit-transform: translateY(5%);
    }
    100% {
        -webkit-transform: translateY(0%);
    }
}

@keyframes pull {
    0% {
        -webkit-transform: scaleY(1);
    }
    40% {
        -webkit-transform: scaleY(1.01);
    }
    60% {
        -webkit-transform: scaleY(0.99);
    }
    80% {
        -webkit-transform: scaleY(1.01);
    }
    100% {
        -webkit-transform: scaleY(0.99);
    }
    80% {
        -webkit-transform: scaleY(1.01);
    }
    100% {
        -webkit-transform: scaleY(1);
    }
}

.around, .cls-4, .cls-5, .cls-6, .cls-7,.cls-8, .cls-9, .cls-10, .cls-11,.cls-12,
.cls-13, .cls-14, .cls-15, .cls-16, .cls-17, .cls-18, .cls-19,
.cls-20, .cls-21, .cls-22, .cls-23,  .cls-27{
    -webkit-transform: translate3d(0, 0, 0);
    -webkit-transform-origin: 50% 50%;
    -webkit-transform: translate3d(0, 0, 0);
    -webkit-animation: rotate-right 60s linear 1s infinite;
}

.cloud-1 {
    -webkit-transform: translate3d(0, 0, 0);
    -webkit-transform-origin: 50% 50%;
    -webkit-transform: translate3d(0, 0, 0);
    -webkit-animation: hover 3s linear 1s infinite;
}

.cloud-2 {
    -webkit-transform: translate3d(0, 0, 0);
    -webkit-transform-origin: 50% 50%;
    -webkit-transform: translate3d(0, 0, 0);
    -webkit-animation: hover 4s linear 2s infinite;
}

.vehicle-1 {
    -webkit-transform: translate3d(0, 0, 0);
    -webkit-transform-origin: 50% 50%;
    -webkit-transform: translate3d(0, 0, 0);
    -webkit-animation: rotate-left 10s linear 1s infinite;
}

.vehicle-2 {
    -webkit-transform: translate3d(0, 0, 0);
    -webkit-transform-origin: 50% 50%;
    -webkit-transform: translate3d(0, 0, 0);
    -webkit-animation: rotate-left 15s linear 1s infinite;
}

.vehicle-3 {
    -webkit-transform: translate3d(0, 0, 0);
    -webkit-transform-origin: 50% 50%;
    -webkit-transform: translate3d(0, 0, 0);
    -webkit-animation: rotate-left 20s linear 1s infinite;
}

.cls-1{
    /*fill: #d93728;
    stroke: #d93728;*/
}



          </style>
</svg> 
