<svg xmlns="http://www.w3.org/2000/svg" width="7" height="8" viewBox="0 0 7 8">
  <path id="Icon_awesome-calendar-alt" data-name="Icon awesome-calendar-alt" d="M0,7.25A.75.75,0,0,0,.75,8h5.5A.75.75,0,0,0,7,7.25V3H0ZM5,4.188A.188.188,0,0,1,5.188,4h.625A.188.188,0,0,1,6,4.188v.625A.188.188,0,0,1,5.813,5H5.188A.188.188,0,0,1,5,4.813Zm0,2A.188.188,0,0,1,5.188,6h.625A.188.188,0,0,1,6,6.188v.625A.188.188,0,0,1,5.813,7H5.188A.188.188,0,0,1,5,6.813Zm-2-2A.188.188,0,0,1,3.188,4h.625A.188.188,0,0,1,4,4.188v.625A.188.188,0,0,1,3.813,5H3.188A.188.188,0,0,1,3,4.813Zm0,2A.188.188,0,0,1,3.188,6h.625A.188.188,0,0,1,4,6.188v.625A.188.188,0,0,1,3.813,7H3.188A.188.188,0,0,1,3,6.813Zm-2-2A.188.188,0,0,1,1.188,4h.625A.188.188,0,0,1,2,4.188v.625A.188.188,0,0,1,1.813,5H1.188A.188.188,0,0,1,1,4.813Zm0,2A.188.188,0,0,1,1.188,6h.625A.188.188,0,0,1,2,6.188v.625A.188.188,0,0,1,1.813,7H1.188A.188.188,0,0,1,1,6.813ZM6.25,1H5.5V.25A.251.251,0,0,0,5.25,0h-.5A.251.251,0,0,0,4.5.25V1h-2V.25A.251.251,0,0,0,2.25,0h-.5A.251.251,0,0,0,1.5.25V1H.75A.75.75,0,0,0,0,1.75V2.5H7V1.75A.75.75,0,0,0,6.25,1Z" fill="#00047e"/>
</svg>
