<svg xmlns="http://www.w3.org/2000/svg" width="8.75" height="14" viewBox="0 0 8.75 14">
  <path id="Icon_awesome-mobile-alt" data-name="Icon awesome-mobile-alt" d="M7.438,0H1.313A1.313,1.313,0,0,0,0,1.313V12.688A1.313,1.313,0,0,0,1.313,14H7.438A1.313,1.313,0,0,0,8.75,12.688V1.313A1.313,1.313,0,0,0,7.438,0ZM4.375,13.125a.875.875,0,1,1,.875-.875A.874.874,0,0,1,4.375,13.125Zm3.063-2.953a.329.329,0,0,1-.328.328H1.641a.329.329,0,0,1-.328-.328V1.641a.329.329,0,0,1,.328-.328H7.109a.329.329,0,0,1,.328.328Z" fill="#00047e"/>
</svg>
