<svg id="Group_426" data-name="Group 426" xmlns="http://www.w3.org/2000/svg" width="12" height="9.145" viewBox="0 0 12 9.145">
  <g id="Group_13" data-name="Group 13">
    <path id="Path_82" data-name="Path 82" d="M186.4-1427.605a1.2,1.2,0,0,0,.293-.787,1.209,1.209,0,0,0-1.208-1.208,1.209,1.209,0,0,0-1.208,1.208,1.2,1.2,0,0,0,.293.787,1.346,1.346,0,0,0-.712,1.186v1.055a.289.289,0,0,0,.289.289h2.676a.289.289,0,0,0,.289-.289v-1.055a1.346,1.346,0,0,0-.712-1.186Zm-.915-1.417a.63.63,0,0,1,.629.629.63.63,0,0,1-.623.629h-.013a.63.63,0,0,1-.623-.629.63.63,0,0,1,.629-.629Zm1.049,3.369h-2.1v-.766a.767.767,0,0,1,.766-.766h.566a.767.767,0,0,1,.766.766v.766Zm1.84-2.959a.289.289,0,0,1,.289-.289h1.563a.289.289,0,0,1,.289.289.289.289,0,0,1-.289.289h-1.563a.289.289,0,0,1-.289-.289Zm4.485-3.3h-9.551a1.226,1.226,0,0,0-1.224,1.224v6.7a1.226,1.226,0,0,0,1.224,1.224h9.551a1.226,1.226,0,0,0,1.224-1.224v-6.7a1.226,1.226,0,0,0-1.224-1.224Zm.646,7.921a.647.647,0,0,1-.646.646h-.691l.156-.295a.289.289,0,0,0-.12-.391.289.289,0,0,0-.391.12l-.3.565h-.864l.156-.295a.289.289,0,0,0-.12-.391.289.289,0,0,0-.391.12l-.3.565h-.864l.156-.295a.289.289,0,0,0-.12-.391.289.289,0,0,0-.391.12l-.3.565h-.864l.156-.295a.289.289,0,0,0-.12-.391.289.289,0,0,0-.391.12l-.3.565H186.1l.156-.295a.289.289,0,0,0-.12-.391.289.289,0,0,0-.391.12l-.3.565h-.864l.156-.295a.289.289,0,0,0-.12-.391.289.289,0,0,0-.391.12l-.3.565h-.616a.647.647,0,0,1-.646-.646v-6.7a.647.647,0,0,1,.646-.646H184l-.156.295a.289.289,0,0,0,.12.391.289.289,0,0,0,.391-.12l.3-.565h.864l-.156.295a.289.289,0,0,0,.12.391.289.289,0,0,0,.391-.12l.3-.565h.864l-.156.295a.289.289,0,0,0,.12.391.289.289,0,0,0,.391-.12l.3-.565h.864l-.156.295a.289.289,0,0,0,.12.391.289.289,0,0,0,.391-.12l.3-.565h.864l-.156.295a.289.289,0,0,0,.12.391.289.289,0,0,0,.391-.12l.3-.565h.864l-.156.295a.289.289,0,0,0,.12.391.289.289,0,0,0,.391-.12l.3-.565h.616a.647.647,0,0,1,.646.646v6.7Zm-1.147-2.074a.289.289,0,0,1-.289.289h-3.406a.289.289,0,0,1-.289-.289.289.289,0,0,1,.289-.289h3.406a.289.289,0,0,1,.289.289Zm0-1.149a.289.289,0,0,1-.289.289h-3.406a.289.289,0,0,1-.289-.289.289.289,0,0,1,.289-.289h3.406a.289.289,0,0,1,.289.289Zm0,0" transform="translate(-182.083 1431.91)" fill="#00047e"/>
  </g>
</svg>
