<svg id="Layer_1" data-name="Layer 1" xmlns="http://www.w3.org/2000/svg" viewBox="0 0 100 100"><defs><style>.cls-1{fill:#3ad394;}</style></defs><title>icon id 11</title><path class="cls-1" d="M11.87,83H73.36a1.52,1.52,0,1,0,0-3H11.87a8.4,8.4,0,0,1-8.39-8.39V35.24a8.4,8.4,0,0,1,8.39-8.39h9.37a1.52,1.52,0,1,0,0-3H11.87A11.45,11.45,0,0,0,.44,35.24V71.59A11.45,11.45,0,0,0,11.87,83Z"/><path class="cls-1" d="M88.13,23.81H27.32a1.52,1.52,0,1,0,0,3H88.13a8.4,8.4,0,0,1,8.39,8.39V71.59A8.4,8.4,0,0,1,88.13,80H79.44a1.52,1.52,0,0,0,0,3h8.69A11.45,11.45,0,0,0,99.56,71.59V35.24A11.45,11.45,0,0,0,88.13,23.81Z"/><path class="cls-1" d="M7.53,35.24V71.59a4.35,4.35,0,0,0,4.34,4.34H88.13a4.35,4.35,0,0,0,4.34-4.34V35.24a4.35,4.35,0,0,0-4.34-4.34H11.87A4.35,4.35,0,0,0,7.53,35.24Zm81.9,36.35a1.3,1.3,0,0,1-1.3,1.3H11.87a1.3,1.3,0,0,1-1.3-1.3V65.8H89.43Zm0-8.83H10.57V44.07H89.43Zm0-27.52V41H10.57V35.24a1.3,1.3,0,0,1,1.3-1.3H88.13A1.3,1.3,0,0,1,89.43,35.24Z"/><path class="cls-1" d="M16.45,58.69h3l.42,2.83h2.48l-2.5-15.6H16.27l-2.49,15.6H16Zm1.5-10,1.18,7.89H16.77Z"/><path class="cls-1" d="M31.92,57.82V56.55c0-1.65-.52-2.83-1.83-3.34,1.09-.51,1.58-1.54,1.58-3.14v-.56c0-2.4-1.09-3.59-3.63-3.59h-3.7v15.6H28.2C30.65,61.52,31.92,60.23,31.92,57.82Zm-5.13-9.67H28c.87,0,1.25.49,1.25,1.61v.87c0,1.24-.56,1.65-1.47,1.65h-1V48.15Zm0,6.35h1.09c1.12,0,1.59.45,1.59,1.9v1.36c0,1.16-.45,1.53-1.27,1.53H26.79Z"/><path class="cls-1" d="M37.69,61.7c2.41,0,3.65-1.43,3.65-3.92V55.71H39v2.23c0,1.11-.49,1.51-1.27,1.51s-1.27-.4-1.27-1.51V49.51c0-1.11.49-1.54,1.27-1.54S39,48.4,39,49.51v1.67h2.31V49.67c0-2.5-1.24-3.92-3.65-3.92S34,47.17,34,49.67v8.11C34,60.27,35.28,61.7,37.69,61.7Z"/><rect class="cls-1" x="47.87" y="52.61" width="4.46" height="2.23"/><path class="cls-1" d="M62.56,61.52H65V45.92H63.36a2.43,2.43,0,0,1-2.7,2v1.73h1.9Z"/><path class="cls-1" d="M75.9,59.29H71.27a1.83,1.83,0,0,1,0-.33c0-2.56,4.88-4.39,4.88-9.29,0-2.5-1.25-3.92-3.66-3.92s-3.65,1.42-3.65,3.92v1.51h2.31V49.51c0-1.11.49-1.54,1.27-1.54s1.27.38,1.27,1.79c0,4.5-4.85,5.26-4.85,9.85v1.91H75.9V59.29Z"/><path class="cls-1" d="M82,61.7c2.4,0,3.65-1.43,3.65-3.92V56.55c0-1.58-.49-2.74-1.71-3.27,1.18-.49,1.71-1.54,1.71-3.21v-.4c0-2.5-1.25-3.92-3.65-3.92s-3.66,1.42-3.66,3.92v.84h2.32v-1c0-1.11.49-1.54,1.27-1.54s1.27.38,1.27,1.79v.87c0,1.24-.56,1.65-1.47,1.65h-1V54.5h.83c1.11,0,1.6.54,1.6,2v1.22c0,1.38-.49,1.76-1.27,1.76s-1.27-.42-1.27-1.54V56.49H78.35v1.29C78.35,60.27,79.6,61.7,82,61.7Z"/><circle class="cls-1" cx="25.4" cy="37.51" r="1.66"/><circle class="cls-1" cx="25.4" cy="69.35" r="1.66"/><circle class="cls-1" cx="74.6" cy="37.51" r="1.66"/><circle class="cls-1" cx="74.6" cy="69.35" r="1.66"/></svg>