<svg id="Layer_1" data-name="Layer 1" xmlns="http://www.w3.org/2000/svg" viewBox="0 0 100 100"><defs><style>.cls-1{fill:#3ad394;}</style></defs><title>icon id 1</title><path class="cls-1" d="M37.78,96.09a3.9,3.9,0,0,1-3.9,3.91H20.81A15.64,15.64,0,0,1,5.19,84.38V15.63A15.64,15.64,0,0,1,20.81,0h48A15.64,15.64,0,0,1,84.46,15.63v24a3.91,3.91,0,0,1-7.81,0v-24a7.82,7.82,0,0,0-7.81-7.82h-48A7.83,7.83,0,0,0,13,15.63V84.38a7.83,7.83,0,0,0,7.81,7.81H33.88A3.9,3.9,0,0,1,37.78,96.09ZM64.93,23.44H24.7a3.91,3.91,0,1,0,0,7.81H64.93a3.91,3.91,0,1,0,0-7.81ZM68.84,43a3.91,3.91,0,0,0-3.91-3.91H24.7a3.91,3.91,0,1,0,0,7.82H64.93A3.91,3.91,0,0,0,68.84,43ZM24.7,54.69a3.91,3.91,0,1,0,0,7.81H49.13a3.91,3.91,0,1,0,0-7.81ZM91.38,73.13,70,94.49a3.86,3.86,0,0,1-1.71,1L52.5,99.86a4.13,4.13,0,0,1-1,.14,3.91,3.91,0,0,1-3.74-5l4.67-15.38a4,4,0,0,1,1-1.63l21.44-21.4A11.72,11.72,0,0,1,91.38,73.13Zm-11.8.75-5.53-5.53L59.58,82.79l-2.32,7.64,7.93-2.19Zm6.28-11.8a3.91,3.91,0,0,0-5.52,0l-.76.75,5.53,5.53.75-.76A3.91,3.91,0,0,0,85.86,62.08Z"/></svg>