<svg id="Layer_1" data-name="Layer 1" xmlns="http://www.w3.org/2000/svg" viewBox="0 0 512 512"><defs><style>.cls-1{fill:#62381b;}</style></defs><title>icon 57</title><path class="cls-1" d="M405.33,103V64A42.72,42.72,0,0,0,448,21.33V10.67A10.66,10.66,0,0,0,437.33,0H74.67A10.66,10.66,0,0,0,64,10.67V21.33A42.72,42.72,0,0,0,106.67,64v39a138.86,138.86,0,0,0,45.9,103.07L208.05,256l-55.48,49.94A138.86,138.86,0,0,0,106.67,409v39A42.72,42.72,0,0,0,64,490.67v10.66A10.66,10.66,0,0,0,74.67,512H437.33A10.66,10.66,0,0,0,448,501.33V490.67A42.72,42.72,0,0,0,405.33,448V409a138.86,138.86,0,0,0-45.9-103.07L304,256l55.48-49.94A138.86,138.86,0,0,0,405.33,103Zm-320-81.66H426.67a21.37,21.37,0,0,1-21.34,21.34H106.67A21.37,21.37,0,0,1,85.33,21.33ZM426.67,490.67H85.33a21.37,21.37,0,0,1,21.34-21.34H405.33A21.37,21.37,0,0,1,426.67,490.67ZM181.33,448,256,348.45,330.67,448Zm99.53-199.93a10.67,10.67,0,0,0,0,15.86l64.3,57.86A117.54,117.54,0,0,1,384,409v39H357.33l-92.8-123.73c-4-5.37-13-5.37-17.06,0L154.67,448H128V409a117.54,117.54,0,0,1,38.84-87.22l64.3-57.86a10.67,10.67,0,0,0,0-15.86l-64.3-57.86A117.54,117.54,0,0,1,128,103V64H384v39a117.54,117.54,0,0,1-38.84,87.22Z"/><path class="cls-1" d="M329.52,149.33h-147a10.67,10.67,0,0,0-7.9,17.84l1.67,1.94a49,49,0,0,0,4.85,5.22l67.75,61.36a10.67,10.67,0,0,0,14.32,0l67.73-61.35a48,48,0,0,0,4.86-5.23l1.67-1.94a10.67,10.67,0,0,0-7.9-17.84ZM256,213.39l-47.18-42.72h94.35Z"/></svg>