<svg id="Layer_1" data-name="Layer 1" xmlns="http://www.w3.org/2000/svg" viewBox="0 0 100 100"><defs><style>.cls-1{fill:#3ad394;}</style></defs><title>icon id 16</title><path class="cls-1" d="M85.28,70.19a17.06,17.06,0,0,0-7.9-6.33l-14-5.56a19.11,19.11,0,0,0,5.79-13.71,18.88,18.88,0,0,0-1-6,1.92,1.92,0,0,0,1-1.66V31.08l3.34-6.68,3.26-1.63a1.9,1.9,0,0,0,1-1.71V15.32a1.92,1.92,0,0,0-1.3-1.82L70,11.69,56.89,1.74a1.9,1.9,0,0,0-1.15-.39H44.26a1.9,1.9,0,0,0-1.15.39L30,11.69,24.52,13.5a1.93,1.93,0,0,0-1.31,1.82v5.74a1.91,1.91,0,0,0,1.06,1.71l3.26,1.63,3.34,6.68v5.86a1.92,1.92,0,0,0,1,1.66,18.88,18.88,0,0,0-1,6A19.1,19.1,0,0,0,36.65,58.3l-14,5.56a17.19,17.19,0,0,0-10.88,16V97.4a1.91,1.91,0,0,0,1.91,1.91h72.7a1.91,1.91,0,0,0,1.91-1.91V79.87A17.12,17.12,0,0,0,85.28,70.19ZM49.17,95.48l-3-5V78.39a1.92,1.92,0,0,1,.39-1.15L50,72.65l3.44,4.6a1.87,1.87,0,0,1,.39,1.14V90.52l-3,5ZM44.26,62.84v2.8a5.7,5.7,0,0,0,1.68,4,6.06,6.06,0,0,0,.93.76L43.5,75a5.76,5.76,0,0,0-1.15,3.44v5.8L30.64,64.79,40.19,61A18.55,18.55,0,0,0,44.26,62.84ZM50,67.55a1.91,1.91,0,0,1-1.91-1.91v-2c.63.06,1.27.09,1.91.09s1.28,0,1.91-.09v2A1.92,1.92,0,0,1,50,67.55ZM56.5,75l-3.37-4.5a5.75,5.75,0,0,0,2.61-4.81v-2.8A18.55,18.55,0,0,0,59.81,61l9.55,3.78L57.65,84.18V78.39A5.76,5.76,0,0,0,56.5,75ZM35.89,36a1.81,1.81,0,0,0-.61-.47,2.11,2.11,0,0,0-.59-.18V32.54H65.31v3l-5,1.65A32.92,32.92,0,0,1,50,38.85a33,33,0,0,1-5.26-.42,33.66,33.66,0,0,1-5.13-1.25ZM29.81,21.26,27,19.88V16.7l4.43-1.48a1.61,1.61,0,0,0,.55-.29L44.9,5.18H55.1L68,14.93a1.61,1.61,0,0,0,.55.29L73,16.7v3.18l-2.77,1.38a2,2,0,0,0-.86.86L66,28.71H34l-3.29-6.59A2,2,0,0,0,29.81,21.26Zm4.88,23.33a15.14,15.14,0,0,1,.76-4.75l2.94,1a36.71,36.71,0,0,0,5.72,1.4,37.18,37.18,0,0,0,5.87.47A36.69,36.69,0,0,0,61.5,40.83l3-1A15.31,15.31,0,0,1,58.6,57.26l-.09.05a15.2,15.2,0,0,1-5.11,2.21,15.6,15.6,0,0,1-6.8,0A15.34,15.34,0,0,1,34.69,44.59ZM15.56,79.86A13.33,13.33,0,0,1,24,67.41l3-1.19L42.46,91.78l2.24,3.7H15.56ZM84.44,95.48H55.3L73,66.22l3,1.19a13.34,13.34,0,0,1,8.47,12.46V95.48Z"/></svg>