<svg id="Layer_1" data-name="Layer 1" xmlns="http://www.w3.org/2000/svg" viewBox="0 0 100 100"><defs><style>.cls-1{fill:#3ad394;}</style></defs><title>icon id 2</title><path id="Path_143-2" data-name="Path 143-2" class="cls-1" d="M50,69.36H73.39a7.26,7.26,0,0,0,0-14.52H58.07A54.89,54.89,0,0,1,3.23,0H0A58.13,58.13,0,0,0,58.07,58.06H73.39a4,4,0,0,1,0,8.07H50A33.9,33.9,0,0,0,16.13,100h3.23A30.66,30.66,0,0,1,50,69.36Z"/><path id="Path_144-2" data-name="Path 144-2" class="cls-1" d="M73.39,35.48H58.07A35.52,35.52,0,0,1,22.58,0H19.36A38.75,38.75,0,0,0,58.07,38.71H73.39a23.39,23.39,0,1,1,0,46.77H50A14.54,14.54,0,0,0,35.48,100h3.23A11.31,11.31,0,0,1,50,88.71H73.39a26.62,26.62,0,0,0,0-53.23Z"/><path id="Path_145-2" data-name="Path 145-2" class="cls-1" d="M25.81,100H29a20,20,0,0,1,.22-3l-3.2-.46a24.79,24.79,0,0,0-.24,3.45Z"/><path id="Path_146-2" data-name="Path 146-2" class="cls-1" d="M38.85,82.24a21.3,21.3,0,0,1,5.52-2.45l-.86-3.11a24.23,24.23,0,0,0-6.37,2.82Z"/><rect id="Rectangle_84-2" data-name="Rectangle 84-2" class="cls-1" x="50.4" y="75.81" width="6.53" height="3.23"/><path id="Path_147-2" data-name="Path 147-2" class="cls-1" d="M12.6,16.58l3-1.1a45.85,45.85,0,0,1-1.74-6.05l-3.16.67a47,47,0,0,0,1.87,6.48Z"/><rect id="Rectangle_85-2" data-name="Rectangle 85-2" class="cls-1" x="63.45" y="75.81" width="6.53" height="3.23"/><path id="Path_148-2" data-name="Path 148-2" class="cls-1" d="M18.92,28.45l2.61-1.89a45.92,45.92,0,0,1-3.34-5.34l-2.84,1.52A47.91,47.91,0,0,0,18.92,28.45Z"/><path id="Path_149-2" data-name="Path 149-2" class="cls-1" d="M28,89.86,31,91.22a21,21,0,0,1,3.3-5.07L31.83,84A24.24,24.24,0,0,0,28,89.86Z"/><path id="Path_150-2" data-name="Path 150-2" class="cls-1" d="M88.12,70.45a16.7,16.7,0,0,0,2.14-6.83L87,63.33a13.5,13.5,0,0,1-1.72,5.53Z"/><rect id="Rectangle_86-2" data-name="Rectangle 86-2" class="cls-1" x="59.68" y="45.16" width="6.53" height="3.23"/><path id="Path_151-2" data-name="Path 151-2" class="cls-1" d="M78.51,49.38l1.21-3a16.75,16.75,0,0,0-6.33-1.23h-.66v3.23h.66a13.45,13.45,0,0,1,5.12,1Z"/><path id="Path_152-2" data-name="Path 152-2" class="cls-1" d="M76.16,75.53l.65,3.16a16.91,16.91,0,0,0,6.54-2.9l-1.9-2.61a13.41,13.41,0,0,1-5.3,2.35Z"/><path id="Path_153-2" data-name="Path 153-2" class="cls-1" d="M83.31,52.64a13.54,13.54,0,0,1,3,4.94l3-1.07a16.72,16.72,0,0,0-3.74-6.1Z"/><path id="Path_154-2" data-name="Path 154-2" class="cls-1" d="M25.58,31.38l-2.32,2.24a48.58,48.58,0,0,0,5,4.51l2-2.54a45.5,45.5,0,0,1-4.68-4.21Z"/><path id="Path_155-2" data-name="Path 155-2" class="cls-1" d="M35.48,39.12l-1.61,2.79a47.14,47.14,0,0,0,6.06,3l1.21-3a45.53,45.53,0,0,1-5.66-2.76Z"/><path id="Path_156-2" data-name="Path 156-2" class="cls-1" d="M47.13,43.83,46.35,47A48.44,48.44,0,0,0,53,48.12l.33-3.2A46.5,46.5,0,0,1,47.13,43.83Z"/><path id="Path_157-2" data-name="Path 157-2" class="cls-1" d="M13,3.12C12.94,2.09,12.9,1,12.9,0H9.68c0,1.11,0,2.24.11,3.33Z"/><g id="Group_450-2" data-name="Group 450-2"><path id="Path_158-2" data-name="Path 158-2" class="cls-1" d="M45.16,29a4.83,4.83,0,0,0,1.61-9.38V16.13H64.52a1.61,1.61,0,0,0,1.14-2.75L60.35,8.07l5.31-5.32A1.61,1.61,0,0,0,64.52,0H45.16a1.61,1.61,0,0,0-1.61,1.61h0v18A4.83,4.83,0,0,0,45.16,29Zm1.61-25.8H60.62l-3.7,3.7a1.6,1.6,0,0,0,0,2.27h0l3.7,3.7H46.77ZM45.16,22.58a1.62,1.62,0,1,1-1.61,1.61h0A1.61,1.61,0,0,1,45.16,22.58Z"/><path id="Path_159-2" data-name="Path 159-2" class="cls-1" d="M79,33.87a4.83,4.83,0,0,0,1.61-9.38V21H98.39A1.61,1.61,0,0,0,100,19.36a1.65,1.65,0,0,0-.47-1.15L94.22,12.9l5.31-5.31a1.61,1.61,0,0,0-1.14-2.75H79a1.61,1.61,0,0,0-1.61,1.61h0v18A4.83,4.83,0,0,0,79,33.87Zm1.61-25.8H94.49l-3.7,3.7a1.6,1.6,0,0,0,0,2.27h0l3.7,3.7H80.64ZM79,27.42A1.62,1.62,0,1,1,77.42,29h0A1.61,1.61,0,0,1,79,27.42Z"/></g><path id="Path_160-2" data-name="Path 160-2" class="cls-1" d="M6.45,77.72V74.19H24.19a1.61,1.61,0,0,0,1.62-1.61,1.58,1.58,0,0,0-.48-1.14L20,66.13l5.31-5.31a1.61,1.61,0,0,0-1.14-2.75H4.84a1.6,1.6,0,0,0-1.61,1.61h0v18a4.84,4.84,0,1,0,3.22,0Zm0-16.43H20.3L16.6,65a1.61,1.61,0,0,0,0,2.28h0L20.3,71H6.45ZM4.84,83.87a1.62,1.62,0,1,1,1.61-1.61h0A1.61,1.61,0,0,1,4.84,83.87Z"/></svg>