<svg id="Layer_1" data-name="Layer 1" xmlns="http://www.w3.org/2000/svg" viewBox="0 0 100 100"><defs><style>.cls-1{fill:#3ad394;}</style></defs><title>icon id 17</title><path class="cls-1" d="M1.66,74h8.5A8.31,8.31,0,0,0,25,77.31,8.3,8.3,0,0,0,39.83,74H73.5a8.34,8.34,0,0,0,16.34,0h8.5A1.66,1.66,0,0,0,100,72.37V59.71a21.64,21.64,0,0,0-.58-5L95.78,39.39A6.7,6.7,0,0,0,89.24,34H39.36L36.5,28.28a1.69,1.69,0,0,0-1.5-.92H11.66a1.68,1.68,0,0,0-1.49.92L7.3,34H1.66A1.66,1.66,0,0,0,0,35.7V72.37A1.66,1.66,0,0,0,1.66,74Zm16.67,3.34a5,5,0,1,1,5-5,5,5,0,0,1-5,5Zm13.34,0a5,5,0,1,1,5-5,5,5,0,0,1-5,5Zm50,0a5,5,0,1,1,5-5,5,5,0,0,1-5,5Zm14.5-21.9c0,.07,0,.15,0,.23H83.34V44H93.45ZM12.69,30.7H34L35.64,34H11ZM3.33,37.36H89.24a3.36,3.36,0,0,1,3.28,2.74l.15.6H3.33ZM80,44V55.7H70V44ZM66.67,44V55.7h-10V44ZM53.33,44V55.7h-10V44ZM40,44V55.7H30V44ZM26.67,44V55.7h-10V44ZM3.33,44h10V55.7h-10Zm0,21.67H6.66V62.36H3.33V59h93.3c0,.23,0,.45,0,.68v2.65H93.34V65.7h3.33v5H89.84a.32.32,0,0,0,0-.09,8.59,8.59,0,0,0-.43-1.39c-.07-.16-.16-.3-.23-.46a7.5,7.5,0,0,0-.48-.88c-.11-.17-.23-.32-.35-.48s-.38-.48-.59-.71-.28-.29-.43-.43-.46-.4-.71-.58l-.49-.34a7.58,7.58,0,0,0-.84-.45l-.53-.25a8.88,8.88,0,0,0-1-.31c-.17,0-.32-.1-.49-.13a7.7,7.7,0,0,0-3.17,0c-.17,0-.33.09-.49.13a8.88,8.88,0,0,0-1,.31c-.18.07-.36.17-.53.25a6.78,6.78,0,0,0-.84.45l-.5.34c-.24.18-.48.38-.7.58l-.44.43c-.2.23-.4.47-.58.71s-.24.31-.35.48a7.5,7.5,0,0,0-.48.88,4.93,4.93,0,0,0-.23.46,8.59,8.59,0,0,0-.43,1.39.32.32,0,0,1,0,.09H39.83s0-.06,0-.09a9.71,9.71,0,0,0-.43-1.39c-.07-.16-.16-.3-.23-.46a9.42,9.42,0,0,0-.49-.88,5.22,5.22,0,0,0-.34-.48c-.18-.24-.38-.48-.59-.71s-.29-.29-.44-.43a8,8,0,0,0-.7-.58l-.5-.34a7.45,7.45,0,0,0-.83-.45l-.53-.25a8.88,8.88,0,0,0-1-.31c-.16,0-.32-.1-.5-.13a7.71,7.71,0,0,0-3.1,0l-.26,0a9.21,9.21,0,0,0-1.35.43l-.25.1a9.59,9.59,0,0,0-1.26.69l-.07.05a8.28,8.28,0,0,0-1.07.89l-.16.15a7.87,7.87,0,0,0-.71.82,8.45,8.45,0,0,0-.73-.84l-.16-.15A9.11,9.11,0,0,0,23,65.49l-.06,0a9,9,0,0,0-1.26-.68l-.25-.11a7.93,7.93,0,0,0-1.36-.42l-.25,0a7.76,7.76,0,0,0-3.11,0c-.16,0-.33.09-.49.13a8.88,8.88,0,0,0-1,.31l-.53.25a7.45,7.45,0,0,0-.83.45c-.16.11-.33.22-.5.35a7.69,7.69,0,0,0-.7.58c-.15.14-.29.27-.43.42a8.06,8.06,0,0,0-.59.72c-.12.15-.24.31-.35.47a7.63,7.63,0,0,0-.48.89,4,4,0,0,0-.23.46,8.29,8.29,0,0,0-.43,1.39s0,.05,0,.08H3.33Zm0,0"/><rect class="cls-1" x="40" y="62.36" width="33.34" height="3.33"/></svg>