<svg id="Layer_1" data-name="Layer 1" xmlns="http://www.w3.org/2000/svg" viewBox="0 0 100 100"><defs><style>.cls-1{fill:#3ad394;fill-rule:evenodd;}</style></defs><title>icon id 10</title><path class="cls-1" d="M82,20.87a.13.13,0,0,0,0-.06,1.07,1.07,0,0,0,0-.25h0a1.55,1.55,0,0,0-.06-.23s0,0,0-.06a2.14,2.14,0,0,0-.1-.22h0l-.13-.21a.1.1,0,0,1,0,0l-.17-.19L64.27,2.4a1.54,1.54,0,0,0-.19-.17l0,0-.21-.14h0L63.59,2l-.06,0a1.55,1.55,0,0,0-.23-.06h0a1,1,0,0,0-.25,0H19.88A1.9,1.9,0,0,0,18,3.74V85.07a1.9,1.9,0,0,0,1.9,1.9H48.49V97.22a1.9,1.9,0,0,0,2.91,1.61l7.23-4.54,7.24,4.54a1.85,1.85,0,0,0,1,.29,2,2,0,0,0,.92-.23,1.93,1.93,0,0,0,1-1.67V87H80.12a1.9,1.9,0,0,0,1.9-1.9V20.87ZM64.83,8.33,75.53,19H64.83ZM47.55,60.53a6,6,0,0,1-.36-1.2,5.3,5.3,0,0,1,1-.71,6.91,6.91,0,0,0,2-1.67,6.86,6.86,0,0,0,1-2.43,5.57,5.57,0,0,1,.36-1.11,2.82,2.82,0,0,1,.47,0l.7,0c.28,0,.58,0,.89,0a5.3,5.3,0,0,0,1.74-.24,7.17,7.17,0,0,0,2.19-1.35,4.77,4.77,0,0,1,1.11-.77,4.43,4.43,0,0,1,1.13.77A7.1,7.1,0,0,0,62,53.19a5.28,5.28,0,0,0,1.73.24q.47,0,.9,0l.7,0a3,3,0,0,1,.47,0,6.36,6.36,0,0,1,.35,1.11,6.86,6.86,0,0,0,1,2.43,7,7,0,0,0,2,1.67,5.3,5.3,0,0,1,1,.71,5.85,5.85,0,0,1-.35,1.2,7.36,7.36,0,0,0-.61,2.61,7.41,7.41,0,0,0,.61,2.61,5.52,5.52,0,0,1,.35,1.2,5.31,5.31,0,0,1-1,.7,7.08,7.08,0,0,0-2,1.68,6.79,6.79,0,0,0-1,2.43,6.51,6.51,0,0,1-.35,1.1,3,3,0,0,1-.47,0l-.7,0c-.29,0-.59,0-.9,0a5.26,5.26,0,0,0-1.73.25,7.1,7.1,0,0,0-2.2,1.35,4.51,4.51,0,0,1-1.12.76,4.91,4.91,0,0,1-1.12-.76,7.17,7.17,0,0,0-2.19-1.35,5.29,5.29,0,0,0-1.74-.25c-.31,0-.61,0-.89,0l-.7,0a2.82,2.82,0,0,1-.47,0,5.68,5.68,0,0,1-.36-1.1,5.45,5.45,0,0,0-3-4.11,5.67,5.67,0,0,1-1-.7,5.61,5.61,0,0,1,.36-1.2,7.63,7.63,0,0,0,.6-2.61,7.57,7.57,0,0,0-.6-2.61ZM65,93.79l-5.34-3.35a1.89,1.89,0,0,0-2,0l-5.33,3.35V76.69l.59,0,.7,0a1.84,1.84,0,0,1,.54,0,5.63,5.63,0,0,1,1,.71,5.62,5.62,0,0,0,3.5,1.6,5.59,5.59,0,0,0,3.5-1.6,5.63,5.63,0,0,1,1-.71,1.9,1.9,0,0,1,.54,0l.71,0,.59,0v17.1Zm3.8-10.62v-8a7.06,7.06,0,0,0,1-2.45,4.7,4.7,0,0,1,.38-1.14,4.78,4.78,0,0,1,1-.7,5.34,5.34,0,0,0,2.56-2.72,5.43,5.43,0,0,0-.4-3.71,5.27,5.27,0,0,1-.37-1.3,5.16,5.16,0,0,1,.37-1.3,5.45,5.45,0,0,0,.4-3.72,5.31,5.31,0,0,0-2.56-2.71,4.76,4.76,0,0,1-1-.71,4.75,4.75,0,0,1-.38-1.13A5.25,5.25,0,0,0,68,50.34a4.49,4.49,0,0,0-2.72-.76c-.31,0-.61,0-.89,0l-.71,0a1.74,1.74,0,0,1-.53-.05,4.76,4.76,0,0,1-1-.7,5.59,5.59,0,0,0-3.51-1.6,5.57,5.57,0,0,0-3.5,1.6,5,5,0,0,1-1,.7,1.84,1.84,0,0,1-.54.05l-.7,0c-.29,0-.59,0-.89,0a4.52,4.52,0,0,0-2.73.76,5.35,5.35,0,0,0-1.78,3.23,4.8,4.8,0,0,1-.37,1.13,4.87,4.87,0,0,1-1,.71,5.35,5.35,0,0,0-2.56,2.71,5.51,5.51,0,0,0,.4,3.72,5.16,5.16,0,0,1,.37,1.3,5.27,5.27,0,0,1-.37,1.3,5.48,5.48,0,0,0-.4,3.71,5.38,5.38,0,0,0,2.56,2.72,5.33,5.33,0,0,1,1,.7,4.75,4.75,0,0,1,.37,1.14,6.9,6.9,0,0,0,1,2.45v8H21.78V5.64H61v15.3a1.91,1.91,0,0,0,1.9,1.9H78.22V83.17Zm0,0"/><path class="cls-1" d="M29.16,22.84H53.64a1.9,1.9,0,0,0,0-3.8H29.16a1.9,1.9,0,0,0,0,3.8Zm0,0"/><path class="cls-1" d="M71.05,28.63H29.16a1.9,1.9,0,0,0,0,3.8H71.05a1.9,1.9,0,0,0,0-3.8Zm0,0"/><path class="cls-1" d="M63.45,38.22H29.16a1.9,1.9,0,1,0,0,3.8H63.45a1.9,1.9,0,0,0,0-3.8Zm0,0"/><path class="cls-1" d="M71.05,38.22a1.9,1.9,0,1,0,1.9,1.9,1.9,1.9,0,0,0-1.9-1.9Zm0,0"/></svg>