<svg id="Layer_1" data-name="Layer 1" xmlns="http://www.w3.org/2000/svg" viewBox="0 0 100 100"><defs><style>.cls-1{fill:#3ad394;}</style></defs><title>icon id 3</title><path class="cls-1" d="M95.75,2.5H25.9a4.26,4.26,0,0,0-4.25,4.25V26l-3.2-4.79a4.93,4.93,0,0,0-6.67-1.5L5.21,23.68a9.62,9.62,0,0,0-4.4,5.71c-2.4,8.73-.62,23.77,21.45,45.85C39.82,92.77,52.91,97.5,61.93,97.5a23.41,23.41,0,0,0,6.18-.81,9.67,9.67,0,0,0,5.72-4.4l3.94-6.58a4.94,4.94,0,0,0-1.5-6.66L60.54,68.56a5,5,0,0,0-6.65,1.08l-4.58,5.89a1.59,1.59,0,0,1-2,.43l-.87-.48C43.53,73.92,40,72,32.74,64.76c-.78-.78-1.48-1.51-2.15-2.21H95.75A4.25,4.25,0,0,0,100,58.32V6.75A4.26,4.26,0,0,0,95.75,2.5ZM44.8,78.41l.85.47a4.91,4.91,0,0,0,6.29-1.3l4.58-5.89a1.62,1.62,0,0,1,2.17-.35L74.42,81.83A1.6,1.6,0,0,1,74.91,84L71,90.57a6.39,6.39,0,0,1-3.74,2.9c-7.88,2.17-21.67.34-42.6-20.6S1.87,38.15,4,30.28a6.33,6.33,0,0,1,2.9-3.74l6.58-3.95a1.61,1.61,0,0,1,2.16.49l10.5,15.74A1.62,1.62,0,0,1,25.82,41l-5.89,4.59a4.9,4.9,0,0,0-1.3,6.29l.47.84c1.66,3.06,3.73,6.87,11.29,14.42S41.74,76.74,44.8,78.41ZM96.67,58.32a.92.92,0,0,1-.92.9H27.59A42,42,0,0,1,22,51.11l-.48-.87a1.6,1.6,0,0,1,.43-2l5.89-4.58A5,5,0,0,0,28.94,37L25,31V6.75a.91.91,0,0,1,.27-.65.87.87,0,0,1,.65-.26H95.75a.88.88,0,0,1,.65.26,1,1,0,0,1,.27.65Z"/><path class="cls-1" d="M92.34,10.54A1.67,1.67,0,0,0,90,10.22L62.15,31.35a2.27,2.27,0,0,1-2.65,0L31.65,10.22a1.67,1.67,0,0,0-2,2.66L57.49,34a5.63,5.63,0,0,0,6.67,0L92,12.88a1.66,1.66,0,0,0,.32-2.34Z"/><path class="cls-1" d="M46.6,34.15,29.52,52.44A1.67,1.67,0,0,0,32,54.71L49,36.41a1.67,1.67,0,0,0-2.44-2.26Z"/><path class="cls-1" d="M75.16,34.15a1.67,1.67,0,0,0-2.44,2.27L89.79,54.71a1.67,1.67,0,0,0,2.44-2.27Z"/></svg>