<svg id="Layer_1" data-name="Layer 1" xmlns="http://www.w3.org/2000/svg" viewBox="0 0 100 100"><defs><style>.cls-1{fill:#3ad394;}</style></defs><title>icon id 9</title><g id="Group_446" data-name="Group 446"><path id="Path_127" data-name="Path 127" class="cls-1" d="M34.46,59.4H16a15.16,15.16,0,0,0,0,30.31H69.28a9,9,0,1,0,0-5.75H16a9.4,9.4,0,1,1,0-18.8H34.46a15.16,15.16,0,0,0,.24-30.32H18.45a9,9,0,0,0-5.67-5.66v-7H28.32A2.88,2.88,0,0,0,31.2,19.3h0V7a2.88,2.88,0,0,0-2.88-2.88H9.9A2.88,2.88,0,0,0,7,7H7V29.18A9,9,0,1,0,18.44,40.6h16a9.4,9.4,0,0,1,0,18.8ZM77.82,83.57a3.27,3.27,0,1,1-3.26,3.27A3.26,3.26,0,0,1,77.82,83.57ZM25.44,16.42H12.78V9.9H25.44ZM9.9,41a3.26,3.26,0,1,1,3.26-3.26h0A3.26,3.26,0,0,1,9.9,41Z"/><path id="Path_128" data-name="Path 128" class="cls-1" d="M77.82,22.56a9,9,0,1,0,9,9h0A9,9,0,0,0,77.82,22.56Zm0,12.28a3.26,3.26,0,1,1,3.26-3.26A3.26,3.26,0,0,1,77.82,34.84Z"/><path id="Path_129" data-name="Path 129" class="cls-1" d="M77.82,10.28A21.29,21.29,0,0,0,64.13,47.89L75.26,69.72A2.87,2.87,0,0,0,79.13,71a2.82,2.82,0,0,0,1.25-1.26L91.51,47.89A21.3,21.3,0,0,0,77.82,10.28Zm9.62,33.5a3,3,0,0,0-.78.95L77.82,62.08,69,44.73a2.86,2.86,0,0,0-.78-.95A15.54,15.54,0,1,1,90,41.2a15.8,15.8,0,0,1-2.59,2.58Z"/></g></svg>