<svg id="Layer_1" data-name="Layer 1" xmlns="http://www.w3.org/2000/svg" viewBox="0 0 100 100"><defs><style>.cls-1{fill:none;stroke:#3ad394;stroke-miterlimit:10;stroke-width:2px;}</style></defs><title>icon id 13</title><path class="cls-1" d="M68.06,53.12,58.16,42.2a5.61,5.61,0,0,1-1.22-3l-.36-11.34v-.33a3.17,3.17,0,0,0-3.17-3.16H39.87a4.71,4.71,0,0,0-4,2.52l-13,27.71a3.13,3.13,0,0,0-.1,2.42,3.09,3.09,0,0,0,1.66,1.76l1.93.85a3.19,3.19,0,0,0,1.3.27,3.32,3.32,0,0,0,2.95-1.79L36.7,45.94V58.17a1.76,1.76,0,0,1-.09.2L26.29,90.73a5,5,0,0,0,3.52,6.46l.69.19a5.41,5.41,0,0,0,1.39.18,5.56,5.56,0,0,0,5.26-3.8L46.8,63.53l3.42,8.38a34.71,34.71,0,0,1,2,7.83l1.63,15.44a4.66,4.66,0,0,0,4.66,4.26,5.6,5.6,0,0,0,1.2-.14l.69-.17a5.9,5.9,0,0,0,4.36-6.35L62.31,74A37.2,37.2,0,0,0,60,65.61l-3.28-7.54a2.49,2.49,0,0,0-.15-.28V52.67l5.91,6.17a3,3,0,0,0,2.21.95,3.08,3.08,0,0,0,2.23-1L68,57.66a3.41,3.41,0,0,0,0-4.54Zm0,0"/><path class="cls-1" d="M47.52,21.68A10.56,10.56,0,1,0,37,11.12,10.58,10.58,0,0,0,47.52,21.68Zm0,0"/></svg>