<svg id="Layer_1" data-name="Layer 1" xmlns="http://www.w3.org/2000/svg" viewBox="0 0 1224 792"><defs><style>.cls-1,.cls-16,.cls-17,.cls-18,.cls-19,.cls-2,.cls-20,.cls-22,.cls-24,.cls-8{fill:none;}.cls-1{stroke:#62381b;stroke-width:22.29px;}.cls-1,.cls-16,.cls-17,.cls-18,.cls-19,.cls-20,.cls-21,.cls-22,.cls-23,.cls-24,.cls-26,.cls-8{stroke-miterlimit:10;}.cls-2,.cls-21,.cls-22,.cls-23,.cls-24,.cls-26,.cls-27{stroke:#fff;}.cls-2,.cls-27{stroke-linecap:round;stroke-linejoin:round;}.cls-2{stroke-width:4.22px;stroke-dasharray:24.12 14.68;}.cls-3{fill:#f06159;}.cls-4{fill:#f9a825;}.cls-5{fill:#f15c27;}.cls-6{fill:#6d4c41;}.cls-27,.cls-7{fill:#fff;}.cls-8{stroke:#6c4b40;stroke-width:2.57px;}.cls-21,.cls-23,.cls-26,.cls-9{fill:#2d948d;}.cls-10{fill:#d93728;}.cls-11{fill:#62381b;}.cls-12{fill:#2bb673;}.cls-13{fill:#6c4b40;}.cls-14{fill:#00bcd4;}.cls-15{fill:#4fc3f7;}.cls-16,.cls-20{stroke:#2d948d;}.cls-16{stroke-width:5.37px;}.cls-17{stroke:#f15c27;stroke-width:2.78px;}.cls-18{stroke:#e2324b;stroke-width:2.8px;}.cls-19{stroke:#f9a825;stroke-width:2.82px;}.cls-20{stroke-width:2.68px;}.cls-21,.cls-22{stroke-width:1.57px;}.cls-23,.cls-24{stroke-width:1.71px;}.cls-25{fill:#e81e25;}.cls-26{stroke-width:1.73px;}.cls-27{stroke-width:4.03px;}.cls-28{fill:#e2324b;}</style></defs><title>V3_white</title><circle class="cls-1" cx="597.88" cy="387.45" r="216.66" transform="translate(-98.86 536.25) rotate(-45)"/><circle class="cls-2" cx="597.88" cy="387.45" r="216.15" transform="translate(-98.86 536.25) rotate(-45)"/><path class="cls-3" d="M650.82,668a316.74,316.74,0,0,0,98.06-37.79,1.76,1.76,0,0,0,.83-2.33l-1.17-2a1.76,1.76,0,0,0-2.43-.39l-1.44.85a2,2,0,0,1-1.66.19c-1.49-.55-3-1.11-4.45-1.68a1.4,1.4,0,0,1-.73-.62L717.4,588a1.59,1.59,0,0,0-2.16-.59,262.31,262.31,0,0,1-48.83,21q1.71,5.48,3.44,10.94l1-.33c.17.51.33,1,.49,1.53q-5,1.59-10,3c-.15-.51-.29-1-.43-1.54l1-.29q-1.56-5.52-3.11-11c-3.89,1.1-7.82,2.11-11.76,3a1.59,1.59,0,0,0-1.2,1.89q4.59,20.29,9.17,40.58a1.44,1.44,0,0,1-.12,1c-.71,1.41-1.44,2.82-2.17,4.23a2,2,0,0,1-1.37,1l-1.64.34a1.75,1.75,0,0,0-1.53,1.91c.15.75.29,1.49.44,2.24A1.76,1.76,0,0,0,650.82,668Zm15.87-10.18a2.6,2.6,0,0,1-5,1.26c-.13-.54-.27-1.08-.4-1.62a.19.19,0,0,1,.15-.21c1.52-.37,3-.76,4.57-1.16a.17.17,0,0,1,.22.11C666.4,656.71,666.55,657.25,666.69,657.79Zm23.39-7.17a2.59,2.59,0,0,1-4.84,1.65c-.18-.53-.35-1.06-.53-1.59a.17.17,0,0,1,.13-.21c1.49-.5,3-1,4.46-1.52a.17.17,0,0,1,.23.09C689.71,649.57,689.9,650.09,690.08,650.62Zm22.75-9a2.59,2.59,0,0,1-4.7,2c-.22-.52-.44-1-.65-1.55a.17.17,0,0,1,.11-.22c1.44-.61,2.89-1.23,4.32-1.86a.17.17,0,0,1,.24.07Zm14.74-7a2.6,2.6,0,0,1-4.59,2.28c-.24-.5-.48-1-.73-1.51a.18.18,0,0,1,.1-.23c1.42-.68,2.82-1.38,4.23-2.09a.17.17,0,0,1,.24.06Zm-15.28-8.84c-.13-.27-.25-.55-.38-.82q3.17-1.47,6.29-3c.14.27.27.54.4.81l-.65.32,3.12,6.35.67-.33.4.81q-3.23,1.59-6.49,3.11c-.12-.27-.25-.55-.38-.82l.68-.31-3-6.41Zm-5-10.85-.39-.81c2-.95,4-1.91,6-2.9.14.27.27.54.4.81l-.62.31,3.12,6.34.64-.31c.13.27.26.54.4.81-2.07,1-4.14,2-6.23,3l-.38-.81.64-.31c-1-2.13-2-4.27-3-6.4Zm27.56,15.91a2.6,2.6,0,0,1-4.53,2.4l-.77-1.49a.18.18,0,0,1,.09-.23c1.4-.72,2.79-1.46,4.17-2.2a.18.18,0,0,1,.25,0ZM729,617.37l-.64.35c1.12,2.07,2.25,4.14,3.37,6.22l.65-.36.43.79c-2.1,1.15-4.22,2.28-6.36,3.37l-.41-.8.66-.34-3.25-6.28-.65.33c-.13-.27-.27-.53-.41-.8q3.11-1.61,6.18-3.27Zm-5.72-10.5-.62.33c1.13,2.07,2.25,4.15,3.37,6.22l.63-.34.43.79q-3,1.65-6.11,3.24l-.41-.81.63-.32c-1.08-2.1-2.17-4.19-3.25-6.28l-.62.32-.41-.81q3-1.53,5.92-3.13Zm-23-4.4q7.23-3.33,14.25-7.08l.43.79-.73.39,1.65,3.12q-3.06,1.62-6.15,3.17c-.53-1.06-1-2.11-1.58-3.16l-.58.29,1.56,3.16q-3.09,1.53-6.24,3c-.49-1.06-1-2.13-1.48-3.2l-.75.35Zm3.34,7.24.77-.35-1.23-2.64q3.15-1.47,6.25-3l1.3,2.61.6-.29c-.44-.87-.87-1.74-1.3-2.61,2.07-1,4.12-2.09,6.17-3.17l1.36,2.57.75-.4.43.8q-7.26,3.87-14.72,7.31Zm11.27,29.16a.17.17,0,0,1,.1-.22q2.15-1,4.28-2a.18.18,0,0,1,.24.07c.24.5.48,1,.71,1.51a2.59,2.59,0,0,1-4.64,2.15Zm-15.25-12.82.66-.28c-.91-2.17-1.83-4.34-2.74-6.52l-.64.27-.35-.83q3.09-1.29,6.14-2.65c.13.27.25.55.37.82l-.63.28c.95,2.16,1.9,4.31,2.86,6.47l.65-.29c.12.28.25.55.37.82-2.1.94-4.22,1.85-6.34,2.74Zm4.61,11,.69-.29c-.92-2.17-1.83-4.35-2.74-6.52l-.67.28c-.12-.28-.24-.55-.35-.83,2.14-.9,4.28-1.82,6.4-2.77.13.28.25.55.37.83l-.66.29c1,2.16,1.91,4.31,2.86,6.47l.68-.3.37.82q-3.29,1.47-6.6,2.85Zm.42,6.19.63,1.55a2.59,2.59,0,0,1-4.75,1.91l-.61-1.56a.17.17,0,0,1,.12-.22l4.37-1.75A.18.18,0,0,1,704.69,643.28Zm-15.77-13,.67-.25-2.48-6.63-.65.25c-.11-.28-.21-.57-.32-.85,2.09-.77,4.18-1.58,6.25-2.4l.33.83-.64.26q1.29,3.29,2.6,6.58l.66-.27.34.84q-3.21,1.27-6.44,2.48Zm4.17,11.21.7-.26-2.49-6.62-.67.25c-.11-.28-.21-.56-.32-.85q3.27-1.21,6.51-2.5l.33.83-.67.27,2.61,6.58.69-.28.33.84c-2.22.89-4.46,1.75-6.7,2.58Zm-.72,6.53a.18.18,0,0,1,.13-.22c1.47-.53,3-1.08,4.41-1.63a.18.18,0,0,1,.24.08l.59,1.57a2.59,2.59,0,0,1-4.8,1.77ZM678,634.1l.68-.23-2.22-6.71-.66.21-.28-.85q3.18-1,6.34-2.16l.3.85-.66.23,2.34,6.67.68-.23.3.85q-3.26,1.15-6.54,2.22Zm3.72,11.36.71-.23-2.22-6.71-.69.22-.28-.85q3.32-1.1,6.61-2.25l.3.85-.69.24,2.34,6.67.7-.24c.1.28.21.56.31.85-2.26.79-4.53,1.57-6.81,2.31C681.93,646,681.83,645.75,681.74,645.46Zm-.13,6.06a.18.18,0,0,1,.23.1l.51,1.59a2.6,2.6,0,0,1-4.89,1.53l-.48-1.61a.17.17,0,0,1,.13-.21C678.62,652.47,680.12,652,681.61,651.52Zm-14.64-14,.69-.2-1.95-6.79-.67.19c-.08-.29-.16-.58-.25-.87q3.23-.91,6.43-1.91l.26.87-.66.2,2.07,6.76.68-.21.27.86q-3.3,1-6.62,2C667.14,638.05,667.05,637.76,667,637.47ZM670.24,649l.71-.21-2-6.8-.69.2c-.09-.29-.17-.57-.25-.86q3.36-1,6.69-2l.27.86-.69.22,2.07,6.76.71-.22.27.86q-3.43,1.07-6.9,2.05Zm-1.06,6.4a.17.17,0,0,1,.14-.2c1.52-.42,3-.85,4.54-1.29a.17.17,0,0,1,.22.1c.16.54.32,1.08.47,1.61a2.6,2.6,0,0,1-4.93,1.4C669.48,656.46,669.33,655.92,669.18,655.38Zm-13.39-15,.69-.17-1.68-6.87-.67.16-.21-.88c2.17-.52,4.34-1.07,6.49-1.65l.24.88-.68.17c.6,2.28,1.21,4.56,1.81,6.84l.69-.18.23.87q-3.35.88-6.7,1.7Zm2.8,11.62.72-.17q-.82-3.43-1.67-6.87l-.71.17-.21-.88c2.27-.54,4.52-1.12,6.77-1.72l.24.87-.7.19,1.8,6.84.72-.19.23.87c-2.32.62-4.64,1.21-7,1.77Z"/><path class="cls-4" d="M384.44,111.27a365.84,365.84,0,0,0-45.88,42.89c-3.27,3.63-3.79,8.38-1.28,10.52l84.05,72.1q3.41-3.94,6.95-7.76L413,214.78a5.78,5.78,0,0,1,.19-8.27q2.82-2.89,5.73-5.7a5.78,5.78,0,0,1,8.27-.15L441.38,216a250.73,250.73,0,0,1,19.93-16.57L395,110.71C393.05,108.05,388.27,108.25,384.44,111.27Zm7.64,7.48,1.81,2.31q-3,2.31-5.88,4.68l-3.65-4.48c.91-.74,1.82-1.48,2.74-2.21C388.88,117.63,391.12,117.51,392.08,118.75Zm17.19,41c-1.51,1.27-3.56,1.35-4.59.16q-3.33-3.87-6.65-7.73,2.63-2.26,5.31-4.47,4.14,5,8.3,10.07ZM397.05,151l-1.92-2.22c-1-1.19-.57-3.28,1.05-4.64l2.52-2.1,3.68,4.47Q399.69,148.75,397.05,151Zm-4-10.57c-1.63,1.38-3.78,1.54-4.81.35q-3.33-3.86-6.65-7.73c1.89-1.62,3.79-3.23,5.72-4.81l8.3,10.07C394.76,139,393.91,139.74,393.06,140.45Zm7.2.34c.84-.69,1.69-1.38,2.55-2.06,1.65-1.32,3.79-1.36,4.76-.11l1.8,2.31q-2.76,2.15-5.46,4.35Zm-.47-5.84L397.2,137,389,126.91c1.93-1.57,3.88-3.13,5.85-4.66l6.27,8C402,131.54,401.46,133.61,399.79,135ZM380,124.88l2.71-2.25,3.68,4.47c-1.93,1.59-3.85,3.2-5.74,4.83l-1.92-2.22C377.67,128.52,378.23,126.35,380,124.88Zm2.36,41.72c1.65-1.62,3.32-3.23,5-4.81l8.94,9.5L394,173.41c-1.42,1.37-3.46,1.59-4.57.46Zm10.57-11.95q-2.59,2.32-5.16,4.69l-3.93-4.24c.79-.74,1.6-1.48,2.4-2.21,1.57-1.43,3.7-1.61,4.74-.43Zm-16.29.59c-1.54,1.48-3.68,1.78-4.78.66l-7.15-7.28q2.67-2.61,5.39-5.18L379,153Zm3.35,3.49,2.37-2.25c1.33,1.4,2.65,2.81,4,4.21q-2.54,2.38-5,4.83l-2-2.09C378.11,162.31,378.44,160.2,380,158.73Zm8.81,1.71q2.53-2.35,5.13-4.67l6.78,7.62c1.05,1.18.7,3.2-.77,4.53L397.65,170Zm-4.84-15.86c1.05,1.18.6,3.29-1,4.73-.82.74-1.63,1.49-2.44,2.25L371.62,142q2.75-2.53,5.53-5Zm-9.73-10.93,1.95,2.19q-2.81,2.5-5.55,5c-1.31-1.41-2.63-2.82-3.94-4.24l2.59-2.38C370.93,132.74,373.16,132.47,374.2,133.65Zm-11.67,6.91,2.55-2.43,4,4.22c-1.82,1.71-3.62,3.45-5.41,5.2l-2.05-2.09C360.47,144.34,360.89,142.13,362.53,140.56Zm-5.19,9.12L367.77,160c1.12,1.11.81,3.24-.67,4.78-.77.8-1.54,1.6-2.3,2.41l-9.49-9c1.71-1.81,3.44-3.61,5.19-5.38-.35-.36-.71-.71-1.07-1.06-1.76,1.78-3.49,3.59-5.21,5.41l-4.21-4,2.43-2.54C354,149,356.22,148.58,357.34,149.68Zm15.19,24.75-4.2-4,2.26-2.37c1.46-1.52,3.58-1.84,4.7-.73l10.42,10.27c1.12,1.1.9,3.14-.47,4.57-.71.74-1.42,1.48-2.12,2.23l-9.49-9c1.59-1.69,3.19-3.35,4.82-5l-1.08-1.06Q374.93,171.9,372.53,174.43Zm-27-12.13c-1.18-1.05-.91-3.28.63-5l2.39-2.59,4.23,3.95q-2.56,2.75-5.06,5.55l1.12,1q2.49-2.79,5-5.52l9.55,8.9c-.76.81-1.51,1.62-2.26,2.44-1.44,1.58-3.55,2-4.73,1Zm18.78,16.78c-1.18-1.05-1-3.18.44-4.74.73-.81,1.47-1.61,2.22-2.41l4.23,3.95c-1.59,1.7-3.15,3.42-4.7,5.15l1.12,1q2.31-2.58,4.68-5.13,4.77,4.46,9.55,8.9l-2.09,2.26c-1.34,1.46-3.36,1.81-4.54.77Zm57.41,10.37a1.68,1.68,0,0,1-.26,2.35q-9,8.19-17.24,17.15a1.68,1.68,0,0,1-2.36.25l-.08-.07a1.68,1.68,0,0,1,.05-2.37q8.35-9.06,17.45-17.36a1.67,1.67,0,0,1,2.37,0Zm7.36-21.16a294.13,294.13,0,0,0-36.6,34.23,1.11,1.11,0,1,1-1.62-1.46,296.24,296.24,0,0,1,36.87-34.48,1.1,1.1,0,1,1,1.35,1.71Zm-3.14-4a299.14,299.14,0,0,0-37.24,34.81,1.11,1.11,0,1,1-1.62-1.46,301.38,301.38,0,0,1,37.51-35.07,1.11,1.11,0,1,1,1.35,1.72Zm-3.15-4a303.53,303.53,0,0,0-37.87,35.41,1.11,1.11,0,1,1-1.62-1.46,306.55,306.55,0,0,1,38.15-35.67,1.11,1.11,0,1,1,1.34,1.72Zm-7.28-5.67-2.39,1.93-8.24-10.12c1.79-1.46,3.61-2.9,5.43-4.32l6.27,8C417.53,151.4,417,153.4,415.49,154.63Z"/><path class="cls-5" d="M337.41,570h0c1.37,2,1.45,4.37.15,5.29l-1.46,1c-2.55,1.79-3.39,5.39-2.44,9.45a3,3,0,0,1-.68,3.11l-2.86,2.16c-1.27,1-1,3.45.61,5.53q4.09,5.22,8.44,10.25c1.73,2,4.13,2.73,5.32,1.66l2.66-2.39c.72-.65,1.92-.64,3.19-.07,3.79,1.71,7.49,1.57,9.73-.59l1.29-1.23c1.16-1.1,3.46-.56,5.17,1.16h0c1.72,1.74,4,2.19,5.15,1l57.63-59.2a163.4,163.4,0,0,1-22.78-27.66l-69.15,45.2C336,565.63,336,568,337.41,570Zm13.51,8.36c-.94.73-2.6.17-3.68-1.27-.76-1-1.51-2-2.26-3.06-1.05-1.45-1.1-3.2-.12-3.89l2.63-1.85c1-.69,2.58-.09,3.6,1.31q1.08,1.5,2.19,3c1,1.39,1.13,3.09.19,3.83Zm9-6.91c-.94.73-2.56.23-3.58-1.14-.73-1-1.45-1.94-2.16-2.92-1-1.39-1-3.08,0-3.77l2.63-1.86c1-.68,2.54-.14,3.51,1.2.69.94,1.38,1.89,2.08,2.82,1,1.32,1.05,3,.11,3.71Zm9-6.9c-.94.73-2.52.27-3.5-1-.69-.92-1.37-1.85-2.05-2.78-.95-1.32-.92-3,.06-3.64l2.63-1.86c1-.69,2.5-.2,3.42,1.07.65.9,1.31,1.79,2,2.68.94,1.26,1,2.86,0,3.59Zm9-6.91c-.94.73-2.47.33-3.4-.91-.66-.87-1.3-1.75-1.94-2.63-.91-1.26-.84-2.84.13-3.53l2.63-1.85a2.5,2.5,0,0,1,3.34.94c.62.86,1.24,1.7,1.88,2.55a2.5,2.5,0,0,1-.08,3.46ZM359.1,588.44c-.9.78-2.58.31-3.74-1.07-.81-1-1.61-2-2.41-2.94-1.13-1.39-1.27-3.13-.33-3.87l2.53-2c.93-.73,2.57-.22,3.66,1.12q1.15,1.44,2.34,2.85c1.11,1.33,1.3,3,.4,3.81Zm8.59-7.38c-.91.78-2.55.36-3.65-.95-.77-.93-1.54-1.86-2.3-2.8-1.08-1.33-1.18-3-.24-3.76l2.53-2c.94-.74,2.53-.29,3.57,1,.74.91,1.48,1.81,2.23,2.71,1.06,1.26,1.2,2.91.3,3.69Zm8.58-7.38c-.9.78-2.5.42-3.55-.84-.73-.88-1.46-1.76-2.19-2.66-1-1.26-1.08-2.9-.14-3.64l2.53-2c.94-.74,2.48-.34,3.47.88.7.86,1.41,1.72,2.12,2.57,1,1.21,1.11,2.81.2,3.59Zm8.58-7.37c-.9.78-2.45.46-3.44-.73-.7-.83-1.4-1.68-2.09-2.52-1-1.21-1-2.79-.05-3.53l2.53-2a2.51,2.51,0,0,1,3.39.77c.66.81,1.33,1.63,2,2.43a2.51,2.51,0,0,1,.11,3.47Zm-17,31.73c-.86.83-2.57.45-3.8-.86-.86-.93-1.72-1.87-2.57-2.81-1.2-1.33-1.43-3.06-.53-3.85l2.41-2.13c.9-.78,2.56-.36,3.72.93l2.49,2.71c1.19,1.27,1.46,3,.6,3.79Zm8.17-7.82c-.86.83-2.52.5-3.69-.76-.82-.88-1.64-1.77-2.45-2.67-1.15-1.27-1.33-3-.44-3.74l2.42-2.13c.9-.79,2.51-.42,3.62.81l2.37,2.59c1.13,1.21,1.36,2.85.5,3.67Zm8.18-7.82c-.86.82-2.47.54-3.59-.65-.78-.85-1.56-1.69-2.33-2.55-1.09-1.21-1.24-2.84-.34-3.63l2.42-2.12c.9-.79,2.47-.47,3.52.7l2.25,2.45c1.07,1.15,1.26,2.74.4,3.57Zm8.18-7.83c-.86.83-2.43.59-3.49-.54-.74-.8-1.48-1.6-2.21-2.41-1-1.15-1.14-2.73-.24-3.52l2.42-2.13a2.52,2.52,0,0,1,3.42.59l2.13,2.33a2.51,2.51,0,0,1,.3,3.46Zm.2-42a182.28,182.28,0,0,0,21.15,25.72l-1.22,1.2c-.71-.72-1.42-1.44-2.12-2.17l-6.79,6.5c-2,1.92-5.5,1.5-7.75-1h0c-2.26-2.51-2.3-6-.18-7.81l7.18-6.08q-1.5-1.77-3-3.59l-7.34,5.89c-2.14,1.74-5.6,1-7.63-1.67s-1.76-6.22.5-7.8l7.68-5.43c-.66-.92-1.3-1.86-1.94-2.8Z"/><rect class="cls-6" x="315.91" y="475.7" width="13.35" height="34.63" rx="4.68" transform="translate(-31.58 963.86) rotate(-109.85)"/><rect class="cls-6" x="343.89" y="443.08" width="3.21" height="83.33" transform="translate(6.9 974.33) rotate(-109.85)"/><rect class="cls-6" x="376.06" y="468.44" width="11.11" height="6.52" rx="3.15" transform="translate(67.55 990.83) rotate(-109.85)"/><path class="cls-7" d="M311.35,493.09a3.75,3.75,0,1,1-2.26,4.8A3.75,3.75,0,0,1,311.35,493.09Z"/><path class="cls-4" d="M320.51,489.78a3.75,3.75,0,1,1-2.25,4.8A3.76,3.76,0,0,1,320.51,489.78Z"/><path class="cls-7" d="M329.67,486.47a3.75,3.75,0,1,1-2.25,4.8A3.75,3.75,0,0,1,329.67,486.47Z"/><path class="cls-8" d="M790.29,552.73,772,540.18"/><path class="cls-8" d="M763.78,576.12l-11.42-15.93"/><path class="cls-6" d="M754.31,572.27a91.72,91.72,0,0,0,29.76-30.4,1.54,1.54,0,0,1,2-.69l6,3.48c2.31,1.29,2.78,4.84.83,7.78a104.87,104.87,0,0,1-27.87,28.47c-2.89,2-6.45,1.62-7.8-.66l-3.6-6A1.53,1.53,0,0,1,754.31,572.27Z"/><path class="cls-6" d="M752.52,569.86a88.89,88.89,0,0,0,29.1-29.74,1.24,1.24,0,0,0-.35-1.72h0a1.26,1.26,0,0,0-1.68.51,86.38,86.38,0,0,1-28.33,29,1.24,1.24,0,0,0-.48,1.68h0A1.25,1.25,0,0,0,752.52,569.86Z"/><rect class="cls-3" x="337.37" y="332.53" width="1.5" height="55.57" transform="translate(-47.29 669.52) rotate(-85.56)"/><path class="cls-3" d="M363.18,360.79h2.18a1.5,1.5,0,0,1,1.5,1.5v.1a1.51,1.51,0,0,1-1.51,1.51h-2.18a1.51,1.51,0,0,1-1.51-1.51v-.1a1.5,1.5,0,0,1,1.5-1.5Z" transform="translate(-25.2 697.46) rotate(-85.56)"/><path class="cls-3" d="M316.66,346.17l-.89,11.39a.93.93,0,0,1-1,.86l-3.42-.27a.93.93,0,0,1-.85-1l.88-11.39a.9.9,0,0,1,.43-.71l1.81-1.16a.93.93,0,0,1,1.12.08l1.61,1.43A.93.93,0,0,1,316.66,346.17Z"/><path class="cls-3" d="M323.06,371.54l.88-11.39a.93.93,0,0,0-.86-1l-3.41-.26a.93.93,0,0,0-1,.86l-.88,11.39a.94.94,0,0,0,.31.77l1.61,1.42a.92.92,0,0,0,1.12.09l1.81-1.16A1,1,0,0,0,323.06,371.54Z"/><path class="cls-3" d="M332.37,372.26l.89-11.39a.94.94,0,0,0-.86-1L329,359.6a.94.94,0,0,0-1,.86l-.88,11.39a.9.9,0,0,0,.31.77l1.61,1.43a.93.93,0,0,0,1.12.08L332,373A.92.92,0,0,0,332.37,372.26Z"/><path class="cls-9" d="M890.7,529.08q.76-1.53,1.5-3.06c.75-1.55,2.17-2.32,3.24-1.86s2.45-.42,3.16-2a282.73,282.73,0,0,0,12.86-33.73c.52-1.68,0-3.21-1.13-3.58s-1.55-1.93-1.09-3.55q.46-1.62.9-3.24c.45-1.66-.1-3.24-1.21-3.52L823,452.22h0a186,186,0,0,1-14.54,38.13q39.51,20.26,79,40.55C888.47,531.42,889.93,530.61,890.7,529.08Zm-54.6-55.15a1.74,1.74,0,0,1-1-2.24c.88-2.57,1.72-5.15,2.5-7.75a1.74,1.74,0,0,1,2.08-1.26l7.13,2.08a1.76,1.76,0,0,1,1,2.27c-.41,1.36-.84,2.73-1.27,4.09s-.89,2.71-1.36,4.06a1.76,1.76,0,0,1-2.17,1.23Zm13.38,4.74a1.81,1.81,0,0,1-.92-2.36q1.43-4.11,2.68-8.28a1.8,1.8,0,0,1,2.11-1.38l7.14,2.07a1.84,1.84,0,0,1,1,2.39c-.44,1.46-.89,2.91-1.36,4.36s-1,2.9-1.44,4.33a1.85,1.85,0,0,1-2.21,1.36Zm13.37,4.75a1.89,1.89,0,0,1-.87-2.48q1.51-4.38,2.85-8.83a1.88,1.88,0,0,1,2.15-1.5l7.14,2.08a1.92,1.92,0,0,1,1,2.51q-.69,2.32-1.44,4.63t-1.54,4.6a1.91,1.91,0,0,1-2.25,1.47Zm13.38,4.74a2,2,0,0,1-.83-2.59q1.61-4.65,3-9.37a2,2,0,0,1,2.19-1.62l7.13,2.07c.87.25,1.29,1.43.93,2.63q-.74,2.46-1.52,4.91t-1.63,4.87c-.41,1.18-1.44,1.89-2.29,1.59Zm13.37,4.75c-.85-.31-1.2-1.52-.79-2.72q1.7-4.92,3.2-9.9c.36-1.22,1.35-2,2.22-1.75l7.14,2.08c.87.25,1.27,1.48.89,2.75-.52,1.73-1,3.45-1.61,5.17s-1.12,3.44-1.71,5.14c-.43,1.25-1.48,2-2.34,1.71Zm-62.22.52a1.1,1.1,0,0,1-.46-1.49q2.75-5.85,5.12-11.84a1.11,1.11,0,0,1,1.4-.7l2,.78a1.12,1.12,0,0,1,.55,1.48q-2.41,6.12-5.23,12.09a1.11,1.11,0,0,1-1.45.61Zm6.34,3a1.13,1.13,0,0,1-.44-1.53q2.84-6,5.29-12.25A1.13,1.13,0,0,1,840,482l2,.77a1.14,1.14,0,0,1,.54,1.52q-2.5,6.33-5.4,12.5a1.14,1.14,0,0,1-1.47.65Zm6.34,3a1.16,1.16,0,0,1-.43-1.57q2.94-6.26,5.48-12.66a1.15,1.15,0,0,1,1.43-.77l2,.78a1.16,1.16,0,0,1,.52,1.55q-2.58,6.54-5.57,12.91a1.17,1.17,0,0,1-1.49.68Zm6.34,3a1.18,1.18,0,0,1-.41-1.6q3-6.45,5.65-13.07a1.19,1.19,0,0,1,1.45-.81l2,.78a1.19,1.19,0,0,1,.51,1.59q-2.67,6.75-5.76,13.32a1.18,1.18,0,0,1-1.5.72Zm6.34,3a1.21,1.21,0,0,1-.39-1.64q3.12-6.66,5.82-13.48a1.21,1.21,0,0,1,1.46-.84l2,.77a1.22,1.22,0,0,1,.49,1.63q-2.75,7-5.93,13.73a1.22,1.22,0,0,1-1.53.75Zm6.33,3a1.23,1.23,0,0,1-.37-1.67q3.22-6.86,6-13.89a1.24,1.24,0,0,1,1.48-.88l2,.78a1.23,1.23,0,0,1,.48,1.66q-2.82,7.17-6.1,14.14a1.25,1.25,0,0,1-1.55.79Zm6.34,3a1.27,1.27,0,0,1-.35-1.71q3.32-7.06,6.18-14.3a1.27,1.27,0,0,1,1.49-.92l2,.78a1.28,1.28,0,0,1,.47,1.7q-2.91,7.37-6.29,14.55a1.26,1.26,0,0,1-1.56.82Zm6.34,3a1.3,1.3,0,0,1-.33-1.75q3.41-7.25,6.35-14.7c.29-.74,1-1.16,1.51-1l2,.77a1.3,1.3,0,0,1,.45,1.74q-3,7.57-6.46,15c-.35.73-1,1.11-1.58.86Zm6.34,3a1.34,1.34,0,0,1-.32-1.79q3.51-7.46,6.53-15.11c.3-.76,1-1.2,1.52-1l2,.78c.54.21.74,1,.43,1.77q-3.07,7.79-6.64,15.37c-.35.75-1.06,1.15-1.59.9Zm6.34,3c-.52-.25-.66-1.07-.3-1.83q3.6-7.65,6.71-15.52c.3-.78,1-1.24,1.53-1l2,.78c.55.21.74,1,.43,1.81q-3.16,8-6.82,15.78c-.36.77-1.09,1.18-1.61.93Z"/><path class="cls-10" d="M318.12,215.91q-4.15,6.41-7.93,13c-.9,1.59-.8,3.33.2,3.87l6,3.33a244.46,244.46,0,0,0-11.82,24.58c-1.24,3-.6,6,1.36,6.8l76.77,29.72a160.44,160.44,0,0,1,9.11-19.53q2.24-4.05,4.69-8c.8-1.27,1.61-2.52,2.45-3.77L321.66,214.3C320.71,213.67,319.11,214.38,318.12,215.91Zm59.67,68.86a1,1,0,0,1,.47,1.35c-.44,1-.87,2-1.3,3a1,1,0,0,1-1.3.57l-2.84-1.18a1,1,0,0,1-.49-1.36c.44-1,.88-2,1.34-3.06a1,1,0,0,1,1.33-.56Zm-6.69-3a1,1,0,0,1,.45,1.39c-.46,1-.91,2.06-1.35,3.1a1,1,0,0,1-1.32.62L366,285.64a1,1,0,0,1-.47-1.4c.45-1.06.92-2.13,1.39-3.18a1.05,1.05,0,0,1,1.35-.61Zm-6.68-3a1.07,1.07,0,0,1,.43,1.43c-.48,1.07-1,2.14-1.41,3.22a1.07,1.07,0,0,1-1.35.66l-2.83-1.18a1.08,1.08,0,0,1-.46-1.45c.48-1.11,1-2.21,1.45-3.31a1.08,1.08,0,0,1,1.37-.65Zm-6.69-3.05a1.1,1.1,0,0,1,.41,1.47c-.5,1.12-1,2.23-1.47,3.36a1.1,1.1,0,0,1-1.36.7L352.48,280a1.1,1.1,0,0,1-.44-1.48c.49-1.16,1-2.3,1.5-3.45a1.1,1.1,0,0,1,1.39-.68ZM351,272.58a1.14,1.14,0,0,1,.39,1.52c-.52,1.15-1,2.31-1.52,3.48a1.12,1.12,0,0,1-1.38.74l-2.83-1.18a1.14,1.14,0,0,1-.42-1.53q.77-1.8,1.56-3.57a1.13,1.13,0,0,1,1.4-.73Zm-6.69-3a1.14,1.14,0,0,1,.37,1.55c-.53,1.2-1.06,2.4-1.58,3.61a1.16,1.16,0,0,1-1.39.79l-2.83-1.19a1.16,1.16,0,0,1-.41-1.57c.53-1.24,1.07-2.47,1.62-3.7a1.16,1.16,0,0,1,1.42-.77Zm-6.69-3.05a1.19,1.19,0,0,1,.36,1.59c-.56,1.25-1.11,2.49-1.64,3.75a1.18,1.18,0,0,1-1.41.82l-2.83-1.18a1.19,1.19,0,0,1-.39-1.61c.55-1.29,1.1-2.56,1.67-3.83a1.19,1.19,0,0,1,1.45-.81ZM331,263.44a1.23,1.23,0,0,1,.34,1.64c-.58,1.28-1.14,2.57-1.69,3.87a1.22,1.22,0,0,1-1.43.87l-2.84-1.19A1.22,1.22,0,0,1,325,267c.56-1.33,1.14-2.65,1.73-4,.31-.7,1-1.08,1.46-.85Zm-6.69-3c.5.22.64,1,.32,1.67-.59,1.33-1.18,2.66-1.75,4-.3.71-.94,1.12-1.44.91l-2.84-1.18c-.5-.21-.66-1-.35-1.7.58-1.37,1.18-2.73,1.79-4.09.32-.71,1-1.11,1.48-.89Zm-6.69-3c.5.22.63,1,.3,1.72-.61,1.37-1.21,2.74-1.8,4.13-.31.73-1,1.15-1.46.95L311.79,263c-.5-.21-.65-1-.33-1.73.6-1.42,1.21-2.82,1.84-4.22.33-.74,1-1.16,1.5-.93ZM381.08,278a1,1,0,0,1,.41,1.37c-.49,1-1,1.93-1.43,2.91a1,1,0,0,1-1.33.51L376,281.44a1,1,0,0,1-.43-1.38c.48-1,1-2,1.47-3a1,1,0,0,1,1.35-.5Zm-6.55-3.34a1,1,0,0,1,.39,1.41c-.51,1-1,2-1.49,3a1,1,0,0,1-1.35.56l-2.78-1.31a1,1,0,0,1-.41-1.42c.5-1.05,1-2.08,1.53-3.12a1,1,0,0,1,1.38-.54ZM368,271.28a1.07,1.07,0,0,1,.36,1.45c-.53,1-1,2.1-1.55,3.16a1.07,1.07,0,0,1-1.37.6l-2.78-1.31a1.09,1.09,0,0,1-.39-1.47q.78-1.62,1.59-3.24a1.07,1.07,0,0,1,1.4-.58Zm-6.55-3.34a1.1,1.1,0,0,1,.34,1.49c-.54,1.09-1.08,2.18-1.61,3.28a1.09,1.09,0,0,1-1.39.64L356,272a1.1,1.1,0,0,1-.37-1.5c.54-1.13,1.09-2.25,1.66-3.37a1.11,1.11,0,0,1,1.41-.63Zm-6.55-3.34a1.13,1.13,0,0,1,.33,1.53c-.57,1.13-1.13,2.27-1.68,3.41a1.13,1.13,0,0,1-1.41.68l-2.77-1.31a1.14,1.14,0,0,1-.36-1.55c.56-1.17,1.14-2.33,1.72-3.49a1.14,1.14,0,0,1,1.44-.67Zm-6.55-3.34a1.15,1.15,0,0,1,.31,1.57c-.59,1.17-1.17,2.35-1.74,3.53a1.14,1.14,0,0,1-1.42.72l-2.78-1.31a1.17,1.17,0,0,1-.34-1.58c.59-1.21,1.18-2.42,1.78-3.62a1.16,1.16,0,0,1,1.46-.71Zm-6.54-3.34a1.17,1.17,0,0,1,.28,1.6c-.61,1.22-1.21,2.44-1.8,3.67a1.18,1.18,0,0,1-1.44.76l-2.78-1.31a1.19,1.19,0,0,1-.31-1.62c.6-1.26,1.21-2.51,1.84-3.76.33-.65,1-1,1.47-.74Zm-6.55-3.35a1.23,1.23,0,0,1,.27,1.65c-.64,1.26-1.26,2.52-1.86,3.79-.33.68-1,1-1.47.8l-2.78-1.31c-.49-.23-.62-1-.29-1.66.62-1.3,1.25-2.59,1.9-3.88.34-.68,1-1,1.5-.78Zm-6.55-3.34c.49.25.59,1,.25,1.69-.65,1.3-1.3,2.61-1.92,3.92-.34.69-1,1.07-1.49.84l-2.78-1.31c-.49-.23-.61-1-.27-1.7.64-1.35,1.29-2.68,2-4,.36-.7,1-1.07,1.52-.82Zm-6.54-3.34c.48.25.58,1,.22,1.73q-1,2-2,4c-.35.72-1,1.12-1.51.89l-2.78-1.31c-.49-.23-.6-1-.25-1.75q1-2.07,2-4.13c.36-.73,1.05-1.11,1.53-.86Zm69.19,16.18q-2.48,3.82-4.72,7.77L383.36,270q2.31-4,4.83-7.94Zm-5.64-3.64q-2.56,4-4.91,8.07l-3.27-1.86q2.4-4.2,5-8.25Zm-5.64-3.64q-2.67,4.13-5.1,8.38c-1.09-.62-2.18-1.24-3.26-1.87,1.65-2.89,3.39-5.75,5.2-8.55Zm-5.64-3.65q-2.76,4.28-5.29,8.7L365.88,260q2.58-4.5,5.39-8.87Zm-5.64-3.64c-1.91,2.95-3.73,6-5.48,9l-3.26-1.86q2.67-4.66,5.58-9.18Zm-5.64-3.64q-3,4.57-5.66,9.31l-3.27-1.86q2.76-4.83,5.77-9.49Zm-5.64-3.65q-3.06,4.74-5.85,9.63L348.39,250q2.85-5,6-9.8Zm-5.64-3.64q-3.15,4.89-6,9.94l-3.26-1.87q2.93-5.13,6.15-10.11Zm-5.63-3.64c-2.18,3.36-4.25,6.77-6.24,10.24l-3.26-1.86q3-5.3,6.34-10.42Zm-5.64-3.64q-3.36,5.19-6.43,10.55L330.91,240q3.12-5.44,6.53-10.73ZM335,227.64q-3.46,5.36-6.61,10.87l-3.27-1.87q3.21-5.61,6.72-11ZM329.32,224q-3.56,5.49-6.8,11.18l-3.26-1.87q3.28-5.76,6.9-11.35Zm-5.64-3.64q-3.65,5.64-7,11.48L313.43,230q3.39-5.92,7.09-11.66Z"/><path class="cls-10" d="M460.82,96.66A252.67,252.67,0,0,0,431,112.47c-3.76,2.33-5.47,6.23-3.9,8.57q2,2.91,3.88,5.82l-3,2c-.84.58-1.21,1.51-.81,2.07l1.21,1.74c.39.57,1.38.55,2.21,0l2.89-2q2.08,3.12,4.15,6.24l-2.8,1.9c-.81.55-1.13,1.46-.74,2l1.21,1.74a1.57,1.57,0,0,0,2.13,0c.91-.63,1.83-1.25,2.75-1.86l4.15,6.24c-.89.59-1.78,1.19-2.66,1.8a1.49,1.49,0,0,0-.66,2l1.22,1.74a1.48,1.48,0,0,0,2,.09c.86-.59,1.73-1.17,2.6-1.75q2.07,3.12,4.15,6.24c-.84.56-1.68,1.12-2.51,1.7a1.41,1.41,0,0,0-.58,1.91l1.21,1.74a1.42,1.42,0,0,0,2,.14c.82-.56,1.63-1.11,2.46-1.65l4.14,6.24-2.36,1.59a1.37,1.37,0,0,0-.5,1.86l1.21,1.74a1.36,1.36,0,0,0,1.9.2l2.3-1.55q2.09,3.12,4.15,6.24l-2.21,1.49a1.32,1.32,0,0,0-.43,1.81l1.21,1.74a1.32,1.32,0,0,0,1.83.25l2.15-1.46,7.44,11.2a162.1,162.1,0,0,1,28.09-14.91q-16.23-39.57-32.45-79.15C469.05,95.62,464.87,94.85,460.82,96.66ZM481.2,178q-3.82,2.13-7.54,4.45a.46.46,0,0,1-.64-.13.47.47,0,0,1,.16-.64l.33-.2L472,179a.47.47,0,0,1,.18-.64q3.07-1.89,6.21-3.66a.48.48,0,0,1,.65.15c.46.83.92,1.66,1.39,2.49l.33-.18a.46.46,0,0,1,.64.16A.46.46,0,0,1,481.2,178Zm-4.38-7.88q-4,2.23-7.94,4.68a.47.47,0,0,1-.66-.12.47.47,0,0,1,.19-.64l.34-.22-1.5-2.42a.47.47,0,0,1,.19-.65q3.22-2,6.54-3.85a.47.47,0,0,1,.66.14c.47.83.93,1.66,1.39,2.49l.35-.2a.49.49,0,0,1,.66.15A.48.48,0,0,1,476.82,170.08Zm-4.38-7.88q-4.23,2.34-8.33,4.91a.5.5,0,0,1-.69-.1.49.49,0,0,1,.21-.66l.36-.23-1.5-2.42a.48.48,0,0,1,.22-.66c2.25-1.4,4.54-2.74,6.85-4a.49.49,0,0,1,.69.13c.46.83.92,1.66,1.39,2.49l.37-.21a.46.46,0,1,1,.43.79Zm-4.37-7.89q-4.44,2.46-8.74,5.15a.52.52,0,0,1-.71-.09.5.5,0,0,1,.23-.67l.38-.24-1.5-2.42a.51.51,0,0,1,.24-.68q3.54-2.19,7.17-4.22a.51.51,0,0,1,.71.11l1.39,2.49.39-.21a.5.5,0,0,1,.7.12A.51.51,0,0,1,468.07,154.31Zm-4.38-7.88q-4.63,2.58-9.14,5.38a.52.52,0,0,1-.72-.07.52.52,0,0,1,.25-.69l.39-.24-1.5-2.43a.53.53,0,0,1,.26-.69c2.47-1.52,5-3,7.49-4.42a.54.54,0,0,1,.74.11c.46.83.92,1.66,1.39,2.49l.4-.23a.54.54,0,0,1,.73.12A.52.52,0,0,1,463.69,146.43Zm-4.38-7.88q-4.83,2.69-9.53,5.62a.47.47,0,1,1-.48-.77l.41-.25-1.5-2.43a.54.54,0,0,1,.28-.7q3.86-2.39,7.82-4.61a.55.55,0,0,1,.75.1c.47.83.93,1.66,1.39,2.49l.43-.24a.54.54,0,0,1,.74.1A.55.55,0,0,1,459.31,138.55Zm-4.37-7.89q-5.06,2.81-9.94,5.86a.57.57,0,0,1-.77-.05.57.57,0,0,1,.29-.72c.15-.08.29-.17.43-.26l-1.5-2.42a.56.56,0,0,1,.3-.72q4-2.49,8.14-4.8a.58.58,0,0,1,.78.08c.46.83.92,1.66,1.39,2.49l.44-.24a.56.56,0,0,1,.77.09C455.39,130.18,455.24,130.5,454.94,130.66Zm-4.38-7.88q-5.25,2.91-10.34,6.09c-.3.19-.66.18-.79,0s0-.54.32-.73l.44-.28-1.5-2.42c-.13-.21,0-.54.32-.73q4.19-2.59,8.46-5c.32-.18.68-.15.8.07.47.83.93,1.66,1.39,2.49l.46-.26c.32-.17.67-.14.79.08S450.87,122.61,450.56,122.78Zm-4.38-7.88q-5.44,3-10.73,6.32c-.32.2-.68.19-.82,0s0-.54.34-.74l.46-.29-1.5-2.42c-.13-.21,0-.55.35-.75q4.34-2.67,8.78-5.17c.33-.19.7-.16.82.06l1.39,2.48.47-.26c.33-.18.7-.15.82.06S446.51,114.72,446.18,114.9Zm45.93,57.39a1.59,1.59,0,0,1-.82,2.09c-1.1.53-2.2,1.06-3.29,1.61a1.6,1.6,0,0,1-2.16-.64l-1.6-3.11a1.61,1.61,0,0,1,.79-2.14c1.14-.57,2.28-1.13,3.43-1.68a1.6,1.6,0,0,1,2.17.69Zm-3.8-8.18a1.65,1.65,0,0,1-.89,2.13c-1.17.55-2.32,1.12-3.48,1.7a1.64,1.64,0,0,1-2.22-.6l-1.61-3.12A1.65,1.65,0,0,1,481,162c1.19-.6,2.39-1.19,3.6-1.76a1.64,1.64,0,0,1,2.25.65C487.33,162,487.82,163.05,488.31,164.11Zm-3.8-8.18a1.69,1.69,0,0,1-1,2.17c-1.22.58-2.44,1.17-3.65,1.78a1.68,1.68,0,0,1-2.3-.56L476,156.2a1.7,1.7,0,0,1,.95-2.21c1.25-.63,2.51-1.25,3.78-1.85a1.71,1.71,0,0,1,2.33.61Zm-3.79-8.18a1.75,1.75,0,0,1-1.05,2.2c-1.29.62-2.56,1.24-3.83,1.88a1.76,1.76,0,0,1-2.38-.53c-.54-1-1.07-2.07-1.61-3.11a1.77,1.77,0,0,1,1-2.26c1.31-.66,2.63-1.3,3.95-1.93a1.76,1.76,0,0,1,2.41.57Zm-3.8-8.18a1.81,1.81,0,0,1-1.13,2.24c-1.34.64-2.67,1.29-4,2a1.8,1.8,0,0,1-2.46-.48l-1.61-3.12a1.82,1.82,0,0,1,1.1-2.29q2.06-1,4.14-2a1.82,1.82,0,0,1,2.48.54Zm-3.8-8.18a1.87,1.87,0,0,1-1.2,2.28c-1.4.67-2.8,1.35-4.18,2.05a1.88,1.88,0,0,1-2.54-.45l-1.6-3.12c-.4-.75.13-1.81,1.17-2.33q2.14-1.08,4.31-2.11a1.89,1.89,0,0,1,2.57.5Zm-3.79-8.17c.35.77-.22,1.8-1.29,2.31q-2.19,1-4.35,2.13a1.94,1.94,0,0,1-2.62-.41l-1.6-3.11c-.39-.76.16-1.83,1.25-2.38,1.49-.74,3-1.48,4.49-2.19,1.1-.52,2.28-.31,2.64.47Zm-3.8-8.18c.36.77-.26,1.82-1.36,2.35q-2.28,1.08-4.53,2.21c-1.1.55-2.3.4-2.7-.36l-1.6-3.12c-.39-.76.2-1.84,1.33-2.41q2.32-1.17,4.66-2.28c1.14-.55,2.37-.35,2.72.43C464.55,112.92,465,114,465.53,115Zm-3.8-8.18c.36.77-.29,1.84-1.44,2.38-1.58.76-3.15,1.52-4.71,2.31-1.14.57-2.37.43-2.76-.33l-1.61-3.12c-.39-.75.24-1.86,1.41-2.45q2.4-1.2,4.84-2.36c1.18-.57,2.44-.39,2.8.39Z"/><path class="cls-5" d="M872.29,586.32c2-2.86,4.87-4.71,7.27-4.7,4,.06,9-3.26,12.32-8.81s3.81-11.54,1.84-15c-1.16-2.1-.9-5.48.65-8.63,2.09-4.24,1.51-8.7-1.14-9.89L802.52,498.1c-.57,1.26-1.16,2.53-1.77,3.78l7.08,3.43a5.18,5.18,0,0,1-4.78,9.18l-6.87-3.84a169,169,0,0,1-12.66,19.43l79.54,60C865.37,591.8,869.56,590.18,872.29,586.32ZM888,570.5c-2.12,3.58-5.66,5.33-7.78,4q3.94-6.24,7.55-12.71C890,563,890.11,566.92,888,570.5Zm-13-32.7c.78.37.95,1.63.38,2.79s-1.12,2.24-1.7,3.36-1.7,1.76-2.47,1.35L869,544.14c-.76-.41-.91-1.64-.33-2.77s1.12-2.19,1.66-3.28,1.64-1.76,2.42-1.38Zm-6.84-3.31c.78.37,1,1.6.41,2.73s-1.09,2.17-1.64,3.25-1.68,1.7-2.44,1.3l-2.22-1.17c-.77-.4-.93-1.61-.36-2.71s1.07-2.11,1.6-3.18,1.61-1.69,2.39-1.31Zm-6.84-3.31c.78.37,1,1.57.44,2.67s-1.05,2.1-1.59,3.15-1.64,1.63-2.41,1.23l-2.22-1.17a1.94,1.94,0,0,1-.39-2.64c.52-1,1-2,1.55-3.08s1.58-1.63,2.36-1.26Zm-6.84-3.31a1.89,1.89,0,0,1,.47,2.6c-.51,1-1,2-1.54,3.06a1.9,1.9,0,0,1-2.38,1.16l-2.22-1.16a1.9,1.9,0,0,1-.42-2.58c.51-1,1-2,1.5-3a1.91,1.91,0,0,1,2.33-1.2Zm-6.91-3.35a2,2,0,0,1,.52,2.68c-.45.92-.92,1.84-1.39,2.76a2,2,0,0,1-2.46,1.16L842.13,530a1.94,1.94,0,0,1-.48-2.65l1.36-2.69a1.94,1.94,0,0,1,2.42-1.19Zm-6.84-3.31a1.91,1.91,0,0,1,.56,2.61l-1.35,2.66a1.89,1.89,0,0,1-2.43,1.1l-2.07-1.09a1.88,1.88,0,0,1-.52-2.58c.44-.87.88-1.73,1.31-2.6a1.9,1.9,0,0,1,2.39-1.12Zm-6.84-3.31a1.85,1.85,0,0,1,.59,2.54c-.43.86-.86,1.72-1.3,2.57a1.86,1.86,0,0,1-2.4,1L828.68,523a1.85,1.85,0,0,1-.55-2.52c.43-.84.85-1.67,1.26-2.51a1.85,1.85,0,0,1,2.36-1ZM827,514.59a1.81,1.81,0,0,1,.62,2.48l-1.25,2.47a1.8,1.8,0,0,1-2.36,1L822,519.42a1.81,1.81,0,0,1-.58-2.46c.41-.79.81-1.6,1.21-2.4a1.81,1.81,0,0,1,2.33-1Zm-23.36,20a189,189,0,0,0,13.45-23,1.46,1.46,0,1,1,2.6,1.29,190.55,190.55,0,0,1-13.66,23.3,1.46,1.46,0,1,1-2.39-1.63Zm60.14,11.76c-.59,1.06-1.18,2.12-1.78,3.18s-1.74,1.63-2.49,1.19l-2.17-1.26c-.75-.43-.85-1.65-.25-2.72s1.17-2.07,1.74-3.11,1.68-1.62,2.44-1.21l2.21,1.18C864.27,544,864.4,545.2,863.8,546.31ZM868,546l2.21,1.19c.76.4.88,1.66.26,2.8s-1.21,2.19-1.83,3.28-1.78,1.69-2.53,1.25l-2.17-1.26c-.75-.43-.84-1.67-.21-2.78s1.2-2.13,1.79-3.2S867.22,545.56,868,546Zm-10.86-3.32c-.56,1-1.14,2.06-1.72,3.09s-1.7,1.56-2.45,1.13l-2.17-1.26a2,2,0,0,1-.29-2.66c.57-1,1.13-2,1.69-3a2,2,0,0,1,2.41-1.16l2.21,1.19C857.57,540.38,857.72,541.58,857.13,542.65ZM850.47,539c-.55,1-1.1,2-1.66,3a1.91,1.91,0,0,1-2.43,1.07l-2.16-1.26a1.89,1.89,0,0,1-.32-2.59q.83-1.46,1.62-2.91a1.91,1.91,0,0,1,2.38-1.1l2.21,1.19A1.91,1.91,0,0,1,850.47,539Zm-6.71-3.56c-.5.9-1,1.8-1.51,2.7a2,2,0,0,1-2.51,1.06l-2-1.18a2,2,0,0,1-.37-2.67c.5-.87,1-1.75,1.47-2.63a2,2,0,0,1,2.47-1.08l2.06,1.11A2,2,0,0,1,843.76,535.44Zm-6.66-3.66c-.48.87-1,1.74-1.46,2.61a1.89,1.89,0,0,1-2.47,1l-2-1.17a1.91,1.91,0,0,1-.41-2.61c.48-.84.95-1.69,1.42-2.53a1.9,1.9,0,0,1,2.43-1l2.06,1.1A1.9,1.9,0,0,1,837.1,531.78Zm-6.66-3.66c-.47.85-.93,1.68-1.41,2.52a1.85,1.85,0,0,1-2.43.93c-.68-.39-1.36-.78-2-1.18a1.85,1.85,0,0,1-.45-2.54c.46-.81.92-1.62,1.37-2.44a1.84,1.84,0,0,1,2.39-1l2.07,1.11A1.85,1.85,0,0,1,830.44,528.12Zm-6.67-3.65c-.44.81-.89,1.62-1.35,2.42a1.81,1.81,0,0,1-2.4.87l-2-1.18a1.81,1.81,0,0,1-.49-2.48c.45-.78.88-1.56,1.32-2.35a1.8,1.8,0,0,1,2.36-.89l2.06,1.11A1.79,1.79,0,0,1,823.77,524.47Zm34.91,30.72c-.62,1-1.26,2.07-1.9,3.1s-1.81,1.55-2.54,1.09L852.12,558c-.73-.47-.78-1.68-.13-2.73s1.25-2,1.86-3,1.75-1.55,2.49-1.11l2.16,1.27C859.25,552.87,859.33,554.11,858.68,555.19Zm4.2-.16L865,556.3c.75.44.82,1.7.15,2.82s-1.3,2.14-2,3.2-1.85,1.61-2.57,1.14l-2.12-1.35c-.73-.46-.77-1.71-.1-2.78s1.29-2.08,1.93-3.13S862.14,554.59,862.88,555Zm-10.7-3.77c-.61,1-1.23,2-1.85,3s-1.77,1.49-2.5,1L845.71,554a2,2,0,0,1-.17-2.67c.61-1,1.21-2,1.81-2.94a1.94,1.94,0,0,1,2.45-1.05l2.16,1.27C852.71,549,852.81,550.21,852.18,551.26Zm-6.51-3.93c-.59,1-1.18,1.95-1.79,2.91a1.89,1.89,0,0,1-2.46,1l-2.11-1.35a1.9,1.9,0,0,1-.21-2.61c.59-.94,1.17-1.89,1.74-2.84a1.91,1.91,0,0,1,2.42-1l2.16,1.28A1.89,1.89,0,0,1,845.67,547.33Zm-6.56-3.84c-.53.89-1.07,1.76-1.61,2.64a2,2,0,0,1-2.56,1l-2-1.26a1.94,1.94,0,0,1-.26-2.68c.53-.85,1-1.71,1.57-2.57a2,2,0,0,1,2.51-1l2,1.2A1.94,1.94,0,0,1,839.11,543.49Zm-6.5-3.93q-.76,1.28-1.56,2.55a1.91,1.91,0,0,1-2.51.89l-2-1.26a1.89,1.89,0,0,1-.3-2.62c.51-.82,1-1.65,1.52-2.48a1.89,1.89,0,0,1,2.47-.91l2,1.19A1.9,1.9,0,0,1,832.61,539.56Zm-6.5-3.93c-.5.82-1,1.64-1.51,2.45a1.84,1.84,0,0,1-2.47.83l-2-1.26a1.85,1.85,0,0,1-.34-2.55c.5-.8,1-1.59,1.47-2.39a1.84,1.84,0,0,1,2.43-.85l2,1.19A1.86,1.86,0,0,1,826.11,535.63Zm-6.5-3.93c-.48.79-1,1.58-1.46,2.36a1.8,1.8,0,0,1-2.43.77l-2-1.26a1.8,1.8,0,0,1-.38-2.49c.48-.77.95-1.53,1.41-2.3a1.81,1.81,0,0,1,2.4-.79l2,1.19A1.82,1.82,0,0,1,819.61,531.7Zm-10.41,8.68a1.81,1.81,0,0,1-.27-2.51c.5-.74,1-1.49,1.5-2.24a1.82,1.82,0,0,1,2.43-.69l2,1.28a1.8,1.8,0,0,1,.31,2.53c-.51.77-1,1.54-1.55,2.3a1.81,1.81,0,0,1-2.47.67Zm6.23,4.34a1.85,1.85,0,0,1-.23-2.56l1.57-2.33a1.84,1.84,0,0,1,2.46-.75l2,1.28a1.85,1.85,0,0,1,.27,2.59c-.53.8-1.07,1.6-1.61,2.39a1.85,1.85,0,0,1-2.5.73Zm6.24,4.35a1.89,1.89,0,0,1-.19-2.63L823.1,544a1.89,1.89,0,0,1,2.51-.81l2,1.27a1.89,1.89,0,0,1,.23,2.66c-.55.83-1.1,1.66-1.66,2.48a1.89,1.89,0,0,1-2.55.78Zm6.23,4.35a1.94,1.94,0,0,1-.15-2.69c.57-.83,1.13-1.66,1.68-2.5a2,2,0,0,1,2.55-.88l2,1.28a2,2,0,0,1,.19,2.72c-.57.86-1.15,1.71-1.73,2.56a2,2,0,0,1-2.59.85Zm6.16,4.3a1.89,1.89,0,0,1-.1-2.61c.63-.92,1.25-1.84,1.87-2.77a1.9,1.9,0,0,1,2.46-.89l2.1,1.36a1.9,1.9,0,0,1,.14,2.65c-.63.95-1.26,1.89-1.91,2.83a1.91,1.91,0,0,1-2.5.87Zm6.24,4.35a1.94,1.94,0,0,1-.06-2.67c.64-.95,1.29-1.91,1.92-2.87a1.94,1.94,0,0,1,2.5-.94l2.1,1.36c.73.47.78,1.68.11,2.7s-1.31,2-2,2.93-1.84,1.42-2.55.92Zm6.23,4.35c-.71-.5-.72-1.72,0-2.73s1.33-2,2-3,1.81-1.48,2.53-1l2.11,1.37c.72.47.76,1.71.06,2.76s-1.35,2-2,3-1.88,1.48-2.59,1Zm6.23,4.34c-.71-.49-.69-1.74,0-2.79s1.38-2,2.05-3,1.85-1.54,2.58-1.07l2.1,1.36c.73.48.75,1.74,0,2.82s-1.39,2.09-2.1,3.12-1.91,1.54-2.62,1Zm6.7,5.3A257.34,257.34,0,0,0,880,541.31c.24-.49.7-.76,1-.61s.4.69.15,1.19a259.24,259.24,0,0,1-20.59,34.92c-.32.45-.82.65-1.11.44S859.15,576.51,859.46,576.06Zm2.93,2.06a260.11,260.11,0,0,0,20.78-35.23c.25-.5.71-.78,1-.63s.39.7.14,1.2a262.73,262.73,0,0,1-20.88,35.41c-.32.45-.82.66-1.11.45S862.08,578.57,862.39,578.12Zm2.94,2a264.91,264.91,0,0,0,21.06-35.71c.25-.51.71-.79,1-.64s.39.7.14,1.21a266.48,266.48,0,0,1-21.16,35.89c-.33.47-.83.67-1.13.47S865,580.64,865.33,580.17Zm2.93,2.06A268.4,268.4,0,0,0,889.61,546c.25-.51.71-.8,1-.64s.38.7.13,1.21A270,270,0,0,1,869.33,583c-.33.47-.84.68-1.13.47S867.93,582.7,868.26,582.23Z"/><path class="cls-9" d="M301.71,525.39c1.24,2.85,1.33,5.85.22,7.66-1.88,3-1.67,8.33,1,13.36s7,8.18,10.53,8.29c2.13.08,4.57,1.83,6.24,4.45,2.25,3.52,5.89,5.13,8,3.66L400.46,513c-.7-1-1.38-2-2-3.08l-5.84,3.79a4.58,4.58,0,0,1-4.76-7.83l6.05-3.44A150.34,150.34,0,0,1,385,484L303.12,516.7C300.73,517.64,300,521.56,301.71,525.39Zm4.78,19.13c-1.74-3.24-1.44-6.72.56-7.71q2.93,5.87,6.15,11.54C311.27,549.46,308.22,547.77,306.49,544.52Zm30.71,5.15c-.64.42-1.67,0-2.29-1s-1.18-1.87-1.76-2.82-.55-2.1.11-2.49l1.9-1.15c.66-.39,1.66.07,2.24,1s1.15,1.84,1.73,2.75.58,2-.07,2.47Zm5.64-3.66c-.64.42-1.65,0-2.25-1s-1.15-1.81-1.71-2.73-.52-2.05.14-2.44l1.9-1.15c.66-.39,1.64,0,2.21,1s1.11,1.79,1.67,2.67a1.77,1.77,0,0,1-.1,2.42Zm5.64-3.66c-.64.42-1.64,0-2.22-.89s-1.11-1.77-1.66-2.65a1.74,1.74,0,0,1,.18-2.39l1.9-1.14a1.71,1.71,0,0,1,2.18.91c.53.87,1.07,1.73,1.62,2.59a1.73,1.73,0,0,1-.13,2.36Zm5.64-3.66a1.68,1.68,0,0,1-2.18-.84c-.54-.85-1.08-1.71-1.61-2.57a1.68,1.68,0,0,1,.21-2.33l1.9-1.14a1.68,1.68,0,0,1,2.15.86c.51.84,1,1.67,1.56,2.5a1.68,1.68,0,0,1-.16,2.31Zm5.71-3.7a1.73,1.73,0,0,1-2.27-.83c-.49-.77-1-1.54-1.45-2.32a1.73,1.73,0,0,1,.25-2.4l1.78-1.07a1.72,1.72,0,0,1,2.22.85c.47.76.94,1.51,1.42,2.26a1.74,1.74,0,0,1-.21,2.38Zm5.64-3.66a1.68,1.68,0,0,1-2.23-.77c-.48-.75-.94-1.49-1.4-2.24a1.69,1.69,0,0,1,.28-2.35l1.78-1.06a1.67,1.67,0,0,1,2.19.79c.45.73.9,1.46,1.36,2.18a1.68,1.68,0,0,1-.24,2.32Zm5.64-3.66a1.65,1.65,0,0,1-2.2-.72q-.68-1.07-1.35-2.16a1.63,1.63,0,0,1,.32-2.28c.59-.36,1.18-.72,1.78-1.07a1.62,1.62,0,0,1,2.15.73l1.32,2.11a1.63,1.63,0,0,1-.28,2.26Zm5.64-3.66a1.59,1.59,0,0,1-2.16-.66c-.44-.69-.87-1.39-1.3-2.08a1.6,1.6,0,0,1,.35-2.23l1.77-1.07a1.59,1.59,0,0,1,2.13.68c.42.68.84,1.35,1.27,2a1.61,1.61,0,0,1-.32,2.21Zm-4.4-26.82a166.71,166.71,0,0,0,11.21,20.7,1.38,1.38,0,0,1-.3,1.9,1.36,1.36,0,0,1-1.86-.52,168.49,168.49,0,0,1-11.38-21,1.35,1.35,0,0,1,.57-1.84A1.37,1.37,0,0,1,372.35,497.19Zm-36.47,40.12c-.54-.93-1.07-1.86-1.59-2.8s-.43-2.07.24-2.43l2-1.07c.67-.37,1.64.11,2.17,1.06s1,1.83,1.56,2.74a1.78,1.78,0,0,1-.2,2.41l-1.91,1.12C337.44,538.74,336.44,538.28,335.88,537.31Zm-1.66,3.33-1.91,1.13c-.66.39-1.67-.1-2.25-1.09l-1.64-2.89c-.56-1-.46-2.12.21-2.49l1.95-1.06c.67-.37,1.65.13,2.2,1.11s1.06,1.89,1.61,2.83S334.88,540.25,334.22,540.64Zm7.48-6.7c-.52-.9-1-1.8-1.54-2.71a1.74,1.74,0,0,1,.27-2.38l1.95-1.07a1.74,1.74,0,0,1,2.14,1c.49.89,1,1.77,1.51,2.65a1.73,1.73,0,0,1-.24,2.35l-1.91,1.13C343.23,535.31,342.24,534.88,341.7,533.94Zm5.82-3.37c-.5-.87-1-1.74-1.49-2.62a1.7,1.7,0,0,1,.3-2.33l1.95-1.06a1.68,1.68,0,0,1,2.11,1c.48.86,1,1.71,1.46,2.56a1.68,1.68,0,0,1-.27,2.3l-1.91,1.13A1.69,1.69,0,0,1,347.52,530.57Zm5.77-3.45c-.45-.78-.9-1.58-1.35-2.37a1.73,1.73,0,0,1,.35-2.39l1.82-1a1.72,1.72,0,0,1,2.19.94c.44.77.87,1.55,1.32,2.31a1.73,1.73,0,0,1-.31,2.37l-1.79,1A1.72,1.72,0,0,1,353.29,527.12Zm5.83-3.36c-.44-.76-.88-1.53-1.31-2.3a1.67,1.67,0,0,1,.38-2.32l1.82-1a1.68,1.68,0,0,1,2.16.89c.42.74.84,1.49,1.27,2.23a1.69,1.69,0,0,1-.34,2.31l-1.79,1A1.68,1.68,0,0,1,359.12,523.76Zm5.82-3.36q-.65-1.11-1.26-2.22a1.63,1.63,0,0,1,.41-2.27l1.82-1a1.65,1.65,0,0,1,2.13.83c.4.72.81,1.44,1.22,2.16a1.64,1.64,0,0,1-.37,2.25l-1.79,1.05A1.64,1.64,0,0,1,364.94,520.4Zm5.82-3.37c-.41-.71-.81-1.42-1.21-2.13a1.6,1.6,0,0,1,.44-2.22l1.82-1a1.58,1.58,0,0,1,2.09.77l1.18,2.07a1.59,1.59,0,0,1-.41,2.2l-1.78,1A1.6,1.6,0,0,1,370.76,517Zm-39.25,12.34c-.5-1-1-1.91-1.48-2.87s-.34-2.08.34-2.42l2-1c.69-.34,1.64.18,2.13,1.15s.95,1.87,1.44,2.8a1.79,1.79,0,0,1-.3,2.4l-2,1C333,530.86,332,530.36,331.51,529.37Zm-1.81,3.25-1.95,1c-.68.36-1.67-.16-2.2-1.18l-1.52-3c-.52-1-.37-2.14.31-2.48l2-1c.69-.34,1.65.2,2.16,1.2s1,1.93,1.48,2.89S330.38,532.26,329.7,532.62Zm7.76-6.37c-.48-.93-1-1.85-1.43-2.78s-.32-2,.37-2.36l2-1c.69-.34,1.62.16,2.1,1.1s.92,1.81,1.39,2.71a1.73,1.73,0,0,1-.32,2.34l-2,1.05C338.93,527.68,338,527.2,337.46,526.25Zm6-3.13c-.47-.89-.93-1.79-1.39-2.68a1.69,1.69,0,0,1,.4-2.31l2-1a1.69,1.69,0,0,1,2.07,1c.44.88.89,1.75,1.35,2.62a1.68,1.68,0,0,1-.36,2.29l-2,1A1.68,1.68,0,0,1,343.42,523.12Zm5.91-3.2c-.43-.81-.84-1.62-1.25-2.43a1.72,1.72,0,0,1,.44-2.37l1.86-.92a1.72,1.72,0,0,1,2.15,1c.4.79.81,1.58,1.22,2.37a1.73,1.73,0,0,1-.41,2.35l-1.82,1A1.73,1.73,0,0,1,349.33,519.92Zm5.95-3.12c-.4-.78-.81-1.56-1.21-2.35a1.69,1.69,0,0,1,.48-2.31l1.86-.92a1.68,1.68,0,0,1,2.12,1c.39.77.78,1.53,1.18,2.29a1.68,1.68,0,0,1-.44,2.29l-1.83,1A1.69,1.69,0,0,1,355.28,516.8Zm6-3.12-1.17-2.27a1.65,1.65,0,0,1,.51-2.25l1.86-.92a1.64,1.64,0,0,1,2.09.92c.37.74.75,1.47,1.14,2.2a1.64,1.64,0,0,1-.47,2.23l-1.83,1A1.63,1.63,0,0,1,361.24,513.68Zm6-3.12c-.38-.72-.76-1.45-1.13-2.18a1.61,1.61,0,0,1,.54-2.2l1.86-.91a1.6,1.6,0,0,1,2.06.85c.36.71.72,1.42,1.09,2.12a1.6,1.6,0,0,1-.5,2.18l-1.83,1A1.59,1.59,0,0,1,367.2,510.56Zm-1.8-11.85a1.59,1.59,0,0,1,2,.94c.33.72.67,1.45,1,2.17a1.6,1.6,0,0,1-.6,2.15l-1.86.9a1.6,1.6,0,0,1-2.06-.92c-.35-.74-.7-1.49-1-2.23a1.59,1.59,0,0,1,.62-2.17Zm-6.15,2.72a1.65,1.65,0,0,1,2.05,1c.34.76.69,1.51,1,2.25a1.63,1.63,0,0,1-.56,2.21l-1.87.91a1.63,1.63,0,0,1-2.08-1c-.37-.76-.72-1.53-1.08-2.31a1.65,1.65,0,0,1,.6-2.23Zm-6.15,2.73a1.68,1.68,0,0,1,2.08,1.06l1.08,2.33a1.68,1.68,0,0,1-.53,2.27l-1.87.91a1.7,1.7,0,0,1-2.12-1.05l-1.11-2.39a1.69,1.69,0,0,1,.58-2.29ZM347,506.88a1.72,1.72,0,0,1,2.1,1.12c.37.81.74,1.62,1.12,2.42a1.72,1.72,0,0,1-.51,2.33l-1.86.9a1.73,1.73,0,0,1-2.15-1.1c-.39-.82-.77-1.65-1.15-2.48a1.73,1.73,0,0,1,.55-2.35Zm-6.09,2.69a1.69,1.69,0,0,1,2,1.13c.41.89.82,1.79,1.24,2.68a1.69,1.69,0,0,1-.45,2.27l-2,1c-.69.34-1.62-.15-2.07-1.1s-.85-1.83-1.27-2.75a1.69,1.69,0,0,1,.5-2.29Zm-6.14,2.73c.7-.31,1.61.22,2,1.18s.85,1.85,1.28,2.77a1.72,1.72,0,0,1-.43,2.32l-2,1c-.69.33-1.63-.18-2.1-1.16s-.88-1.89-1.31-2.84a1.72,1.72,0,0,1,.47-2.34ZM328.58,515c.7-.31,1.63.25,2.08,1.24s.87,1.91,1.32,2.86.29,2-.4,2.38l-2,1c-.69.33-1.64-.21-2.12-1.22s-.91-2-1.35-2.93-.26-2.09.44-2.4Zm-6.15,2.73c.7-.31,1.64.27,2.1,1.29s.91,2,1.37,3,.32,2.1-.37,2.44l-2,1c-.69.34-1.66-.23-2.15-1.27s-.94-2-1.39-3-.29-2.16.41-2.47Zm-7.08,2.64a229.18,229.18,0,0,0,16.91,31.44c.26.41.26.88,0,1s-.7,0-1-.43a229.22,229.22,0,0,1-17-31.6c-.2-.44-.12-.91.17-1S315.15,519.94,315.35,520.39Zm-2.9,1.28a231,231,0,0,0,17.14,31.87c.27.42.27.89,0,1.06s-.7,0-1-.43a233.48,233.48,0,0,1-17.23-32c-.19-.45-.12-.92.17-1S312.25,521.22,312.45,521.67Zm-2.9,1.27a235.24,235.24,0,0,0,17.37,32.32c.27.42.28.9,0,1.07s-.7,0-1-.45a236.45,236.45,0,0,1-17.47-32.47c-.2-.46-.12-.94.17-1.06S309.35,522.49,309.55,522.94Zm-2.9,1.28A236.65,236.65,0,0,0,324.26,557c.27.43.28.91,0,1.09s-.71,0-1-.46a239.57,239.57,0,0,1-17.7-32.91c-.2-.47-.13-1,.16-1.08S306.44,523.76,306.65,524.22Z"/><path class="cls-10" d="M812,151.51h0c-1.76-1.68-2.34-4-1.26-5.14l1.21-1.32c2.12-2.28,2.19-6,.42-9.74-.59-1.26-.63-2.46,0-3.19l2.34-2.7c1-1.21.28-3.59-1.76-5.29q-5.09-4.25-10.4-8.25c-2.11-1.6-4.6-1.81-5.54-.51l-2.1,2.89c-.57.79-1.75,1-3.11.73-4.06-.87-7.65,0-9.39,2.62l-1,1.48c-.9,1.32-3.26,1.27-5.29-.06h0c-2.05-1.34-4.41-1.29-5.26.07l-44,70A163,163,0,0,1,755,215.32l58.16-58.68C814.24,155.52,813.75,153.2,812,151.51Zm-15-5.35c.77-.91,2.51-.71,3.86.47l2.85,2.52c1.33,1.2,1.75,2.91.93,3.78l-2.18,2.37c-.81.87-2.5.62-3.8-.54-.91-.82-1.83-1.63-2.76-2.44-1.3-1.14-1.76-2.79-1-3.7Zm-7.32,8.64c.77-.92,2.45-.76,3.75.37.91.79,1.81,1.59,2.71,2.4,1.28,1.15,1.64,2.8.83,3.68l-2.19,2.36c-.81.88-2.45.68-3.68-.43-.87-.78-1.75-1.56-2.63-2.32-1.25-1.09-1.65-2.69-.87-3.61Zm-7.32,8.63c.77-.91,2.4-.8,3.63.27l2.59,2.29c1.21,1.09,1.52,2.7.71,3.57l-2.18,2.37c-.82.87-2.41.72-3.58-.33-.82-.74-1.66-1.48-2.49-2.21-1.19-1-1.54-2.59-.76-3.51Zm-7.32,8.63c.77-.91,2.35-.84,3.52.17L781,174.4c1.15,1,1.42,2.6.6,3.48l-2.18,2.37A2.51,2.51,0,0,1,776,180c-.78-.71-1.57-1.4-2.37-2.1a2.49,2.49,0,0,1-.64-3.4Zm11.85-34c.72-1,2.46-.85,3.88.26,1,.78,2,1.57,3,2.36,1.4,1.13,1.9,2.8,1.13,3.72l-2,2.48c-.77.92-2.47.76-3.82-.33l-2.88-2.29c-1.37-1.07-1.91-2.69-1.19-3.64Zm-6.85,9c.72-1,2.41-.89,3.76.17.95.74,1.9,1.49,2.84,2.25,1.34,1.08,1.79,2.71,1,3.63l-2.05,2.48c-.77.91-2.42.8-3.7-.24l-2.75-2.18c-1.3-1-1.79-2.6-1.07-3.55Zm-6.85,9c.72-1,2.36-.93,3.65.07l2.7,2.15c1.27,1,1.66,2.61.9,3.53l-2.06,2.48c-.76.92-2.36.85-3.58-.14q-1.29-1-2.61-2.07c-1.24-1-1.67-2.51-1-3.46Zm-6.85,9c.72-1,2.31-1,3.53,0,.86.68,1.71,1.35,2.56,2,1.21,1,1.55,2.52.79,3.43s-1.37,1.66-2.06,2.48a2.5,2.5,0,0,1-3.46,0c-.82-.66-1.65-1.31-2.48-2a2.51,2.51,0,0,1-.83-3.37Zm10-34.6c.66-1,2.41-1,3.89.05l3.1,2.2c1.46,1.05,2,2.7,1.33,3.66L782.79,139c-.71,1-2.42.9-3.83-.12-1-.72-2-1.43-3-2.13-1.43-1-2.05-2.59-1.38-3.58ZM770,139.84c.67-1,2.36-1,3.77,0,1,.69,2,1.39,3,2.1,1.39,1,1.93,2.61,1.22,3.57l-1.92,2.58c-.72,1-2.37.93-3.71,0-1-.69-1.9-1.37-2.86-2-1.36-.94-1.93-2.5-1.26-3.49Zm-6.36,9.36c.67-1,2.31-1,3.65-.11.94.66,1.88,1.32,2.81,2,1.32.95,1.8,2.52,1.09,3.47l-1.92,2.59c-.71,1-2.31,1-3.59,0L763,155.27c-1.29-.9-1.81-2.41-1.14-3.4Zm-6.36,9.37c.67-1,2.26-1.09,3.53-.2l2.67,1.89c1.25.91,1.68,2.43,1,3.39l-1.91,2.59a2.52,2.52,0,0,1-3.47.14q-1.27-.93-2.58-1.83a2.51,2.51,0,0,1-1-3.32Zm8.6,41.09a182,182,0,0,0-26.07-20.72l.94-1.43c.85.55,1.69,1.11,2.53,1.68l5.28-7.78c1.54-2.29,5.06-2.62,7.79-.64h0c2.73,2,3.51,5.42,1.81,7.6l-5.75,7.44q1.84,1.42,3.65,2.9l5.94-7.3c1.73-2.15,5.26-2.18,7.81,0s3,5.71,1.15,7.73l-6.37,6.92c.83.77,1.66,1.54,2.48,2.33Z"/><path class="cls-11" d="M765.75,91c-3.13-1.79-5.3-4.53-5.52-7C759.9,79.93,756,75.11,750,72.29s-12.19-2.78-15.57-.43c-2,1.4-5.53,1.46-8.91.19-4.54-1.73-9-.7-10,2.13l-33.3,96.92c1.36.47,2.71,1,4,1.45l2.82-7.59a5.33,5.33,0,0,1,9.87,4q-1.62,3.71-3.26,7.41a174.15,174.15,0,0,1,21.14,11.07l53.64-87.33C772.05,97.58,770,93.44,765.75,91ZM748,76.5c3.87,1.83,6,5.28,4.83,7.58q-6.79-3.42-13.76-6.49C740.12,75.22,744.14,74.67,748,76.5ZM715.8,93c.3-.83,1.57-1.13,2.82-.66s2.41.93,3.6,1.41,2,1.58,1.63,2.4-.65,1.59-1,2.39-1.6,1.09-2.81.6l-3.52-1.37c-1.22-.47-2-1.51-1.65-2.35Zm-2.73,7.33c.31-.83,1.55-1.15,2.76-.68s2.33.9,3.5,1.36,1.9,1.55,1.56,2.37-.65,1.6-1,2.39-1.56,1.1-2.74.64-2.27-.9-3.41-1.34-1.89-1.48-1.58-2.32S712.77,101.16,713.07,100.35Zm-2.72,7.33c.31-.83,1.52-1.16,2.69-.71s2.26.87,3.39,1.32,1.83,1.52,1.49,2.35l-1,2.39c-.33.82-1.53,1.11-2.67.66s-2.2-.87-3.3-1.29-1.83-1.46-1.52-2.3ZM707.63,115a2,2,0,0,1,2.62-.74l3.28,1.28c1.13.45,1.77,1.5,1.43,2.32l-1,2.39a2,2,0,0,1-2.6.69c-1.07-.43-2.13-.84-3.2-1.25a2,2,0,0,1-1.45-2.27Zm-2.75,7.41a2,2,0,0,1,2.69-.8l3,1.15a2,2,0,0,1,1.43,2.41c-.3.75-.61,1.49-.91,2.24a2,2,0,0,1-2.67.75L705.49,127a2,2,0,0,1-1.45-2.36Zm-2.72,7.33a1.94,1.94,0,0,1,2.61-.83l2.86,1.12a2,2,0,0,1,1.37,2.38c-.31.74-.61,1.49-.92,2.23a2,2,0,0,1-2.6.78l-2.78-1.09a1.94,1.94,0,0,1-1.38-2.33Zm-2.73,7.33a1.92,1.92,0,0,1,2.55-.86q1.38.53,2.76,1.08a1.91,1.91,0,0,1,1.29,2.35c-.3.75-.61,1.49-.91,2.23a1.9,1.9,0,0,1-2.53.81l-2.69-1a1.92,1.92,0,0,1-1.31-2.31Zm-2.72,7.33a1.88,1.88,0,0,1,2.48-.89l2.66,1a1.87,1.87,0,0,1,1.22,2.33c-.31.74-.61,1.48-.92,2.23a1.85,1.85,0,0,1-2.45.84l-2.59-1a1.86,1.86,0,0,1-1.24-2.28Zm22.72,22a195.36,195.36,0,0,0-24.82-11.53,1.5,1.5,0,1,1,1.06-2.78,196.65,196.65,0,0,1,25.21,11.7,1.5,1.5,0,1,1-1.45,2.61Zm6.17-62.74,3.44,1.51c1.18.53,1.83,1.63,1.46,2.44l-1.08,2.34c-.37.81-1.61,1-2.76.52s-2.23-1-3.35-1.47-1.83-1.56-1.49-2.39l1-2.37C723.16,103.38,724.41,103.12,725.6,103.63Zm-.75-4.26c.33-.79.66-1.58,1-2.37s1.62-1.08,2.85-.55,2.36,1,3.53,1.56,1.9,1.65,1.53,2.46l-1.08,2.35c-.37.81-1.63,1-2.82.49s-2.3-1-3.46-1.52S724.5,100.2,724.85,99.37Zm-2.34,11.45c1.11.47,2.22,1,3.33,1.46s1.77,1.59,1.39,2.4-.71,1.57-1.07,2.35a2,2,0,0,1-2.7.55c-1.08-.49-2.16-1-3.24-1.43s-1.77-1.53-1.42-2.36l1-2.38C720.14,110.59,721.36,110.32,722.51,110.82ZM719.42,118c1.08.46,2.15.93,3.22,1.41a2,2,0,0,1,1.33,2.38l-1.08,2.34a2,2,0,0,1-2.63.58c-1-.47-2.09-.93-3.14-1.38a2,2,0,0,1-1.35-2.33c.33-.79.67-1.58,1-2.38A2,2,0,0,1,719.42,118Zm-3,7.22,2.91,1.28a2,2,0,0,1,1.33,2.47c-.33.73-.67,1.46-1,2.19a2,2,0,0,1-2.69.64l-2.84-1.25a2,2,0,0,1-1.35-2.42l.93-2.22A2,2,0,0,1,716.43,125.22Zm-3.09,7.18,2.81,1.24a2,2,0,0,1,1.26,2.43l-1,2.19a2,2,0,0,1-2.63.68L711,137.73a2,2,0,0,1-1.29-2.39c.32-.74.63-1.48.94-2.22A2,2,0,0,1,713.34,132.4Zm-3.1,7.18,2.71,1.19a1.9,1.9,0,0,1,1.19,2.41l-1,2.19a1.91,1.91,0,0,1-2.56.7l-2.64-1.16a1.9,1.9,0,0,1-1.21-2.36l.93-2.22A1.9,1.9,0,0,1,710.24,139.58Zm-3.1,7.18,2.62,1.15a1.86,1.86,0,0,1,1.12,2.37l-1,2.19a1.86,1.86,0,0,1-2.49.74l-2.53-1.12a1.86,1.86,0,0,1-1.15-2.33c.32-.74.63-1.48.94-2.22A1.85,1.85,0,0,1,707.14,146.76ZM735.2,108l3.36,1.64c1.16.58,1.77,1.71,1.36,2.5l-1.17,2.3c-.41.79-1.65,1-2.78.4l-3.29-1.61c-1.14-.55-1.76-1.64-1.38-2.45s.73-1.55,1.09-2.33S734,107.44,735.2,108Zm-.58-4.29,1.1-2.34c.37-.8,1.66-1,2.87-.42s2.31,1.12,3.47,1.7,1.83,1.73,1.42,2.53l-1.17,2.29c-.41.8-1.68,1-2.85.38s-2.26-1.12-3.39-1.67S734.24,104.53,734.62,103.72Zm-2.81,11.33,3.26,1.6c1.13.56,1.7,1.67,1.3,2.46l-1.18,2.3c-.4.79-1.62,1-2.71.44l-3.19-1.57a2,2,0,0,1-1.32-2.41l1.1-2.33C729.45,114.73,730.68,114.51,731.81,115.05Zm-3.39,7c1.06.5,2.11,1,3.16,1.54s1.64,1.64,1.23,2.43l-1.17,2.3a2,2,0,0,1-2.65.47l-3.09-1.51a2,2,0,0,1-1.25-2.38l1.1-2.34A2,2,0,0,1,728.42,122.1Zm-3.29,7.09,2.86,1.4a2,2,0,0,1,1.22,2.52l-1.09,2.15a2,2,0,0,1-2.72.53l-2.79-1.37a2,2,0,0,1-1.24-2.47l1-2.18A2,2,0,0,1,725.13,129.19Zm-3.39,7.05q1.38.66,2.76,1.35a2,2,0,0,1,1.16,2.48l-1.1,2.15a1.94,1.94,0,0,1-2.65.56l-2.69-1.31A2,2,0,0,1,718,139l1-2.19A1.94,1.94,0,0,1,721.74,136.24Zm-3.39,7,2.66,1.3A1.91,1.91,0,0,1,722.1,147l-1.1,2.14a1.89,1.89,0,0,1-2.58.6l-2.59-1.27a1.9,1.9,0,0,1-1.11-2.41l1-2.18A1.91,1.91,0,0,1,718.35,143.28Zm-3.39,7c.86.42,1.71.83,2.56,1.26a1.85,1.85,0,0,1,1,2.42l-1.09,2.14a1.86,1.86,0,0,1-2.52.64c-.83-.42-1.66-.82-2.49-1.22a1.86,1.86,0,0,1-1-2.38l1-2.18A1.87,1.87,0,0,1,715,150.32Zm9.9,9.81a1.85,1.85,0,0,1-2.54.53l-2.44-1.33a1.85,1.85,0,0,1-.94-2.41l1.11-2.14a1.87,1.87,0,0,1,2.57-.57l2.51,1.36a1.87,1.87,0,0,1,.92,2.46Zm3.85-6.81a1.91,1.91,0,0,1-2.61.49l-2.53-1.37a1.91,1.91,0,0,1-1-2.46l1.12-2.13a1.9,1.9,0,0,1,2.63-.54c.87.47,1.74.94,2.6,1.42a1.89,1.89,0,0,1,1,2.49Zm3.84-6.81a2,2,0,0,1-2.67.46c-.88-.49-1.75-1-2.63-1.43a2,2,0,0,1-1.08-2.49l1.11-2.14a2,2,0,0,1,2.7-.49c.91.48,1.81,1,2.7,1.46a2,2,0,0,1,1.06,2.54C733.34,145.12,733,145.82,732.55,146.51Zm3.85-6.8a2,2,0,0,1-2.75.41c-.9-.5-1.81-1-2.72-1.48a2,2,0,0,1-1.15-2.52c.38-.71.75-1.43,1.12-2.14a2,2,0,0,1,2.77-.46c.93.5,1.86,1,2.79,1.52a2,2,0,0,1,1.12,2.57Zm3.8-6.74a2,2,0,0,1-2.67.36l-3-1.64a2,2,0,0,1-1.15-2.43c.4-.76.8-1.52,1.19-2.29a2,2,0,0,1,2.7-.4l3.09,1.68a2,2,0,0,1,1.13,2.48C741,131.47,740.62,132.22,740.2,133Zm3.84-6.81a2,2,0,0,1-2.73.33c-1-.57-2.07-1.14-3.12-1.7a2,2,0,0,1-1.22-2.46l1.2-2.29c.41-.79,1.65-1,2.75-.37l3.2,1.73c1.1.61,1.63,1.74,1.19,2.52Zm3.85-6.8c-.44.77-1.69.9-2.8.28s-2.14-1.17-3.22-1.74-1.69-1.71-1.28-2.5l1.19-2.29c.41-.79,1.68-1,2.82-.34s2.2,1.19,3.3,1.79,1.69,1.77,1.25,2.55Zm3.84-6.81c-.44.77-1.72.88-2.86.25s-2.21-1.21-3.32-1.8-1.76-1.75-1.35-2.54l1.2-2.28c.41-.79,1.7-.94,2.88-.31s2.27,1.22,3.4,1.85,1.76,1.81,1.32,2.58Zm4.77-7.38a264.47,264.47,0,0,0-37.59-17.59c-.53-.2-.85-.64-.73-1s.67-.47,1.2-.27A266.64,266.64,0,0,1,757.16,104c.5.28.75.77.56,1.09S757,105.45,756.5,105.17Zm1.82-3.21a269.05,269.05,0,0,0-38.11-17.83c-.54-.21-.87-.65-.74-1s.67-.46,1.21-.26A270.69,270.69,0,0,1,759,100.8c.5.28.76.77.57,1.09S758.82,102.25,758.32,102Zm1.82-3.2A272.75,272.75,0,0,0,721.5,80.67c-.54-.2-.88-.64-.75-1s.68-.46,1.22-.26A273.76,273.76,0,0,1,760.8,97.59c.51.29.77.78.59,1.11S760.64,99,760.14,98.76ZM762,95.55A277.34,277.34,0,0,0,722.8,77.22c-.55-.2-.89-.65-.77-1s.69-.46,1.24-.25a277.29,277.29,0,0,1,39.35,18.42c.51.29.78.79.6,1.11S762.47,95.84,762,95.55Z"/><path class="cls-9" d="M354.55,295.16c-.69,1.75-1.37,3.51-2,5.27a1.11,1.11,0,0,1-1.37.73l-45.94-16.83a1.17,1.17,0,0,1-.45-1.56,1.17,1.17,0,0,0-.44-1.56l-3.2-1.2c-1.07-.41-2.39.47-2.93,2a305.54,305.54,0,0,0-12.83,45.78c-.31,1.56.36,3,1.49,3.21l3.35.63c.52.1,1.06-.4,1.19-1.1s.68-1.2,1.2-1.1l48,9.48a1.11,1.11,0,0,1,.79,1.34c-.36,1.85-.69,3.7-1,5.55a1.1,1.1,0,0,0,.82,1.31l2,.34a1.1,1.1,0,0,0,1.2-1c.1-.6.2-1.2.31-1.8l23.48,4.16q1.15-6.54,2.71-13a8.44,8.44,0,1,1,4.55-16.25q2-6.33,4.45-12.52l-22.23-8.65c.22-.57.45-1.13.67-1.7a1.09,1.09,0,0,0-.53-1.44l-1.91-.77A1.1,1.1,0,0,0,354.55,295.16Zm-45.28,2.76c.07-.24.15-.48.23-.72L303,295.07q.92-2.82,1.89-5.61l6.49,2.26c.09-.24.17-.48.25-.71l.76.26q-1.2,3.44-2.32,6.9Zm11.55,3.73.23-.69-6.54-2.13c.58-1.8,1.19-3.59,1.81-5.38l6.5,2.26.23-.69.77.27c-.77,2.19-1.51,4.4-2.23,6.61Zm11.56,3.73c.07-.22.14-.44.22-.66l-6.54-2.13c.56-1.72,1.13-3.44,1.73-5.15l6.5,2.26c.07-.22.15-.44.23-.66l.76.27c-.74,2.1-1.45,4.2-2.13,6.32Zm11.56,3.73c.07-.21.14-.42.2-.63l-6.54-2.13q.81-2.46,1.66-4.92l6.5,2.26c.07-.21.14-.42.22-.63l.76.27q-1,3-2,6Zm-37.59-1.59.21-.73-6.61-1.9c.54-1.9,1.11-3.79,1.69-5.67l6.57,2c.08-.24.15-.48.23-.72l.77.24c-.73,2.32-1.42,4.64-2.09,7ZM318,310.85c.06-.23.13-.46.2-.7l-6.61-1.9q.78-2.73,1.62-5.44l6.57,2c.07-.23.15-.46.22-.7l.77.25c-.7,2.21-1.36,4.44-2,6.67Zm11.68,3.33c.06-.22.12-.44.19-.66l-6.61-1.91c.5-1.74,1-3.47,1.55-5.21l6.57,2,.21-.66.77.24q-1,3.18-1.91,6.38Zm11.68,3.33.18-.63L335,315c.48-1.66,1-3.32,1.49-5l6.57,2c.06-.21.13-.42.19-.63l.77.24c-.63,2-1.24,4.06-1.82,6.1Zm-37.63-.3.18-.73-6.67-1.67q.72-2.88,1.5-5.73l6.64,1.81c.06-.25.13-.49.2-.73l.78.21c-.65,2.34-1.26,4.69-1.85,7Zm11.79,2.93c.06-.23.12-.47.17-.7l-6.67-1.68q.69-2.75,1.44-5.49l6.64,1.81c.06-.23.12-.47.19-.7l.78.22q-.93,3.34-1.77,6.74Zm11.79,2.93c.05-.22.11-.45.16-.67l-6.67-1.68q.66-2.64,1.38-5.26l6.64,1.81.18-.67.78.22c-.59,2.14-1.16,4.29-1.69,6.44ZM339.12,326c.06-.22.11-.43.16-.64l-6.67-1.68c.42-1.68.86-3.35,1.32-5l6.63,1.81.18-.64.78.22c-.57,2-1.1,4.09-1.61,6.15Zm-37.61,1c.05-.24.1-.49.16-.73l-6.73-1.45q.63-2.9,1.3-5.77l6.7,1.57c.06-.24.11-.49.17-.73l.79.19c-.57,2.35-1.1,4.72-1.6,7.09Zm11.88,2.52.15-.7-6.72-1.45c.39-1.85.81-3.7,1.24-5.54l6.7,1.58c.06-.23.11-.47.17-.7l.78.18q-.81,3.39-1.53,6.8ZM325.27,332l.15-.68-6.73-1.45q.57-2.66,1.2-5.3l6.69,1.58c.05-.23.11-.45.16-.68l.79.19q-.78,3.24-1.47,6.5Zm11.88,2.52c.05-.22.09-.43.14-.65l-6.72-1.45q.54-2.54,1.14-5.06L338.4,329c.05-.21.1-.43.16-.64l.78.19q-.73,3.09-1.4,6.2Zm19.17,2.08c-.29,1.36-.58,2.72-.86,4.07l-3.71-.75c.28-1.38.57-2.76.88-4.13Zm-4.16-.92c-.31,1.38-.6,2.76-.88,4.15l-3.71-.75c.29-1.41.58-2.81.89-4.21Zm5.22-3.63c-.33,1.35-.64,2.7-.94,4.05l-3.7-.82c.31-1.38.63-2.75,1-4.12Zm-4.15-1c-.33,1.37-.65,2.75-1,4.12l-3.69-.82c.31-1.4.63-2.8,1-4.19Zm6.23-7c-.37,1.34-.73,2.67-1.08,4l-3.67-1c.36-1.36.72-2.72,1.1-4.08Zm-4.11-1.15c-.38,1.36-.75,2.73-1.1,4.09l-3.67-.95c.36-1.39.74-2.77,1.12-4.15Zm5.41-3.34c-.4,1.33-.79,2.66-1.16,4l-3.65-1c.38-1.35.78-2.71,1.18-4.06Zm-4.09-1.22c-.4,1.35-.8,2.7-1.18,4.06l-3.64-1c.38-1.38.78-2.76,1.2-4.13ZM344.11,335.7l-1.57-.33a248.63,248.63,0,0,1,8.46-30.2l1.52.53A248.19,248.19,0,0,0,344.11,335.7Zm19.17-24c-.45,1.31-.88,2.63-1.3,3.95l-3.61-1.15c.43-1.35.87-2.68,1.32-4Zm-4-1.37c-.46,1.33-.9,2.68-1.33,4l-3.6-1.15c.43-1.37.88-2.73,1.34-4.09Zm5.58-3c-.47,1.3-.93,2.61-1.38,3.92L359.86,310c.45-1.33.92-2.66,1.4-4Zm-4-1.45q-.72,2-1.41,4l-3.58-1.22c.46-1.36.94-2.71,1.43-4.06Z"/><path class="cls-4" d="M591.9,657.61c1.82.12,3.64.21,5.46.26a1.39,1.39,0,0,1,1.17,1.44q1.05,33.56,2.11,67.12a1.21,1.21,0,0,1-1.23,1.28,1.22,1.22,0,0,0-1.23,1.28l.12,4.68a3,3,0,0,0,2.85,2.93,208.89,208.89,0,0,0,45.67-4,3,3,0,0,0,2.31-3.37l-.69-4.64a1.2,1.2,0,0,0-1.43-1,1.21,1.21,0,0,1-1.43-1.06q-4.71-33.24-9.44-66.48a1.39,1.39,0,0,1,.9-1.62c1.78-.37,3.56-.76,5.34-1.19a1.42,1.42,0,0,0,.86-1.66c-.15-.92-.31-1.85-.46-2.78-.13-.77-.71-1.27-1.3-1.12l-1.73.4q-2.52-16.15-5-32.31-6.27,1.44-12.62,2.34c.75,6.35-2.41,12.06-7.09,12.46s-8.78-4.68-9.12-11.06q-6.4.21-12.84-.13l.57,32.69-1.77-.1c-.61,0-1.1.55-1.09,1.33l0,2.82A1.4,1.4,0,0,0,591.9,657.61Zm19.36,57.47-.73,0,.54,9.44c-1.9.05-3.81.07-5.71.07-.14-3.15-.27-6.29-.41-9.44h-.73c0-.37,0-.74,0-1.11q3.51,0,7-.09Zm-1-16.66-.7,0,.54,9.44c-1.82,0-3.65.07-5.48.06-.14-3.14-.27-6.29-.41-9.43h-.7c0-.37,0-.74,0-1.11,2.24,0,4.49,0,6.73-.09Zm-1-16.66-.67,0,.54,9.43c-1.75,0-3.5.07-5.25.07q-.2-4.71-.41-9.44h-.66c0-.37,0-.74-.05-1.11q3.23,0,6.43-.08C609.26,681,609.28,681.39,609.3,681.76Zm-1-16.66-.64,0,.54,9.43c-1.67.05-3.34.07-5,.07l-.4-9.44h-.64c0-.37,0-.74,0-1.11,2,0,4.1,0,6.14-.08C608.28,664.36,608.3,664.73,608.32,665.1Zm12.6,49.45-.72.05c.25,3.14.51,6.29.76,9.43q-2.84.21-5.69.35c-.21-3.14-.42-6.29-.64-9.43l-.72,0c0-.37,0-.74-.08-1.11q3.51-.15,7-.43Zm-1.38-16.64-.7.05c.26,3.14.52,6.29.77,9.43-1.82.14-3.64.25-5.46.34-.21-3.15-.43-6.29-.64-9.44l-.7,0c0-.37,0-.74-.07-1.11q3.36-.15,6.71-.42Zm-1.38-16.64-.67.05c.26,3.14.51,6.29.77,9.43-1.74.13-3.49.24-5.23.32-.22-3.14-.43-6.29-.64-9.43l-.67,0c0-.37,0-.74-.07-1.11q3.21-.13,6.41-.39C618.1,680.53,618.13,680.9,618.16,681.27Zm-1.39-16.64-.63,0c.25,3.14.51,6.29.76,9.43-1.66.12-3.33.23-5,.31l-.63-9.44-.64,0c0-.37,0-.73-.07-1.1q3.06-.13,6.12-.38Zm13.78,48.91-.73.09c.33,3.14.66,6.27,1,9.41q-2.84.35-5.67.63l-.87-9.42-.72.07c0-.37-.07-.74-.1-1.11,2.32-.21,4.65-.47,7-.77ZM628.76,697l-.69.08,1,9.41q-2.71.33-5.44.6c-.29-3.14-.57-6.28-.86-9.42l-.7.07c0-.37-.06-.74-.1-1.1q3.35-.32,6.68-.75ZM627,680.35l-.67.08c.34,3.14.67,6.27,1,9.41-1.74.21-3.47.41-5.21.58q-.44-4.71-.86-9.42l-.67.06c0-.37-.07-.73-.1-1.1q3.19-.3,6.39-.71Zm-1.79-16.6-.63.08,1,9.41c-1.65.2-3.31.39-5,.55q-.42-4.71-.86-9.42l-.63.06-.1-1.1c2-.19,4.07-.42,6.09-.68Zm14.93,48.31-.72.13c.41,3.12.81,6.25,1.22,9.37q-2.82.5-5.64.91-.56-4.69-1.09-9.39l-.72.11c0-.37-.09-.74-.13-1.11q3.48-.5,6.93-1.11Zm-2.18-16.53-.69.12c.4,3.12.81,6.25,1.22,9.37q-2.7.48-5.42.87-.54-4.7-1.09-9.39l-.69.1-.12-1.1q3.33-.46,6.64-1.07ZM635.75,679l-.66.11q.61,4.7,1.22,9.37-2.58.45-5.18.84c-.36-3.13-.73-6.26-1.09-9.39l-.66.09c0-.36-.08-.73-.13-1.1,2.13-.3,4.24-.64,6.36-1C635.66,678.26,635.7,678.63,635.75,679Zm-2.18-16.54-.63.11c.41,3.13.81,6.25,1.22,9.37-1.65.29-3.3.56-4.95.8q-.56-4.69-1.09-9.39l-.63.09c0-.37-.09-.73-.13-1.1,2-.29,4-.61,6.07-1C633.47,661.73,633.52,662.1,633.57,662.46Zm-5.29-25.79c1.32-.22,2.64-.46,4-.71l.71,5.15c-1.34.25-2.68.5-4,.72C628.71,640.11,628.5,638.39,628.28,636.67Zm.73,5.82c1.35-.23,2.69-.47,4-.73l.71,5.15c-1.36.26-2.72.51-4.09.73C629.45,645.92,629.23,644.2,629,642.49Zm-5.19-5.14c1.33-.18,2.65-.38,4-.6.22,1.72.43,3.44.64,5.16-1.34.22-2.68.43-4,.61C624.21,640.8,624,639.08,623.82,637.35Zm.65,5.83c1.35-.19,2.7-.39,4-.61.21,1.72.42,3.44.64,5.16-1.37.22-2.74.43-4.11.62C624.86,646.63,624.67,644.9,624.47,643.18Zm-8.57-4.93c1.33-.12,2.66-.25,4-.4.17,1.72.34,3.45.52,5.18-1.35.15-2.7.29-4.06.4Zm.51,5.84c1.36-.12,2.71-.25,4.06-.41.17,1.73.35,3.46.52,5.18-1.38.16-2.75.3-4.13.42Zm-5-5.51c1.33-.08,2.67-.17,4-.29.15,1.73.29,3.46.44,5.19-1.35.11-2.71.21-4.06.29C611.66,642,611.54,640.31,611.41,638.58Zm.43,5.85c1.36-.08,2.71-.18,4.07-.29.15,1.72.3,3.45.44,5.18-1.37.12-2.75.22-4.13.3C612.09,647.89,612,646.16,611.84,644.43ZM632,652.92c.09.73.19,1.46.28,2.19a168.94,168.94,0,0,1-30.12,2.61l-.09-2.21A167.82,167.82,0,0,0,632,652.92Zm-28.56-14.06c1.34,0,2.67,0,4-.09.11,1.73.21,3.46.32,5.19q-2,.07-4.08.09C603.61,642.32,603.52,640.59,603.44,638.86Zm.28,5.85c1.36,0,2.73,0,4.09-.09.1,1.73.21,3.46.31,5.19-1.38.05-2.76.08-4.15.1C603.89,648.17,603.81,646.44,603.72,644.71Zm-4.8-5.87c1.34,0,2.68,0,4,0,.08,1.73.17,3.46.25,5.2-1.36,0-2.73,0-4.09,0Zm.2,5.85c1.37,0,2.73,0,4.1,0l.24,5.19c-1.38,0-2.77,0-4.16,0Z"/><path class="cls-4" d="M865.17,350.48c-.38-2.47-.78-4.94-1.22-7.4a1.47,1.47,0,0,1,1.07-1.76l64-11.61c.7-.13,1.4.53,1.57,1.48s.86,1.61,1.56,1.49l4.47-.77c1.5-.26,2.42-2.15,2-4.23a409,409,0,0,0-16.1-61.09c-.7-2-2.44-3.19-3.87-2.67l-4.27,1.53a1.58,1.58,0,0,0-.62,2.07,1.55,1.55,0,0,1-.63,2.06L851.76,291a1.47,1.47,0,0,1-1.8-1q-1.26-3.53-2.59-7a1.46,1.46,0,0,0-1.82-.95L843,283a1.44,1.44,0,0,0-.73,1.9l.85,2.28-29.7,11q3.08,8.28,5.65,16.72a11.22,11.22,0,1,1,5.71,21.69q1.94,8.61,3.33,17.34l31.29-5c.12.8.25,1.6.37,2.4a1.45,1.45,0,0,0,1.58,1.3l2.7-.4A1.45,1.45,0,0,0,865.17,350.48Zm50-33.62.21,1,8.93-2q.84,3.84,1.61,7.69l-9,1.79c.06.32.13.65.19,1l-1.05.21c-.62-3.16-1.28-6.32-2-9.46Zm-15.76,3.5.21.94,8.93-2q.81,3.68,1.54,7.38l-9,1.78c.06.32.12.63.19.95l-1.06.2q-.88-4.54-1.89-9.06Zm-15.75,3.5c.07.3.13.6.2.9l8.93-2q.76,3.52,1.47,7.07l-9,1.78.18.9-1,.21q-.86-4.35-1.82-8.67ZM868,327.36c.06.28.12.57.19.86l8.92-2c.5,2.24,1,4.5,1.42,6.76l-9,1.78c.06.28.12.57.17.86l-1,.21q-.81-4.15-1.73-8.28Zm44.14-23.47c.09.32.17.65.25,1l8.86-2.26q1,3.81,1.87,7.63l-8.9,2.09c.08.33.16.66.23,1l-1,.24q-1.1-4.69-2.31-9.38Zm-15.62,4,.24.93,8.85-2.26c.63,2.43,1.22,4.88,1.8,7.32l-8.9,2.09c.07.32.15.63.22.94l-1,.24q-1-4.5-2.21-9Zm-15.63,4c.08.3.16.6.23.89l8.86-2.26c.59,2.33,1.17,4.67,1.72,7l-8.9,2.09.21.9-1,.24c-.67-2.87-1.38-5.74-2.11-8.6Zm-15.62,4c.07.29.15.57.22.85l8.85-2.26q.86,3.34,1.65,6.7l-8.9,2.09c.07.29.13.57.2.86l-1,.24q-1-4.11-2-8.21Zm43.31-25c.1.32.19.64.29,1l8.77-2.57c.73,2.51,1.45,5,2.13,7.56l-8.82,2.4c.09.32.18.64.26,1l-1,.28c-.84-3.11-1.71-6.21-2.63-9.3Zm-15.47,4.58.27.92L902.1,294q1.06,3.63,2,7.26l-8.82,2.4c.08.31.16.62.25.92l-1,.28q-1.2-4.47-2.51-8.91Zm-15.48,4.57.26.89,8.77-2.57q1,3.47,2,6.95l-8.82,2.39.24.89-1,.28q-1.15-4.27-2.41-8.52Zm-15.48,4.58c.09.28.17.56.25.84l8.77-2.57c.65,2.21,1.27,4.43,1.88,6.65l-8.82,2.39c.07.28.15.57.23.85l-1,.28q-1.1-4.08-2.29-8.14Zm42.43-26.45c.11.32.21.64.32.95l8.68-2.87q1.23,3.74,2.39,7.5l-8.73,2.69c.1.32.19.64.29,1l-1,.32q-1.41-4.62-3-9.21Zm-15.31,5.11c.1.3.2.6.31.91l8.67-2.87c.79,2.39,1.56,4.78,2.3,7.19l-8.73,2.69c.09.31.19.62.28.92l-1,.32q-1.37-4.44-2.82-8.83Zm-15.31,5.1c.1.29.2.58.29.87l8.68-2.86c.76,2.28,1.49,4.58,2.2,6.88l-8.73,2.69.27.88-1,.32q-1.29-4.24-2.69-8.44Zm-15.31,5.11c.1.27.19.55.28.83l8.68-2.87q1.08,3.28,2.1,6.58l-8.73,2.7c.08.28.17.56.26.84l-1,.31q-1.23-4-2.57-8Zm-23.37,10.51q-.86-2.64-1.75-5.25l4.76-1.64c.61,1.78,1.2,3.55,1.78,5.33Zm5.39-1.75c-.57-1.79-1.17-3.57-1.78-5.34l4.76-1.64q.93,2.7,1.81,5.42Zm-3.53,7.67q-.8-2.64-1.65-5.28l4.79-1.54q.85,2.67,1.67,5.36Zm5.43-1.64q-.82-2.7-1.68-5.37l4.79-1.55q.87,2.73,1.7,5.46Zm-2.43,12.21q-.71-2.67-1.47-5.33l4.84-1.37c.52,1.8,1,3.6,1.49,5.41Zm5.48-1.45c-.48-1.82-1-3.62-1.49-5.43l4.84-1.37q.78,2.75,1.51,5.51Zm-4,7.46q-.66-2.68-1.36-5.35l4.87-1.28q.71,2.72,1.37,5.44Zm5.5-1.34q-.66-2.73-1.38-5.45l4.87-1.28q.72,2.76,1.4,5.54ZM849.86,297l2-.67a331.9,331.9,0,0,1,10.63,40.3l-2.1.41A331.74,331.74,0,0,0,849.86,297ZM844,337.37q-.56-2.7-1.17-5.4l4.91-1.11q.62,2.75,1.19,5.49Zm5.55-1.15c-.38-1.83-.77-3.67-1.19-5.5l4.91-1.1q.63,2.79,1.21,5.58Zm-4.35,7.25q-.51-2.73-1.06-5.43l4.93-1q.55,2.75,1.07,5.51Zm5.57-1q-.51-2.78-1.08-5.53l4.93-1q.57,2.81,1.1,5.62Z"/><path class="cls-12" d="M881,395l0-.09a10.16,10.16,0,0,0,1.48.15,9.34,9.34,0,0,0,9.27-7.47l.47,0a11.11,11.11,0,0,0,.29-22.22h-.47a9.34,9.34,0,0,0-9.07-7.71,10.31,10.31,0,0,0-1.48.11l0-.09a4.26,4.26,0,0,0-8.07,1.86l-.22,16.68L873,393A4.26,4.26,0,0,0,881,395Z"/><path class="cls-13" d="M888.26,376.59c-.3.58-.59.41-.88.44l-.87,0-1.74,0-3.48.07-7,.14-13.94.24-13.93.19-13.93.09.05-4.12,13.93.47,13.92.55,13.93.61,7,.32,3.48.16,1.74.08.87,0c.29,0,.58-.13.86.47Z"/><path class="cls-14" d="M370,160.71a2.65,2.65,0,0,0-.21-.26,4.78,4.78,0,0,0-6.86-.42l-1,.88a5.93,5.93,0,0,0-8.26.34,6.42,6.42,0,0,0-1.29,1.77c-.08-.09-.15-.18-.24-.27-3-3-8.21-2.68-11.49.95a9.27,9.27,0,0,0-1.9,3.2,12.22,12.22,0,0,0-7.66,4.58,11.48,11.48,0,0,0-1.54,12.4,9.28,9.28,0,0,0-.67.85c-2.86,4.17-1.86,9.55,2,11.84a7.27,7.27,0,0,0,1.29.62,4.73,4.73,0,0,0,2.14,5.39l.3.15A159.89,159.89,0,0,1,370,160.71Z"/><path class="cls-15" d="M709.42,49.6l.12-.31a4.78,4.78,0,0,0-3.22-6.07l-1.26-.38A5.92,5.92,0,0,0,700.47,36a6.53,6.53,0,0,0-2.18-.18c0-.11.07-.22.1-.34,1-4.11-2-8.41-6.8-9.32a9.47,9.47,0,0,0-3.72.05A12.14,12.14,0,0,0,680,22a11.48,11.48,0,0,0-11.39,5.14,9.38,9.38,0,0,0-1.08-.13c-5-.26-9.11,3.4-9.07,7.86a7.35,7.35,0,0,0,.15,1.42A4.75,4.75,0,0,0,655.09,41l0,.33A160,160,0,0,1,709.42,49.6Z"/><path class="cls-14" d="M789.46,621.41a5.31,5.31,0,0,0,4.36,1.83,6,6,0,0,0,.44.78,5,5,0,0,0,7.2.84,5.68,5.68,0,0,0,1.47-1.71c2.86,2.33,7.46,2.13,10.71-.88a8.32,8.32,0,0,0,2-10.24,7.31,7.31,0,0,0,3.55-2.24,6.71,6.71,0,0,0-.43-9.7,5.34,5.34,0,0,0-1.5-5.25A111.82,111.82,0,0,1,789.46,621.41Z"/><path class="cls-15" d="M306.27,386.43a5.33,5.33,0,0,0-4.45,1.62,4.68,4.68,0,0,0-.85-.27,5,5,0,0,0-5.84,4.27,5.69,5.69,0,0,0,.08,2.26c-3.69.24-6.92,3.51-7.26,7.92-.34,4.24,2.13,7.85,5.52,8.84a7.43,7.43,0,0,0-1.08,4.06A6.72,6.72,0,0,0,299.3,422a5.34,5.34,0,0,0,4.67,2.84A112,112,0,0,1,306.27,386.43Z"/><path class="cls-14" d="M697.32,686.1c0,.14,0,.27.07.41a5.94,5.94,0,0,0,7.42,4.22l1.57-.44a7.37,7.37,0,0,0,9.39,4.16,8.15,8.15,0,0,0,2.41-1.27c0,.14.07.28.12.42,1.65,5,7.68,7.5,13.34,5.25a11.43,11.43,0,0,0,3.86-2.52,15.08,15.08,0,0,0,11-.91c5.54-2.64,8.71-7.92,8.52-13a12.41,12.41,0,0,0,1.22-.59c5.47-3.08,7.31-9.63,4.29-14.28a10.13,10.13,0,0,0-1.1-1.4,5.87,5.87,0,0,0,.57-7.18c-.08-.12-.17-.22-.25-.33A198.61,198.61,0,0,1,697.32,686.1Z"/><path class="cls-15" d="M656.26,671.89a5.3,5.3,0,0,0,2.62,4,4.4,4.4,0,0,0-.07.89,5,5,0,0,0,5.52,4.69,5.62,5.62,0,0,0,2.18-.62c1.09,3.54,5,5.92,9.4,5.22,4.2-.66,7.13-3.91,7.3-7.44a7.37,7.37,0,0,0,4.2.11,6.71,6.71,0,0,0,5-8.31,5.37,5.37,0,0,0,1.67-5.21A111.74,111.74,0,0,1,656.26,671.89Z"/><path class="cls-14" d="M856.74,232.42a3.12,3.12,0,0,0,.39-.15,5.93,5.93,0,0,0,2.92-8l-.7-1.47a7.37,7.37,0,0,0,2.51-10,8.14,8.14,0,0,0-1.65-2.16l.39-.19c4.65-2.47,6.1-8.83,2.93-14a11.43,11.43,0,0,0-3.13-3.38,15.12,15.12,0,0,0-2.76-10.74c-3.54-5-9.28-7.25-14.22-6.22-.24-.37-.5-.74-.78-1.1-4-4.87-10.72-5.58-14.8-1.82a9.22,9.22,0,0,0-1.19,1.32,5.88,5.88,0,0,0-7.18.65l-.29.3A198.32,198.32,0,0,1,856.74,232.42Z"/><path class="cls-15" d="M885.83,259.07a5.37,5.37,0,0,0,3.45-3.25,5.45,5.45,0,0,0,.89-.08,5,5,0,0,0,3.68-6.24,5.44,5.44,0,0,0-1-2c3.29-1.68,5-6,3.55-10.15-1.36-4-5.05-6.38-8.56-5.95a7.42,7.42,0,0,0-.6-4.15,6.72,6.72,0,0,0-9-3.55,5.36,5.36,0,0,0-5.41-.77A112,112,0,0,1,885.83,259.07Z"/><path class="cls-9" d="M861.57,269.76a498.33,498.33,0,0,0-58.41-85.41,2.83,2.83,0,0,0-4-.56L797,185.67a2.84,2.84,0,0,0-.1,4h0a2.8,2.8,0,0,1-.14,4l-34.42,28.86q8.52,10.17,16.42,20.82a16.84,16.84,0,1,1,19,27.8q7.07,11.22,13.45,22.85l39.37-21.61a2.82,2.82,0,0,1,3.76,1.32,2.84,2.84,0,0,0,3.75,1.35l2.54-1.35A2.83,2.83,0,0,0,861.57,269.76ZM810.2,205.11a2.89,2.89,0,0,1,3.51,4.56l-3.8,2.9q-1.73-2.26-3.48-4.51Zm-5.76-7.24a2.73,2.73,0,0,1,3.83.62h0a2.74,2.74,0,0,1-.23,3.87l-3.75,3q-1.77-2.24-3.57-4.45ZM791.6,228.69a3,3,0,0,1-4.19-.66q-1.77-2.31-3.57-4.6a3,3,0,0,1,.4-4.23l4.39-3.49a3,3,0,0,1,4.24.62q1.85,2.35,3.66,4.72a3,3,0,0,1-.46,4.26ZM807,223.07q-6.51-8.88-13.43-17.46a1.47,1.47,0,1,1,2.29-1.84q7,8.63,13.51,17.56a1.47,1.47,0,1,1-2.37,1.74Zm8.38-3.15c-1.12-1.53-2.26-3.06-3.39-4.58l3.83-2.87a2.89,2.89,0,0,1,3.42,4.62Zm16.45,15.22A2.89,2.89,0,0,1,835,240l-4,2.6q-1.54-2.38-3.12-4.76Zm-5.19-7.66a2.89,2.89,0,0,1,3.24,4.75l-4,2.68q-1.6-2.35-3.22-4.7Zm-5.34-7.56a2.89,2.89,0,0,1,3.33,4.69l-3.91,2.75c-1.09-1.55-2.2-3.1-3.31-4.64Zm1.9,26.71q-6-9.24-12.34-18.21a1.48,1.48,0,1,1,2.4-1.71q6.42,9,12.42,18.33a1.48,1.48,0,1,1-2.48,1.59Zm23.35,12.05a2.9,2.9,0,0,1,2.88,5L845.28,266c-.94-1.65-1.89-3.3-2.85-4.93Zm-4.76-7.94a2.89,2.89,0,0,1,3,4.93l-4.11,2.45q-1.45-2.44-2.94-4.88Zm-4.91-7.85a2.89,2.89,0,0,1,3.07,4.87l-4.06,2.53q-1.51-2.41-3-4.82Zm-14.66,31.86a3,3,0,0,1-4.09-1.16q-1.47-2.5-3-5a3,3,0,0,1,.91-4.15l4.77-2.94a3,3,0,0,1,4.14,1.12q1.54,2.55,3.06,5.12a3,3,0,0,1-1,4.18ZM838,271.13q-5.4-9.58-11.23-18.93a1.47,1.47,0,1,1,2.49-1.55q5.88,9.39,11.31,19a1.48,1.48,0,1,1-2.57,1.44Z"/><path class="cls-6" d="M370.06,204.94a9.54,9.54,0,0,0-8.15,4.43,8.38,8.38,0,0,0-1.14,3.69,1.15,1.15,0,0,1-1.83.86l-2.12-1.56a1.15,1.15,0,0,0-1.6.25l-.08.1a1.16,1.16,0,0,0,.25,1.61l2.12,1.56a1.15,1.15,0,0,1-.27,2,8.47,8.47,0,0,0-3.19,2.2,9.62,9.62,0,0,0-1.71,9.34,1.05,1.05,0,0,0,1.49.63h0a1.34,1.34,0,0,0,.65-1.5,7.19,7.19,0,0,1,1.28-6.93,6.15,6.15,0,0,1,2.58-1.69,6.7,6.7,0,0,1,6.1,1.05l40.45,29.7s0,0,0,0L404,252a1.85,1.85,0,0,0,.18,2.46,1.76,1.76,0,0,0,2.59-.27l1.68-2.3.08-.1,1.63-2.21a1.84,1.84,0,0,0-.18-2.43,1.77,1.77,0,0,0-2.61.26l-1,1.34s0,0,0,0L365.88,219a6.69,6.69,0,0,1-2.83-5.51,6.14,6.14,0,0,1,.84-3,7.23,7.23,0,0,1,6.35-3.3,1.15,1.15,0,0,0,1.12-1.21A1.23,1.23,0,0,0,370.06,204.94Z"/><path class="cls-6" d="M361,232.54c1.78,1.31,2.62,3.18,1.88,4.19s-2.78.76-4.56-.54-2.63-3.19-1.89-4.2S359.2,231.23,361,232.54Z"/><path class="cls-6" d="M378.56,208.59c1.78,1.31,2.63,3.19,1.89,4.19s-2.79.77-4.57-.54-2.62-3.19-1.89-4.19S376.78,207.28,378.56,208.59Z"/><path class="cls-3" d="M379.76,209.17a2.3,2.3,0,0,0-.76-3.37c-3.89-2.17-7.66-2.54-9-.7s.12,5.34,3.36,8.4a2.3,2.3,0,0,0,3.44-.29Z"/><path class="cls-3" d="M362.18,233.12a2.32,2.32,0,0,0-.76-3.38c-3.89-2.16-7.66-2.54-9-.69s.13,5.33,3.36,8.39a2.3,2.3,0,0,0,3.45-.28Z"/><path class="cls-6" d="M764.06,628.16a9.57,9.57,0,0,0,9.1-1.78,8.47,8.47,0,0,0,2.2-3.19,1.15,1.15,0,0,1,2-.27l1.56,2.12a1.16,1.16,0,0,0,1.61.25l.1-.08a1.15,1.15,0,0,0,.25-1.6l-1.56-2.12a1.15,1.15,0,0,1,.86-1.83,8.38,8.38,0,0,0,3.69-1.14,9.6,9.6,0,0,0,4.43-8.4,1.05,1.05,0,0,0-1.23-1h0a1.36,1.36,0,0,0-1.07,1.24,7.21,7.21,0,0,1-3.29,6.23,6.21,6.21,0,0,1-3,.84,6.69,6.69,0,0,1-5.51-2.83L744.53,574.1a0,0,0,0,1,0,0l1.24-.91a1.85,1.85,0,0,0,.57-2.41,1.75,1.75,0,0,0-2.55-.51l-2.29,1.68-.11.08-2.21,1.63a1.83,1.83,0,0,0-.56,2.37,1.77,1.77,0,0,0,2.57.53l1.34-1s0,0,0,0L772.27,616a6.72,6.72,0,0,1,1,6.1,6.15,6.15,0,0,1-1.69,2.58,7.21,7.21,0,0,1-7,1.24,1.15,1.15,0,0,0-1.43.82A1.22,1.22,0,0,0,764.06,628.16Z"/><path class="cls-6" d="M781,604.55c-1.31-1.78-1.55-3.83-.54-4.57s2.88.11,4.19,1.89,1.55,3.83.54,4.57S782.3,606.33,781,604.55Z"/><path class="cls-6" d="M757,622.13c-1.3-1.78-1.55-3.83-.54-4.57s2.88.11,4.19,1.89,1.55,3.83.55,4.57S758.35,623.91,757,622.13Z"/><path class="cls-10" d="M756.08,621.22a2.29,2.29,0,0,0-.29,3.44c3.06,3.24,6.54,4.72,8.39,3.37s1.47-5.13-.69-9a2.32,2.32,0,0,0-3.38-.76Z"/><path class="cls-10" d="M780,603.64a2.29,2.29,0,0,0-.28,3.44c3.06,3.24,6.54,4.72,8.39,3.36s1.47-5.12-.69-9a2.32,2.32,0,0,0-3.38-.76Z"/><path class="cls-16" d="M338.55,382.81c-.09,1.37-.17,2.73-.23,4.1l-13-.58c-2.45-.12-4.58,2.35-4.64,5.49A206.57,206.57,0,0,0,335,471c1.15,2.93,4,4.5,6.28,3.52L358,467.39l7.22-3.08a4.76,4.76,0,0,0,2.32-6.14,171.48,171.48,0,0,1-11.92-65.76c.05-2.81.17-5.63.36-8.44a5.78,5.78,0,0,0-4.92-6.26l-6.6-.66C341.5,376.73,338.78,379.32,338.55,382.81Z"/><path class="cls-16" d="M347.58,454.3q1.43,4.38,3.08,8.68a1.61,1.61,0,0,1-.74,2.13l-5.59,2.2a1.63,1.63,0,0,1-2-1.13q-1.72-4.5-3.23-9.09a1.63,1.63,0,0,1,.84-2.14l5.73-1.82A1.61,1.61,0,0,1,347.58,454.3Z"/><path class="cls-16" d="M343.07,438.25c.7,3,1.47,5.94,2.31,8.88a1.62,1.62,0,0,1-.93,2.05l-5.77,1.7a1.64,1.64,0,0,1-1.9-1.29q-1.32-4.63-2.41-9.31a1.64,1.64,0,0,1,1-2.06l5.87-1.31A1.59,1.59,0,0,1,343.07,438.25Z"/><path class="cls-16" d="M340,421.88c.43,3,.93,6,1.51,9.05a1.61,1.61,0,0,1-1.11,1.95l-5.89,1.19a1.64,1.64,0,0,1-1.78-1.46q-.9-4.71-1.58-9.47a1.64,1.64,0,0,1,1.21-2l6-.79A1.61,1.61,0,0,1,340,421.88Z"/><path class="cls-16" d="M338.4,405.3q.24,4.59.7,9.15a1.6,1.6,0,0,1-1.27,1.85l-6,.67a1.63,1.63,0,0,1-1.65-1.61q-.48-4.78-.74-9.58a1.64,1.64,0,0,1,1.38-1.85l6-.26A1.62,1.62,0,0,1,338.4,405.3Z"/><path class="cls-16" d="M338.14,394.14c0,1.38,0,2.76,0,4.14a1.17,1.17,0,0,1-1,1.26l-6.82.15a1.18,1.18,0,0,1-1.08-1.27c0-1.44,0-2.89,0-4.34a1.19,1.19,0,0,1,1.07-1.28l6.82.09A1.18,1.18,0,0,1,338.14,394.14Z"/><path class="cls-16" d="M361.3,439.15a7.74,7.74,0,0,1,4.61,14.73c-3.78,1.41-8.11-.86-9.45-5.13S357.39,440.15,361.3,439.15Z"/><path class="cls-16" d="M362.27,442.68a4.06,4.06,0,0,1,2.42,7.74,4.06,4.06,0,0,1-2.42-7.74Z"/><path class="cls-16" d="M355.6,395.13a7.73,7.73,0,0,1,.68,15.4c-4,.39-7.63-2.9-7.82-7.37S351.57,395.09,355.6,395.13Z"/><path class="cls-16" d="M355.64,398.79a4.06,4.06,0,0,1,.35,8.09,4.05,4.05,0,0,1-.35-8.09Z"/><path class="cls-9" d="M845.18,441.72q1-3,1.86-6.11,3.66-1.8,7.29-3.82c3.34-1.83,6.14-6.29,7.06-11.56q1.08-6.11,1.74-12.28c.57-5.31-.89-10.36-3.59-13.05q-2.92-2.92-5.94-5.67,0-8.34-.76-16.69c-.53-5.73-4.93-9.9-9.77-10h0c-.27,0-.54,0-.81,0a8.58,8.58,0,0,0-.87.1l-.13,0a4.19,4.19,0,0,0-3.3,4.77,157.44,157.44,0,0,1-6.29,69.84,4.19,4.19,0,0,0,2.4,5.29l1.7.6,4.2,1.5A4.21,4.21,0,0,0,845.18,441.72Zm3.4-13.66A171.23,171.23,0,0,0,853,396a1,1,0,0,1,1.71-.86q1.51,1.49,3,3c2.11,2.16,3.21,6.13,2.75,10.3-.36,3.22-.8,6.43-1.34,9.63-.68,4.13-2.82,7.66-5.44,9.17-1.23.72-2.47,1.42-3.71,2.1C849.18,429.78,848.35,429,848.58,428.06Z"/><path class="cls-9" d="M841.28,387.65a7.85,7.85,0,0,1-.86-15.63c4.05-.46,7.75,2.85,8,7.41S845.36,387.67,841.28,387.65Z"/><path class="cls-9" d="M841.22,383.94a4.12,4.12,0,0,1-.46-8.21,4.12,4.12,0,0,1,.46,8.21Z"/><path class="cls-9" d="M835.2,432.26A7.86,7.86,0,0,1,838.74,417c4,.69,6.65,4.89,5.61,9.34S839.11,433.41,835.2,432.26Z"/><path class="cls-9" d="M836.18,428.67a4.12,4.12,0,0,1,1.86-8,4.12,4.12,0,0,1-1.86,8Z"/><path class="cls-15" d="M917.28,443.21l.29.06a4.22,4.22,0,0,0,4.78-3.73c0-.38.09-.76.13-1.15a5.22,5.22,0,0,0,5.27-5,5.81,5.81,0,0,0-.18-1.92l.31,0c3.73.27,7-3,7.06-7.33a8.32,8.32,0,0,0-.61-3.22,10.74,10.74,0,0,0,2.39-7.5,10.12,10.12,0,0,0-6.2-9.1c0-.32,0-.64-.06-1-.54-4.42-4.34-7.4-8.21-6.68A7.69,7.69,0,0,0,921,397a4.18,4.18,0,0,0-4.56-2.31l-.29.07A141.19,141.19,0,0,1,917.28,443.21Z"/><path class="cls-17" d="M543.15,200.4q8.34-2.42,17-4.12c104.59-20.34,206,48.55,226.49,153.89S739,557.4,634.41,577.75s-206-48.55-226.49-153.89a194.32,194.32,0,0,1,19.64-129.73"/><path class="cls-17" d="M427.56,294.13A192.2,192.2,0,0,1,543.15,200.4"/><path class="cls-18" d="M483.91,243.81A181.18,181.18,0,0,1,563,207.17c99.21-19.3,195.4,46.05,214.84,146S732.63,549.72,633.42,569s-195.4-46-214.84-146A184.82,184.82,0,0,1,418,355.3"/><path class="cls-19" d="M583.33,212.29c87.35-7.27,168.11,52.76,185.35,141.38,18.48,95-43,186.87-137.31,205.22S445.61,515.11,427.13,420.12a175.27,175.27,0,0,1,21-122.88"/><path class="cls-20" d="M566.81,222.91c89.44-17.4,176.21,41.77,193.8,132.18S720,532.88,630.5,550.28,454.29,508.51,436.7,418.1a167.16,167.16,0,0,1,23.51-122.82"/><path class="cls-21" d="M520.79,605.37q8.38,3,17,5.35l-8.83-.43Z"/><polyline class="cls-22" points="520.72 576.41 520.73 576.41 520.71 576.4"/><line class="cls-22" x1="484.92" y1="565.53" x2="484.92" y2="565.54"/><line class="cls-22" x1="441.99" y1="558.07" x2="443.46" y2="558.96"/><line class="cls-22" x1="520.71" y1="576.4" x2="520.72" y2="576.42"/><line class="cls-22" x1="572.49" y1="592.12" x2="572.49" y2="592.14"/><path class="cls-21" d="M464.89,576.39l.21.16q5.76,4.05,11.76,7.73,5.59,3.45,11.39,6.6,6.27,3.38,12.75,6.39,7.14,3.3,14.49,6.14l.2-1.09,5.1,3q8.38,3,17,5.35l6.57.31-.49,1.25q7.56,1.85,15.26,3.16c4.57.78,9.19,1.43,13.83,1.95q6.22.68,12.5,1c1.81.09,3.63.17,5.44.24l-6.61.63-14.1,1.36-14.86,1.44-16,1.55-14.71,1.42-11.56-9.4-12.53-10.2L488.92,596l-11.07-9L465.14,576.6Z"/><line class="cls-22" x1="484.92" y1="565.53" x2="484.92" y2="565.54"/><path class="cls-21" d="M465.1,576.55q5.76,4.05,11.76,7.73,5.59,3.45,11.39,6.6,6.27,3.38,12.75,6.39,7.14,3.3,14.49,6.14l.2-1.09,5.1,3q8.38,3,17,5.35l6.57.31-.49,1.25q7.56,1.85,15.26,3.16c4.57.78,9.19,1.43,13.83,1.95q6.22.68,12.5,1c1.81.09,3.63.17,5.44.24l9.58-.93-2.66,1-26.76,10.33-11.93,4.61-13.39,5.17-14.68,5.67-13.66,5.28-8.6-12-9.22-12.93-8.43-11.78-7.51-10.53L465.14,576.6Z"/><polyline class="cls-22" points="520.72 576.41 520.73 576.41 520.71 576.4"/><path class="cls-21" d="M476.86,584.28q5.59,3.45,11.39,6.6,6.27,3.38,12.75,6.39,7.14,3.3,14.49,6.14l.2-1.09,5.1,3q8.38,3,17,5.35l6.57.31-.49,1.25q7.56,1.85,15.26,3.16c4.57.78,9.19,1.43,13.83,1.95q6.22.68,12.5,1l-1.17.87-13.23,9.8-21.59,16-12.63,9.35L523.1,664.61l-12.79,9.48-5.6-15-6-16.2L493.14,628l-9.48-25.46L477.85,587Z"/><line class="cls-22" x1="484.92" y1="565.53" x2="484.92" y2="565.54"/><path class="cls-21" d="M501,597.27q7.14,3.3,14.49,6.14l.2-1.09,5.1,3q8.38,3,17,5.35l6.57.31-.49,1.25q7.56,1.85,15.26,3.16c4.57.78,9.19,1.43,13.83,1.95l-2.77,3.25-11.06,13.05-9.66,11.38L527.15,671.4l-12.69,15-11.8,13.92L500.26,682l-2.58-19.56L493.14,628l-2-14.93L488.92,596l-.67-5.09Q494.52,594.26,501,597.27Z"/><line class="cls-22" x1="572.49" y1="592.12" x2="572.49" y2="592.14"/><polyline class="cls-22" points="520.72 576.41 520.73 576.41 520.71 576.4"/><line class="cls-22" x1="484.92" y1="565.53" x2="484.92" y2="565.54"/><path class="cls-21" d="M515.49,603.41l.2-1.09,5.1,3q8.38,3,17,5.35l6.57.31-.49,1.25q7.56,1.85,15.26,3.16l-3.8,6.64-9.59,16.78-8.9,15.56-9.71,17L505.06,710,494.3,728.85l1.11-21.79,2.27-44.58,1-19.62.92-18,1-19.4.42-8.18Q508.14,600.57,515.49,603.41Z"/><line class="cls-22" x1="572.49" y1="592.12" x2="572.49" y2="592.14"/><polyline class="cls-22" points="520.72 576.41 520.73 576.41 520.71 576.4"/><path class="cls-21" d="M515.69,602.32l5.1,3q8.38,3,17,5.35l6.57.31-.49,1.25-4.51,11.35-7.22,18.2-1.08,2.7-8,20.08-8.64,21.75L505.06,710l-20,50.25,10.31-53.23,4.85-25,4.45-23,4.11-21.28.56-2.85,3.73-19.28,2.38-12.24Z"/><polygon class="cls-21" points="520.71 576.4 520.73 576.41 520.72 576.41 520.71 576.4"/><polygon class="cls-21" points="520.71 576.4 520.73 576.41 520.72 576.41 520.71 576.4"/><line class="cls-22" x1="532.54" y1="641.96" x2="508.99" y2="634.81"/><path class="cls-23" d="M515.69,602.32l5.1,3q-2.65-1-5.3-2Z"/><path class="cls-23" d="M544.38,611l-.49,1.25q-3-.75-6.08-1.56Z"/><path class="cls-23" d="M590.92,618.65l9.58-.93-2.66,1C595.52,618.74,593.22,618.71,590.92,618.65Z"/><polyline class="cls-24" points="520.72 576.41 520.73 576.41 520.71 576.4"/><path class="cls-4" d="M361.58,632.16q5.07,5.07,10.36,9.9c1.61,1.46,2.17,3.49,1.23,4.55l-4.9,5.52c-.94,1-.33,3.13,1.39,4.62q6.31,5.47,12.92,10.62c1.79,1.39,3.95,1.59,4.8.46l4.46-5.88c.86-1.12,3-1,4.71.33q5.76,4.26,11.71,8.25c1.82,1.22,3.93,1.22,4.7,0l56.54-86.7a2.59,2.59,0,0,0-.74-3.56q-6-4-11.61-8.39-4.23-3.3-8.3-6.82-5.4-4.7-10.48-9.76a2.59,2.59,0,0,0-3.64,0q-37.05,36.13-74.09,72.28C359.62,628.55,360,630.62,361.58,632.16Zm96.13-44.39c1.14.8,2.29,1.6,3.45,2.38l-3.56,5.26c-1.19-.8-2.38-1.62-3.55-2.45Zm-5.35,7.58q1.8,1.26,3.6,2.48c-1.18,1.76-2.37,3.51-3.55,5.26-1.24-.84-2.48-1.69-3.7-2.55ZM447,602.93q1.86,1.3,3.75,2.58c-1.18,1.76-2.37,3.51-3.55,5.26q-2-1.31-3.85-2.65Zm-5.34,7.58c1.29.91,2.59,1.8,3.9,2.69L442,618.46q-2-1.37-4-2.76Zm-5.34,7.58q2,1.41,4.05,2.79-1.78,2.63-3.56,5.26c-1.39-.94-2.78-1.9-4.15-2.87ZM431,625.66c1.39,1,2.78,2,4.19,2.9l-3.55,5.26c-1.45-1-2.88-2-4.3-3Zm-5.34,7.58q2.14,1.53,4.34,3l-3.56,5.26q-2.24-1.51-4.44-3.07Zm-5.35,7.58q2.24,1.57,4.5,3.1l-3.56,5.26q-2.31-1.56-4.59-3.17ZM415,648.4q2.31,1.62,4.64,3.2c-1.18,1.76-2.37,3.51-3.55,5.26q-2.38-1.61-4.74-3.27ZM409.63,656c1.59,1.12,3.18,2.22,4.79,3.31-1.18,1.75-2.37,3.5-3.55,5.26q-2.47-1.66-4.9-3.38Zm43.27-71.7c1.12.84,2.25,1.66,3.38,2.48l-3.7,5.16q-1.75-1.26-3.48-2.55Zm-5.55,7.43q1.75,1.31,3.53,2.58l-3.7,5.16c-1.22-.87-2.43-1.76-3.63-2.65C444.82,595.1,446.09,593.41,447.35,591.71Zm-5.55,7.43c1.22.91,2.44,1.8,3.68,2.69l-3.7,5.16q-1.9-1.37-3.78-2.76C439.27,602.53,440.54,600.84,441.8,599.14Zm-5.55,7.43q1.9,1.41,3.82,2.79l-3.7,5.16c-1.31-.94-2.62-1.9-3.91-2.86ZM430.71,614c1.31,1,2.63,1.94,4,2.9l-3.7,5.16c-1.36-1-2.72-2-4.06-3Zm-5.55,7.43q2,1.52,4.11,3l-3.7,5.16q-2.13-1.51-4.21-3.08Zm-5.55,7.42c1.41,1.06,2.83,2.09,4.25,3.12l-3.69,5.16q-2.21-1.57-4.36-3.19C417.08,632.25,418.34,630.55,419.61,628.85Zm-5.55,7.43c1.46,1.09,2.92,2.16,4.4,3.22l-3.7,5.16q-2.26-1.62-4.5-3.29Zm-5.55,7.43c1.51,1.13,3,2.24,4.55,3.33l-3.7,5.16q-2.34-1.68-4.65-3.4ZM403,651.14q2.32,1.74,4.7,3.44l-3.7,5.15q-2.41-1.72-4.8-3.5Zm39.45-75.44a1.11,1.11,0,0,1,1.56-.08c1.25,1,2.52,2.09,3.79,3.11a1.11,1.11,0,0,1,.22,1.55l-1.61,2a1.11,1.11,0,0,1-1.57.11c-1.31-1-2.6-2.11-3.88-3.18a1.11,1.11,0,0,1-.19-1.56Zm-5.48,6.46a1.13,1.13,0,0,1,1.59-.06c1.3,1.1,2.62,2.17,3.94,3.24a1.14,1.14,0,0,1,.26,1.57l-1.62,2a1.15,1.15,0,0,1-1.61.09q-2-1.63-4-3.31a1.14,1.14,0,0,1-.23-1.59Zm-5.49,6.45a1.17,1.17,0,0,1,1.63,0q2,1.71,4.09,3.36a1.16,1.16,0,0,1,.29,1.61l-1.62,2a1.16,1.16,0,0,1-1.64.06q-2.1-1.7-4.17-3.43a1.15,1.15,0,0,1-.26-1.62ZM426,595.06a1.19,1.19,0,0,1,1.66,0q2.1,1.77,4.24,3.49a1.18,1.18,0,0,1,.32,1.63l-1.61,2a1.2,1.2,0,0,1-1.68,0c-1.45-1.17-2.9-2.36-4.33-3.56a1.2,1.2,0,0,1-.29-1.65Zm-5.49,6.45a1.23,1.23,0,0,1,1.7,0c1.45,1.22,2.91,2.43,4.39,3.61a1.22,1.22,0,0,1,.36,1.66l-1.62,2a1.23,1.23,0,0,1-1.71,0c-1.51-1.21-3-2.43-4.48-3.68a1.22,1.22,0,0,1-.32-1.68ZM415,608a1.25,1.25,0,0,1,1.73.06c1.5,1.27,3,2.51,4.55,3.74a1.24,1.24,0,0,1,.39,1.68l-1.62,2a1.25,1.25,0,0,1-1.74,0q-2.34-1.87-4.63-3.81a1.25,1.25,0,0,1-.36-1.7Zm-5.48,6.46a1.27,1.27,0,0,1,1.76.09q2.33,1.95,4.7,3.85a1.3,1.3,0,0,1,.43,1.72l-1.62,2a1.28,1.28,0,0,1-1.78-.05q-2.42-1.93-4.78-3.92a1.29,1.29,0,0,1-.4-1.74ZM404,620.87a1.31,1.31,0,0,1,1.8.12q2.4,2,4.84,4a1.3,1.3,0,0,1,.47,1.74l-1.62,2a1.31,1.31,0,0,1-1.81-.07q-2.49-2-4.93-4a1.32,1.32,0,0,1-.43-1.77Zm-5.48,6.45a1.34,1.34,0,0,1,1.83.15q2.47,2.07,5,4.1a1.33,1.33,0,0,1,.5,1.77l-1.61,2a1.37,1.37,0,0,1-1.86-.11c-1.7-1.37-3.4-2.76-5.07-4.17a1.35,1.35,0,0,1-.47-1.8ZM393,633.77c.38-.45,1.22-.37,1.87.18q2.55,2.14,5.14,4.23c.66.53.9,1.33.54,1.79L399,642c-.37.46-1.21.41-1.89-.14q-2.64-2.11-5.23-4.29c-.66-.56-.88-1.38-.49-1.83Zm-5.49,6.46c.39-.46,1.24-.36,1.91.2,1.74,1.47,3.51,2.92,5.29,4.35.68.55.94,1.36.57,1.83l-1.62,2c-.36.47-1.23.4-1.92-.16-1.81-1.45-3.6-2.93-5.38-4.42-.68-.57-.91-1.4-.53-1.85Zm-5.48,6.45c.38-.45,1.25-.35,1.93.23q2.7,2.26,5.45,4.48c.7.56,1,1.38.6,1.85l-1.61,2c-.37.46-1.25.38-2-.2q-2.79-2.24-5.53-4.54c-.7-.59-.95-1.43-.57-1.88Zm-5.49,6.45c.39-.45,1.27-.33,2,.26q2.77,2.34,5.6,4.6c.72.58,1,1.42.64,1.88l-1.62,2c-.37.46-1.26.37-2-.22-1.91-1.54-3.8-3.09-5.68-4.67-.72-.6-1-1.46-.6-1.91Zm57.87-84.31c1,.95,2.05,1.9,3.08,2.83q-2.11,2.37-4.25,4.72c-1.07-1-2.13-1.94-3.17-2.92Q432.27,571.13,434.45,568.82Zm-6.34,6.76c1.06,1,2.13,2,3.21,3l-4.25,4.71c-1.11-1-2.22-2-3.31-3Zm-6.35,6.76c1.11,1,2.22,2.07,3.35,3.08q-2.13,2.36-4.25,4.72c-1.16-1-2.31-2.1-3.44-3.17Zm-6.34,6.76q1.72,1.62,3.48,3.21L414.64,597c-1.2-1.09-2.39-2.18-3.57-3.29Zm-6.35,6.76q1.79,1.68,3.62,3.33l-4.26,4.71c-1.24-1.12-2.48-2.26-3.7-3.41Zm-6.34,6.76q1.84,1.75,3.74,3.45l-4.25,4.72q-1.94-1.75-3.84-3.54Zm-6.35,6.76c1.28,1.21,2.58,2.4,3.88,3.58L396,617.67c-1.34-1.21-2.66-2.42-4-3.66ZM390,616.15q2,1.86,4,3.69l-4.25,4.71q-2.07-1.86-4.11-3.77Zm-6.35,6.76c1.37,1.28,2.75,2.56,4.15,3.81l-4.26,4.72q-2.13-1.94-4.23-3.9Zm-6.34,6.76q2.11,2,4.28,3.94l-4.26,4.71c-1.47-1.33-2.92-2.67-4.37-4Zm52.83-65c1,1,2,2,3,2.93l-4.38,4.59q-1.56-1.49-3.09-3Zm-6.53,6.59c1,1,2.08,2,3.13,3.05l-4.38,4.59c-1.08-1-2.16-2.08-3.22-3.13Zm-6.53,6.58c1.08,1.07,2.16,2.13,3.26,3.18L416,585.63c-1.13-1.08-2.25-2.16-3.35-3.26Zm-6.53,6.58q1.68,1.68,3.39,3.31l-4.38,4.59q-1.75-1.68-3.48-3.39ZM404.06,591c1.16,1.15,2.34,2.29,3.52,3.43l-4.38,4.59c-1.21-1.16-2.42-2.33-3.61-3.51Zm-6.53,6.58c1.21,1.2,2.42,2.38,3.65,3.55l-4.38,4.6c-1.26-1.2-2.51-2.42-3.74-3.64ZM391,604.19q1.88,1.86,3.78,3.68l-4.38,4.6q-1.95-1.86-3.87-3.77Zm-6.53,6.59c1.29,1.28,2.6,2.55,3.91,3.8l-4.38,4.6c-1.34-1.29-2.68-2.58-4-3.89Zm-6.53,6.58c1.34,1.33,2.68,2.64,4,3.93l-4.38,4.6c-1.39-1.33-2.76-2.67-4.13-4Zm-6.53,6.58q2.07,2.05,4.17,4.06l-4.38,4.6q-2.15-2.05-4.26-4.15Z"/><circle class="cls-25" cx="600.24" cy="92.03" r="44.49"/><path class="cls-21" d="M560.3,36.84l76.17-1.07-1.89,43.56h-.06l-.35,79.31c-2.47-.41-5-.77-7.46-1.08l.34-78.1H627l.09-1.06v-.47h0l2.62-36.58-30.08.57,4.44,37.7h0L603.78,156c-2.62,0-5.25,0-7.87,0l.34-76h-.07L593.8,42.31l-26.69.27,5.77,37.75-.35,77.57c-2.45.34-4.89.71-7.34,1.14l.36-78.59Z"/><path class="cls-21" d="M652.69,87l21.56.09-.36,82.19c-2-.77-4-1.48-6-2.17l.33-75.26-10.18,0-.32,72.1q-2.68-.76-5.39-1.47Z"/><path class="cls-21" d="M682.13,111.49l20.78.1-.29,64.5-5.79,0,.26-59.72-9.58,0-.26,58.55c-1.78-.83-3.57-1.62-5.39-2.39Z"/><path class="cls-21" d="M524.62,86.42l21.57.1-.34,76.83-5.4,1.55.33-73.61-10.19-.05-.35,77c-2,.72-4,1.48-6,2.27Z"/><path class="cls-21" d="M516.52,110.76l-.27,63.12-3,1.36h-2.39l.27-59.72-9.6,0-.25,59.71-5.79,0,.27-64.52Z"/><path class="cls-26" d="M545.85,163.35q-2.73.74-5.4,1.55"/><path class="cls-27" d="M569.83,357.27h-9.58a2.62,2.62,0,0,0-2.62,2.62v101.6a2.63,2.63,0,0,1-3.77,2.36,17,17,0,0,1-4.49-3.16,10.74,10.74,0,0,1-3.51-7.95l.82-55.79a40,40,0,0,0-7.85-24.59c-5.92-8-13.4-13.06-22.08-13.06-8.92,0-18,1.22-21,8.37-1.73,4.11-1.26,7.43,3.65,6.23a40.92,40.92,0,0,1,9.69-1.13c5.23,0,12,2.28,15.1,5.64,3.55,3.86,4.7,5.77,4.26,13-1,15.63-14.53,22.9-28.74,31-1.34.76-2.85,1.12-3.87,0l-8.12-9.11a2.6,2.6,0,0,1,.22-3.69c3.37-2.95,13.42-6.73,18-10.68,7-4.7,9.51-10.49,9.51-12.84,0-3-1.86-4.54-5.58-4.54q-2.47,0-9.81,4.34t-10.44,4.34q-4.75,0-8.16-4.76a16.49,16.49,0,0,1-3.41-9.71q0-13.21,10.95-20.87Q499,348,512.59,348q20.48,0,30.63,19.24a2.61,2.61,0,0,0,4.91-1.25V333.48a2.61,2.61,0,0,1,4.43-1.88l.66.64a2.58,2.58,0,0,1,.71,2.55L553.6,336a2.37,2.37,0,0,0-.09.75q.15,10.36,9.29,10.36h2a2.6,2.6,0,0,1,1.83.75l5,4.89A2.61,2.61,0,0,1,569.83,357.27Z"/><path class="cls-27" d="M676.34,325.4a2.62,2.62,0,0,1-3.61,3.74,170.65,170.65,0,0,0-15.92-10.71,59.3,59.3,0,0,0-28.93-7.85q-10.53,0-22.93,8.05-13.85,9.11-13.85,18.81,0,.38,3.44,8a2.63,2.63,0,0,0,2.38,1.54h16a2.61,2.61,0,0,1,1.85.77l5.31,5.31a2.61,2.61,0,0,1-1.85,4.46h-17.1a2.61,2.61,0,0,0-2.62,2.61V462.53a2.61,2.61,0,0,1-4.44,1.87l-5.1-5a2.62,2.62,0,0,1-.79-1.87V360.09a2.61,2.61,0,0,0-2.61-2.61H558.11a2.6,2.6,0,0,1-1.86-.78L551,351.39a2.62,2.62,0,0,1,1.87-4.45h30.16a2.62,2.62,0,0,0,1.89-4.42q-6-6.43-6.05-10,0-13,13.43-23.56,12.4-9.71,26-9.71,16.53,0,37,10.54Q669.67,317.1,676.34,325.4Z"/><path class="cls-27" d="M713.24,357.44H601.81a2.61,2.61,0,0,1-1.87-.79l-5.2-5.3a2.62,2.62,0,0,1,1.87-4.45H707.73a2.62,2.62,0,0,1,1.81.73l5.51,5.31A2.61,2.61,0,0,1,713.24,357.44ZM708.35,404c0,13.51-4.81,23.83-13.21,31.54a37.49,37.49,0,0,1-26,9.92q-38.79,0-61.33-77a2.62,2.62,0,0,1,3.51-3.17h0a2.63,2.63,0,0,1,1.41,1.41q12.52,29.76,19.83,39.92,15.51,21.69,37.2,21.69,25,0,28.72-18.18a35.12,35.12,0,0,0,.62-6.82q0-15.92-12.19-21.28a15.07,15.07,0,0,0-4.9-1.25,2.61,2.61,0,0,0-2.52,3.74A17.5,17.5,0,0,1,681.3,393a12.54,12.54,0,0,1-5,9.92,17.58,17.58,0,0,1-11.16,3.72q-8.05,0-12.71-5.27t-4.85-13.54q-.42-10.74,8.06-16.94,7.43-5.37,18.39-5.37a28.38,28.38,0,0,1,7.64,1C699.07,371.35,708.35,384,708.35,404Z"/><path class="cls-9" d="M561.4,223c-.48.1-.95.2-1.42.32q-.78-.52-1.59-1a3.84,3.84,0,0,0-3.11-.09q-1.34.48-2.64,1a3.8,3.8,0,0,0-2.19,2.2q-.24.91-.45,1.83a37.44,37.44,0,0,0-3.23,2.05,2.4,2.4,0,0,0-.87,3.07h0a.83.83,0,0,0,.09.16,1,1,0,0,0,.12.16l0,0a1,1,0,0,0,1.32.11,36.05,36.05,0,0,1,14.61-6.68,1,1,0,0,0,.78-1.08l-.07-.41-.18-1A1,1,0,0,0,561.4,223Zm-3.1.87a40.28,40.28,0,0,0-6.89,2.76c-.2.11-.42,0-.36-.24s.17-.63.26-.94a3,3,0,0,1,1.73-1.72c.68-.29,1.37-.57,2.07-.82a3,3,0,0,1,2.44,0c.29.16.57.33.84.5A.23.23,0,0,1,558.3,223.87Z"/><path class="cls-9" d="M551.09,229.92a1.8,1.8,0,0,1-3,2,1.79,1.79,0,0,1,3-2Z"/><path class="cls-9" d="M550.36,230.35a.93.93,0,0,1-.32,1.25.94.94,0,0,1-1.27-.22.95.95,0,0,1,1.59-1Z"/><path class="cls-9" d="M560.65,226.06a1.8,1.8,0,0,1-3.43,1,1.79,1.79,0,0,1,3.43-1Z"/><path class="cls-9" d="M559.83,226.27a.95.95,0,0,1-1.81.54.95.95,0,0,1,1.81-.54Z"/><path class="cls-4" d="M579.37,211.27c-.39,0-.77,0-1.15,0-.34-.35-.69-.69-1.05-1a3,3,0,0,0-2.36-.55c-.73.1-1.46.23-2.18.38a2.92,2.92,0,0,0-2,1.34c-.23.44-.44.88-.64,1.33-.94.3-1.88.66-2.79,1.05A1.88,1.88,0,0,0,566,216h0c0,.05,0,.09,0,.14l.07.14v0a.75.75,0,0,0,1,.3,28.21,28.21,0,0,1,12.23-2.82.76.76,0,0,0,.77-.7v-.33l0-.79A.74.74,0,0,0,579.37,211.27Zm-2.52.18a30.57,30.57,0,0,0-5.7,1c-.16.05-.31-.1-.24-.24s.23-.46.35-.68a2.32,2.32,0,0,1,1.6-1c.56-.12,1.14-.22,1.71-.31a2.32,2.32,0,0,1,1.86.41c.19.17.38.34.56.52S577,211.43,576.85,211.45Z"/><path class="cls-4" d="M570.39,214.94a1.41,1.41,0,0,1-2.61,1,1.4,1.4,0,0,1,2.61-1Z"/><path class="cls-4" d="M569.76,215.16a.72.72,0,0,1-.43.9.73.73,0,0,1-.94-.37.74.74,0,0,1,1.37-.53Z"/><path class="cls-4" d="M578.31,213.49a1.41,1.41,0,0,1-2.79.25,1.4,1.4,0,0,1,2.79-.25Z"/><path class="cls-4" d="M577.65,213.52a.72.72,0,0,1-.67.75.73.73,0,0,1-.8-.62.74.74,0,0,1,1.47-.13Z"/><path class="cls-28" d="M480.78,245.05c-.32.21-.63.43-.94.66-.47-.1-1-.19-1.45-.26a2.91,2.91,0,0,0-2.26.86c-.55.5-1.08,1-1.59,1.54a3,3,0,0,0-.93,2.24c.06.49.14,1,.22,1.45a29.9,29.9,0,0,0-1.72,2.45,1.87,1.87,0,0,0,.29,2.48h0l.11.08.13.09h0a.75.75,0,0,0,1-.32,28.19,28.19,0,0,1,8.54-9.18.76.76,0,0,0,.25-1l-.18-.27-.43-.67A.74.74,0,0,0,480.78,245.05Zm-2,1.56a30.48,30.48,0,0,0-4.15,4,.18.18,0,0,1-.33-.06c0-.25-.07-.51-.1-.76a2.33,2.33,0,0,1,.75-1.76c.4-.41.81-.82,1.24-1.21a2.31,2.31,0,0,1,1.77-.7l.76.11A.19.19,0,0,1,478.8,246.61Z"/><path class="cls-28" d="M475.4,253.12a1.4,1.4,0,0,1-1.59,2.3,1.4,1.4,0,0,1,1.59-2.3Z"/><path class="cls-28" d="M475,253.65a.74.74,0,0,1-.84,1.21.74.74,0,0,1,.84-1.21Z"/><path class="cls-28" d="M481.15,247.48a1.41,1.41,0,0,1-2.17,1.77,1.4,1.4,0,0,1,2.17-1.77Z"/><path class="cls-28" d="M480.62,247.88a.74.74,0,0,1-1.14.93.71.71,0,0,1,.12-1A.72.72,0,0,1,480.62,247.88Z"/></svg>